<svg width="15" height="16" viewBox="0 0 15 16" fill="none" xmlns="http://www.w3.org/2000/svg">
<path d="M4.08236 1.4715C2.25033 1.4715 0.759582 2.96193 0.759582 4.79427V11.6296C0.759582 13.4616 2.25033 14.9523 4.08236 14.9523H10.9176C12.75 14.9523 14.2404 13.4616 14.2404 11.6296V4.79427C14.2404 2.96193 12.75 1.4715 10.9176 1.4715H4.08236ZM10.9176 15.7119H4.08236C1.83139 15.7119 0 13.8805 0 11.6296V4.79427C0 2.54331 1.83139 0.711914 4.08236 0.711914H10.9176C13.1686 0.711914 15 2.54331 15 4.79427V11.6296C15 13.8805 13.1686 15.7119 10.9176 15.7119" fill="black"/>
<path d="M7.50003 4.31958C5.35388 4.31958 3.60773 6.06574 3.60773 8.21189C3.60773 10.3584 5.35388 12.1042 7.50003 12.1042C9.64618 12.1042 11.3923 10.3584 11.3923 8.21189C11.3923 6.06574 9.64618 4.31958 7.50003 4.31958ZM7.50003 12.8638C4.93494 12.8638 2.84814 10.777 2.84814 8.21189C2.84814 5.6468 4.93494 3.56 7.50003 3.56C10.0651 3.56 12.1519 5.6468 12.1519 8.21189C12.1519 10.777 10.0651 12.8638 7.50003 12.8638Z" fill="black"/>
<path d="M12.8165 3.78561C12.8165 4.17235 12.503 4.48584 12.1162 4.48584C11.7295 4.48584 11.416 4.17235 11.416 3.78561C11.416 3.39888 11.7295 3.08538 12.1162 3.08538C12.503 3.08538 12.8165 3.39888 12.8165 3.78561Z" fill="black"/>
</svg>
