<svg width="200" height="200" viewBox="0 0 200 200" fill="none" xmlns="http://www.w3.org/2000/svg">
<path d="M90.0605 189.62C82.7755 188.193 75.5398 185.879 68.5009 182.63C47.1382 172.737 31.19 155.853 22.2314 135.918" stroke="#D89EEF" stroke-miterlimit="10"/>
<path d="M69.8786 179.677C46.3008 168.75 29.6143 149.011 21.9355 126.172" stroke="#D89EEF" stroke-miterlimit="10"/>
<path d="M174.724 35.9463C185.454 47.6613 192.887 61.8867 196.382 77.1458" stroke="#D89EEF" stroke-miterlimit="10"/>
<path d="M27.3505 130.405C28.7288 133.801 30.3531 137.148 32.1744 140.348C46.1536 165.058 71.8972 182.483 102.317 184.55C127.273 186.273 150.506 177.265 167.537 161.514C168.62 160.529 169.703 159.496 170.737 158.413C172.263 156.838 173.739 155.213 175.167 153.54C181.763 145.664 187.079 136.558 190.573 126.615C193.182 119.281 194.856 111.454 195.397 103.283C195.889 96.2443 195.496 89.3531 194.364 82.708C194.314 82.3142 194.216 81.9204 194.167 81.5266C192.592 72.9127 189.737 64.7417 185.799 57.1614C177.923 41.9515 165.667 29.3012 150.604 20.9334C139.726 14.879 127.421 11.0888 114.18 10.2028C84.3013 8.18465 56.9334 21.3764 39.6562 43.2313C31.8298 53.1251 26.0707 64.7909 23.1174 77.638C22.0837 82.1173 21.3946 86.7443 21.05 91.4697C20.164 105.203 22.4775 118.444 27.3505 130.405Z" fill="url(#paint0_linear_416_1086)"/>
<path d="M104.63 145.812L45.3661 158.413C43.8402 156.837 42.3635 155.213 40.936 153.54C34.3402 145.664 29.0241 136.558 25.5293 126.615C22.9205 119.28 21.2469 111.454 20.7054 103.283C20.2132 96.2442 20.607 89.353 21.7391 82.7079C21.7883 82.3141 21.8868 81.9203 21.936 81.5265C27.3505 80.8374 32.7158 80.0991 38.1303 79.41C39.9023 79.1638 41.7236 78.9669 43.4956 79.3115C45.2676 79.6561 46.9904 80.6897 47.7288 82.3633C49.0086 85.3167 46.4982 88.6638 43.4956 89.8452C40.5422 91.0265 37.1951 90.7804 34.0448 91.3219C30.8946 91.8141 27.4982 93.4877 26.7106 96.5887C25.7754 100.28 29.3687 103.923 33.1588 104.464C36.949 105.006 40.6899 103.381 44.1355 101.757C49.5992 99.1483 55.0137 96.3918 60.7728 94.5214C66.5319 92.6509 72.734 91.6664 78.6899 92.7986C88.5345 94.669 96.9516 102.594 99.4127 112.291C101.874 121.988 98.1822 133.014 90.3557 139.265C93.7521 138.428 97.493 138.97 100.643 140.545C102.711 141.529 104.729 143.449 104.63 145.812Z" fill="white"/>
<path d="M82.5295 32.3531C80.3145 33.6329 77.6565 33.9774 75.0969 34.2728C70.3715 34.8142 65.6953 35.3557 60.9699 35.8479C59.5425 35.9956 58.0658 36.1925 56.786 36.9308C55.5554 37.6692 54.6202 39.1458 54.9647 40.5733C55.5062 42.7391 58.4596 43.1821 60.6746 42.8376C62.8896 42.493 65.4984 41.9515 67.1228 43.5267C68.8456 45.151 68.1565 48.2028 66.3844 49.778C64.6124 51.3531 62.1513 51.7961 59.7886 52.1899C49.944 53.8635 40.0994 55.537 30.2549 57.1614C38.1305 41.9515 50.387 29.3013 65.4492 20.9334C69.1901 20.5888 72.9803 20.5888 76.7704 20.835C78.6409 20.9334 80.5606 21.1303 82.2342 21.9179C83.957 22.7054 85.4337 24.1329 85.8275 25.9541C86.4181 28.4645 84.7445 31.0241 82.5295 32.3531Z" fill="white"/>
<path d="M188.753 130.406C187.719 132.917 186.587 135.378 185.357 137.74C184.914 138.626 184.421 139.463 183.978 140.3C183.831 140.546 183.683 140.792 183.535 141.038C172.559 159.94 154.691 174.51 133.082 181.007C131.851 181.352 130.621 181.696 129.39 182.041C124.37 183.321 119.152 184.158 113.787 184.502C90.652 186.077 68.9939 178.497 52.3566 164.813C51.3722 164.025 50.4369 163.189 49.4525 162.352C49.1571 162.057 48.8126 161.761 48.5172 161.515C45.81 159.005 43.2996 156.347 40.8877 153.541L188.753 130.406Z" fill="#C193EC"/>
<path d="M185.357 137.74C184.914 138.626 184.422 139.463 183.979 140.3C183.831 140.546 183.684 140.792 183.536 141.038L147.948 147.486L133.083 181.007C131.852 181.352 130.622 181.696 129.391 182.041L144.404 148.175L52.3573 164.862C51.3728 164.074 50.4376 163.238 49.4531 162.401L185.357 137.74Z" fill="#DDEEFF"/>
<path d="M157.884 43.5915C159.754 41.721 160.837 39.3583 161.034 36.9956C158.622 37.1925 156.26 38.2262 154.389 40.0966C152.519 41.9671 151.485 44.3298 151.288 46.7417C153.602 46.5448 156.013 45.4619 157.884 43.5915Z" fill="#C193EC"/>
<path d="M164.972 50.6795C167.138 48.5136 169.895 47.2831 172.602 47.0862C172.454 44.5266 171.421 42.0162 169.501 40.0473C167.532 38.0784 165.022 37.0447 162.462 36.9463C162.265 39.6535 161.084 42.41 158.869 44.5758C156.703 46.7416 153.947 47.9722 151.239 48.1691C151.387 50.7287 152.421 53.239 154.34 55.208C156.309 57.1769 158.82 58.2105 161.379 58.309C161.625 55.6017 162.807 52.8453 164.972 50.6795Z" fill="#C193EC"/>
<path d="M165.665 51.5511C167.535 49.6807 169.898 48.5978 172.261 48.4009C172.064 50.8128 171.03 53.1755 169.16 55.046C167.289 56.9164 164.927 57.9501 162.515 58.147C162.712 55.7843 163.794 53.4216 165.665 51.5511Z" fill="#C193EC"/>
<path d="M50.8778 121.545L50.1395 118.837L42.6084 120.905L42.953 122.037L50.8778 121.545Z" fill="#C193EC"/>
<path d="M50.417 114.437L40.1309 117.316L40.7678 119.592L51.054 116.712L50.417 114.437Z" fill="#C193EC"/>
<path d="M51.0239 116.721L50.1379 118.838L42.6068 120.905L40.7363 119.576L51.0239 116.721Z" fill="#C193EC"/>
<path d="M58.0647 58.7365C54.7668 49.9748 49.2538 45.6432 43.5932 43.7235C49.2046 47.3168 55.0129 54.0603 56.145 64.7909C57.6709 79.0655 49.6476 88.1717 49.6476 88.1717C49.6476 88.1717 58.0647 74.1432 52.6994 58.6872C52.1579 57.1121 51.4688 55.6354 50.7797 54.3556C45.759 45.2494 35.0284 40.8686 24.987 43.6251C14.9947 46.4308 8.0543 55.7831 8.54653 66.1691C8.59575 67.6458 8.79264 69.2209 9.1372 70.8945C12.5336 86.8919 27.0543 94.5215 27.0543 94.5215C27.0543 94.5215 15.4377 90.9282 9.33409 77.9334C4.75637 68.1872 6.23306 59.3764 9.1372 53.3712C5.29782 57.9489 2.83668 64.4955 4.55948 73.7494C8.94031 97.081 34.2408 100.231 40.8859 115.343L44.7745 114.26L48.6631 113.177C46.4481 96.7365 66.4326 80.936 58.0647 58.7365ZM45.9559 58.7857C46.3989 58.6872 46.8419 58.9334 46.9403 59.3271C47.0388 59.7701 46.7927 60.2132 46.3989 60.3116C46.0051 60.41 45.5129 60.1639 45.4144 59.7701C45.2668 59.3764 45.5129 58.9334 45.9559 58.7857ZM48.2201 66.8582C48.6631 66.7598 49.1061 67.0059 49.2046 67.3997C49.303 67.8427 49.0569 68.2857 48.6631 68.3841C48.2201 68.4826 47.7771 68.2365 47.6787 67.8427C47.531 67.4489 47.7771 67.0059 48.2201 66.8582ZM41.7227 55.6354C42.1657 55.537 42.6087 55.7831 42.7072 56.1769C42.8056 56.6199 42.5595 57.0629 42.1657 57.1613C41.7227 57.2598 41.2797 57.0137 41.1813 56.6199C41.0336 56.1769 41.2797 55.7339 41.7227 55.6354ZM43.987 63.708C44.43 63.6095 44.873 63.8556 44.9714 64.2494C45.0699 64.6924 44.8237 65.1354 44.43 65.2339C43.987 65.3323 43.544 65.0862 43.4455 64.6924C43.2978 64.2986 43.544 63.8064 43.987 63.708ZM46.2512 71.7805C46.6942 71.6821 47.1372 71.9282 47.2357 72.322C47.3341 72.765 47.088 73.208 46.6942 73.3064C46.2512 73.4049 45.8082 73.1587 45.7098 72.765C45.5621 72.3712 45.8082 71.9282 46.2512 71.7805ZM17.6527 77.1458C17.2097 77.2442 16.7667 76.9981 16.6683 76.6043C16.5698 76.1613 16.816 75.7183 17.2097 75.6199C17.6528 75.5214 18.0958 75.7676 18.1942 76.1613C18.2926 76.5551 18.0465 76.9981 17.6527 77.1458ZM15.3885 69.024C14.9455 69.1225 14.5025 68.8764 14.404 68.4826C14.3056 68.0888 14.5517 67.5966 14.9455 67.4981C15.3885 67.3997 15.8315 67.6458 15.93 68.0396C16.0284 68.4334 15.7823 68.9256 15.3885 69.024ZM21.8859 80.2961C21.4429 80.3945 20.9999 80.1484 20.9015 79.7546C20.803 79.3116 21.0491 78.8686 21.4429 78.7702C21.8367 78.6717 22.3289 78.9178 22.4274 79.3116C22.575 79.7054 22.3289 80.1484 21.8859 80.2961ZM19.6217 72.2235C19.1787 72.322 18.7357 72.0758 18.6372 71.6821C18.5388 71.2391 18.7849 70.7961 19.1787 70.6976C19.5724 70.5992 20.0647 70.8453 20.1631 71.2391C20.3108 71.6328 20.0647 72.0758 19.6217 72.2235ZM17.3574 64.151C16.9144 64.2494 16.4714 64.0033 16.373 63.6095C16.2745 63.1665 16.5206 62.7235 16.9144 62.6251C17.3574 62.5266 17.8004 62.7727 17.8989 63.1665C18.0465 63.5603 17.8004 64.0033 17.3574 64.151ZM31.2382 54.208C31.6813 54.1095 32.1243 54.3556 32.2227 54.7494C32.3211 55.1924 32.075 55.6354 31.6813 55.7339C31.2382 55.8323 30.7952 55.5862 30.6968 55.1924C30.5491 54.7494 30.7952 54.3064 31.2382 54.208ZM33.5025 62.2805C33.9455 62.1821 34.3885 62.4282 34.487 62.822C34.5854 63.265 34.3393 63.708 33.9455 63.8064C33.5025 63.9049 33.0595 63.6587 32.961 63.265C32.8134 62.8712 33.0595 62.379 33.5025 62.2805ZM35.7667 70.353C36.2098 70.2546 36.6528 70.5007 36.7512 70.8945C36.8497 71.3375 36.6035 71.7805 36.2098 71.879C35.7667 71.9774 35.3237 71.7313 35.2253 71.3375C35.0776 70.9437 35.3237 70.5007 35.7667 70.353ZM38.031 78.4256C38.474 78.3271 38.917 78.5733 39.0155 78.967C39.1139 79.4101 38.8678 79.8531 38.474 79.9515C38.031 80.0499 37.588 79.8038 37.4895 79.41C37.3419 79.0163 37.588 78.5733 38.031 78.4256ZM27.0543 51.0085C27.4481 50.91 27.8911 51.1561 27.9895 51.5992C28.088 52.0422 27.8911 52.4359 27.4973 52.5836C27.1035 52.6821 26.6605 52.4359 26.5621 51.9929C26.4144 51.5992 26.6605 51.1561 27.0543 51.0085ZM29.3186 59.1302C29.7123 59.0318 30.1553 59.2779 30.2538 59.7209C30.3522 60.1147 30.1553 60.5577 29.7616 60.7054C29.3678 60.8038 28.9248 60.5577 28.8263 60.1147C28.6787 59.6717 28.9248 59.2287 29.3186 59.1302ZM31.5828 67.2028C31.9766 67.1043 32.4196 67.3505 32.518 67.7935C32.6165 68.2365 32.4196 68.6303 32.0258 68.7779C31.632 68.8764 31.189 68.6303 31.0906 68.1872C30.9921 67.7442 31.189 67.3505 31.5828 67.2028ZM33.8471 75.2753C34.2408 75.1769 34.6838 75.423 34.7823 75.866C34.8807 76.2598 34.6838 76.7028 34.2901 76.8505C33.8963 76.9489 33.4533 76.7028 33.3548 76.2598C33.2564 75.8168 33.4533 75.423 33.8471 75.2753ZM36.1113 83.3479C36.5051 83.2494 36.9481 83.4955 37.0465 83.9386C37.145 84.3816 36.9481 84.7753 36.5543 84.923C36.1605 85.0215 35.7175 84.7753 35.6191 84.3323C35.4714 83.8893 35.7175 83.4955 36.1113 83.3479ZM25.1346 55.9308C25.5776 55.8323 26.0206 56.0784 26.1191 56.4722C26.2175 56.9152 25.9714 57.3582 25.5776 57.4567C25.1346 57.5551 24.6916 57.309 24.5932 56.9152C24.4455 56.4722 24.6916 56.0292 25.1346 55.9308ZM27.3989 64.0033C27.8419 63.9049 28.2849 64.151 28.3833 64.5448C28.4818 64.9878 28.2357 65.4308 27.8419 65.5292C27.3989 65.6277 26.9559 65.3815 26.8574 64.9878C26.7098 64.5448 26.9559 64.1018 27.3989 64.0033ZM29.6631 72.0758C30.1061 71.9774 30.5491 72.2235 30.6476 72.6173C30.746 73.0603 30.4999 73.5033 30.1061 73.6018C29.6631 73.7002 29.2201 73.4541 29.1217 73.0603C28.974 72.6173 29.2201 72.1743 29.6631 72.0758ZM31.9274 80.1484C32.3704 80.0499 32.8134 80.2961 32.9118 80.6898C33.0103 81.1328 32.7642 81.5759 32.3704 81.6743C31.9274 81.7727 31.4844 81.5266 31.3859 81.1328C31.2382 80.7391 31.4844 80.2468 31.9274 80.1484ZM20.9015 52.7313C21.3445 52.6328 21.7875 52.8789 21.8859 53.2727C21.9844 53.7157 21.7382 54.1587 21.3445 54.2572C20.9015 54.3556 20.4585 54.1095 20.36 53.7157C20.2123 53.322 20.4584 52.8789 20.9015 52.7313ZM23.1165 60.8038C23.5595 60.7054 24.0025 60.9515 24.1009 61.3453C24.1994 61.7883 23.9533 62.2313 23.5595 62.3297C23.1165 62.4282 22.6735 62.1821 22.575 61.7883C22.4766 61.3945 22.7227 60.9515 23.1165 60.8038ZM25.3807 68.9256C25.8237 68.8271 26.2667 69.0733 26.3652 69.467C26.4636 69.91 26.2175 70.353 25.8237 70.4515C25.3807 70.5499 24.9377 70.3038 24.8393 69.91C24.7408 69.467 24.987 69.024 25.3807 68.9256ZM27.645 76.9981C28.088 76.8997 28.531 77.1458 28.6294 77.5396C28.7279 77.9826 28.4818 78.4256 28.088 78.524C27.645 78.6225 27.202 78.3764 27.1035 77.9826C26.9559 77.5396 27.2512 77.0966 27.645 76.9981ZM26.1191 83.4463C25.6761 83.5448 25.2331 83.2987 25.1346 82.9049C25.0362 82.4619 25.2823 82.0189 25.6761 81.9204C26.0699 81.822 26.5621 82.0681 26.6605 82.4619C26.8082 82.9049 26.5621 83.3479 26.1191 83.4463ZM23.8548 75.3738C23.4118 75.4722 22.9688 75.2261 22.8704 74.8323C22.7719 74.3893 23.018 73.9463 23.4118 73.8479C23.8548 73.7494 24.2978 73.9955 24.3963 74.3893C24.5439 74.8323 24.2978 75.2753 23.8548 75.3738ZM21.5906 67.3012C21.1476 67.3997 20.7046 67.1536 20.6061 66.7598C20.5077 66.3168 20.7538 65.8738 21.1476 65.7753C21.5906 65.6769 22.0336 65.923 22.132 66.3168C22.2797 66.7106 22.0336 67.2028 21.5906 67.3012ZM19.3263 59.2287C18.8833 59.3271 18.4403 59.081 18.3419 58.6872C18.2434 58.2935 18.4895 57.8012 18.8833 57.7028C19.2771 57.6043 19.7693 57.8504 19.8678 58.2442C20.0154 58.638 19.7693 59.081 19.3263 59.2287ZM29.3678 86.0551C29.2693 85.6121 29.5155 85.1691 29.9092 85.0707C30.3522 84.9722 30.7952 85.2183 30.8937 85.6121C30.9921 86.0551 30.746 86.4981 30.3522 86.5966C29.9092 86.7443 29.4662 86.4981 29.3678 86.0551ZM46.7434 98.8531C45.6605 101.905 44.8237 105.4 44.2823 107.861C44.1838 108.452 43.7408 108.845 43.2486 108.993C42.7564 109.091 42.1657 108.993 41.7719 108.55C40.0984 106.729 37.5388 104.169 35.0284 102.151C34.044 101.363 34.3885 99.8375 35.5699 99.493L40.1968 98.2132L44.8237 96.9334C46.1035 96.5396 47.1864 97.6717 46.7434 98.8531ZM42.7072 83.151C42.2642 83.2494 41.8212 83.0033 41.7227 82.6095C41.6243 82.2157 41.8704 81.7235 42.2642 81.6251C42.7072 81.5266 43.1502 81.7727 43.2486 82.1665C43.3471 82.5603 43.1502 83.0525 42.7072 83.151ZM40.4429 75.0784C39.9999 75.1769 39.5569 74.9308 39.4585 74.537C39.36 74.094 39.6061 73.651 39.9999 73.5525C40.4429 73.4541 40.8859 73.7002 40.9844 74.094C41.132 74.537 40.8859 74.98 40.4429 75.0784ZM38.1787 67.0059C37.7357 67.1043 37.2927 66.8582 37.1942 66.4644C37.0958 66.0214 37.3419 65.5784 37.7357 65.48C38.1787 65.3815 38.6217 65.6277 38.7201 66.0214C38.8678 66.4644 38.6217 66.9074 38.1787 67.0059ZM35.9144 58.9334C35.4714 59.0318 35.0284 58.7857 34.93 58.3919C34.8315 57.9489 35.0776 57.5059 35.4714 57.4074C35.9144 57.309 36.3574 57.5551 36.4559 57.9489C36.6035 58.3427 36.3574 58.8349 35.9144 58.9334ZM33.6502 50.8608C33.2072 50.9593 32.7642 50.7131 32.6657 50.3194C32.5673 49.8764 32.8134 49.4334 33.2072 49.3349C33.6502 49.2365 34.0932 49.4826 34.1916 49.8764C34.2901 50.2701 34.0932 50.7131 33.6502 50.8608ZM44.6761 78.2779C44.2331 78.3764 43.7901 78.1303 43.6916 77.7365C43.5932 77.2935 43.8393 76.8505 44.2331 76.752C44.6761 76.6536 45.1191 76.8997 45.2175 77.2935C45.3652 77.6873 45.1191 78.1303 44.6761 78.2779ZM42.4118 70.2054C41.9688 70.3038 41.5258 70.0577 41.4274 69.6639C41.3289 69.2209 41.575 68.7779 41.9688 68.6795C42.4118 68.581 42.8548 68.8271 42.9533 69.2209C43.1009 69.6147 42.8548 70.0577 42.4118 70.2054ZM40.1476 62.0836C39.7046 62.1821 39.2616 61.9359 39.1631 61.5422C39.0647 61.0992 39.3108 60.6562 39.7046 60.5577C40.1476 60.4593 40.5906 60.7054 40.689 61.0992C40.8367 61.5422 40.5906 61.9852 40.1476 62.0836ZM37.8833 54.0111C37.4403 54.1095 36.9973 53.8634 36.8989 53.4696C36.8004 53.0266 37.0465 52.5836 37.4403 52.4852C37.8341 52.3867 38.3263 52.6328 38.4248 53.0266C38.5725 53.4696 38.3263 53.9126 37.8833 54.0111Z" fill="#C193EC"/>
<path d="M48.9094 126.024C49.9923 125.778 51.0752 125.729 52.1089 125.778L51.3214 122.923L43.3965 123.416L44.5778 127.649C45.8084 126.96 47.3343 126.369 48.9094 126.024Z" fill="#C193EC"/>
<path d="M178.562 88.1719C177.922 83.1019 176.987 78.0812 175.806 73.1589C175.215 70.6978 174.575 68.2367 173.837 65.8247C173.492 64.5942 173.098 63.4128 172.705 62.1822C172.409 61.247 172.114 60.4102 171.769 59.475C170.933 60.1641 170.047 60.804 169.111 61.2962C181.811 100.428 174.969 113.276 174.969 113.276C178.71 96.9828 169.948 69.3688 167.487 62.0838C165.42 62.9206 163.303 63.2652 161.236 63.2159C161.58 64.0035 161.876 64.9387 162.22 65.7755C162.614 66.8584 163.008 67.9905 163.402 69.1227C164.14 71.3377 164.829 73.6019 165.469 75.8662C166.749 80.3947 167.782 85.0216 168.521 89.5994C169.899 98.7056 170.686 108.55 167.044 115.392C165.272 118.739 162.368 121.102 158.479 122.333C154.64 123.563 150.111 123.76 145.583 123.317C143.319 123.12 141.005 122.776 138.741 122.333C136.477 121.89 134.114 121.348 131.899 120.708C127.42 119.478 123.088 117.706 118.904 115.589C110.536 111.356 102.759 105.646 95.7694 99.1486C88.7797 92.6512 82.43 85.317 77.1139 77.3429C75.7849 75.374 74.5543 73.3066 73.373 71.2392C72.1916 69.1227 71.1087 67.0061 70.1243 64.8403C69.1398 62.6745 68.2046 60.4594 67.5154 58.2444C67.1709 57.1615 66.8756 56.0294 66.6787 54.9465C66.4818 53.8636 66.4325 52.7807 66.531 51.8947C66.6787 50.9594 66.974 50.4672 67.417 50.2211C67.9092 49.9258 68.9429 49.9258 69.9766 50.1227C72.0932 50.5164 74.3082 51.4517 76.4248 52.4854C80.6579 54.6019 84.7927 57.26 88.6813 60.0657L90.2564 58.0475C86.3186 54.9957 82.2823 52.1408 77.8522 49.7289C75.6372 48.5475 73.3237 47.4154 70.6657 46.8247C69.9766 46.6771 69.2875 46.5786 68.4999 46.5786C67.7123 46.5786 66.8756 46.6771 65.9895 47.0708C65.1035 47.4646 64.3652 48.1537 63.873 48.9413C63.3807 49.7289 63.1346 50.5164 62.9869 51.304C62.7408 52.8299 62.7901 54.2081 62.9869 55.5372C63.1838 56.8662 63.4792 58.146 63.8237 59.3765C64.5129 61.8377 65.3989 64.2004 66.3833 66.5139C67.3678 68.8273 68.4015 71.0916 69.5336 73.3066C70.6657 75.5709 71.8963 77.7367 73.2253 79.8532C78.4921 88.3688 84.7434 96.1952 91.8315 103.283C98.9196 110.371 106.844 116.721 115.754 121.643C120.233 124.105 124.909 126.221 129.832 127.796C132.293 128.584 134.705 129.224 137.215 129.864C139.725 130.454 142.236 130.947 144.845 131.242C150.013 131.882 155.477 132.029 161.039 130.454C163.795 129.667 166.601 128.436 169.013 126.566C171.474 124.744 173.541 122.382 175.018 119.773C176.544 117.213 177.528 114.457 178.168 111.7C178.808 108.993 179.153 106.237 179.3 103.579C179.497 98.361 179.202 93.2911 178.562 88.1719Z" fill="#C193EC"/>
<path d="M94.0967 49.2857C93.1615 51.796 97.0009 49.5318 97.0009 49.5318C97.0009 49.5318 101.775 53.0758 98.7729 60.6069L95.4749 67.3997L96.804 60.4593C92.177 60.2624 80.8066 60.853 78.0501 70.5499C77.7547 71.5836 77.4594 72.5681 77.1641 73.5525C77.2625 73.7002 77.361 73.8971 77.4594 74.0448C78.3454 75.3245 79.2314 76.6043 80.1667 77.8841C80.9542 75.4722 81.7418 72.8142 82.3325 70.353C83.9076 63.8556 92.5216 63.708 92.5216 63.708C86.861 65.6277 85.8765 67.6458 83.4154 73.651C82.6278 75.5214 81.791 77.3427 81.0034 79.0163C85.5319 85.0707 90.6019 90.7313 96.1641 95.8997C103.154 102.397 110.931 108.107 119.299 112.34C123.483 114.457 127.814 116.229 132.294 117.459C134.509 118.099 136.871 118.641 139.136 119.084C141.449 119.527 143.713 119.871 145.978 120.068C149.62 120.413 153.213 120.363 156.511 119.674C155.674 117.656 155.33 114.063 155.231 110.224C155.921 106.04 156.413 100.674 155.773 94.9152C155.576 93.094 155.281 91.2727 154.838 89.4515C154.542 88.1717 154.05 86.8919 153.459 85.6613C151.491 83.9878 144.402 78.081 141.4 77.1458C137.905 76.0629 129.291 80.5422 129.291 80.5422C129.291 80.5422 135.542 75.423 140.317 74.98C142.975 74.7339 147.208 77.8349 150.457 80.6406C142.335 69.5163 126.731 60.5085 126.731 60.5085C126.731 60.5085 119.742 64.6924 113.589 66.1199C119.053 63.265 125.353 59.2287 125.944 58.2935C126.535 57.3582 126.338 52.3867 126.731 51.8945C127.125 51.4023 127.076 50.7624 127.076 50.6147C127.076 50.467 126.682 50.024 126.682 49.9256C126.633 49.7779 127.322 49.1872 127.47 48.8427C127.617 48.4981 127.125 47.4152 127.125 47.4152C127.125 47.4152 129.931 46.4308 130.079 45.4463C128.257 42.7883 127.814 37.2753 127.814 37.2753C127.814 37.2753 129.685 35.8478 129.685 32.3038C129.685 32.3038 134.312 32.4023 135.788 28.2183C137.659 23.0007 133.77 20.0473 133.77 20.0473C133.77 20.0473 134.164 23.3945 131.998 23.8867C129.832 24.3789 127.125 12.91 112.949 12.0732C98.7237 11.2364 92.5216 18.3245 93.8014 23.0991C93.8014 23.0991 87.0086 26.8401 89.3713 32.8945C91.5863 38.8504 94.9827 46.7753 94.0967 49.2857ZM126.436 99.9852C128.011 95.752 128.454 88.3686 128.454 88.3686C131.358 97.967 123.532 107.762 124.664 108.55C125.796 109.338 136.576 115.687 136.576 115.687C128.553 113.669 121.76 109.682 121.809 108.599C121.858 107.516 124.861 104.218 126.436 99.9852ZM109.996 56.0784C113.047 57.4074 121.809 58.1458 121.809 58.1458C121.809 58.1458 114.918 58.195 111.226 57.7028C107.584 57.2106 103.695 50.024 103.695 50.024C103.695 50.024 106.895 54.7494 109.996 56.0784Z" fill="#4954B7"/>
<path d="M78.8367 70.8947C78.8367 70.8947 75.2434 68.1383 71.7979 64.2004C72.4377 65.431 73.0776 66.6616 73.7668 67.8922C74.8989 69.9595 76.1787 72.0269 77.5077 73.9958C77.6554 74.1927 77.7538 74.3896 77.9015 74.5865C79.4766 75.374 78.8367 70.8947 78.8367 70.8947Z" fill="white"/>
<path d="M101.726 130.06L112.26 123.809C105.861 119.92 100.003 115.293 94.6381 110.223C93.506 110.371 92.2754 110.519 92.2754 110.519C92.2754 110.519 95.4749 118.887 98.7236 124.006C100.299 126.516 101.382 128.485 101.726 130.06Z" fill="#4954B7"/>
<path d="M174.378 168.011L132.441 153.638L168.226 158.117L131.998 144.532L165.568 148.076L135.345 137.788L162.319 139.117L155.871 135.623C152.08 136.066 148.34 135.869 144.746 135.426C142.137 135.081 139.627 134.638 137.117 134.047C134.606 133.457 132.194 132.817 129.733 131.98C124.811 130.405 120.135 128.288 115.656 125.827C114.671 125.286 113.736 124.744 112.801 124.154L100.839 133.604C100.79 133.703 100.741 133.752 100.643 133.851C98.4768 135.869 75.7359 146.747 74.1115 147.83C72.5364 148.913 66.925 145.319 64.1685 145.172C58.8032 144.827 55.4561 141.874 59.0001 142.169C59.0001 142.169 64.513 143.104 67.1711 141.628C69.8291 140.151 80.3628 131.636 83.5623 127.304C86.7618 122.972 91.7333 107.664 91.7333 107.664C91.7333 107.664 91.7825 107.713 91.8809 107.762C91.7825 107.664 91.7333 107.615 91.6348 107.516C84.7436 100.625 78.64 93.0448 73.5208 84.7754C71.9949 89.107 70.6659 91.9619 69.5338 92.8479C67.4172 94.5215 73.7669 96.9827 73.7669 96.9827L82.627 101.117L73.3239 99.1485C72.9794 100.97 72.6348 103.874 72.6348 107.369C72.6348 107.369 64.0208 118.739 58.5079 128.781C58.5079 128.781 53.7332 126.418 48.5649 127.55C43.3965 128.633 39.0156 132.423 39.0156 134.244C39.0156 136.066 40.8369 136.656 40.8369 136.656C40.8369 136.656 40.8369 139.068 43.0519 139.117C43.0519 139.117 42.9534 141.529 44.7255 141.628C44.7255 141.628 44.3809 143.892 46.5467 143.695L49.1555 146.107C49.1555 146.107 48.368 148.224 50.583 148.716C50.583 148.716 49.8939 150.98 51.912 151.669C51.912 151.669 51.5182 154.229 53.8317 155.213C53.8317 155.213 53.0441 157.871 56.2928 159.545C56.2928 159.545 60.8706 162.892 69.7799 160.775C69.7799 160.775 80.8058 162.4 92.5208 156.739C104.236 151.029 106.549 149.503 107.928 149.602L124.22 139.807L107.928 153.737C107.288 158.363 105.762 165.205 105.762 165.205L176.889 176.379L131.161 160.529L174.378 168.011Z" fill="#4954B7"/>
<defs>
<linearGradient id="paint0_linear_416_1086" x1="151.955" y1="173.03" x2="64.5727" y2="21.679" gradientUnits="userSpaceOnUse">
<stop offset="0.4916" stop-color="#A5D4ED"/>
<stop offset="1" stop-color="white"/>
</linearGradient>
</defs>
</svg>
