<svg width="15" height="16" viewBox="0 0 15 16" fill="none" xmlns="http://www.w3.org/2000/svg">
<path d="M0.262375 4.10143C0.940614 4.10143 2.38802 4.10143 2.87697 4.10143C2.97848 4.10143 3.06912 4.16581 3.11143 4.265C3.71161 5.67246 4.44389 6.94592 5.32572 8.06721C5.40149 8.19874 5.58449 8.18426 5.63939 8.04102C5.91503 7.31927 6.42285 5.56341 5.43923 4.31675C5.35174 4.20554 5.38719 4.03119 5.51215 3.97513C6.50778 3.52784 7.4831 3.46254 8.43098 3.92029C8.62999 4.01671 8.76037 4.22957 8.76037 4.46492L8.98255 8.08045C8.98255 8.24125 9.11865 8.36971 9.26448 8.33613C10.3573 8.0863 11.0012 6.32244 11.638 4.48063C11.7164 4.25391 11.9151 4.10143 12.1398 4.10143H14.5474C14.7444 4.10143 14.9034 4.29087 14.8674 4.49942C14.6409 5.80646 13.4208 7.50102 12.7826 8.3158C12.5619 8.59766 12.5602 9.0089 12.7801 9.29138L14.9331 12.053C15.0878 12.2514 14.9569 12.5542 14.7164 12.5542H11.9917C11.7681 12.5542 11.5545 12.4535 11.403 12.276L9.4978 10.5673C9.39858 10.4515 9.21158 10.4099 9.11865 10.5316C8.88247 10.8408 8.90105 11.2222 8.78925 12.0884C8.75437 12.3592 8.52848 12.5542 8.27457 12.5542H6.41141C6.14635 12.5542 5.88472 12.4941 5.64539 12.3721C4.576 11.826 1.65545 9.89084 0.0130397 4.47262C-0.0421458 4.29087 0.0848095 4.10143 0.262375 4.10143Z" fill="black"/>
</svg>
