<svg width="200" height="200" viewBox="0 0 200 200" fill="none" xmlns="http://www.w3.org/2000/svg">
<g clip-path="url(#clip0_416_1030)">
<path d="M69.091 189.62C61.7507 188.193 54.46 185.879 47.3677 182.63C25.8429 172.737 9.77362 155.853 0.74707 135.918" stroke="#D89EEF" stroke-miterlimit="10"/>
<path d="M48.7562 179.677C24.9995 168.75 8.18627 149.011 0.449219 126.172" stroke="#D89EEF" stroke-miterlimit="10"/>
<path d="M154.397 35.9465C165.209 47.6616 172.699 61.887 176.22 77.146" stroke="#D89EEF" stroke-miterlimit="10"/>
<path d="M5.90563 130.405C7.29433 133.801 8.93101 137.148 10.7661 140.348C24.8515 165.058 50.7904 182.483 81.441 184.55C106.586 186.273 129.996 177.265 147.156 161.514C148.247 160.529 149.339 159.496 150.38 158.413C151.918 156.838 153.405 155.213 154.844 153.54C161.49 145.664 166.846 136.558 170.367 126.615C172.996 119.281 174.682 111.454 175.228 103.283C175.724 96.2442 175.327 89.3531 174.186 82.708C174.137 82.3142 174.038 81.9204 173.988 81.5266C172.401 72.9126 169.524 64.7417 165.557 57.1613C157.621 41.9515 145.272 29.3012 130.095 20.9334C119.134 14.879 106.735 11.0888 93.3938 10.2028C63.2887 8.18465 35.7131 21.3764 18.3047 43.2313C10.4189 53.1251 4.61612 64.7909 1.64033 77.638C0.598803 82.1173 -0.0955453 86.7442 -0.44272 91.4696C-1.33546 105.203 0.995578 118.444 5.90563 130.405Z" fill="url(#paint0_linear_416_1030)"/>
<path d="M83.7719 145.812L24.0578 158.413C22.5203 156.837 21.0324 155.213 19.5941 153.54C12.9482 145.664 7.59176 136.558 4.07041 126.615C1.4418 119.28 -0.244482 111.454 -0.790043 103.283C-1.28601 96.2442 -0.889236 89.353 0.251482 82.7079C0.301079 82.3141 0.400272 81.9203 0.449869 81.5265C5.90548 80.8374 11.3115 80.0991 16.7671 79.41C18.5526 79.1638 20.3876 78.9669 22.1731 79.3115C23.9586 79.6561 25.6945 80.6897 26.4384 82.3633C27.7279 85.3167 25.1985 88.6638 22.1731 89.8452C19.1973 91.0265 15.8248 90.7804 12.6506 91.3219C9.47642 91.8141 6.05427 93.4877 5.26072 96.5887C4.31839 100.28 7.93893 103.923 11.7579 104.464C15.5768 105.006 19.3461 103.381 22.8179 101.757C28.3231 99.1483 33.7787 96.3918 39.5815 94.5214C45.3843 92.6509 51.6334 91.6664 57.6346 92.7986C67.5539 94.669 76.0349 102.594 78.5147 112.291C80.9945 121.988 77.2748 133.014 69.3889 139.265C72.8111 138.428 76.5804 138.97 79.7546 140.545C81.8376 141.529 83.8711 143.449 83.7719 145.812Z" fill="white"/>
<path d="M61.5035 32.3529C59.2716 33.6326 56.5934 33.9772 54.0144 34.2725C49.2531 34.814 44.5415 35.3554 39.7802 35.8477C38.3419 35.9953 36.854 36.1922 35.5645 36.9306C34.3246 37.6689 33.3823 39.1456 33.7294 40.5731C34.275 42.7389 37.2508 43.1819 39.4826 42.8373C41.7145 42.4928 44.3431 41.9513 45.9798 43.5264C47.7156 45.1508 47.0213 48.2026 45.2358 49.7777C43.4504 51.3529 40.9705 51.7959 38.5899 52.1896C28.6706 53.8632 18.7513 55.5368 8.83203 57.1611C16.7675 41.9513 29.117 29.301 44.2935 20.9332C48.0628 20.5886 51.8817 20.5886 55.7007 20.8347C57.5853 20.9332 59.5196 21.13 61.2059 21.9176C62.9418 22.7052 64.4296 24.1326 64.8264 25.9539C65.4216 28.4643 63.7353 31.0238 61.5035 32.3529Z" fill="white"/>
<path d="M168.534 130.405C167.492 132.915 166.351 135.376 165.111 137.739C164.665 138.625 164.169 139.462 163.723 140.299C163.574 140.545 163.425 140.791 163.276 141.037C152.216 159.938 134.213 174.508 112.44 181.006C111.2 181.35 109.96 181.695 108.72 182.04C103.661 183.319 98.4042 184.156 92.9982 184.501C69.6879 186.076 47.8655 178.495 31.1019 164.812C30.1099 164.024 29.1676 163.187 28.1757 162.35C27.8781 162.055 27.5309 161.76 27.2333 161.514C24.5055 159.003 21.9761 156.345 19.5459 153.54L168.534 130.405Z" fill="#C193EC"/>
<path d="M165.112 137.739C164.665 138.625 164.169 139.462 163.723 140.298C163.574 140.544 163.425 140.791 163.277 141.037L127.418 147.485L112.44 181.006C111.2 181.35 109.96 181.695 108.72 182.039L123.847 148.174L31.102 164.861C30.11 164.073 29.1677 163.236 28.1758 162.399L165.112 137.739Z" fill="#DDEEFF"/>
<path d="M149.044 117.608L147.755 120.266L153.359 124.647L154.698 121.94L149.044 117.608Z" fill="#752AA3"/>
<path d="M157.129 116.968L158.22 114.704L151.921 111.701L151.475 112.636L157.129 116.968Z" fill="#C193EC"/>
<path d="M150.929 113.768L149.59 116.476L155.244 120.807L156.533 118.149L150.929 113.768Z" fill="#C193EC"/>
<path d="M151.475 128.486L152.814 125.779L147.16 121.447L145.87 124.105L151.475 128.486Z" fill="#752AA3"/>
<path d="M145.275 125.287L144.184 127.502L150.482 130.553L150.929 129.618L145.275 125.287Z" fill="#752AA3"/>
<path d="M152.431 107.801L151.498 109.705L160.106 113.859L161.039 111.956L152.431 107.801Z" fill="#C193EC"/>
<path d="M160.103 113.867L158.219 114.703L151.92 111.701L151.474 109.683L160.103 113.867Z" fill="#C193EC"/>
<path d="M142.439 128.141L141.507 130.045L150.115 134.199L151.048 132.296L142.439 128.141Z" fill="#752AA3"/>
<path d="M142.448 128.141L144.333 127.255L150.582 130.307L151.028 132.325L142.448 128.141Z" fill="#752AA3"/>
<path d="M185.498 51.1565C181.431 49.1876 164.122 42.0503 153.806 59.1306C142.845 77.2938 157.972 94.2757 153.409 108.304L160.005 111.504C168.288 99.2964 191.102 100.576 198.74 80.8378C205.882 62.2316 189.515 53.1254 185.498 51.1565ZM187.928 67.6954C188.176 67.1539 188.871 66.9078 189.416 67.2031C189.962 67.4492 190.21 68.1384 189.912 68.6798C189.664 69.2213 188.97 69.4674 188.424 69.172C187.879 68.8767 187.68 68.2368 187.928 67.6954ZM185.349 60.9518C185.597 60.4104 186.292 60.1643 186.837 60.4596C187.383 60.7057 187.631 61.3948 187.333 61.9363C187.085 62.4777 186.391 62.7238 185.845 62.4285C185.3 62.1824 185.052 61.4933 185.349 60.9518ZM183.167 65.4311C183.415 64.8896 184.109 64.6435 184.655 64.9389C185.2 65.185 185.448 65.8741 185.151 66.4156C184.903 66.957 184.208 67.2031 183.663 66.9078C183.117 66.6124 182.919 65.9725 183.167 65.4311ZM182.969 70.7964C182.721 71.3378 182.026 71.5839 181.481 71.2886C180.935 71.0425 180.687 70.3534 180.985 69.8119C181.233 69.2705 181.927 69.0244 182.473 69.3197C183.018 69.615 183.217 70.2549 182.969 70.7964ZM180.588 58.6876C180.836 58.1461 181.53 57.9 182.076 58.1953C182.621 58.4415 182.869 59.1306 182.572 59.672C182.324 60.2135 181.629 60.4596 181.084 60.1643C180.538 59.8689 180.34 59.229 180.588 58.6876ZM178.406 63.1176C178.654 62.5762 179.348 62.3301 179.894 62.6254C180.439 62.8715 180.687 63.5606 180.39 64.1021C180.092 64.6435 179.447 64.8896 178.902 64.5943C178.356 64.299 178.158 63.6591 178.406 63.1176ZM178.207 68.4829C177.959 69.0244 177.265 69.2705 176.719 68.9751C176.174 68.729 175.926 68.0399 176.223 67.4985C176.471 66.957 177.166 66.7109 177.711 67.0062C178.257 67.3016 178.455 67.9415 178.207 68.4829ZM176.025 72.9622C175.777 73.5036 175.083 73.7498 174.537 73.4544C173.992 73.2083 173.744 72.5192 174.041 71.9777C174.339 71.4363 174.984 71.1902 175.529 71.4855C176.075 71.7316 176.323 72.4207 176.025 72.9622ZM175.827 56.3741C176.075 55.8327 176.769 55.5865 177.315 55.8819C177.86 56.128 178.108 56.8171 177.811 57.3586C177.563 57.9 176.868 58.1461 176.323 57.8508C175.777 57.5555 175.579 56.9156 175.827 56.3741ZM173.644 60.8042C173.892 60.2627 174.587 60.0166 175.132 60.3119C175.678 60.558 175.926 61.2472 175.628 61.7886C175.38 62.3301 174.686 62.5762 174.14 62.2808C173.595 62.0347 173.396 61.3456 173.644 60.8042ZM171.462 65.2342C171.71 64.6928 172.405 64.4466 172.95 64.742C173.496 64.9881 173.744 65.6772 173.446 66.2187C173.198 66.7601 172.504 67.0062 171.958 66.7109C171.413 66.4648 171.214 65.7757 171.462 65.2342ZM171.264 70.6487C171.016 71.1902 170.321 71.4363 169.776 71.1409C169.23 70.8948 168.982 70.2057 169.28 69.6643C169.528 69.1228 170.222 68.8767 170.768 69.172C171.313 69.4674 171.561 70.1073 171.264 70.6487ZM164.965 78.5244C165.213 77.9829 165.907 77.7368 166.453 78.0321C166.998 78.2783 167.246 78.9674 166.949 79.5088C166.701 80.0503 166.007 80.2964 165.461 80.0011C164.915 79.7549 164.717 79.0658 164.965 78.5244ZM164.767 83.9389C164.519 84.4803 163.824 84.7264 163.279 84.4311C162.733 84.185 162.485 83.4959 162.783 82.9544C163.031 82.413 163.725 82.1669 164.271 82.4622C164.816 82.7575 165.015 83.3974 164.767 83.9389ZM167.147 74.0943C167.395 73.5529 168.09 73.3068 168.635 73.6021C169.181 73.8482 169.429 74.5373 169.131 75.0788C168.883 75.6202 168.189 75.8663 167.643 75.571C167.098 75.2757 166.899 74.6358 167.147 74.0943ZM168.883 58.5399C169.131 57.9985 169.825 57.7523 170.371 58.0477C170.917 58.2938 171.165 58.9829 170.867 59.5244C170.619 60.0658 169.925 60.3119 169.379 60.0166C168.834 59.7213 168.635 59.0814 168.883 58.5399ZM166.701 62.97C166.949 62.4285 167.643 62.1824 168.189 62.4777C168.734 62.7238 168.982 63.413 168.685 63.9544C168.437 64.4959 167.742 64.742 167.197 64.4466C166.701 64.1513 166.453 63.5114 166.701 62.97ZM164.519 67.4C164.767 66.8586 165.461 66.6124 166.007 66.9078C166.552 67.1539 166.8 67.843 166.503 68.3845C166.255 68.9259 165.56 69.172 165.015 68.8767C164.519 68.5814 164.271 67.9415 164.519 67.4ZM164.37 72.7653C164.122 73.3067 163.428 73.5529 162.882 73.2575C162.336 73.0114 162.088 72.3223 162.386 71.7808C162.634 71.2394 163.328 70.9933 163.874 71.2886C164.419 71.5839 164.618 72.2238 164.37 72.7653ZM162.188 77.1953C161.94 77.7368 161.245 77.9829 160.7 77.6876C160.154 77.4415 159.906 76.7523 160.204 76.2109C160.452 75.6694 161.146 75.4233 161.692 75.7187C162.237 76.014 162.436 76.6539 162.188 77.1953ZM161.94 60.6565C162.188 60.115 162.882 59.8689 163.428 60.1643C163.973 60.4104 164.221 61.0995 163.924 61.6409C163.676 62.1824 162.981 62.4285 162.436 62.1332C161.94 61.8378 161.692 61.1979 161.94 60.6565ZM159.807 65.0865C160.055 64.5451 160.749 64.299 161.295 64.5943C161.84 64.8404 162.088 65.5295 161.791 66.071C161.543 66.6124 160.849 66.8586 160.303 66.5632C159.757 66.3171 159.509 65.628 159.807 65.0865ZM157.625 69.5166C157.873 68.9751 158.567 68.729 159.113 69.0244C159.658 69.2705 159.906 69.9596 159.609 70.5011C159.361 71.0425 158.666 71.2886 158.121 70.9933C157.575 70.6979 157.377 70.058 157.625 69.5166ZM167.246 100.872C164.667 102.25 162.039 104.12 160.253 105.4C159.361 106.04 158.071 105.449 158.071 104.317C158.022 102.102 157.823 98.9026 157.377 96.0477C157.178 94.9648 158.319 94.128 159.361 94.6202L163.279 96.5399L167.197 98.4596C168.189 98.9026 168.238 100.33 167.246 100.872ZM169.528 86.2524C169.28 86.7938 168.586 87.0399 168.04 86.7446C167.494 86.4985 167.246 85.8093 167.544 85.2679C167.792 84.7264 168.486 84.4803 169.032 84.7757C169.578 85.0218 169.776 85.7109 169.528 86.2524ZM171.71 81.7731C171.462 82.3145 170.768 82.5606 170.222 82.2653C169.677 82.0192 169.429 81.3301 169.726 80.7886C169.974 80.2472 170.669 80.0011 171.214 80.2964C171.76 80.5917 171.958 81.2316 171.71 81.7731ZM171.909 76.4078C172.157 75.8663 172.851 75.6202 173.396 75.9156C173.942 76.1617 174.19 76.8508 173.892 77.3922C173.644 77.9337 172.95 78.1798 172.405 77.8845C171.859 77.5891 171.611 76.9492 171.909 76.4078ZM174.289 88.5166C174.041 89.0581 173.347 89.3042 172.801 89.0088C172.256 88.7627 172.008 88.0736 172.305 87.5321C172.553 86.9907 173.248 86.7446 173.793 87.0399C174.339 87.3353 174.537 87.9751 174.289 88.5166ZM176.471 84.0865C176.223 84.628 175.529 84.8741 174.984 84.5788C174.438 84.3327 174.19 83.6435 174.488 83.1021C174.736 82.5606 175.43 82.3145 175.975 82.6099C176.471 82.9052 176.719 83.5451 176.471 84.0865ZM178.654 79.6565C178.406 80.1979 177.711 80.4441 177.166 80.1487C176.62 79.9026 176.372 79.2135 176.67 78.672C176.918 78.1306 177.612 77.8845 178.158 78.1798C178.654 78.4751 178.902 79.115 178.654 79.6565ZM178.802 74.2912C179.05 73.7498 179.745 73.5036 180.29 73.799C180.836 74.0451 181.084 74.7342 180.786 75.2757C180.538 75.8171 179.844 76.0632 179.298 75.7679C178.753 75.4726 178.554 74.8327 178.802 74.2912ZM181.233 86.4C180.985 86.9415 180.29 87.1876 179.745 86.8923C179.199 86.6461 178.951 85.957 179.249 85.4156C179.497 84.8741 180.191 84.628 180.737 84.9233C181.233 85.1695 181.481 85.8586 181.233 86.4ZM183.365 81.9207C183.117 82.4622 182.423 82.7083 181.877 82.413C181.332 82.1669 181.084 81.4777 181.381 80.9363C181.629 80.3948 182.324 80.1487 182.869 80.4441C183.415 80.7394 183.663 81.3793 183.365 81.9207ZM185.548 77.5399C185.3 78.0814 184.605 78.3275 184.06 78.0321C183.514 77.786 183.266 77.0969 183.564 76.5555C183.812 76.014 184.506 75.7679 185.052 76.0632C185.597 76.3586 185.796 76.9985 185.548 77.5399ZM185.746 72.1254C185.994 71.584 186.688 71.3378 187.234 71.6332C187.779 71.8793 188.027 72.5684 187.73 73.1099C187.482 73.6513 186.787 73.8974 186.242 73.6021C185.696 73.356 185.498 72.6669 185.746 72.1254ZM188.127 84.2342C187.879 84.7757 187.184 85.0218 186.639 84.7264C186.093 84.4803 185.845 83.7912 186.143 83.2498C186.391 82.7083 187.085 82.4622 187.631 82.7575C188.176 83.0529 188.424 83.6928 188.127 84.2342ZM190.309 79.8534C190.061 80.3948 189.366 80.641 188.821 80.3456C188.275 80.0995 188.027 79.4104 188.325 78.8689C188.573 78.3275 189.267 78.0814 189.813 78.3767C190.358 78.6228 190.557 79.3119 190.309 79.8534ZM192.491 75.3741C192.243 75.9156 191.549 76.1617 191.003 75.8663C190.458 75.6202 190.21 74.9311 190.507 74.3896C190.755 73.8482 191.45 73.6021 191.995 73.8974C192.541 74.1928 192.739 74.8327 192.491 75.3741Z" fill="#C193EC"/>
<path d="M72.6154 16.8486C74.0123 16.8486 75.1448 15.7247 75.1448 14.3382C75.1448 12.9518 74.0123 11.8279 72.6154 11.8279C71.2184 11.8279 70.0859 12.9518 70.0859 14.3382C70.0859 15.7247 71.2184 16.8486 72.6154 16.8486Z" fill="#4954B7"/>
<path d="M157.474 121.989C157.276 120.364 151.076 116.525 151.076 116.525C151.076 116.525 146.712 117.263 144.976 117.903C144.976 117.903 143.885 115.491 141.752 113.67C141.752 113.67 140.214 100.183 131.188 89.0092C131.188 89.0092 128.163 80.346 125.881 76.0144L118.293 79.7061L124.889 74.2916C124.889 74.2916 127.667 72.9134 128.014 70.7476C128.311 68.5818 121.566 63.9548 115.863 58.7372C110.159 53.5196 103.315 42.8382 87.5926 49.0895L81.0459 51.846C80.5003 54.947 78.6157 59.9185 78.6157 59.9185C78.8636 56.6698 78.6157 52.8797 78.6157 52.8797C78.6157 52.8797 80.3515 48.2527 79.9548 44.3641C79.9548 44.3641 82.385 46.2838 84.468 46.6284C84.468 46.6284 82.2858 42.3952 82.2858 37.1284C77.8717 36.1439 64.0839 33.1413 65.2246 33.1906C66.6133 33.289 82.385 35.1102 82.385 35.1102C82.385 35.1102 84.2201 35.1595 85.1128 34.9626C86.0551 34.7657 85.6088 12.7631 62.6456 12.3201C50.4449 12.074 43.9477 24.2812 43.9477 24.2812C43.9477 24.2812 24.3571 28.9082 25.0019 31.074C25.6467 33.2398 43.4022 32.7968 43.4022 32.7968C43.4022 32.7968 42.2615 36.5377 43.2038 39.8356C43.2038 39.7864 43.2534 39.7864 43.2534 39.7864V40.0325C43.2534 40.0325 44.1957 41.5092 46.8243 39.8356C49.4034 38.1621 48.8578 37.276 52.3791 37.5222C55.9005 37.7683 55.3053 38.5558 54.2638 39.5895C53.867 39.9833 52.3791 43.8227 47.3699 42.7398C46.0308 42.4444 45.1877 42.3952 44.6917 42.4444C45.7828 43.9211 46.0308 44.2657 45.7332 45.7424C45.3364 47.6128 42.7574 51.7968 43.6998 52.3875C44.6421 53.0273 47.1219 53.175 47.1219 53.175C47.1219 53.175 47.6675 54.9963 48.1138 55.1932L51.6848 54.8978L48.6594 56.5222C48.5602 56.9159 48.5602 57.7035 48.957 57.9004C49.3538 58.0973 50.4449 60.4108 51.0896 63.0688C51.7344 65.7761 58.9259 63.3149 61.2569 61.4444C62.1496 60.7553 62.2984 61.0014 61.8521 61.8875C61.8521 61.8875 64.8279 67.302 71.1266 69.7139C71.1266 69.7139 64.2823 68.6802 60.4138 64.1517C59.769 65.0377 58.9259 66.0222 57.9339 67.1051C71.2754 86.9419 107.679 100.675 115.763 103.579C114.127 95.5559 112.49 83.7424 112.49 83.7424C112.49 83.7424 120.673 97.5248 125.831 107.468C130.99 117.411 134.957 126.172 137.338 128.092C138.231 128.83 139.173 129.618 139.917 130.307C141.206 131.538 142.645 132.522 144.281 133.261L149.191 135.525C149.787 135.426 152.316 134.885 151.87 132.473C151.87 132.473 154.052 131.833 153.605 129.618C153.605 129.618 156.532 128.043 155.689 124.745C155.589 124.696 157.672 123.613 157.474 121.989ZM45.7332 50.8615C45.7332 50.4678 46.9731 47.2191 47.3699 46.333C47.4195 46.1854 47.4691 46.0869 47.4691 46.0869L49.5521 50.8615C49.453 51.2061 45.7332 51.3045 45.7332 50.8615ZM48.6594 25.2657H46.6755C53.3215 13.5014 64.8774 13.6983 64.8774 13.6983C53.6686 16.6517 48.6594 25.2657 48.6594 25.2657ZM71.4242 52.5351C70.6306 55.1439 65.1254 59.2294 65.1254 59.2294C65.1254 59.2294 68.5972 54.6025 70.0851 51.9444C71.573 49.2864 73.408 44.6595 73.408 44.6595C73.408 44.6595 72.2177 49.8771 71.4242 52.5351ZM77.4749 73.947C76.731 73.947 76.1358 73.3564 76.1358 72.618C76.1358 71.8797 76.731 71.289 77.4749 71.289C78.2189 71.289 78.8141 71.8797 78.8141 72.618C78.8141 73.3564 78.2189 73.947 77.4749 73.947ZM81.889 80.2476C81.1451 80.2476 80.5499 79.6569 80.5499 78.9185C80.5499 78.1802 81.1451 77.5895 81.889 77.5895C82.633 77.5895 83.2281 78.1802 83.2281 78.9185C83.2281 79.6569 82.633 80.2476 81.889 80.2476ZM100.19 52.732C97.0655 52.3382 84.6168 53.7657 84.9144 53.5196C85.212 53.3227 98.4542 49.8279 101.48 51.1569C104.505 52.4859 113.482 60.3615 113.482 60.3615C115.763 62.3305 103.265 53.1258 100.19 52.732Z" fill="#4954B7"/>
<path d="M69.8853 131.045C69.8853 131.045 69.4389 144.138 60.71 153.687C60.71 153.687 93.146 167.716 133.071 170.029C133.071 170.029 94.4851 160.972 81.5405 152.998L112.687 159.446C112.687 159.446 90.319 150.636 85.0618 147.731C85.0618 147.731 111.745 153.687 125.533 153.589C125.533 153.589 105.446 148.47 99.544 146.009L123.102 146.156L108.323 140.742L98.0561 141.333C98.0561 141.333 85.657 141.529 80.4989 139.511C75.2913 137.444 69.8853 131.045 69.8853 131.045Z" fill="#4954B7"/>
<path d="M140.56 132.473C140.56 132.473 136.593 131.094 134.559 133.408C132.526 135.721 132.476 136.804 126.624 136.41C120.821 136.017 99.9906 126.32 88.2858 123.563C88.2858 123.563 75.0436 107.123 70.7783 103.037C70.7783 103.037 74.002 100.773 74.5972 99.8379C75.2419 98.9026 67.5545 90.3871 67.5545 90.3871C67.5545 90.3871 73.6549 95.9493 76.8786 97.8689C80.1024 99.8379 74.8948 103.333 74.8948 103.333C74.8948 103.333 87.0955 118.1 89.4761 120.364C91.8568 122.628 121.763 132.473 124.987 133.309C128.211 134.146 128.608 132.571 126.326 128.289C124.541 124.942 121.416 117.755 119.184 113.423L117.002 115.392L107.281 122.677L116.159 111.405L106.835 115.589L111.249 112.242C113.034 110.864 114.473 109.043 115.365 107.024C118.639 107.221 120.771 106.778 120.771 106.778L115.911 105.548C71.7702 91.5192 54.9074 69.9104 54.9074 69.9104C49.2038 75.3741 42.9051 74.6358 42.7067 84.0866C42.5083 93.5373 50.6917 106.089 50.047 109.141C49.4022 112.242 55.7505 109.141 55.7505 109.141C55.7505 109.141 70.7783 129.273 79.2593 135.032C87.7402 140.791 120.028 145.32 126.673 146.747C133.319 148.175 145.768 150.931 144.975 146.255C144.975 146.255 146.512 145.221 146.512 144.188C146.512 143.154 146.016 142.662 146.016 142.662C146.016 142.662 147.901 142.317 147.157 140.397C147.157 140.397 149.389 141.136 149.934 139.167C150.43 137.493 149.24 135.967 148.942 135.623L140.56 132.473ZM47.6167 93.4881C42.2107 81.0348 49.5014 75.9648 49.5014 75.9648C45.0377 82.3638 47.6167 93.4881 47.6167 93.4881Z" fill="#4954B7"/>
<path d="M36.6051 133.851C35.4148 132.768 34.4228 131.488 33.3813 130.258C32.8853 129.618 32.439 128.978 31.943 128.338L31.2487 127.353L30.6535 126.32C28.9672 123.613 27.7273 120.659 26.8346 117.657C25.9418 114.654 25.3963 111.504 25.2971 108.353C24.9995 102.053 25.9914 95.8016 27.7273 89.7472C28.6201 86.7446 29.7112 83.742 30.9511 80.8871C31.5958 79.4597 32.2406 78.0322 32.9349 76.6047C33.0341 76.4079 33.1829 76.1617 33.2821 75.9648C31.2983 77.6384 28.868 78.8198 26.2394 79.312C25.1483 82.413 24.2556 85.5633 23.5612 88.7136C22.1725 95.211 21.627 101.954 22.4205 108.6C22.8173 111.898 23.6108 115.195 24.7515 118.296C25.8922 121.398 27.4297 124.4 29.4136 127.058L30.1079 128.092L30.9015 129.027C31.447 129.667 31.943 130.307 32.4886 130.898C33.6293 132.079 34.77 133.26 36.0595 134.294C38.4897 136.46 41.2671 138.232 44.0941 139.905C41.4655 138.133 38.8369 136.164 36.6051 133.851Z" fill="#C193EC"/>
<path d="M16.7175 108.058C16.5191 106.04 16.2711 104.071 16.2711 102.053C16.1719 98.0658 16.5191 94.0788 17.3126 90.1902L17.9574 87.286C18.255 86.3508 18.4534 85.3664 18.7509 84.4311C19.0485 83.4959 19.3461 82.5607 19.6933 81.6746C19.9909 80.8379 20.338 80.0011 20.6852 79.2627C18.8005 78.869 17.0151 78.1306 15.428 77.0969C15.0808 78.1798 14.8328 79.1151 14.5848 80.0995C14.3369 81.1332 14.0889 82.2161 13.8905 83.2498C13.6921 84.2835 13.5433 85.3664 13.3945 86.4L13.0473 89.5503C12.7002 93.7835 12.7994 98.0659 13.3945 102.201C13.5929 104.317 14.1385 106.335 14.5848 108.403C15.2296 110.421 15.676 112.439 16.5687 114.359C18.007 118.296 20.1892 121.84 22.4211 125.286C20.586 121.594 18.8501 117.903 17.9078 113.916C17.3622 112.045 17.1143 110.027 16.7175 108.058Z" fill="#C193EC"/>
<path d="M32.1417 139.118C28.2732 136.509 24.6526 133.556 21.4288 130.258C18.2051 126.96 15.4773 123.169 13.295 119.182C8.93054 111.159 6.94669 101.954 7.19467 92.8975C7.34346 88.369 7.93861 83.8405 9.02974 79.5089C9.62489 77.3431 10.2696 75.1773 11.1128 73.1099C11.1624 73.0115 11.212 72.913 11.2616 72.8146C9.82328 70.5503 8.93055 67.8923 8.88095 65.0374C7.69063 67.1047 6.84749 69.1721 6.10354 71.2394C5.31 73.6021 4.66525 75.9648 4.16929 78.3767C3.22695 83.1514 2.78058 88.0244 2.87977 92.8975C3.07816 102.594 5.70677 112.291 10.7656 120.561C13.295 124.695 16.3204 128.486 19.8418 131.734C23.3631 135.032 27.2316 137.838 31.2985 140.299C39.5812 145.074 48.5581 148.322 57.783 150.488C48.8061 147.879 39.9779 144.188 32.1417 139.118Z" fill="#C193EC"/>
<path d="M19.2975 68.3355C17.2145 66.2681 14.5859 65.0868 12.0068 64.8899C12.2548 67.5479 13.3955 70.1567 15.429 72.1749C17.4624 74.193 20.0911 75.3251 22.7693 75.5713C22.5709 73.0117 21.4302 70.4029 19.2975 68.3355Z" fill="#C193EC"/>
<path d="M27.1833 60.5092C24.8027 58.1465 23.4636 55.0947 23.2156 52.1414C20.3886 52.289 17.6112 53.4211 15.429 55.5377C13.2963 57.6543 12.106 60.46 12.0068 63.2657C14.9826 63.4626 18.0576 64.7916 20.4382 67.2035C22.8189 69.5662 24.158 72.6181 24.4059 75.5714C27.2329 75.4238 30.0103 74.2916 32.1926 72.175C34.3252 70.0585 35.5155 67.2528 35.6147 64.4471C32.5894 64.2502 29.564 62.9212 27.1833 60.5092Z" fill="#C193EC"/>
<path d="M28.2745 59.4262C26.1914 57.3588 25.0011 54.75 24.8027 52.1904C27.4809 52.4365 30.1096 53.5687 32.143 55.5868C34.1765 57.6049 35.3172 60.2137 35.5652 62.8718C32.9862 62.6257 30.3575 61.4935 28.2745 59.4262Z" fill="#C193EC"/>
</g>
<defs>
<linearGradient id="paint0_linear_416_1030" x1="131.456" y1="173.03" x2="44.4053" y2="21.1089" gradientUnits="userSpaceOnUse">
<stop offset="0.4916" stop-color="#A5D4ED"/>
<stop offset="1" stop-color="white"/>
</linearGradient>
<clipPath id="clip0_416_1030">
<rect width="200" height="200" fill="white"/>
</clipPath>
</defs>
</svg>
