<svg width="200" height="200" viewBox="0 0 200 200" fill="none" xmlns="http://www.w3.org/2000/svg">
<path d="M69.5623 191.62C62.2774 190.192 55.0416 187.879 48.0028 184.63C26.6401 174.736 10.6919 157.853 1.7334 137.918" stroke="white" stroke-miterlimit="10"/>
<path d="M49.3824 181.677C25.8047 170.749 9.1182 151.011 1.43945 128.172" stroke="white" stroke-miterlimit="10"/>
<path d="M154.227 37.9463C164.957 49.6613 172.39 63.8867 175.885 79.1457" stroke="white" stroke-miterlimit="10"/>
<path d="M168.255 132.405C166.877 135.801 165.252 139.148 163.431 142.348C149.452 167.058 123.708 184.482 93.2886 186.55C68.3326 188.273 45.0995 179.265 28.0684 163.514C26.9855 162.529 25.9026 161.495 24.869 160.412C23.3431 158.837 21.8664 157.213 20.4389 155.539C13.8431 147.664 8.52702 138.558 5.0322 128.615C2.4234 121.28 0.749825 113.454 0.208375 105.283C-0.283852 98.2441 0.109929 91.353 1.24205 84.7079C1.29127 84.3141 1.38972 83.9203 1.43894 83.5265C3.01407 74.9126 5.86899 66.7416 9.80681 59.1613C17.6824 43.9515 29.9389 31.3012 45.0011 22.9333C55.8793 16.8789 68.185 13.0888 81.4259 12.2028C111.304 10.1847 138.672 23.3763 155.949 45.2312C163.776 55.125 169.535 66.7908 172.488 79.6379C173.522 84.1172 174.211 88.7441 174.555 93.4695C175.491 107.203 173.177 120.444 168.255 132.405Z" fill="url(#paint0_linear_416_749)"/>
<path d="M91.0241 147.811L150.288 160.412C151.814 158.837 153.291 157.212 154.718 155.539C161.314 147.663 166.63 138.557 170.125 128.614C172.734 121.28 174.407 113.453 174.949 105.282C175.441 98.2436 175.047 91.3525 173.915 84.7074C173.866 84.3136 173.768 83.9198 173.718 83.526C168.304 82.8369 162.938 82.0986 157.524 81.4095C155.752 81.1634 153.931 80.9665 152.159 81.311C150.387 81.6556 148.664 82.6893 147.926 84.3628C146.646 87.3162 149.156 90.6633 152.159 91.8447C155.112 93.026 158.459 92.7799 161.609 93.3214C164.76 93.8136 168.156 95.4872 168.944 98.5882C169.879 102.28 166.286 105.922 162.495 106.464C158.705 107.005 154.964 105.381 151.519 103.757C146.055 101.148 140.641 98.3913 134.882 96.5209C129.122 94.6504 122.92 93.6659 116.964 94.7981C107.12 96.6685 98.7028 104.593 96.2417 114.29C93.7805 123.987 97.4722 135.013 105.299 141.264C101.902 140.428 98.1614 140.969 95.0111 142.544C92.9438 143.529 90.8764 145.448 91.0241 147.811Z" fill="url(#paint1_linear_416_749)"/>
<path d="M113.124 34.3526C115.339 35.6324 117.997 35.9769 120.557 36.2723C125.282 36.8137 129.958 37.3552 134.684 37.8474C136.111 37.9951 137.588 38.192 138.868 38.9303C140.098 39.6687 141.033 41.1453 140.689 42.5728C140.147 44.7386 137.194 45.1816 134.979 44.837C132.764 44.4925 130.155 43.951 128.531 45.5262C126.808 47.1505 127.497 50.2023 129.269 51.7774C131.041 53.3526 133.502 53.7956 135.865 54.1894C145.71 55.8629 155.554 57.5365 165.399 59.1609C157.523 43.951 145.267 31.3008 130.204 22.9329C126.464 22.5884 122.673 22.5884 118.932 22.8345C117.062 22.9329 115.142 23.1298 113.469 23.9174C111.746 24.7049 110.269 26.1324 109.875 27.9536C109.186 30.464 110.909 33.0236 113.124 34.3526Z" fill="url(#paint2_linear_416_749)"/>
<path d="M168.256 132.405C167.222 134.915 166.09 137.376 164.859 139.739C164.416 140.625 163.924 141.462 163.481 142.299C163.333 142.545 163.186 142.791 163.038 143.037C152.061 161.938 134.194 176.508 112.585 183.006C111.354 183.35 110.124 183.695 108.893 184.039C103.872 185.319 98.6548 186.156 93.2895 186.501C70.1548 188.076 48.4968 180.495 31.8595 166.811C30.8751 166.024 29.9398 165.187 28.9554 164.35C28.66 164.055 28.3155 163.76 28.0202 163.514C25.3129 161.003 22.8025 158.345 20.3906 155.539L168.256 132.405Z" fill="#752AA3"/>
<path d="M164.86 139.739C164.417 140.625 163.925 141.462 163.482 142.298C163.334 142.544 163.186 142.791 163.039 143.037L127.451 149.485L112.586 183.006C111.355 183.35 110.124 183.695 108.894 184.039L123.907 150.174L31.8602 166.861C30.8757 166.073 29.9405 165.236 28.9561 164.399L164.86 139.739Z" fill="#193291"/>
<path d="M148.908 119.607L147.628 122.265L153.19 126.646L154.519 123.939L148.908 119.607Z" fill="#752AA3"/>
<path d="M156.93 118.967L158.013 116.703L151.761 113.7L151.318 114.635L156.93 118.967Z" fill="#752AA3"/>
<path d="M150.777 115.768L149.448 118.475L155.06 122.806L156.339 120.148L150.777 115.768Z" fill="#752AA3"/>
<path d="M151.319 130.485L152.648 127.778L147.037 123.446L145.757 126.104L151.319 130.485Z" fill="#752AA3"/>
<path d="M145.166 127.286L144.083 129.501L150.334 132.552L150.777 131.617L145.166 127.286Z" fill="#752AA3"/>
<path d="M152.268 109.802L151.343 111.705L159.886 115.86L160.812 113.956L152.268 109.802Z" fill="#752AA3"/>
<path d="M159.885 115.867L158.015 116.703L151.763 113.701L151.32 111.683L159.885 115.867Z" fill="#752AA3"/>
<path d="M142.354 130.141L141.429 132.045L149.972 136.199L150.898 134.296L142.354 130.141Z" fill="#752AA3"/>
<path d="M142.363 130.141L144.234 129.255L150.436 132.307L150.879 134.325L142.363 130.141Z" fill="#752AA3"/>
<path d="M185.089 53.1565C181.053 51.1876 163.874 44.0503 153.635 61.1306C142.757 79.2938 157.77 96.2756 153.242 110.304L159.788 113.504C168.009 101.296 190.651 102.576 198.231 82.8378C205.319 64.2316 189.076 55.1254 185.089 53.1565ZM187.501 69.6953C187.747 69.1539 188.436 68.9078 188.977 69.2031C189.519 69.4492 189.765 70.1383 189.47 70.6798C189.224 71.2212 188.534 71.4673 187.993 71.172C187.452 70.8767 187.255 70.2368 187.501 69.6953ZM184.941 62.9518C185.187 62.4104 185.876 62.1642 186.418 62.4596C186.959 62.7057 187.205 63.3948 186.91 63.9363C186.664 64.4777 185.975 64.7238 185.433 64.4285C184.892 64.1824 184.646 63.4933 184.941 62.9518ZM182.775 67.4311C183.021 66.8896 183.711 66.6435 184.252 66.9388C184.793 67.185 185.04 67.8741 184.744 68.4155C184.498 68.957 183.809 69.2031 183.268 68.9078C182.726 68.6124 182.529 67.9725 182.775 67.4311ZM182.578 72.7963C182.332 73.3378 181.643 73.5839 181.102 73.2886C180.56 73.0425 180.314 72.3533 180.61 71.8119C180.856 71.2704 181.545 71.0243 182.086 71.3197C182.628 71.615 182.825 72.2549 182.578 72.7963ZM180.216 60.6876C180.462 60.1461 181.151 59.9 181.692 60.1953C182.234 60.4414 182.48 61.1306 182.185 61.672C181.939 62.2135 181.249 62.4596 180.708 62.1642C180.167 61.8689 179.97 61.229 180.216 60.6876ZM178.05 65.1176C178.296 64.5762 178.985 64.33 179.527 64.6254C180.068 64.8715 180.314 65.5606 180.019 66.1021C179.724 66.6435 179.084 66.8896 178.542 66.5943C178.001 66.299 177.804 65.6591 178.05 65.1176ZM177.853 70.4829C177.607 71.0243 176.918 71.2704 176.376 70.9751C175.835 70.729 175.589 70.0399 175.884 69.4984C176.13 68.957 176.819 68.7109 177.361 69.0062C177.902 69.3015 178.099 69.9414 177.853 70.4829ZM175.687 74.9622C175.441 75.5036 174.752 75.7497 174.211 75.4544C173.669 75.2083 173.423 74.5192 173.718 73.9777C174.014 73.4362 174.654 73.1901 175.195 73.4855C175.736 73.7316 175.983 74.4207 175.687 74.9622ZM175.49 58.3741C175.736 57.8326 176.426 57.5865 176.967 57.8819C177.509 58.128 177.755 58.8171 177.459 59.3585C177.213 59.9 176.524 60.1461 175.983 59.8508C175.441 59.5554 175.244 58.9155 175.49 58.3741ZM173.325 62.8041C173.571 62.2627 174.26 62.0166 174.801 62.3119C175.343 62.558 175.589 63.2471 175.293 63.7886C175.047 64.33 174.358 64.5762 173.817 64.2808C173.275 64.0347 173.078 63.3456 173.325 62.8041ZM171.159 67.2342C171.405 66.6927 172.094 66.4466 172.635 66.742C173.177 66.9881 173.423 67.6772 173.128 68.2186C172.882 68.7601 172.192 69.0062 171.651 68.7109C171.11 68.4648 170.913 67.7756 171.159 67.2342ZM170.962 72.6487C170.716 73.1901 170.027 73.4363 169.485 73.1409C168.944 72.8948 168.698 72.2057 168.993 71.6642C169.239 71.1228 169.928 70.8767 170.47 71.172C171.011 71.4673 171.257 72.1072 170.962 72.6487ZM164.711 80.5243C164.957 79.9829 165.646 79.7368 166.187 80.0321C166.729 80.2782 166.975 80.9673 166.68 81.5088C166.433 82.0502 165.744 82.2963 165.203 82.001C164.661 81.7549 164.464 81.0658 164.711 80.5243ZM164.514 85.9388C164.268 86.4803 163.578 86.7264 163.037 86.4311C162.496 86.1849 162.249 85.4958 162.545 84.9544C162.791 84.4129 163.48 84.1668 164.021 84.4621C164.563 84.7575 164.76 85.3974 164.514 85.9388ZM166.876 76.0943C167.123 75.5528 167.812 75.3067 168.353 75.6021C168.895 75.8482 169.141 76.5373 168.845 77.0787C168.599 77.6202 167.91 77.8663 167.369 77.571C166.827 77.2756 166.63 76.6357 166.876 76.0943ZM168.599 60.5399C168.845 59.9984 169.534 59.7523 170.076 60.0477C170.617 60.2938 170.863 60.9829 170.568 61.5243C170.322 62.0658 169.633 62.3119 169.091 62.0166C168.55 61.7212 168.353 61.0813 168.599 60.5399ZM166.433 64.9699C166.68 64.4285 167.369 64.1824 167.91 64.4777C168.452 64.7238 168.698 65.4129 168.402 65.9544C168.156 66.4958 167.467 66.742 166.926 66.4466C166.433 66.1513 166.187 65.5114 166.433 64.9699ZM164.268 69.4C164.514 68.8585 165.203 68.6124 165.744 68.9078C166.286 69.1539 166.532 69.843 166.237 70.3844C165.99 70.9259 165.301 71.172 164.76 70.8767C164.268 70.5813 164.021 69.9414 164.268 69.4ZM164.12 74.7653C163.874 75.3067 163.185 75.5528 162.643 75.2575C162.102 75.0114 161.856 74.3223 162.151 73.7808C162.397 73.2394 163.086 72.9932 163.628 73.2886C164.169 73.5839 164.366 74.2238 164.12 74.7653ZM161.954 79.1953C161.708 79.7368 161.019 79.9829 160.477 79.6875C159.936 79.4414 159.69 78.7523 159.985 78.2109C160.231 77.6694 160.92 77.4233 161.462 77.7186C162.003 78.014 162.2 78.6539 161.954 79.1953ZM161.708 62.6565C161.954 62.115 162.643 61.8689 163.185 62.1642C163.726 62.4104 163.972 63.0995 163.677 63.6409C163.431 64.1824 162.742 64.4285 162.2 64.1332C161.708 63.8378 161.462 63.1979 161.708 62.6565ZM159.591 67.0865C159.838 66.5451 160.527 66.299 161.068 66.5943C161.61 66.8404 161.856 67.5295 161.56 68.071C161.314 68.6124 160.625 68.8585 160.084 68.5632C159.542 68.3171 159.296 67.628 159.591 67.0865ZM157.426 71.5166C157.672 70.9751 158.361 70.729 158.902 71.0243C159.444 71.2704 159.69 71.9596 159.395 72.501C159.148 73.0425 158.459 73.2886 157.918 72.9932C157.376 72.6979 157.18 72.058 157.426 71.5166ZM166.975 102.871C164.415 104.25 161.806 106.12 160.034 107.4C159.148 108.04 157.869 107.449 157.869 106.317C157.819 104.102 157.623 100.903 157.18 98.0476C156.983 96.9647 158.115 96.1279 159.148 96.6202L163.037 98.5399L166.926 100.46C167.91 100.903 167.959 102.33 166.975 102.871ZM169.239 88.2523C168.993 88.7937 168.304 89.0399 167.762 88.7445C167.221 88.4984 166.975 87.8093 167.27 87.2678C167.516 86.7264 168.205 86.4803 168.747 86.7756C169.288 87.0217 169.485 87.7108 169.239 88.2523ZM171.405 83.773C171.159 84.3145 170.47 84.5606 169.928 84.2653C169.387 84.0191 169.141 83.33 169.436 82.7886C169.682 82.2471 170.371 82.001 170.913 82.2963C171.454 82.5917 171.651 83.2316 171.405 83.773ZM171.602 78.4077C171.848 77.8663 172.537 77.6202 173.078 77.9155C173.62 78.1616 173.866 78.8508 173.571 79.3922C173.325 79.9337 172.635 80.1798 172.094 79.8844C171.553 79.5891 171.306 78.9492 171.602 78.4077ZM173.964 90.5165C173.718 91.058 173.029 91.3041 172.488 91.0088C171.946 90.7627 171.7 90.0735 171.996 89.5321C172.242 88.9906 172.931 88.7445 173.472 89.0399C174.014 89.3352 174.211 89.9751 173.964 90.5165ZM176.13 86.0865C175.884 86.6279 175.195 86.8741 174.654 86.5787C174.112 86.3326 173.866 85.6435 174.161 85.102C174.407 84.5606 175.097 84.3145 175.638 84.6098C176.13 84.9051 176.376 85.545 176.13 86.0865ZM178.296 81.6564C178.05 82.1979 177.361 82.444 176.819 82.1487C176.278 81.9026 176.032 81.2134 176.327 80.672C176.573 80.1305 177.262 79.8844 177.804 80.1798C178.296 80.4751 178.542 81.115 178.296 81.6564ZM178.444 76.2912C178.69 75.7497 179.379 75.5036 179.92 75.7989C180.462 76.0451 180.708 76.7342 180.413 77.2756C180.167 77.8171 179.477 78.0632 178.936 77.7679C178.395 77.4725 178.198 76.8326 178.444 76.2912ZM180.856 88.4C180.61 88.9414 179.92 89.1875 179.379 88.8922C178.838 88.6461 178.591 87.957 178.887 87.4155C179.133 86.8741 179.822 86.6279 180.363 86.9233C180.856 87.1694 181.102 87.8585 180.856 88.4ZM182.972 83.9207C182.726 84.4621 182.037 84.7083 181.496 84.4129C180.954 84.1668 180.708 83.4777 181.003 82.9362C181.249 82.3948 181.939 82.1487 182.48 82.444C183.021 82.7393 183.268 83.3792 182.972 83.9207ZM185.138 79.5399C184.892 80.0813 184.203 80.3274 183.661 80.0321C183.12 79.786 182.874 79.0969 183.169 78.5554C183.415 78.014 184.104 77.7679 184.646 78.0632C185.187 78.3585 185.384 78.9984 185.138 79.5399ZM185.335 74.1254C185.581 73.5839 186.27 73.3378 186.812 73.6331C187.353 73.8793 187.599 74.5684 187.304 75.1098C187.058 75.6513 186.369 75.8974 185.827 75.6021C185.286 75.3559 185.089 74.6668 185.335 74.1254ZM187.698 86.2342C187.452 86.7756 186.762 87.0217 186.221 86.7264C185.679 86.4803 185.433 85.7912 185.729 85.2497C185.975 84.7083 186.664 84.4621 187.205 84.7575C187.747 85.0528 187.993 85.6927 187.698 86.2342ZM189.863 81.8533C189.617 82.3948 188.928 82.6409 188.387 82.3456C187.845 82.0995 187.599 81.4103 187.895 80.8689C188.141 80.3274 188.83 80.0813 189.371 80.3767C189.913 80.6228 190.11 81.3119 189.863 81.8533ZM192.029 77.3741C191.783 77.9155 191.094 78.1616 190.553 77.8663C190.011 77.6202 189.765 76.9311 190.06 76.3896C190.306 75.8482 190.996 75.602 191.537 75.8974C192.078 76.1927 192.275 76.8326 192.029 77.3741Z" fill="#752AA3"/>
<path d="M73.0563 18.8476C74.4427 18.8476 75.5666 17.7237 75.5666 16.3373C75.5666 14.9508 74.4427 13.8269 73.0563 13.8269C71.6698 13.8269 70.5459 14.9508 70.5459 16.3373C70.5459 17.7237 71.6698 18.8476 73.0563 18.8476Z" fill="#752AA3"/>
<path d="M157.276 123.988C157.079 122.363 150.926 118.524 150.926 118.524C150.926 118.524 146.594 119.262 144.871 119.902C144.871 119.902 143.789 117.49 141.672 115.669C141.672 115.669 140.146 102.182 131.187 91.0084C131.187 91.0084 128.185 82.3452 125.921 78.0136L118.39 81.7053L124.936 76.2908C124.936 76.2908 127.693 74.9126 128.037 72.7468C128.333 70.581 121.638 65.954 115.978 60.7364C110.317 55.5188 103.524 44.8375 87.9207 51.0887L81.4233 53.8452C80.8818 56.9462 79.0114 61.9177 79.0114 61.9177C79.2575 58.669 79.0114 54.8789 79.0114 54.8789C79.0114 54.8789 80.7342 50.252 80.3404 46.3634C80.3404 46.3634 82.7523 48.283 84.8197 48.6276C84.8197 48.6276 82.6539 44.3944 82.6539 39.1276C78.273 38.1432 64.5891 35.1406 65.7212 35.1898C67.0995 35.2882 82.7523 37.1095 82.7523 37.1095C82.7523 37.1095 84.5735 37.1587 85.4595 36.9618C86.3948 36.7649 85.9518 14.7624 63.1616 14.3193C51.0529 14.0732 44.6047 26.2805 44.6047 26.2805C44.6047 26.2805 25.1617 30.9074 25.8016 33.0732C26.4415 35.239 44.0632 34.796 44.0632 34.796C44.0632 34.796 42.9311 38.5369 43.8663 41.8349C43.8663 41.7856 43.9156 41.7856 43.9156 41.7856V42.0318C43.9156 42.0318 44.8508 43.5084 47.4596 41.8349C50.0192 40.1613 49.4777 39.2753 52.9725 39.5214C56.4674 39.7675 55.8767 40.5551 54.843 41.5888C54.4492 41.9825 52.9725 45.8219 48.001 44.739C46.672 44.4437 45.8352 44.3944 45.343 44.4437C46.4259 45.9204 46.672 46.2649 46.3767 47.7416C45.9829 49.6121 43.4233 53.796 44.3586 54.3867C45.2938 55.0266 47.7549 55.1742 47.7549 55.1742C47.7549 55.1742 48.2964 56.9955 48.7394 57.1924L52.2834 56.897L49.2808 58.5214C49.1824 58.9152 49.1824 59.7027 49.5762 59.8996C49.97 60.0965 51.0529 62.41 51.6927 65.068C52.3326 67.7753 59.4699 65.3141 61.7834 63.4436C62.6694 62.7545 62.8171 63.0006 62.3741 63.8867C62.3741 63.8867 65.3274 69.3012 71.5787 71.7131C71.5787 71.7131 64.786 70.6794 60.9466 66.1509C60.3067 67.0369 59.4699 68.0214 58.4855 69.1043C71.7264 88.941 107.856 102.674 115.879 105.578C114.255 97.555 112.631 85.7416 112.631 85.7416C112.631 85.7416 120.752 99.5239 125.871 109.467C130.991 119.41 134.928 128.172 137.291 130.091C138.177 130.83 139.112 131.617 139.851 132.306C141.13 133.537 142.558 134.521 144.182 135.26L149.055 137.524C149.646 137.425 152.156 136.884 151.713 134.472C151.713 134.472 153.879 133.832 153.436 131.617C153.436 131.617 156.34 130.042 155.504 126.744C155.405 126.695 157.472 125.612 157.276 123.988ZM46.3767 52.8608C46.3767 52.467 47.6073 49.2183 48.001 48.3323C48.0503 48.1846 48.0995 48.0862 48.0995 48.0862L50.1668 52.8608C50.0684 53.2053 46.3767 53.3038 46.3767 52.8608ZM49.2808 27.2649H47.3119C53.9078 15.5007 65.3767 15.6976 65.3767 15.6976C54.2523 18.6509 49.2808 27.2649 49.2808 27.2649ZM71.8741 54.5343C71.0865 57.1431 65.6228 61.2286 65.6228 61.2286C65.6228 61.2286 69.0684 56.6017 70.5451 53.9437C72.0217 51.2856 73.843 46.6587 73.843 46.6587C73.843 46.6587 72.6616 51.8763 71.8741 54.5343ZM77.8793 75.9462C77.1409 75.9462 76.5502 75.3556 76.5502 74.6172C76.5502 73.8789 77.1409 73.2882 77.8793 73.2882C78.6176 73.2882 79.2083 73.8789 79.2083 74.6172C79.2083 75.3556 78.6176 75.9462 77.8793 75.9462ZM82.2601 82.2467C81.5217 82.2467 80.9311 81.6561 80.9311 80.9177C80.9311 80.1794 81.5217 79.5887 82.2601 79.5887C82.9984 79.5887 83.5891 80.1794 83.5891 80.9177C83.5891 81.6561 82.9984 82.2467 82.2601 82.2467ZM100.423 54.7312C97.3222 54.3374 84.9673 55.7649 85.2627 55.5188C85.558 55.3219 98.7005 51.8271 101.703 53.1561C104.706 54.4851 113.615 62.3607 113.615 62.3607C115.879 64.3297 103.475 55.125 100.423 54.7312Z" fill="#031563"/>
<path d="M70.3484 133.045C70.3484 133.045 69.9054 146.138 61.2422 155.687C61.2422 155.687 93.4339 169.716 133.058 172.029C133.058 172.029 94.7629 162.972 81.9157 154.998L112.828 161.446C112.828 161.446 90.6282 152.635 85.4106 149.731C85.4106 149.731 111.892 155.687 125.576 155.589C125.576 155.589 105.641 150.47 99.7836 148.008L123.164 148.156L108.496 142.742L98.3069 143.332C98.3069 143.332 86.0012 143.529 80.8821 141.511C75.7137 139.444 70.3484 133.045 70.3484 133.045Z" fill="#031563"/>
<path d="M140.491 134.472C140.491 134.472 136.553 133.094 134.535 135.407C132.517 137.721 132.468 138.804 126.66 138.41C120.9 138.016 100.227 128.319 88.6103 125.563C88.6103 125.563 75.4679 109.122 71.2347 105.037C71.2347 105.037 74.4342 102.773 75.0248 101.837C75.6647 100.902 68.0352 92.3866 68.0352 92.3866C68.0352 92.3866 74.0896 97.9487 77.2891 99.8684C80.4886 101.837 75.3202 105.332 75.3202 105.332C75.3202 105.332 87.429 120.099 89.7917 122.363C92.1544 124.627 121.836 134.472 125.035 135.309C128.235 136.146 128.628 134.57 126.364 130.288C124.592 126.941 121.491 119.754 119.276 115.423L117.11 117.392L107.463 124.677L116.274 113.405L107.02 117.589L111.4 114.241C113.172 112.863 114.6 111.042 115.486 109.024C118.735 109.221 120.851 108.778 120.851 108.778L116.027 107.547C72.2191 93.5187 55.4834 71.9099 55.4834 71.9099C49.8228 77.3736 43.5715 76.6353 43.3746 86.0861C43.1777 95.5368 51.2995 108.089 50.6596 111.14C50.0197 114.241 56.3202 111.14 56.3202 111.14C56.3202 111.14 71.2347 131.273 79.6518 137.032C88.0689 142.791 120.113 147.319 126.709 148.747C133.305 150.174 145.659 152.931 144.872 148.254C144.872 148.254 146.398 147.221 146.398 146.187C146.398 145.153 145.906 144.661 145.906 144.661C145.906 144.661 147.776 144.317 147.038 142.397C147.038 142.397 149.253 143.135 149.794 141.166C150.286 139.493 149.105 137.967 148.81 137.622L140.491 134.472ZM48.2477 95.4876C42.8824 83.0343 50.1181 77.9643 50.1181 77.9643C45.6881 84.3633 48.2477 95.4876 48.2477 95.4876Z" fill="#031563"/>
<path d="M37.3216 135.85C36.1403 134.767 35.1558 133.487 34.1221 132.257C33.6299 131.617 33.1869 130.977 32.6947 130.337L32.0055 129.353L31.4149 128.319C29.7413 125.612 28.5107 122.658 27.6247 119.656C26.7387 116.653 26.1973 113.503 26.0988 110.353C25.8035 104.052 26.7879 97.8009 28.5107 91.7465C29.3967 88.7439 30.4796 85.7413 31.7102 82.8864C32.3501 81.4589 32.99 80.0315 33.6791 78.604C33.7776 78.4071 33.9252 78.161 34.0237 77.9641C32.0548 79.6377 29.6429 80.819 27.0341 81.3113C25.9512 84.4123 25.0651 87.5626 24.376 90.7128C22.9978 97.2102 22.4563 103.954 23.2439 110.599C23.6377 113.897 24.4252 117.195 25.5574 120.296C26.6895 123.397 28.2154 126.399 30.1843 129.057L30.8734 130.091L31.661 131.026C32.2024 131.666 32.6947 132.306 33.2361 132.897C34.3682 134.078 35.5004 135.259 36.7802 136.293C39.1921 138.459 41.9485 140.231 44.7542 141.904C42.1454 140.132 39.5366 138.164 37.3216 135.85Z" fill="#133959"/>
<path d="M17.5829 110.057C17.386 108.039 17.1399 106.07 17.1399 104.052C17.0414 100.065 17.386 96.0778 18.1735 92.1892L18.8134 89.2851C19.1088 88.3498 19.3057 87.3654 19.601 86.4301C19.8963 85.4949 20.1917 84.5597 20.5362 83.6737C20.8316 82.8369 21.1761 82.0001 21.5207 81.2618C19.6502 80.868 17.8782 80.1296 16.3031 79.0959C15.9585 80.1788 15.7124 81.1141 15.4663 82.0985C15.2202 83.1322 14.9741 84.2151 14.7772 85.2488C14.5803 86.2825 14.4326 87.3654 14.2849 88.3991L13.9404 91.5493C13.5958 95.7825 13.6943 100.065 14.2849 104.2C14.4818 106.316 15.0233 108.334 15.4663 110.402C16.1062 112.42 16.5492 114.438 17.4352 116.358C18.8627 120.295 21.0285 123.839 23.2435 127.285C21.4222 123.593 19.6994 119.902 18.7642 115.915C18.2228 114.044 17.9766 112.026 17.5829 110.057Z" fill="#1A5AA8"/>
<path d="M32.8918 141.117C29.0524 138.508 25.4592 135.555 22.2597 132.257C19.0602 128.959 16.353 125.169 14.1872 121.182C9.85555 113.158 7.88664 103.954 8.13276 94.8967C8.28043 90.3682 8.8711 85.8397 9.954 81.5081C10.5447 79.3423 11.1846 77.1765 12.0214 75.1092C12.0706 75.0107 12.1198 74.9123 12.169 74.8138C10.7416 72.5496 9.85555 69.8915 9.80633 67.0366C8.62499 69.104 7.7882 71.1713 7.04985 73.2387C6.26229 75.6014 5.6224 77.9641 5.13017 80.376C4.19494 85.1506 3.75193 90.0236 3.85038 94.8967C4.04727 104.594 6.65607 114.29 11.6768 122.56C14.1872 126.695 17.1897 130.485 20.6846 133.733C24.1794 137.031 28.0187 139.837 32.055 142.298C40.2752 147.073 49.1845 150.321 58.34 152.487C49.4306 149.878 40.669 146.187 32.8918 141.117Z" fill="white"/>
<path d="M20.142 70.3343C18.0746 68.2669 15.4658 67.0856 12.9062 66.8887C13.1524 69.5467 14.2845 72.1555 16.3026 74.1736C18.3208 76.1918 20.9296 77.3239 23.5876 77.57C23.3907 75.0104 22.2586 72.4016 20.142 70.3343Z" fill="white"/>
<path d="M27.9684 62.508C25.6057 60.1453 24.2767 57.0935 24.0306 54.1401C21.2249 54.2878 18.4684 55.4199 16.3026 57.5365C14.186 59.6531 13.0047 62.4588 12.9062 65.2645C15.8596 65.4614 18.9114 66.7904 21.2741 69.2023C23.6368 71.565 24.9658 74.6168 25.2119 77.5702C28.0176 77.4225 30.7741 76.2904 32.9399 74.1738C35.0565 72.0572 36.2378 69.2515 36.3363 66.4458C33.3337 66.2489 30.3311 64.9199 27.9684 62.508Z" fill="white"/>
<path d="M29.052 61.4252C26.9847 59.3578 25.8033 56.749 25.6064 54.1895C28.2645 54.4356 30.8733 55.5677 32.8914 57.5858C34.9095 59.604 36.0417 62.2128 36.2878 64.8708C33.7282 64.6247 31.1194 63.4926 29.052 61.4252Z" fill="white"/>
<defs>
<linearGradient id="paint0_linear_416_749" x1="87.3714" y1="186.731" x2="83.7394" y2="11.809" gradientUnits="userSpaceOnUse">
<stop stop-color="#28037C"/>
<stop offset="0.704974" stop-color="#4F71F8"/>
</linearGradient>
<linearGradient id="paint1_linear_416_749" x1="175.147" y1="120.773" x2="91.0008" y2="120.773" gradientUnits="userSpaceOnUse">
<stop stop-color="#1134B7"/>
<stop offset="1" stop-color="#02125B"/>
</linearGradient>
<linearGradient id="paint2_linear_416_749" x1="165.355" y1="40.9041" x2="109.65" y2="40.9041" gradientUnits="userSpaceOnUse">
<stop stop-color="#1134B7"/>
<stop offset="1" stop-color="#02125B"/>
</linearGradient>
</defs>
</svg>
