<svg width="200" height="200" viewBox="0 0 200 200" fill="none" xmlns="http://www.w3.org/2000/svg">
<path d="M78.5634 189.62C71.2784 188.193 64.0427 185.879 57.0038 182.63C35.6411 172.737 19.6929 155.853 10.7344 135.918" stroke="#D89EEF" stroke-miterlimit="10"/>
<path d="M58.3815 179.677C34.8038 168.749 18.1172 149.011 10.4385 126.171" stroke="#D89EEF" stroke-miterlimit="10"/>
<path d="M163.227 35.9463C173.957 47.6613 181.39 61.8867 184.885 77.1458" stroke="white" stroke-miterlimit="10"/>
<path d="M15.8535 130.405C17.2317 133.801 18.8561 137.148 20.6773 140.348C34.6566 165.058 60.4001 182.483 90.8198 184.55C115.776 186.273 139.009 177.265 156.04 161.514C157.123 160.529 158.206 159.496 159.24 158.413C160.765 156.838 162.242 155.213 163.67 153.54C170.266 145.664 175.582 136.558 179.076 126.615C181.685 119.281 183.359 111.454 183.9 103.283C184.392 96.2443 183.999 89.3531 182.867 82.708C182.817 82.3142 182.719 81.9204 182.67 81.5267C181.095 72.9127 178.24 64.7417 174.302 57.1614C166.426 41.9515 154.17 29.3012 139.107 20.9334C128.229 14.879 115.923 11.0888 102.683 10.2028C72.8043 8.18465 45.4364 21.3764 28.1592 43.2313C20.3327 53.1251 14.5737 64.7909 11.6203 77.6381C10.5866 82.1173 9.8975 86.7443 9.55294 91.4697C8.66693 105.203 10.9804 118.444 15.8535 130.405Z" fill="url(#paint0_linear_416_1204)"/>
<path d="M93.1333 145.812L33.869 158.413C32.3431 156.838 30.8664 155.213 29.439 153.54C22.8431 145.664 17.527 136.558 14.0322 126.615C11.4234 119.281 9.74983 111.454 9.20838 103.283C8.71615 96.2444 9.10993 89.3532 10.2421 82.7081C10.2913 82.3144 10.3897 81.9206 10.4389 81.5268C15.8535 80.8377 21.2187 80.0993 26.6333 79.4102C28.4053 79.1641 30.2265 78.9672 31.9985 79.3118C33.7706 79.6563 35.4934 80.69 36.2317 82.3636C37.5115 85.3169 35.0011 88.6641 31.9985 89.8454C29.0452 91.0268 25.698 90.7807 22.5478 91.3221C19.3975 91.8144 16.0011 93.4879 15.2136 96.589C14.2783 100.281 17.8716 103.923 21.6617 104.465C25.4519 105.006 29.1928 103.382 32.6384 101.757C38.1022 99.1486 43.5167 96.3921 49.2758 94.5216C55.0348 92.6511 61.2369 91.6667 67.1929 92.7988C77.0374 94.6693 85.4545 102.594 87.9157 112.291C90.3768 121.988 86.6851 133.014 78.8587 139.265C82.255 138.428 85.996 138.97 89.1462 140.545C91.2136 141.529 93.2317 143.449 93.1333 145.812Z" fill="white"/>
<path d="M71.0324 32.3531C68.8174 33.6329 66.1594 33.9775 63.5998 34.2728C58.8744 34.8142 54.1982 35.3557 49.4729 35.8479C48.0454 35.9956 46.5687 36.1925 45.2889 36.9308C44.0583 37.6692 43.1231 39.1459 43.4677 40.5733C44.0091 42.7391 46.9625 43.1821 49.1775 42.8376C51.3925 42.493 54.0014 41.9516 55.6257 43.5267C57.3485 45.151 56.6594 48.2029 54.8874 49.778C53.1153 51.3531 50.6542 51.7961 48.2915 52.1899C38.4469 53.8635 28.6024 55.5371 18.7578 57.1614C26.6335 41.9516 38.8899 29.3013 53.9521 20.9334C57.6931 20.5888 61.4832 20.5888 65.2734 20.835C67.1438 20.9334 69.0635 21.1303 70.7371 21.9179C72.4599 22.7054 73.9366 24.1329 74.3304 25.9541C74.9211 28.4645 73.2475 31.0241 71.0324 32.3531Z" fill="white"/>
<path d="M177.254 130.406C176.22 132.916 175.088 135.377 173.858 137.74C173.415 138.626 172.922 139.463 172.479 140.3C172.332 140.546 172.184 140.792 172.036 141.038C161.06 159.939 143.192 174.509 121.583 181.007C120.352 181.351 119.122 181.696 117.891 182.04C112.871 183.32 107.653 184.157 102.288 184.502C79.1529 186.077 57.4949 178.496 40.8576 164.813C39.8731 164.025 38.9379 163.188 37.9534 162.351C37.6581 162.056 37.3135 161.761 37.0182 161.515C34.311 159.004 31.8006 156.346 29.3887 153.54L177.254 130.406Z" fill="#C193EC"/>
<path d="M173.857 137.74C173.414 138.626 172.922 139.463 172.479 140.299C172.331 140.545 172.184 140.792 172.036 141.038L136.448 147.486L121.583 181.007C120.352 181.351 119.122 181.696 117.891 182.04L132.904 148.175L40.8573 164.862C39.8728 164.074 38.9376 163.237 37.9531 162.4L173.857 137.74Z" fill="#DDEEFF"/>
<path d="M139.894 160.579L133.84 155.902L141.174 145.959L147.179 150.636L139.894 160.579Z" fill="white"/>
<path d="M180.011 99.5912C164.506 87.5316 147.032 95.555 143.586 112.34C140.092 129.617 149.05 133.653 141.814 143.843L149.001 149.454C156.532 139.511 162.734 147.288 177.944 139.166C192.76 131.192 195.517 111.651 180.011 99.5912ZM181.34 122.234C181.734 122.529 181.783 123.071 181.488 123.415C181.193 123.809 180.7 123.858 180.307 123.563C179.913 123.267 179.864 122.726 180.159 122.381C180.405 121.988 180.947 121.938 181.34 122.234ZM179.864 116.327C180.208 116.622 180.307 117.164 180.011 117.508C179.716 117.902 179.224 117.951 178.83 117.656C178.436 117.361 178.387 116.819 178.682 116.475C178.978 116.081 179.519 116.032 179.864 116.327ZM179.224 126.467C178.928 126.861 178.436 126.91 178.042 126.615C177.698 126.319 177.599 125.778 177.895 125.384C178.19 124.99 178.682 124.941 179.076 125.236C179.421 125.581 179.519 126.073 179.224 126.467ZM177.304 110.568C177.599 110.174 178.092 110.125 178.485 110.42C178.879 110.716 178.928 111.257 178.633 111.602C178.338 111.995 177.846 112.045 177.452 111.749C177.058 111.454 177.009 110.962 177.304 110.568ZM177.649 119.379C178.042 119.674 178.092 120.216 177.796 120.609C177.501 121.003 177.009 121.052 176.615 120.757C176.221 120.462 176.172 119.92 176.467 119.576C176.763 119.133 177.255 119.083 177.649 119.379ZM175.68 128.485C175.975 128.091 176.467 128.042 176.861 128.337C177.206 128.633 177.304 129.174 177.009 129.519C176.713 129.912 176.221 129.962 175.827 129.666C175.434 129.42 175.384 128.879 175.68 128.485ZM174.4 123.76C174.006 123.464 173.957 122.923 174.252 122.578C174.548 122.234 175.04 122.135 175.434 122.431C175.827 122.726 175.877 123.267 175.581 123.612C175.286 124.006 174.745 124.055 174.4 123.76ZM176.221 113.423C176.566 113.718 176.664 114.26 176.369 114.653C176.074 115.047 175.581 115.096 175.188 114.801C174.843 114.506 174.745 113.964 175.04 113.62C175.335 113.226 175.827 113.177 176.221 113.423ZM173.612 107.713C173.908 107.319 174.4 107.27 174.794 107.565C175.188 107.861 175.237 108.402 174.941 108.796C174.646 109.19 174.154 109.239 173.76 108.944C173.416 108.599 173.317 108.058 173.612 107.713ZM173.957 116.475C174.302 116.77 174.4 117.311 174.105 117.656C173.809 118.05 173.317 118.099 172.923 117.804C172.529 117.508 172.48 116.967 172.776 116.622C173.071 116.278 173.612 116.229 173.957 116.475ZM169.724 128.682C170.019 128.288 170.511 128.239 170.905 128.534C171.299 128.83 171.348 129.371 171.053 129.765C170.757 130.159 170.265 130.208 169.871 129.912C169.527 129.568 169.478 129.076 169.724 128.682ZM168.493 123.957C168.099 123.661 168.05 123.12 168.346 122.775C168.641 122.381 169.133 122.332 169.527 122.628C169.921 122.923 169.97 123.464 169.675 123.858C169.379 124.153 168.838 124.252 168.493 123.957ZM170.708 120.905C170.314 120.609 170.265 120.068 170.561 119.674C170.856 119.28 171.348 119.231 171.742 119.526C172.136 119.822 172.185 120.363 171.89 120.708C171.594 121.151 171.102 121.2 170.708 120.905ZM171.988 125.63C172.283 125.236 172.776 125.187 173.169 125.482C173.563 125.778 173.612 126.319 173.317 126.664C173.022 127.058 172.529 127.107 172.136 126.811C171.791 126.565 171.693 126.024 171.988 125.63ZM172.529 110.568C172.923 110.863 172.972 111.405 172.677 111.749C172.382 112.143 171.89 112.192 171.496 111.897C171.102 111.602 171.053 111.06 171.348 110.716C171.643 110.371 172.185 110.273 172.529 110.568ZM169.921 104.858C170.216 104.464 170.708 104.415 171.102 104.71C171.496 105.006 171.545 105.547 171.25 105.892C170.954 106.286 170.462 106.335 170.068 106.039C169.724 105.744 169.675 105.203 169.921 104.858ZM170.314 113.62C170.708 113.915 170.757 114.457 170.462 114.801C170.167 115.195 169.675 115.244 169.281 114.949C168.936 114.653 168.838 114.112 169.133 113.718C169.379 113.423 169.921 113.324 170.314 113.62ZM167.706 107.861C168.001 107.467 168.493 107.418 168.887 107.713C169.281 108.008 169.33 108.55 169.035 108.894C168.739 109.288 168.247 109.337 167.853 109.042C167.46 108.796 167.41 108.254 167.706 107.861ZM168.05 116.672C168.395 116.967 168.493 117.508 168.198 117.902C167.903 118.296 167.41 118.345 167.017 118.05C166.672 117.754 166.574 117.213 166.869 116.868C167.164 116.475 167.656 116.376 168.05 116.672ZM163.817 128.879C164.112 128.485 164.605 128.436 164.998 128.731C165.392 129.026 165.441 129.568 165.146 129.912C164.851 130.306 164.359 130.355 163.965 130.06C163.62 129.765 163.522 129.223 163.817 128.879ZM162.537 124.153C162.143 123.858 162.094 123.317 162.39 122.923C162.685 122.529 163.177 122.48 163.571 122.775C163.965 123.071 164.014 123.612 163.719 123.957C163.423 124.35 162.931 124.449 162.537 124.153ZM164.802 121.102C164.408 120.806 164.359 120.265 164.654 119.92C164.949 119.526 165.441 119.477 165.835 119.773C166.18 120.068 166.278 120.609 165.983 120.954C165.688 121.298 165.146 121.397 164.802 121.102ZM166.081 125.827C166.377 125.433 166.869 125.384 167.263 125.679C167.656 125.975 167.706 126.516 167.41 126.861C167.115 127.254 166.623 127.304 166.229 127.008C165.835 126.713 165.786 126.172 166.081 125.827ZM166.623 110.765C167.017 111.06 167.066 111.602 166.77 111.946C166.475 112.34 165.983 112.389 165.589 112.094C165.195 111.798 165.146 111.257 165.441 110.912C165.737 110.568 166.229 110.469 166.623 110.765ZM164.014 105.006C164.309 104.612 164.802 104.563 165.195 104.858C165.54 105.153 165.638 105.695 165.343 106.039C165.048 106.433 164.555 106.482 164.162 106.187C163.817 105.941 163.719 105.4 164.014 105.006ZM164.359 113.817C164.752 114.112 164.801 114.653 164.506 114.998C164.211 115.392 163.719 115.441 163.325 115.146C162.98 114.85 162.882 114.309 163.177 113.964C163.472 113.62 164.014 113.521 164.359 113.817ZM161.75 108.058C162.045 107.664 162.537 107.615 162.931 107.91C163.325 108.205 163.374 108.747 163.079 109.091C162.783 109.485 162.291 109.534 161.897 109.239C161.553 108.993 161.504 108.451 161.75 108.058ZM162.143 116.868C162.488 117.164 162.586 117.705 162.291 118.05C161.996 118.444 161.504 118.493 161.11 118.197C160.765 117.902 160.667 117.361 160.962 116.967C161.257 116.672 161.75 116.573 162.143 116.868ZM155.055 117.213C155.351 116.819 155.843 116.77 156.237 117.065C156.631 117.361 156.68 117.902 156.384 118.247C156.089 118.64 155.597 118.69 155.203 118.394C154.809 118.148 154.76 117.607 155.055 117.213ZM153.776 112.488C153.382 112.192 153.333 111.651 153.628 111.257C153.923 110.863 154.415 110.814 154.809 111.109C155.203 111.405 155.252 111.946 154.957 112.291C154.662 112.734 154.12 112.783 153.776 112.488ZM155.843 108.254C156.138 107.861 156.631 107.811 157.024 108.107C157.418 108.402 157.467 108.944 157.172 109.288C156.877 109.682 156.384 109.731 155.991 109.436C155.646 109.19 155.548 108.648 155.843 108.254ZM156.483 123.12C156.778 122.726 157.27 122.677 157.664 122.972C158.058 123.267 158.107 123.809 157.812 124.153C157.517 124.547 157.024 124.596 156.631 124.301C156.237 124.055 156.188 123.514 156.483 123.12ZM157.467 115.392C157.074 115.096 157.024 114.555 157.32 114.21C157.615 113.817 158.107 113.767 158.501 114.063C158.895 114.358 158.944 114.9 158.649 115.244C158.353 115.589 157.812 115.638 157.467 115.392ZM158.107 105.203C158.403 104.809 158.895 104.76 159.289 105.055C159.633 105.35 159.732 105.892 159.436 106.286C159.141 106.679 158.649 106.729 158.255 106.433C157.861 106.138 157.812 105.596 158.107 105.203ZM158.698 120.068C158.993 119.674 159.485 119.625 159.879 119.92C160.224 120.216 160.322 120.757 160.027 121.102C159.732 121.495 159.239 121.545 158.846 121.249C158.501 121.003 158.452 120.462 158.698 120.068ZM160.125 125.975C160.421 125.581 160.913 125.532 161.307 125.827C161.7 126.122 161.75 126.664 161.454 127.058C161.159 127.451 160.667 127.501 160.273 127.205C159.928 126.91 159.879 126.368 160.125 125.975ZM160.716 110.962C161.11 111.257 161.159 111.798 160.864 112.192C160.568 112.586 160.076 112.635 159.682 112.34C159.289 112.045 159.239 111.503 159.535 111.159C159.781 110.765 160.322 110.666 160.716 110.962ZM145.014 142.317C145.014 142.317 149.395 135.425 146.54 124.941C143.882 115.195 145.555 102.692 159.781 98.0653C157.566 99.099 154.563 101.314 151.807 105.941C146.786 114.407 150.428 119.526 151.708 128.042C153.037 136.508 145.014 142.317 145.014 142.317ZM165.589 139.609C155.203 139.609 149.985 145.565 149.739 145.811C149.838 145.516 153.136 136.262 161.307 135.278C169.625 134.293 175.384 136.459 181.931 129.223C185.524 125.236 186.804 121.643 187.149 119.133C186.706 134.539 175.434 139.609 165.589 139.609Z" fill="white"/>
<path d="M141.616 144.089L148.803 149.7C148.852 149.602 148.95 149.503 149 149.405L141.813 143.793C141.764 143.892 141.665 143.99 141.616 144.089Z" fill="#031563"/>
<path d="M150.328 150.438L148.409 153.047L138.121 145.024L140.041 142.415L141.813 143.842L148.999 149.405L150.328 150.438Z" fill="white"/>
<path d="M144.374 159.643C143.34 162.892 139.895 169.931 134.874 170.768C129.853 171.604 120.944 163.187 120.944 163.187C120.944 163.187 86.9801 152.604 84.076 150.439C83.7314 150.192 83.2392 149.454 82.6485 148.371C82.4516 147.928 82.2055 147.485 81.9594 146.944C81.4179 145.812 80.8273 144.384 80.1874 142.858C79.1045 140.2 77.9231 137.148 76.7418 133.998C76.6433 133.801 76.5941 133.555 76.4956 133.358C76.4956 133.309 76.4464 133.26 76.4464 133.211C73.1485 124.252 70.0967 115.244 70.0967 115.244L78.4646 109.239L82.5993 106.286L84.3221 105.055L86.5371 103.431C87.3247 104.907 87.8169 105.793 87.8169 105.793L86.1925 107.27L89.835 105.793L88.063 102.348L110.853 86.0059C111.345 88.024 111.444 90.3375 111.345 92.8478C111.247 95.6535 110.804 98.7053 110.164 101.806C108.835 108.451 106.718 115.343 104.897 120.905C102.928 126.959 101.402 131.389 101.895 132.029L98.4983 140.791L104.11 133.85C110.656 138.724 129.263 151.029 129.263 151.029C129.263 151.029 135.957 147.731 137.532 147.731C138.073 147.731 138.763 147.977 139.402 148.322C140.731 148.962 141.962 149.897 141.962 149.897L142.208 154.77C142.208 154.77 142.799 155.066 143.389 155.705C144.226 156.493 145.014 157.822 144.374 159.643Z" fill="#717ECC"/>
<path d="M84.1248 143.203L57.9383 140.84C58.3813 141.037 71.3269 146.501 84.2725 147.091C84.2725 147.337 84.3217 147.633 84.3217 147.879C77.972 149.897 58.1844 154.77 41.6455 144.138C42.0393 144.581 57.7414 163.138 85.2077 153.293C85.2077 153.392 85.2569 153.441 85.2569 153.539C83.3372 155.607 68.1766 163.975 45.5833 158.413C45.5833 158.413 54.9357 167.174 64.4849 167.174C64.4849 167.174 51.3916 167.371 38.1507 162.843C29.6844 159.938 21.1688 155.164 16.0004 147.141C16.0004 147.141 18.2154 147.633 20.8243 148.223C23.8761 148.913 27.4693 149.7 28.6507 150.045C28.8476 150.143 28.946 150.192 29.0445 150.192C29.1429 150.192 28.9952 150.143 28.6507 150.045C27.7154 149.503 25.3528 147.534 22.4486 144.089C20.3812 141.578 18.0186 138.33 15.7051 134.293C15.7051 134.293 20.332 135.77 25.6481 136.065C27.174 136.164 28.7983 136.115 30.3243 135.967C30.3243 135.967 28.4046 134.786 26.6818 133.407C25.402 132.374 24.2698 131.192 24.1714 130.257C31.2595 129.617 36.0833 121.84 38.1015 115.638C39.7258 110.666 41.0056 105.449 43.1222 100.723C48.5859 108.697 54.8864 115.933 61.8761 122.628C64.731 125.384 67.7336 128.042 70.8346 130.552C72.016 131.488 73.8865 133.506 75.4616 133.703C76.6922 133.85 82.0082 130.405 86.7828 127.058L85.8968 130.503V130.552L85.7492 131.094C83.8787 138.477 86.8321 142.907 86.8321 142.907C86.8321 142.907 85.9461 142.957 84.1248 143.203Z" fill="#4954B7"/>
<path d="M107.505 70.8944C106.176 70.5006 104.65 70.1068 102.977 69.6638C100.023 72.6664 90.3263 76.9488 89.3911 77.3918C89.9326 77.0964 93.132 75.226 96.3807 72.1249C97.1191 71.4358 97.8082 70.6975 98.5466 69.8607C98.8419 69.5161 99.1372 69.1716 99.4326 68.827C99.2357 68.7778 99.088 68.7286 98.8911 68.6793C93.7719 67.498 87.9636 66.4643 82.9429 65.9721C79.5465 65.6275 76.4947 65.5783 74.3289 65.9229C69.1605 66.8089 64.3859 67.941 60.1035 71.2882C56.7564 73.897 53.9999 77.3918 50.0128 79.0161C49.0776 79.4099 47.9947 79.2622 47.0595 78.8192C46.1242 78.3762 45.3367 77.7363 44.5491 77.0472C44.1061 76.7027 43.1216 74.783 42.6786 74.4384C42.4325 76.555 43.7123 80.7389 44.1061 82.8063C44.5491 85.2674 45.1398 87.6794 45.8781 90.042C47.3056 94.7674 49.176 99.2959 51.3419 103.726C55.0336 111.306 59.4636 118.739 64.8781 125.187C65.2227 125.581 65.518 125.975 65.8626 126.319C67.8315 128.584 69.9973 130.749 72.5077 132.374C73.0983 132.767 73.7382 133.014 74.4274 133.161C74.9196 133.26 75.4118 133.309 75.904 133.26C76.1009 133.26 76.2486 133.21 76.4455 133.21C76.6916 133.161 76.8885 133.161 77.1346 133.112C80.1372 132.472 83.4844 130.257 86.6346 128.042C90.0802 125.63 93.3289 123.267 95.6916 123.12L95.8393 122.48C95.8393 122.48 97.1191 123.12 100.86 118.198C105.044 112.635 108.096 107.073 110.212 101.806C111.64 98.213 112.624 94.7182 113.166 91.5187C115.135 80.4928 112.427 72.3218 107.505 70.8944ZM88.0621 102.348L89.9326 105.744L86.2901 107.221L87.9144 105.744C87.9144 105.744 87.4222 104.907 86.6346 103.381C84.1735 98.7545 78.6113 87.9747 74.7227 77.7856L88.0621 102.348Z" fill="#4954B7"/>
<path d="M63.7471 115.884C68.5217 127.599 78.6616 136.361 80.6797 136.705C82.6979 137.05 108.146 119.772 118.434 109.485C128.721 99.1973 131.478 93.8812 139.649 90.3864C147.82 86.8915 152.447 88.4175 152.84 85.9563C153.234 83.4952 142.996 86.3501 142.947 85.4641C142.897 84.5781 154.12 80.0988 153.333 77.9822C152.545 75.8656 140.83 82.4123 140.584 81.5263C140.338 80.6402 149.149 71.2879 147.967 69.8604C146.786 68.433 137.975 79.5081 137.089 78.3268C136.203 77.1454 142.307 69.5651 140.682 68.0884C139.058 66.6117 128.475 81.9693 126.162 81.0833C123.848 80.1972 122.224 69.5651 120.107 70.8449C117.991 72.1739 123.356 81.7232 117.498 87.6791C111.641 93.6351 85.9958 109.337 85.9958 109.337L78.7108 102.298L63.7471 115.884Z" fill="#717ECC"/>
<path d="M50.7031 90.3868C50.8016 108.648 65.7653 125.187 65.7653 125.187C65.7653 125.187 64.7809 116.623 71.8197 112.242C78.8586 107.861 85.356 108.009 85.356 108.009C85.356 108.009 78.514 85.8583 74.2809 79.7546L50.7031 90.3868Z" fill="#4954B7"/>
<path d="M106.57 58.4902C106.176 62.871 110.409 61.4928 110.655 61.4435C110.606 61.5912 109.277 63.8062 105.487 63.6586C101.549 63.5109 101.401 59.4254 101.401 59.4254L98.8417 68.6301L98.4972 69.8114C97.808 70.6482 97.0697 71.3866 96.3314 72.0757L82.106 68.2363L82.8443 65.9228L83.8288 62.8218C87.3728 62.5757 94.2148 59.5239 94.6578 59.3762C94.264 59.4746 87.5205 60.9513 84.5671 60.5575C84.5671 60.5575 73.5412 59.9176 72.5075 59.0808C71.9661 58.6378 72.1137 55.4876 72.4091 52.4358C74.4272 52.6819 79.3987 50.9591 79.7433 50.8606C79.3987 50.9099 75.4609 51.4513 72.5567 50.8114C72.7044 49.2363 72.9013 47.8088 72.9997 47.1197C74.6241 46.8736 76.3469 45.7415 76.4946 45.643C76.2977 45.6922 73.935 46.529 71.6707 45.4953L69.0127 43.3295L74.2303 40.0808C74.2303 40.0808 75.4609 34.814 77.2821 30.2363L94.4117 33.8788C94.7562 38.4565 100.811 41.5575 100.811 41.5575C97.6604 38.7026 94.7562 32.156 94.7562 32.156C94.7562 32.156 85.2562 30.5316 78.4143 27.6767C67.5852 23.5912 74.378 13.2544 74.378 13.2544C74.378 13.2544 75.264 14.9772 79.3003 16.7984C84.6163 19.2596 98.3495 15.814 109.031 21.2285C119.761 26.643 116.513 37.6689 114.15 42.1482C111.935 46.7259 106.963 53.9617 106.57 58.4902Z" fill="#4954B7"/>
<path d="M180.701 75.177C180.701 75.177 174.351 55.8324 168.838 44.7573C169.724 42.1977 170.216 39.4904 170.364 36.6355C179.421 53.6666 180.701 75.177 180.701 75.177Z" fill="#C193EC"/>
<path d="M180.454 97.4258C180.454 97.4258 169.822 69.9594 161.602 56.4232C163.275 54.7496 164.801 52.8791 166.032 50.8118C177.599 71.9284 180.454 97.4258 180.454 97.4258Z" fill="#C193EC"/>
<path d="M171.989 90.436C171.989 90.436 160.372 71.2391 152.595 62.4774C154.121 61.8375 155.597 61.05 157.025 60.1147C167.115 73.7987 171.989 90.436 171.989 90.436Z" fill="#C193EC"/>
<path d="M145.704 55.9307C155.246 55.9307 162.981 47.9751 162.981 38.1613C162.981 28.3475 155.246 20.3918 145.704 20.3918C136.162 20.3918 128.427 28.3475 128.427 38.1613C128.427 47.9751 136.162 55.9307 145.704 55.9307Z" fill="#C193EC"/>
<path d="M145.704 55.9307C155.246 55.9307 162.981 47.9751 162.981 38.1613C162.981 28.3475 155.246 20.3918 145.704 20.3918C136.162 20.3918 128.427 28.3475 128.427 38.1613C128.427 47.9751 136.162 55.9307 145.704 55.9307Z" fill="#C193EC"/>
<path d="M131.773 27.48C136.203 30.6302 141.913 32.3038 142.406 37.9152C143.144 46.2339 138.419 50.4178 133.152 50.467" stroke="#AFD8E8" stroke-width="2" stroke-miterlimit="10"/>
<path d="M159.536 27.5291C155.155 30.6301 149.494 32.3037 149.002 37.9151C148.313 46.0368 152.792 50.2208 157.911 50.4669" stroke="#AFD8E8" stroke-width="2" stroke-miterlimit="10"/>
<defs>
<linearGradient id="paint0_linear_416_1204" x1="140.458" y1="173.03" x2="53.0757" y2="21.679" gradientUnits="userSpaceOnUse">
<stop offset="0.4916" stop-color="#A5D4ED"/>
<stop offset="1" stop-color="white"/>
</linearGradient>
</defs>
</svg>
