<svg width="200" height="200" viewBox="0 0 200 200" fill="none" xmlns="http://www.w3.org/2000/svg">
<path d="M84.2333 189.62C77.2101 188.244 70.2342 186.014 63.4482 182.882C42.8529 173.343 27.4776 157.066 18.8408 137.847" stroke="#D89EEF" stroke-miterlimit="10"/>
<path d="M64.7765 180.034C42.0457 169.499 25.9586 150.47 18.5557 128.451" stroke="#D89EEF" stroke-miterlimit="10"/>
<path d="M165.854 41.4666C176.2 52.7608 183.365 66.4752 186.735 81.1861" stroke="#C981EA" stroke-miterlimit="10"/>
<path d="M23.7757 132.532C25.1045 135.807 26.6705 139.033 28.4263 142.118C41.9034 165.94 66.7222 182.739 96.0492 184.732C120.109 186.393 142.507 177.709 158.927 162.523C159.971 161.574 161.015 160.578 162.011 159.534C163.482 158.015 164.906 156.449 166.282 154.836C172.641 147.243 177.766 138.464 181.135 128.878C183.65 121.807 185.264 114.262 185.786 106.385C186.26 99.5986 185.881 92.955 184.789 86.5486C184.742 86.169 184.647 85.7893 184.6 85.4097C183.081 77.1051 180.329 69.2276 176.532 61.9196C168.94 47.2561 157.123 35.0603 142.602 26.993C132.115 21.1561 120.251 17.5021 107.486 16.6479C78.6808 14.7023 52.296 27.4201 35.6394 48.49C28.0941 58.0283 22.5419 69.2751 19.6946 81.6608C18.6981 85.9791 18.0337 90.4399 17.7015 94.9955C16.8474 108.235 19.0777 121.001 23.7757 132.532Z" fill="url(#paint0_linear_416_1173)"/>
<path d="M98.279 147.386L41.1436 159.534C39.6725 158.015 38.2489 156.449 36.8727 154.836C30.5138 147.243 25.3887 138.464 22.0194 128.878C19.5043 121.808 17.8909 114.262 17.3689 106.385C16.8943 99.5987 17.2739 92.9551 18.3654 86.5487C18.4129 86.1691 18.5078 85.7894 18.5552 85.4098C23.7752 84.7454 28.9478 84.0336 34.1678 83.3692C35.8762 83.132 37.632 82.9422 39.3404 83.2743C41.0487 83.6065 42.7096 84.6031 43.4215 86.2165C44.6553 89.0638 42.2351 92.2907 39.3404 93.4296C36.4931 94.5685 33.2662 94.3313 30.2291 94.8533C27.192 95.3278 23.9176 96.9413 23.1583 99.9309C22.2567 103.49 25.7209 107.002 29.3749 107.524C33.0289 108.046 36.6354 106.48 39.9573 104.914C45.2247 102.399 50.4447 99.7411 55.9969 97.9378C61.5491 96.1346 67.5284 95.1855 73.2704 96.2769C82.7614 98.0802 90.8761 105.72 93.2488 115.069C95.6216 124.418 92.0625 135.047 84.5172 141.074C87.7916 140.267 91.3981 140.789 94.4352 142.308C96.4283 143.257 98.3739 145.108 98.279 147.386Z" fill="white"/>
<path d="M76.9711 38.0027C74.8356 39.2365 72.273 39.5687 69.8054 39.8534C65.2498 40.3754 60.7416 40.8974 56.1859 41.372C54.8097 41.5143 53.3861 41.7042 52.1523 42.416C50.9659 43.1278 50.0643 44.5514 50.3964 45.9276C50.9185 48.0156 53.7657 48.4427 55.9012 48.1105C58.0367 47.7784 60.5517 47.2563 62.1178 48.7749C63.7787 50.3409 63.1143 53.2831 61.4059 54.8016C59.6976 56.3202 57.3248 56.7473 55.047 57.1269C45.5561 58.7404 36.0651 60.3538 26.5742 61.9198C34.167 47.2563 45.9832 35.0605 60.5043 26.9932C64.1108 26.661 67.7649 26.661 71.4189 26.8983C73.2221 26.9932 75.0729 27.183 76.6863 27.9423C78.3472 28.7016 79.7709 30.0778 80.1505 31.8336C80.72 34.2538 79.1065 36.7214 76.9711 38.0027Z" fill="white"/>
<path d="M179.379 132.532C178.382 134.952 177.291 137.325 176.105 139.602C175.677 140.457 175.203 141.263 174.776 142.07C174.633 142.307 174.491 142.545 174.349 142.782C163.766 161.005 146.54 175.051 125.708 181.315C124.521 181.647 123.335 181.979 122.149 182.312C117.308 183.545 112.278 184.352 107.106 184.684C84.8018 186.203 63.9218 178.895 47.8821 165.703C46.933 164.943 46.0314 164.137 45.0823 163.33C44.7976 163.045 44.4654 162.76 44.1807 162.523C41.5707 160.103 39.1505 157.54 36.8252 154.835L179.379 132.532Z" fill="#C193EC"/>
<path d="M176.104 139.603C175.677 140.457 175.203 141.263 174.776 142.07C174.633 142.307 174.491 142.545 174.349 142.782L140.039 148.999L125.707 181.315C124.521 181.647 123.335 181.98 122.148 182.312L136.622 149.663L47.8819 165.75C46.9328 164.991 46.0311 164.184 45.082 163.377L176.104 139.603Z" fill="#DDEEFF"/>
<path d="M147.775 107.571C149.341 108.805 154.039 112.886 155.368 118.723C159.259 102.968 148.677 99.7407 148.677 99.7407C149.246 102.208 148.819 104.913 147.775 107.571Z" fill="#1A5AA8"/>
<path d="M124.095 128.498C124.095 128.498 140.372 131.108 146.778 124.417C151.998 118.913 147.49 113.645 145.734 111.984C141.463 119.435 134.44 125.888 134.44 125.888C134.677 121.143 133.681 111.604 133.681 111.604C130.928 117.821 127.654 123.421 124.095 128.498Z" fill="#1A5AA8"/>
<path d="M161.3 134.62C170.079 121.095 162.676 110.133 162.676 110.133C160.066 115.59 157.266 119.055 155.7 120.763C155.89 123.136 155.511 125.793 154.134 128.593C149.484 138.226 123.906 135.189 119.445 134.572C98.8971 159.628 71.4209 169.404 71.4209 169.404C71.4209 169.404 82.3355 171.682 101.365 166.462C118.259 161.859 125.472 163.709 143.362 155.784C161.253 147.86 167.374 132.532 167.374 132.532L161.3 134.62Z" fill="#717ECC"/>
<path d="M120.772 133.576C82.3341 128.973 23.9648 84.7452 23.9648 84.7452C28.0934 85.3146 33.4558 81.803 33.4558 81.803C33.4558 81.803 91.5403 123.705 123.762 129.447C140.466 132.437 152.614 125.224 149.957 117.204C147.3 109.184 128.365 95.4699 128.365 95.4699C128.365 95.4699 128.128 93.6666 135.721 98.3172C143.361 102.968 154.75 113.645 154.702 121.712C154.608 129.827 148.723 136.898 120.772 133.576Z" fill="#C193EC"/>
<path d="M35.2119 80.1897C35.2119 80.1897 59.746 97.9378 71.4673 101.687C71.4673 101.687 40.1472 78.7186 36.3508 75.729C36.3508 75.7765 36.5406 78.1492 35.2119 80.1897Z" fill="#C193EC"/>
<path d="M24.3924 70.082C24.1551 67.0449 25.1517 64.2451 26.8126 62.2995C25.9584 62.0622 25.1042 61.9673 24.2026 61.9673C19.5046 61.9673 15.5659 65.1467 14.332 69.4651C17.6064 70.0346 20.074 72.8344 20.074 76.2511C20.074 77.912 19.4571 79.478 18.4606 80.6644C20.074 81.7559 22.0671 82.4202 24.2026 82.4202C27.1922 82.4202 29.8972 81.139 31.7479 79.051C27.9515 78.6239 24.7721 74.8749 24.3924 70.082Z" fill="#C193EC"/>
<path d="M27.667 62.5842C26.0535 64.435 25.1519 67.045 25.3891 69.8922C25.7213 74.3055 28.6635 77.7697 32.2701 78.4815C33.5988 76.7732 34.4055 74.5902 34.4055 72.2175C34.453 67.8042 31.6057 64.0079 27.667 62.5842Z" fill="#C193EC"/>
<path d="M14.2373 69.9871C14.0949 70.6989 14 71.4107 14 72.17C14 75.3969 15.5185 78.2916 17.8913 80.1898C18.5556 79.1458 18.9827 77.8645 18.9827 76.5358C18.9353 73.4987 16.9422 70.9362 14.2373 69.9871Z" fill="#C193EC"/>
<path d="M48.9268 102.92C48.9268 102.92 54.2891 109.089 56.3297 110.798C56.3297 110.798 58.8922 142.213 63.7326 163.045C63.7326 163.045 62.309 168.36 59.5091 169.926C59.5091 169.926 61.8819 172.346 85.799 157.54C109.716 142.735 111.282 137.42 111.092 135.142C111.092 135.142 115.173 135.142 116.929 134.193C116.929 134.24 86.4634 130.159 48.9268 102.92Z" fill="#4954B7"/>
<path d="M179.854 38.1922C179.712 36.9109 178.763 36.3415 177.718 36.1991C176.674 36.0567 175.725 35.2975 175.061 35.2026C174.444 35.1076 173.21 35.5822 172.546 35.5822C171.882 35.5822 170.458 35.5822 170.458 35.5822C170.458 35.5822 159.021 48.5848 158.452 49.2491C157.882 49.866 156.981 52.998 156.886 53.1879C156.838 53.4251 142.128 77.3423 141.178 78.5287C140.229 79.715 135.484 81.7081 131.877 82.325C128.271 82.9419 95.9067 88.3043 95.9067 88.3043C95.9067 88.3043 98.0421 72.5019 100.747 70.6512L98.137 86.501L127.891 81.8505C127.891 81.8505 136.67 80.4268 139.992 77.8168L155.889 52.476C155.889 52.476 157.171 49.3915 157.645 48.6322C158.12 47.9204 169.272 35.3924 169.272 35.3924C169.272 35.3924 168.37 35.1551 167.99 35.2026C167.99 35.2026 167.421 34.4907 166.662 34.3484C165.902 34.2535 164.906 34.5856 164.906 34.5856C164.906 34.5856 164.004 33.3044 163.435 33.162C162.865 33.0196 160.92 34.1585 160.682 34.1585C160.445 34.1585 159.638 32.9247 158.452 32.7824C157.266 32.64 155.747 34.3009 155.747 34.3009C155.747 34.3009 154.466 32.9247 153.374 32.7824C152.283 32.64 150.147 36.0567 150.005 36.1042C149.815 36.1516 146.541 36.0093 146.446 36.0093C146.351 36.0093 145.26 35.1076 144.121 34.7755L141.985 45.7849C141.985 45.7849 143.219 45.8324 143.836 45.3578C143.836 45.3578 145.592 47.1137 145.639 47.778C145.687 48.4424 126.04 64.6244 123.525 66.7599C123.525 66.7599 105.492 67.9937 102.977 68.0886C100.462 68.1835 99.3234 67.709 100.035 65.5735C100.035 65.5735 93.8187 65.5735 88.4088 66.2853C82.9515 66.9972 76.5452 66.7599 75.5012 66.5226C74.4572 66.2853 73.8877 65.3363 74.0301 64.9092C74.0301 64.9092 74.5521 65.7159 78.5383 65.5261C82.5244 65.2888 85.4666 65.0515 85.7039 64.9566C85.9412 64.8617 94.9101 60.5908 96.049 58.5977C96.049 58.5977 94.6728 62.1093 91.2086 64.1499L98.7065 63.8177C98.7065 63.8177 101.791 56.225 102.076 53.2353C102.076 53.2353 102.882 56.4148 102.028 59.6417C101.838 60.2586 102.313 60.8755 102.93 60.8755C105.777 60.8755 113.275 60.401 117.214 57.6486C117.214 57.6486 135.674 46.3544 137.002 45.8798C138.331 45.4053 140.894 45.6426 140.894 45.6426L142.507 37.1482C142.507 37.1482 140.799 36.6736 137.192 33.7789C133.586 30.8367 127.322 24.6202 124.569 21.6305C121.817 18.6409 111.377 7.58394 91.3985 10.4787C71.4201 13.4209 68.3355 31.596 68.3355 31.596L56.804 31.3587L56.6142 33.1145L68.7626 33.7315C68.7626 33.7315 94.483 35.7245 105.825 35.5822C105.825 35.5822 107.533 25.7116 102.028 23.2914C102.028 23.2914 101.269 21.2983 99.9403 20.7763C98.6116 20.2543 95.1948 21.7729 95.1948 21.7729C95.1948 21.7729 89.6426 20.2069 83.6634 21.9152C77.6841 23.6236 72.8911 29.6029 72.8911 29.6029C72.8911 29.6029 77.1146 23.3389 83.3786 21.0136C89.6426 18.6883 94.9576 20.2543 94.9576 20.2543C94.9576 20.2543 99.9878 19.5425 100.842 19.8272C101.696 20.112 102.693 22.3423 102.693 22.3423C102.693 22.3423 105.777 24.2405 107.011 28.0844C108.197 31.9282 107.058 37.7176 107.058 37.7176L67.861 34.4433C67.861 34.4433 66.8169 35.7245 65.8204 35.772C65.8204 35.772 69.1422 40.9446 74.4572 41.5615C74.4572 41.5615 71.6099 42.6055 68.6677 39.8057L73.4131 49.0593C73.4131 49.0593 73.7928 45.2629 73.1284 42.4631C73.1284 42.4631 74.2673 43.9342 74.5521 47.0662C74.8368 50.1508 74.0775 54.4217 73.1759 56.1301C73.1759 56.1301 75.0266 57.1266 76.9248 56.8893C78.823 56.6521 80.7686 56.0351 80.7686 56.0351C80.7686 56.0351 76.9248 58.1232 76.735 58.5502C76.5452 59.0248 78.0163 62.1568 78.0163 62.1568C78.0163 62.1568 77.4468 62.9161 77.6366 63.9126C77.6366 63.9126 73.3182 64.2448 72.7962 64.2448C72.2742 64.2448 64.2069 66.9497 61.1224 70.8885C58.0378 74.8272 55.4278 84.413 55.4278 84.413C55.4278 84.413 52.2958 83.5114 48.7842 81.8979C48.7842 81.8979 59.7937 93.5243 84.2328 108.188C108.672 122.851 116.787 123.041 116.787 123.041C116.787 123.041 105.872 115.923 102.788 112.364L103.832 94.7107L126.278 90.0601L127.891 83.5114C127.891 83.5114 129.077 83.891 128.745 85.3147C128.413 86.7383 128.033 89.0161 128.033 89.0161C128.033 89.0161 151.429 87.9247 153.184 86.6434C154.893 85.3621 172.071 51.5744 172.071 51.5744C172.071 51.5744 175.298 47.778 177.102 44.7884C179 41.7038 179.996 39.4735 179.854 38.1922ZM126.705 31.7858C126.847 31.1214 127.701 30.9316 128.128 31.4536C129.884 33.5416 133.396 37.5753 135.579 39.2837C135.958 39.6158 135.958 40.1853 135.531 40.47C133.301 41.8462 127.654 45.3578 123.952 47.7306C123.573 47.9679 123.146 47.6357 123.241 47.2086L126.705 31.7858Z" fill="#4954B7"/>
<defs>
<linearGradient id="paint0_linear_416_1173" x1="143.904" y1="173.626" x2="59.6609" y2="27.7119" gradientUnits="userSpaceOnUse">
<stop offset="0.4916" stop-color="#A5D4ED"/>
<stop offset="1" stop-color="white"/>
</linearGradient>
</defs>
</svg>
