<svg width="200" height="200" viewBox="0 0 200 200" fill="none" xmlns="http://www.w3.org/2000/svg">
<path d="M78.5635 189.62C71.2785 188.192 64.0427 185.879 57.0039 182.63C35.6411 172.736 19.6929 155.853 10.7344 135.918" stroke="white" stroke-miterlimit="10"/>
<path d="M58.3815 179.677C34.8038 168.75 18.1172 149.011 10.4385 126.172" stroke="white" stroke-miterlimit="10"/>
<path d="M163.226 35.9463C173.956 47.6613 181.389 61.8867 184.884 77.1458" stroke="white" stroke-miterlimit="10"/>
<path d="M15.8535 130.405C17.2317 133.801 18.8561 137.149 20.6773 140.348C34.6566 165.058 60.4002 182.483 90.8199 184.55C115.776 186.273 139.009 177.265 156.04 161.514C157.123 160.529 158.206 159.496 159.24 158.413C160.766 156.838 162.242 155.213 163.67 153.54C170.266 145.664 175.582 136.558 179.076 126.615C181.685 119.281 183.359 111.454 183.9 103.283C184.393 96.2443 183.999 89.3531 182.867 82.7081C182.817 82.3143 182.719 81.9205 182.67 81.5267C181.095 72.9127 178.24 64.7417 174.302 57.1614C166.426 41.9515 154.17 29.3013 139.108 20.9334C128.229 14.879 115.924 11.0888 102.683 10.2028C72.8043 8.18465 45.4364 21.3764 28.1592 43.2313C20.3327 53.1251 14.5737 64.7909 11.6203 77.6381C10.5866 82.1174 9.8975 86.7443 9.55294 91.4697C8.66693 105.203 10.9804 118.444 15.8535 130.405Z" fill="url(#paint0_linear_416_862)"/>
<path d="M93.1333 145.812L33.869 158.413C32.3431 156.838 30.8664 155.213 29.439 153.54C22.8431 145.664 17.527 136.558 14.0322 126.615C11.4234 119.28 9.74983 111.454 9.20838 103.283C8.71615 96.2442 9.10993 89.353 10.2421 82.7079C10.2913 82.3141 10.3897 81.9203 10.4389 81.5265C15.8535 80.8374 21.2188 80.0991 26.6333 79.41C28.4053 79.1638 30.2265 78.9669 31.9986 79.3115C33.7706 79.6561 35.4934 80.6897 36.2317 82.3633C37.5115 85.3167 35.0012 88.6639 31.9986 89.8452C29.0452 91.0266 25.698 90.7804 22.5478 91.3219C19.3975 91.8141 16.0011 93.4877 15.2136 96.5887C14.2783 100.28 17.8716 103.923 21.6618 104.464C25.4519 105.006 29.1929 103.381 32.6385 101.757C38.1022 99.1483 43.5167 96.3918 49.2758 94.5214C55.0349 92.6509 61.2369 91.6664 67.1929 92.7986C77.0375 94.669 85.4546 102.594 87.9157 112.291C90.3769 121.988 86.6852 133.014 78.8587 139.265C82.2551 138.428 85.996 138.97 89.1463 140.545C91.2137 141.529 93.2318 143.449 93.1333 145.812Z" fill="url(#paint1_linear_416_862)"/>
<path d="M71.0325 32.3531C68.8175 33.6329 66.1594 33.9775 63.5998 34.2728C58.8744 34.8142 54.1983 35.3557 49.4729 35.8479C48.0454 35.9956 46.5687 36.1925 45.2889 36.9308C44.0584 37.6692 43.1231 39.1459 43.4677 40.5733C44.0091 42.7391 46.9625 43.1821 49.1775 42.8376C51.3926 42.493 54.0014 41.9516 55.6257 43.5267C57.3485 45.1511 56.6594 48.2029 54.8874 49.778C53.1154 51.3531 50.6542 51.7961 48.2915 52.1899C38.447 53.8635 28.6024 55.5371 18.7578 57.1614C26.6335 41.9516 38.89 29.3013 53.9522 20.9334C57.6931 20.5888 61.4832 20.5888 65.2734 20.835C67.1439 20.9334 69.0636 21.1303 70.7371 21.9179C72.4599 22.7054 73.9366 24.1329 74.3304 25.9541C74.9211 28.4645 73.2475 31.0241 71.0325 32.3531Z" fill="url(#paint2_linear_416_862)"/>
<path d="M177.254 130.405C176.22 132.915 175.088 135.376 173.858 137.739C173.415 138.625 172.923 139.462 172.48 140.299C172.332 140.545 172.184 140.791 172.036 141.037C161.06 159.939 143.192 174.508 121.583 181.006C120.353 181.35 119.122 181.695 117.891 182.04C112.871 183.319 107.653 184.156 102.288 184.501C79.153 186.076 57.4949 178.496 40.8576 164.812C39.8731 164.024 38.9379 163.187 37.9534 162.35C37.6581 162.055 37.3136 161.76 37.0182 161.514C34.311 159.003 31.8006 156.345 29.3887 153.54L177.254 130.405Z" fill="#752AA3"/>
<path d="M173.857 137.739C173.414 138.625 172.922 139.462 172.479 140.299C172.332 140.545 172.184 140.791 172.036 141.037L136.448 147.485L121.583 181.006C120.352 181.35 119.122 181.695 117.891 182.04L132.904 148.174L40.8573 164.861C39.8728 164.073 38.9376 163.236 37.9531 162.4L173.857 137.739Z" fill="#193291"/>
<path d="M139.894 160.578L133.84 155.902L141.174 145.959L147.179 150.635L139.894 160.578Z" fill="#031563"/>
<path d="M180.011 99.591C164.506 87.5314 147.032 95.5547 143.586 112.34C140.092 129.617 149.05 133.653 141.814 143.842L149.001 149.454C156.532 139.511 162.734 147.288 177.944 139.166C192.76 131.192 195.517 111.651 180.011 99.591ZM181.34 122.233C181.734 122.529 181.783 123.07 181.488 123.415C181.193 123.809 180.701 123.858 180.307 123.563C179.913 123.267 179.864 122.726 180.159 122.381C180.405 121.987 180.947 121.938 181.34 122.233ZM179.864 116.327C180.208 116.622 180.307 117.164 180.011 117.508C179.716 117.902 179.224 117.951 178.83 117.656C178.436 117.36 178.387 116.819 178.682 116.474C178.978 116.081 179.519 116.031 179.864 116.327ZM179.224 126.467C178.928 126.86 178.436 126.91 178.042 126.614C177.698 126.319 177.599 125.778 177.895 125.384C178.19 124.99 178.682 124.941 179.076 125.236C179.421 125.581 179.519 126.073 179.224 126.467ZM177.304 110.568C177.599 110.174 178.092 110.125 178.485 110.42C178.879 110.715 178.928 111.257 178.633 111.601C178.338 111.995 177.846 112.044 177.452 111.749C177.058 111.454 177.009 110.961 177.304 110.568ZM177.649 119.379C178.042 119.674 178.092 120.215 177.796 120.609C177.501 121.003 177.009 121.052 176.615 120.757C176.221 120.461 176.172 119.92 176.467 119.575C176.763 119.132 177.255 119.083 177.649 119.379ZM175.68 128.485C175.975 128.091 176.467 128.042 176.861 128.337C177.206 128.632 177.304 129.174 177.009 129.518C176.713 129.912 176.221 129.961 175.827 129.666C175.434 129.42 175.384 128.879 175.68 128.485ZM174.4 123.759C174.006 123.464 173.957 122.923 174.252 122.578C174.548 122.234 175.04 122.135 175.434 122.43C175.827 122.726 175.877 123.267 175.581 123.612C175.286 124.006 174.745 124.055 174.4 123.759ZM176.221 113.423C176.566 113.718 176.664 114.259 176.369 114.653C176.074 115.047 175.581 115.096 175.188 114.801C174.843 114.506 174.745 113.964 175.04 113.619C175.335 113.226 175.827 113.176 176.221 113.423ZM173.612 107.713C173.908 107.319 174.4 107.27 174.794 107.565C175.188 107.86 175.237 108.402 174.941 108.796C174.646 109.189 174.154 109.239 173.76 108.943C173.416 108.599 173.317 108.057 173.612 107.713ZM173.957 116.474C174.302 116.77 174.4 117.311 174.105 117.656C173.809 118.05 173.317 118.099 172.923 117.803C172.53 117.508 172.48 116.967 172.776 116.622C173.071 116.278 173.612 116.228 173.957 116.474ZM169.724 128.682C170.019 128.288 170.511 128.239 170.905 128.534C171.299 128.829 171.348 129.371 171.053 129.765C170.757 130.158 170.265 130.208 169.871 129.912C169.527 129.568 169.478 129.075 169.724 128.682ZM168.493 123.956C168.099 123.661 168.05 123.12 168.346 122.775C168.641 122.381 169.133 122.332 169.527 122.627C169.921 122.923 169.97 123.464 169.675 123.858C169.379 124.153 168.838 124.252 168.493 123.956ZM170.708 120.904C170.314 120.609 170.265 120.068 170.561 119.674C170.856 119.28 171.348 119.231 171.742 119.526C172.136 119.822 172.185 120.363 171.89 120.708C171.594 121.151 171.102 121.2 170.708 120.904ZM171.988 125.63C172.283 125.236 172.776 125.187 173.169 125.482C173.563 125.778 173.612 126.319 173.317 126.664C173.022 127.057 172.53 127.107 172.136 126.811C171.791 126.565 171.693 126.024 171.988 125.63ZM172.53 110.568C172.923 110.863 172.973 111.404 172.677 111.749C172.382 112.143 171.89 112.192 171.496 111.897C171.102 111.601 171.053 111.06 171.348 110.715C171.644 110.371 172.185 110.272 172.53 110.568ZM169.921 104.858C170.216 104.464 170.708 104.415 171.102 104.71C171.496 105.005 171.545 105.547 171.25 105.892C170.954 106.285 170.462 106.335 170.068 106.039C169.724 105.744 169.675 105.202 169.921 104.858ZM170.314 113.619C170.708 113.915 170.757 114.456 170.462 114.801C170.167 115.195 169.675 115.244 169.281 114.949C168.936 114.653 168.838 114.112 169.133 113.718C169.379 113.423 169.921 113.324 170.314 113.619ZM167.706 107.86C168.001 107.467 168.493 107.417 168.887 107.713C169.281 108.008 169.33 108.55 169.035 108.894C168.739 109.288 168.247 109.337 167.853 109.042C167.46 108.796 167.41 108.254 167.706 107.86ZM168.05 116.671C168.395 116.967 168.493 117.508 168.198 117.902C167.903 118.296 167.41 118.345 167.017 118.05C166.672 117.754 166.574 117.213 166.869 116.868C167.164 116.474 167.656 116.376 168.05 116.671ZM163.817 128.879C164.112 128.485 164.605 128.436 164.998 128.731C165.392 129.026 165.441 129.568 165.146 129.912C164.851 130.306 164.359 130.355 163.965 130.06C163.62 129.765 163.522 129.223 163.817 128.879ZM162.537 124.153C162.143 123.858 162.094 123.316 162.39 122.923C162.685 122.529 163.177 122.48 163.571 122.775C163.965 123.07 164.014 123.612 163.719 123.956C163.423 124.35 162.931 124.449 162.537 124.153ZM164.802 121.101C164.408 120.806 164.359 120.265 164.654 119.92C164.949 119.526 165.441 119.477 165.835 119.772C166.18 120.068 166.278 120.609 165.983 120.954C165.688 121.298 165.146 121.397 164.802 121.101ZM166.081 125.827C166.377 125.433 166.869 125.384 167.263 125.679C167.656 125.974 167.706 126.516 167.41 126.86C167.115 127.254 166.623 127.303 166.229 127.008C165.835 126.713 165.786 126.171 166.081 125.827ZM166.623 110.765C167.017 111.06 167.066 111.601 166.77 111.946C166.475 112.34 165.983 112.389 165.589 112.094C165.195 111.798 165.146 111.257 165.441 110.912C165.737 110.568 166.229 110.469 166.623 110.765ZM164.014 105.005C164.309 104.612 164.802 104.562 165.195 104.858C165.54 105.153 165.638 105.695 165.343 106.039C165.048 106.433 164.555 106.482 164.162 106.187C163.817 105.941 163.719 105.399 164.014 105.005ZM164.359 113.816C164.752 114.112 164.802 114.653 164.506 114.998C164.211 115.392 163.719 115.441 163.325 115.145C162.98 114.85 162.882 114.309 163.177 113.964C163.473 113.62 164.014 113.521 164.359 113.816ZM161.75 108.057C162.045 107.664 162.537 107.614 162.931 107.91C163.325 108.205 163.374 108.746 163.079 109.091C162.783 109.485 162.291 109.534 161.897 109.239C161.553 108.993 161.504 108.451 161.75 108.057ZM162.143 116.868C162.488 117.164 162.586 117.705 162.291 118.05C161.996 118.443 161.504 118.493 161.11 118.197C160.765 117.902 160.667 117.36 160.962 116.967C161.257 116.671 161.75 116.573 162.143 116.868ZM155.055 117.213C155.351 116.819 155.843 116.77 156.237 117.065C156.631 117.36 156.68 117.902 156.384 118.246C156.089 118.64 155.597 118.689 155.203 118.394C154.809 118.148 154.76 117.607 155.055 117.213ZM153.776 112.487C153.382 112.192 153.333 111.651 153.628 111.257C153.923 110.863 154.416 110.814 154.809 111.109C155.203 111.404 155.252 111.946 154.957 112.29C154.662 112.733 154.12 112.783 153.776 112.487ZM155.843 108.254C156.138 107.86 156.631 107.811 157.024 108.107C157.418 108.402 157.467 108.943 157.172 109.288C156.877 109.682 156.384 109.731 155.991 109.436C155.646 109.189 155.548 108.648 155.843 108.254ZM156.483 123.12C156.778 122.726 157.27 122.677 157.664 122.972C158.058 123.267 158.107 123.809 157.812 124.153C157.517 124.547 157.024 124.596 156.631 124.301C156.237 124.055 156.188 123.513 156.483 123.12ZM157.467 115.392C157.074 115.096 157.024 114.555 157.32 114.21C157.615 113.816 158.107 113.767 158.501 114.062C158.895 114.358 158.944 114.899 158.649 115.244C158.353 115.588 157.812 115.638 157.467 115.392ZM158.107 105.202C158.403 104.809 158.895 104.759 159.289 105.055C159.633 105.35 159.732 105.892 159.436 106.285C159.141 106.679 158.649 106.728 158.255 106.433C157.861 106.138 157.812 105.596 158.107 105.202ZM158.698 120.068C158.993 119.674 159.485 119.625 159.879 119.92C160.224 120.215 160.322 120.757 160.027 121.101C159.732 121.495 159.239 121.544 158.846 121.249C158.501 121.003 158.452 120.461 158.698 120.068ZM160.125 125.974C160.421 125.581 160.913 125.531 161.307 125.827C161.7 126.122 161.75 126.664 161.454 127.057C161.159 127.451 160.667 127.5 160.273 127.205C159.928 126.91 159.879 126.368 160.125 125.974ZM160.716 110.961C161.11 111.257 161.159 111.798 160.864 112.192C160.568 112.586 160.076 112.635 159.682 112.34C159.289 112.044 159.239 111.503 159.535 111.158C159.781 110.765 160.322 110.666 160.716 110.961ZM145.014 142.316C145.014 142.316 149.395 135.425 146.54 124.941C143.882 115.195 145.555 102.692 159.781 98.0651C157.566 99.0988 154.563 101.314 151.807 105.941C146.786 114.407 150.428 119.526 151.708 128.042C153.037 136.508 145.014 142.316 145.014 142.316ZM165.589 139.609C155.203 139.609 149.985 145.565 149.739 145.811C149.838 145.516 153.136 136.262 161.307 135.278C169.625 134.293 175.384 136.459 181.931 129.223C185.524 125.236 186.804 121.643 187.149 119.132C186.706 134.539 175.434 139.609 165.589 139.609Z" fill="#031563"/>
<path d="M141.616 144.088L148.803 149.699C148.852 149.601 148.95 149.503 149 149.404L141.813 143.793C141.764 143.891 141.665 143.99 141.616 144.088Z" fill="#031563"/>
<path d="M150.328 150.438L148.409 153.047L138.121 145.023L140.041 142.415L141.813 143.842L148.999 149.404L150.328 150.438Z" fill="#031563"/>
<path d="M144.373 159.643C143.339 162.891 139.894 169.93 134.873 170.767C129.852 171.604 120.943 163.187 120.943 163.187C120.943 163.187 86.9791 152.604 84.075 150.438C83.7304 150.192 83.2382 149.454 82.6475 148.371C82.4506 147.928 82.2045 147.485 81.9584 146.943C81.417 145.811 80.8263 144.384 80.1864 142.858C79.1035 140.2 77.9221 137.148 76.7408 133.998C76.6423 133.801 76.5931 133.555 76.4947 133.358C76.4947 133.309 76.4454 133.259 76.4454 133.21C73.1475 124.252 70.0957 115.244 70.0957 115.244L78.4636 109.239L82.5983 106.285L84.3211 105.055L86.5361 103.43C87.3237 104.907 87.8159 105.793 87.8159 105.793L86.1916 107.27L89.8341 105.793L88.062 102.347L110.852 86.0054C111.344 88.0235 111.443 90.337 111.344 92.8473C111.246 95.653 110.803 98.7049 110.163 101.806C108.834 108.451 106.718 115.342 104.896 120.904C102.927 126.959 101.401 131.389 101.894 132.029L98.4973 140.79L104.109 133.85C110.655 138.723 129.262 151.029 129.262 151.029C129.262 151.029 135.956 147.731 137.531 147.731C138.072 147.731 138.762 147.977 139.401 148.322C140.731 148.961 141.961 149.897 141.961 149.897L142.207 154.77C142.207 154.77 142.798 155.065 143.389 155.705C144.225 156.492 145.013 157.822 144.373 159.643Z" fill="#1A5AA8"/>
<path d="M84.1239 143.202L57.9373 140.84C58.3803 141.036 71.3259 146.5 84.2715 147.091C84.2715 147.337 84.3208 147.632 84.3208 147.878C77.971 149.897 58.1834 154.77 41.6445 144.137C42.0383 144.58 57.7404 163.137 85.2068 153.293C85.2068 153.391 85.256 153.441 85.256 153.539C83.3363 155.606 68.1757 163.974 45.5824 158.412C45.5824 158.412 54.9347 167.174 64.484 167.174C64.484 167.174 51.3907 167.371 38.1497 162.842C29.6834 159.938 21.1678 155.163 15.9994 147.14C15.9994 147.14 18.2145 147.632 20.8233 148.223C23.8751 148.912 27.4684 149.7 28.6497 150.044C28.8466 150.143 28.945 150.192 29.0435 150.192C29.1419 150.192 28.9943 150.143 28.6497 150.044C27.7145 149.503 25.3518 147.534 22.4476 144.088C20.3803 141.578 18.0176 138.329 15.7041 134.293C15.7041 134.293 20.331 135.77 25.6471 136.065C27.173 136.163 28.7974 136.114 30.3233 135.966C30.3233 135.966 28.4036 134.785 26.6808 133.407C25.401 132.373 24.2689 131.192 24.1704 130.257C31.2585 129.617 36.0824 121.84 38.1005 115.637C39.7249 110.666 41.0046 105.448 43.1212 100.723C48.585 108.697 54.8855 115.933 61.8751 122.627C64.7301 125.384 67.7327 128.042 70.8337 130.552C72.015 131.487 73.8855 133.505 75.4606 133.702C76.6912 133.85 82.0073 130.404 86.7819 127.057L85.8959 130.503V130.552L85.7482 131.093C83.8778 138.477 86.8311 142.907 86.8311 142.907C86.8311 142.907 85.9451 142.956 84.1239 143.202Z" fill="#031563"/>
<path d="M107.504 70.8939C106.175 70.5001 104.649 70.1063 102.976 69.6633C100.022 72.6659 90.3254 76.9483 89.3901 77.3913C89.9316 77.096 93.1311 75.2255 96.3798 72.1245C97.1181 71.4353 97.8073 70.697 98.5456 69.8602C98.8409 69.5156 99.1363 69.1711 99.4316 68.8265C99.2347 68.7773 99.0871 68.7281 98.8902 68.6789C93.771 67.4975 87.9627 66.4638 82.942 65.9716C79.5456 65.627 76.4938 65.5778 74.328 65.9224C69.1596 66.8084 64.3849 67.9405 60.1025 71.2877C56.7554 73.8965 53.9989 77.3913 50.0119 79.0157C49.0766 79.4094 47.9937 79.2618 47.0585 78.8188C46.1233 78.3758 45.3357 77.7359 44.5481 77.0467C44.1051 76.7022 43.1207 74.7825 42.6777 74.4379C42.4315 76.5545 43.7113 80.7385 44.1051 82.8058C44.5481 85.267 45.1388 87.6789 45.8771 90.0416C47.3046 94.767 49.1751 99.2955 51.3409 103.726C55.0326 111.306 59.4626 118.738 64.8772 125.187C65.2217 125.58 65.5171 125.974 65.8616 126.319C67.8305 128.583 69.9963 130.749 72.5067 132.373C73.0974 132.767 73.7373 133.013 74.4264 133.161C74.9186 133.259 75.4109 133.308 75.9031 133.259C76.1 133.259 76.2476 133.21 76.4445 133.21C76.6907 133.161 76.8875 133.161 77.1337 133.112C80.1363 132.472 83.4834 130.257 86.6337 128.042C90.0793 125.63 93.328 123.267 95.6907 123.119L95.8383 122.479C95.8383 122.479 97.1181 123.119 100.859 118.197C105.043 112.635 108.095 107.073 110.211 101.806C111.639 98.2126 112.623 94.7177 113.165 91.5183C115.134 80.4923 112.426 72.3214 107.504 70.8939ZM88.0611 102.347L89.9316 105.744L86.2891 107.22L87.9135 105.744C87.9135 105.744 87.4212 104.907 86.6337 103.381C84.1725 98.754 78.6103 87.9742 74.7217 77.7851L88.0611 102.347Z" fill="#031563"/>
<path d="M63.7461 115.884C68.5207 127.599 78.6606 136.36 80.6788 136.705C82.6969 137.049 108.145 119.772 118.433 109.485C128.72 99.197 131.477 93.881 139.648 90.3861C147.819 86.8913 152.446 88.4172 152.839 85.9561C153.233 83.4949 142.995 86.3499 142.946 85.4638C142.896 84.5778 154.119 80.0986 153.332 77.982C152.544 75.8654 140.829 82.412 140.583 81.526C140.337 80.64 149.148 71.2877 147.966 69.8602C146.785 68.4327 137.974 79.5079 137.088 78.3265C136.202 77.1452 142.306 69.5649 140.681 68.0882C139.057 66.6115 128.474 81.969 126.161 81.083C123.847 80.197 122.223 69.5649 120.106 70.8447C117.99 72.1737 123.355 81.7229 117.497 87.6789C111.64 93.6348 85.9948 109.337 85.9948 109.337L78.7098 102.298L63.7461 115.884Z" fill="#1A5AA8"/>
<path d="M50.7021 90.386C50.8006 108.648 65.7643 125.187 65.7643 125.187C65.7643 125.187 64.7799 116.622 71.8188 112.241C78.8576 107.86 85.355 108.008 85.355 108.008C85.355 108.008 78.5131 85.8575 74.2799 79.7539L50.7021 90.386Z" fill="#031563"/>
<path d="M106.569 58.4897C106.175 62.8705 110.408 61.4923 110.654 61.4431C110.605 61.5907 109.276 63.8058 105.486 63.6581C101.548 63.5104 101.4 59.4249 101.4 59.4249L98.8408 68.6296L98.4962 69.811C97.8071 70.6478 97.0687 71.3861 96.3304 72.0752L82.105 68.2358L82.8433 65.9224L83.8278 62.8213C87.3718 62.5752 94.2138 59.5234 94.6568 59.3757C94.263 59.4742 87.5195 60.9509 84.5661 60.5571C84.5661 60.5571 73.5402 59.9172 72.5065 59.0804C71.9651 58.6374 72.1128 55.4871 72.4081 52.4353C74.4262 52.6814 79.3977 50.9586 79.7423 50.8602C79.3977 50.9094 75.4599 51.4508 72.5558 50.8109C72.7034 49.2358 72.9003 47.8084 72.9988 47.1192C74.6231 46.8731 76.3459 45.741 76.4936 45.6425C76.2967 45.6918 73.934 46.5286 71.6697 45.4949L69.0117 43.3291L74.2293 40.0804C74.2293 40.0804 75.4599 34.8135 77.2812 30.2358L94.4107 33.8783C94.7553 38.456 100.81 41.557 100.81 41.557C97.6594 38.7021 94.7553 32.1555 94.7553 32.1555C94.7553 32.1555 85.2553 30.5311 78.4133 27.6762C67.5843 23.5907 74.377 13.2539 74.377 13.2539C74.377 13.2539 75.263 14.9767 79.2993 16.798C84.6154 19.2591 98.3485 15.8135 109.03 21.228C119.76 26.6425 116.512 37.6684 114.149 42.1477C111.934 46.7254 106.963 53.9612 106.569 58.4897Z" fill="#031563"/>
<path d="M180.701 75.1763C180.701 75.1763 174.351 55.8317 168.838 44.7565C169.724 42.1969 170.216 39.4897 170.364 36.6348C179.421 53.6659 180.701 75.1763 180.701 75.1763Z" fill="white"/>
<path d="M180.455 97.4251C180.455 97.4251 169.823 69.9587 161.603 56.4224C163.276 54.7489 164.802 52.8784 166.033 50.811C177.6 71.9276 180.455 97.4251 180.455 97.4251Z" fill="white"/>
<path d="M171.989 90.4353C171.989 90.4353 160.372 71.2384 152.595 62.4767C154.121 61.8368 155.597 61.0492 157.025 60.114C167.115 73.798 171.989 90.4353 171.989 90.4353Z" fill="white"/>
<path d="M138.034 29.262C141.155 26.1417 142.961 22.2002 143.29 18.2588C139.266 18.5872 135.325 20.3116 132.204 23.432C129.084 26.5523 127.36 30.4937 127.031 34.5173C130.891 34.1888 134.914 32.3824 138.034 29.262Z" fill="white"/>
<path d="M149.859 41.0865C153.472 37.4735 158.07 35.4206 162.587 35.0922C162.34 30.8223 160.616 26.6345 157.413 23.3499C154.129 20.0654 149.941 18.341 145.671 18.1768C145.343 22.693 143.372 27.2914 139.677 30.9044C136.064 34.5174 131.465 36.5702 126.949 36.8987C127.196 41.1686 128.92 45.3564 132.122 48.6409C135.407 51.9255 139.595 53.6499 143.865 53.8141C144.275 49.2978 146.246 44.6995 149.859 41.0865Z" fill="white"/>
<path d="M151.582 42.8109C154.703 39.6906 158.644 37.8841 162.586 37.5557C162.257 41.5792 160.533 45.5207 157.412 48.641C154.292 51.7613 150.351 53.4857 146.327 53.8142C146.656 49.8727 148.462 45.9313 151.582 42.8109Z" fill="white"/>
<defs>
<linearGradient id="paint0_linear_416_862" x1="96.7676" y1="184.731" x2="96.9235" y2="29.7443" gradientUnits="userSpaceOnUse">
<stop offset="0.195619" stop-color="#752AA3"/>
<stop offset="0.862449" stop-color="#4F71F8"/>
</linearGradient>
<linearGradient id="paint1_linear_416_862" x1="8.9914" y1="118.773" x2="93.1379" y2="118.773" gradientUnits="userSpaceOnUse">
<stop stop-color="#1134B7"/>
<stop offset="1" stop-color="#02125B"/>
</linearGradient>
<linearGradient id="paint2_linear_416_862" x1="18.7824" y1="38.9047" x2="74.488" y2="38.9047" gradientUnits="userSpaceOnUse">
<stop stop-color="#1134B7"/>
<stop offset="1" stop-color="#02125B"/>
</linearGradient>
</defs>
</svg>
