<svg width="200" height="200" viewBox="0 0 200 200" fill="none" xmlns="http://www.w3.org/2000/svg">
<path d="M84.2333 189.62C77.21 188.244 70.2342 186.014 63.4482 182.882C42.8529 173.343 27.4776 157.066 18.8408 137.847" stroke="white" stroke-miterlimit="10"/>
<path d="M64.7765 180.034C42.0457 169.499 25.9586 150.47 18.5557 128.451" stroke="white" stroke-miterlimit="10"/>
<path d="M165.855 41.4668C176.201 52.761 183.366 66.4754 186.736 81.1863" stroke="white" stroke-miterlimit="10"/>
<path d="M23.7767 132.532C25.1054 135.807 26.6714 139.033 28.4273 142.118C41.9044 165.94 66.7232 182.739 96.0502 184.732C120.11 186.393 142.508 177.709 158.928 162.523C159.972 161.574 161.016 160.578 162.012 159.534C163.483 158.015 164.907 156.449 166.283 154.836C172.642 147.243 177.767 138.464 181.136 128.878C183.651 121.807 185.265 114.262 185.787 106.385C186.261 99.5986 185.882 92.955 184.79 86.5486C184.743 86.169 184.648 85.7893 184.601 85.4097C183.082 77.1051 180.33 69.2276 176.533 61.9196C168.941 47.2561 157.124 35.0603 142.603 26.993C132.116 21.1561 120.252 17.5021 107.487 16.6479C78.6818 14.7023 52.297 27.4201 35.6404 48.49C28.0951 58.0283 22.5429 69.2751 19.6956 81.6608C18.6991 85.9791 18.0347 90.4399 17.7025 94.9955C16.8483 108.235 19.0787 121.001 23.7767 132.532Z" fill="url(#paint0_linear_416_918)"/>
<path d="M98.28 147.385L41.1446 159.534C39.6735 158.015 38.2499 156.449 36.8737 154.836C30.5148 147.243 25.3897 138.464 22.0204 128.878C19.5053 121.807 17.8918 114.262 17.3698 106.385C16.8953 99.5985 17.2749 92.9548 18.3664 86.5485C18.4138 86.1688 18.5087 85.7892 18.5562 85.4096C23.7762 84.7452 28.9488 84.0334 34.1688 83.369C35.8771 83.1317 37.633 82.9419 39.3413 83.2741C41.0497 83.6063 42.7106 84.6028 43.4224 86.2163C44.6563 89.0636 42.2361 92.2905 39.3413 93.4294C36.4941 94.5683 33.2671 94.331 30.23 94.853C27.1929 95.3276 23.9186 96.941 23.1593 99.9307C22.2577 103.49 25.7219 107.001 29.3759 107.523C33.0299 108.045 36.6364 106.479 39.9583 104.913C45.2257 102.398 50.4457 99.7409 55.9979 97.9376C61.5501 96.1343 67.5294 95.1852 73.2714 96.2767C82.7624 98.0799 90.8771 105.72 93.2498 115.069C95.6226 124.417 92.0635 135.047 84.5182 141.074C87.7925 140.267 91.3991 140.789 94.4362 142.308C96.4293 143.257 98.3749 145.108 98.28 147.385Z" fill="url(#paint1_linear_416_918)"/>
<path d="M76.972 38.0024C74.8366 39.2363 72.274 39.5684 69.8064 39.8532C65.2507 40.3752 60.7425 40.8972 56.1869 41.3717C54.8107 41.5141 53.3871 41.7039 52.1533 42.4157C50.9669 43.1275 50.0652 44.5512 50.3974 45.9274C50.9194 48.0154 53.7667 48.4425 55.9022 48.1103C58.0376 47.7781 60.5527 47.2561 62.1187 48.7746C63.7796 50.3406 63.1153 53.2828 61.4069 54.8014C59.6985 56.3199 57.3258 56.747 55.048 57.1267C45.5571 58.7401 36.0661 60.3536 26.5752 61.9196C34.1679 47.2561 45.9841 35.0602 60.5053 26.993C64.1118 26.6608 67.7658 26.6608 71.4198 26.8981C73.2231 26.993 75.0739 27.1828 76.6873 27.9421C78.3482 28.7013 79.7719 30.0775 80.1515 31.8333C80.721 34.2535 79.1075 36.7212 76.972 38.0024Z" fill="url(#paint2_linear_416_918)"/>
<path d="M179.379 132.532C178.382 134.952 177.291 137.325 176.105 139.603C175.678 140.457 175.203 141.264 174.776 142.07C174.634 142.308 174.491 142.545 174.349 142.782C163.766 161.005 146.54 175.051 125.708 181.315C124.521 181.648 123.335 181.98 122.149 182.312C117.308 183.546 112.278 184.352 107.106 184.685C84.8019 186.203 63.9218 178.895 47.8821 165.703C46.933 164.944 46.0314 164.137 45.0823 163.33C44.7976 163.045 44.4654 162.761 44.1807 162.523C41.5707 160.103 39.1505 157.541 36.8252 154.836L179.379 132.532Z" fill="#752AA3"/>
<path d="M176.105 139.603C175.678 140.457 175.204 141.264 174.777 142.07C174.634 142.308 174.492 142.545 174.349 142.782L140.04 148.999L125.708 181.315C124.522 181.648 123.336 181.98 122.149 182.312L136.623 149.663L47.8828 165.75C46.9337 164.991 46.0321 164.184 45.083 163.378L176.105 139.603Z" fill="#193291"/>
<path d="M147.774 107.571C149.34 108.805 154.038 112.886 155.367 118.723C159.258 102.968 148.676 99.741 148.676 99.741C149.246 102.209 148.818 104.914 147.774 107.571Z" fill="#1A5AA8"/>
<path d="M124.095 128.498C124.095 128.498 140.372 131.108 146.778 124.417C151.998 118.913 147.49 113.645 145.734 111.984C141.463 119.435 134.44 125.888 134.44 125.888C134.677 121.143 133.681 111.604 133.681 111.604C130.928 117.821 127.654 123.421 124.095 128.498Z" fill="#1A5AA8"/>
<path d="M161.299 134.62C170.078 121.096 162.675 110.134 162.675 110.134C160.065 115.591 157.265 119.055 155.699 120.763C155.889 123.136 155.51 125.794 154.133 128.593C149.483 138.227 123.905 135.19 119.444 134.573C98.8962 159.629 71.4199 169.404 71.4199 169.404C71.4199 169.404 82.3345 171.682 101.364 166.462C118.258 161.859 125.471 163.71 143.361 155.785C161.252 147.86 167.373 132.532 167.373 132.532L161.299 134.62Z" fill="#1A5AA8"/>
<path d="M120.773 133.576C82.3351 128.973 23.9658 84.7452 23.9658 84.7452C28.0944 85.3146 33.4568 81.803 33.4568 81.803C33.4568 81.803 91.5412 123.705 123.763 129.447C140.467 132.437 152.615 125.224 149.958 117.204C147.3 109.184 128.366 95.4699 128.366 95.4699C128.366 95.4699 128.129 93.6666 135.722 98.3172C143.362 102.968 154.751 113.645 154.703 121.712C154.608 129.827 148.724 136.898 120.773 133.576Z" fill="white"/>
<path d="M35.2119 80.1893C35.2119 80.1893 59.746 97.9373 71.4673 101.686C71.4673 101.686 40.1472 78.7182 36.3508 75.7285C36.3508 75.776 36.5406 78.1487 35.2119 80.1893Z" fill="white"/>
<path d="M24.3924 70.0818C24.1551 67.0447 25.1517 64.2449 26.8126 62.2992C25.9584 62.0619 25.1042 61.967 24.2026 61.967C19.5046 61.967 15.5659 65.1465 14.332 69.4649C17.6064 70.0343 20.074 72.8342 20.074 76.2509C20.074 77.9118 19.4571 79.4778 18.4606 80.6642C20.074 81.7556 22.0671 82.42 24.2026 82.42C27.1922 82.42 29.8972 81.1387 31.7479 79.0507C27.9515 78.6236 24.7721 74.8747 24.3924 70.0818Z" fill="white"/>
<path d="M27.667 62.5837C26.0535 64.4345 25.1519 67.0445 25.3891 69.8918C25.7213 74.305 28.6635 77.7692 32.2701 78.481C33.5988 76.7727 34.4055 74.5898 34.4055 72.217C34.453 67.8037 31.6057 64.0074 27.667 62.5837Z" fill="white"/>
<path d="M14.2373 69.9868C14.0949 70.6986 14 71.4105 14 72.1697C14 75.3967 15.5185 78.2914 17.8913 80.1896C18.5556 79.1456 18.9827 77.8643 18.9827 76.5356C18.9353 73.4985 16.9422 70.9359 14.2373 69.9868Z" fill="white"/>
<path d="M48.9277 102.92C48.9277 102.92 54.2901 109.09 56.3307 110.798C56.3307 110.798 58.8932 142.213 63.7336 163.045C63.7336 163.045 62.3099 168.36 59.5101 169.926C59.5101 169.926 61.8829 172.347 85.8 157.541C109.717 142.735 111.283 137.42 111.093 135.142C111.093 135.142 115.174 135.142 116.93 134.193C116.93 134.24 86.4644 130.159 48.9277 102.92Z" fill="#031563"/>
<path d="M179.854 38.1922C179.712 36.9109 178.762 36.3415 177.718 36.1991C176.674 36.0567 175.725 35.2975 175.061 35.2025C174.444 35.1076 173.21 35.5822 172.546 35.5822C171.882 35.5822 170.458 35.5822 170.458 35.5822C170.458 35.5822 159.021 48.5848 158.452 49.2491C157.882 49.866 156.981 52.998 156.886 53.1879C156.838 53.4251 142.127 77.3423 141.178 78.5286C140.229 79.715 135.484 81.7081 131.877 82.325C128.271 82.9419 95.9066 88.3043 95.9066 88.3043C95.9066 88.3043 98.0421 72.5019 100.747 70.6512L98.137 86.501L127.891 81.8505C127.891 81.8505 136.67 80.4268 139.992 77.8168L155.889 52.476C155.889 52.476 157.171 49.3915 157.645 48.6322C158.12 47.9204 169.272 35.3924 169.272 35.3924C169.272 35.3924 168.37 35.1551 167.99 35.2025C167.99 35.2025 167.421 34.4907 166.662 34.3484C165.902 34.2535 164.906 34.5856 164.906 34.5856C164.906 34.5856 164.004 33.3044 163.435 33.162C162.865 33.0196 160.92 34.1585 160.682 34.1585C160.445 34.1585 159.638 32.9247 158.452 32.7824C157.266 32.64 155.747 34.3009 155.747 34.3009C155.747 34.3009 154.466 32.9247 153.374 32.7824C152.283 32.64 150.147 36.0567 150.005 36.1042C149.815 36.1516 146.541 36.0093 146.446 36.0093C146.351 36.0093 145.259 35.1076 144.121 34.7755L141.985 45.7849C141.985 45.7849 143.219 45.8324 143.836 45.3578C143.836 45.3578 145.592 47.1137 145.639 47.778C145.687 48.4424 126.04 64.6244 123.525 66.7599C123.525 66.7599 105.492 67.9937 102.977 68.0886C100.462 68.1835 99.3234 67.709 100.035 65.5735C100.035 65.5735 93.8186 65.5735 88.4088 66.2853C82.9515 66.9972 76.5452 66.7599 75.5011 66.5226C74.4571 66.2853 73.8877 65.3363 74.0301 64.9092C74.0301 64.9092 74.5521 65.7159 78.5382 65.5261C82.5244 65.2888 85.4666 65.0515 85.7039 64.9566C85.9412 64.8617 94.9101 60.5908 96.049 58.5977C96.049 58.5977 94.6728 62.1093 91.2086 64.1499L98.7065 63.8177C98.7065 63.8177 101.791 56.225 102.076 53.2353C102.076 53.2353 102.882 56.4148 102.028 59.6417C101.838 60.2586 102.313 60.8755 102.93 60.8755C105.777 60.8755 113.275 60.401 117.214 57.6486C117.214 57.6486 135.674 46.3544 137.002 45.8798C138.331 45.4053 140.894 45.6426 140.894 45.6426L142.507 37.1482C142.507 37.1482 140.799 36.6736 137.192 33.7789C133.586 30.8367 127.322 24.6202 124.569 21.6305C121.817 18.6409 111.377 7.58394 91.3985 10.4787C71.42 13.4209 68.3355 31.596 68.3355 31.596L56.804 31.3587L56.6142 33.1145L68.7626 33.7315C68.7626 33.7315 94.483 35.7245 105.825 35.5822C105.825 35.5822 107.533 25.7116 102.028 23.2914C102.028 23.2914 101.269 21.2983 99.9403 20.7763C98.6116 20.2543 95.1948 21.7729 95.1948 21.7729C95.1948 21.7729 89.6426 20.2069 83.6633 21.9152C77.6841 23.6236 72.8911 29.6029 72.8911 29.6029C72.8911 29.6029 77.1146 23.3389 83.3786 21.0136C89.6426 18.6883 94.9576 20.2543 94.9576 20.2543C94.9576 20.2543 99.9877 19.5425 100.842 19.8272C101.696 20.112 102.693 22.3423 102.693 22.3423C102.693 22.3423 105.777 24.2405 107.011 28.0844C108.197 31.9282 107.058 37.7176 107.058 37.7176L67.8609 34.4433C67.8609 34.4433 66.8169 35.7245 65.8204 35.772C65.8204 35.772 69.1422 40.9446 74.4571 41.5615C74.4571 41.5615 71.6099 42.6055 68.6677 39.8057L73.4131 49.0593C73.4131 49.0593 73.7928 45.2629 73.1284 42.4631C73.1284 42.4631 74.2673 43.9342 74.5521 47.0662C74.8368 50.1508 74.0775 54.4217 73.1759 56.1301C73.1759 56.1301 75.0266 57.1266 76.9248 56.8893C78.823 56.6521 80.7686 56.0351 80.7686 56.0351C80.7686 56.0351 76.9248 58.1231 76.735 58.5502C76.5451 59.0248 78.0162 62.1568 78.0162 62.1568C78.0162 62.1568 77.4468 62.9161 77.6366 63.9126C77.6366 63.9126 73.3182 64.2448 72.7962 64.2448C72.2742 64.2448 64.2069 66.9497 61.1224 70.8885C58.0378 74.8272 55.4278 84.413 55.4278 84.413C55.4278 84.413 52.2958 83.5114 48.7842 81.8979C48.7842 81.8979 59.7937 93.5243 84.2328 108.188C108.672 122.851 116.787 123.041 116.787 123.041C116.787 123.041 105.872 115.923 102.788 112.364L103.832 94.7107L126.278 90.0601L127.891 83.5114C127.891 83.5114 129.077 83.891 128.745 85.3147C128.413 86.7383 128.033 89.0161 128.033 89.0161C128.033 89.0161 151.429 87.9247 153.184 86.6434C154.893 85.3621 172.071 51.5744 172.071 51.5744C172.071 51.5744 175.298 47.778 177.102 44.7884C179 41.7038 179.996 39.4735 179.854 38.1922ZM126.705 31.7858C126.847 31.1214 127.701 30.9316 128.128 31.4536C129.884 33.5416 133.396 37.5753 135.579 39.2836C135.958 39.6158 135.958 40.1853 135.531 40.47C133.301 41.8462 127.654 45.3578 123.952 47.7306C123.573 47.9679 123.146 47.6357 123.241 47.2086L126.705 31.7858Z" fill="#031563"/>
<defs>
<linearGradient id="paint0_linear_416_918" x1="101.784" y1="184.907" x2="101.784" y2="16.4263" gradientUnits="userSpaceOnUse">
<stop offset="0.0672383" stop-color="#73299F"/>
<stop offset="0.703227" stop-color="#4F71F8"/>
</linearGradient>
<linearGradient id="paint1_linear_416_918" x1="17.1607" y1="121.318" x2="98.2844" y2="121.318" gradientUnits="userSpaceOnUse">
<stop stop-color="#1134B7"/>
<stop offset="1" stop-color="#02125B"/>
</linearGradient>
<linearGradient id="paint2_linear_416_918" x1="26.5989" y1="44.3187" x2="80.3034" y2="44.3187" gradientUnits="userSpaceOnUse">
<stop stop-color="#1134B7"/>
<stop offset="1" stop-color="#02125B"/>
</linearGradient>
</defs>
</svg>
