<svg width="200" height="200" viewBox="0 0 200 200" fill="none" xmlns="http://www.w3.org/2000/svg">
<path d="M85.6753 189.62C78.5635 188.227 71.4998 185.968 64.6283 182.797C43.7735 173.138 28.2045 156.656 19.459 137.195" stroke="#CF92EF" stroke-miterlimit="10"/>
<path d="M65.975 179.914C42.9578 169.246 26.6681 149.977 19.1719 127.681" stroke="#CF92EF" stroke-miterlimit="10"/>
<path d="M168.326 39.6001C178.802 51.0366 186.058 64.9237 189.469 79.82" stroke="#CF92EF" stroke-miterlimit="10"/>
<path d="M24.4571 131.813C25.8025 135.128 27.3882 138.396 29.1662 141.519C42.8131 165.642 67.9445 182.652 97.6409 184.67C122.004 186.352 144.684 177.559 161.31 162.182C162.368 161.221 163.425 160.212 164.434 159.155C165.923 157.617 167.365 156.031 168.759 154.397C175.198 146.709 180.387 137.819 183.799 128.113C186.346 120.953 187.98 113.313 188.508 105.336C188.989 98.4644 188.604 91.7371 187.499 85.25C187.451 84.8656 187.355 84.4811 187.307 84.0967C185.769 75.6875 182.982 67.7108 179.138 60.3108C171.45 45.4625 159.484 33.1131 144.78 24.9442C134.161 19.0337 122.148 15.3337 109.222 14.4687C80.0537 12.4986 53.3366 25.3766 36.4702 46.7119C28.8298 56.3705 23.2077 67.7589 20.3245 80.3006C19.3154 84.6733 18.6427 89.1903 18.3063 93.8033C17.4414 107.21 19.6999 120.136 24.4571 131.813Z" fill="url(#paint0_linear_416_1245)"/>
<path d="M99.8995 146.853L42.0443 159.155C40.5547 157.617 39.1131 156.031 37.7196 154.397C31.2806 146.709 26.0909 137.819 22.6792 128.113C20.1324 120.953 18.4986 113.313 17.97 105.336C17.4895 98.4643 17.8739 91.737 18.9791 85.2499C19.0272 84.8655 19.1233 84.4811 19.1713 84.0967C24.4571 83.4239 29.6948 82.7031 34.9806 82.0304C36.7105 81.7901 38.4884 81.5979 40.2183 81.9343C41.9482 82.2707 43.63 83.2798 44.3508 84.9136C45.6002 87.7967 43.1495 91.0643 40.2183 92.2175C37.3352 93.3708 34.0676 93.1305 30.9922 93.6591C27.9169 94.1396 24.6013 95.7734 23.8324 98.8007C22.9194 102.405 26.4273 105.961 30.1273 106.489C33.8273 107.018 37.4793 105.432 40.843 103.846C46.1768 101.299 51.4626 98.6085 57.0847 96.7825C62.7069 94.9565 68.7615 93.9955 74.5758 95.1007C84.1863 96.9267 92.4033 104.663 94.8059 114.129C97.2085 123.596 93.6046 134.36 85.9642 140.462C89.2799 139.645 92.9318 140.174 96.0072 141.712C98.0254 142.673 99.9956 144.547 99.8995 146.853Z" fill="white"/>
<path d="M78.3237 36.0924C76.1613 37.3418 73.5665 37.6782 71.0678 37.9665C66.4547 38.495 61.8898 39.0236 57.2767 39.5041C55.8832 39.6483 54.4416 39.8405 53.1923 40.5613C51.991 41.2821 51.078 42.7237 51.4143 44.1172C51.9429 46.2315 54.8261 46.664 56.9884 46.3276C59.1508 45.9912 61.6976 45.4627 63.2833 47.0003C64.9651 48.5861 64.2924 51.5653 62.5625 53.103C60.8326 54.6407 58.43 55.0731 56.1235 55.4576C46.513 57.0913 36.9025 58.7251 27.292 60.3109C34.9804 45.4627 46.9454 33.1132 61.6495 24.9443C65.3015 24.6079 69.0015 24.6079 72.7016 24.8482C74.5276 24.9443 76.4016 25.1365 78.0354 25.9053C79.7172 26.6742 81.1588 28.0677 81.5432 29.8456C82.1199 32.2963 80.4861 34.795 78.3237 36.0924Z" fill="white"/>
<path d="M182.021 131.813C181.012 134.264 179.907 136.667 178.706 138.973C178.273 139.838 177.793 140.655 177.36 141.472C177.216 141.712 177.072 141.953 176.928 142.193C166.212 160.645 148.769 174.868 127.674 181.211C126.473 181.548 125.271 181.884 124.07 182.22C119.169 183.47 114.075 184.287 108.838 184.623C86.2529 186.161 65.1098 178.761 48.8681 165.402C47.907 164.633 46.994 163.816 46.033 163C45.7447 162.711 45.4083 162.423 45.12 162.183C42.4771 159.732 40.0264 157.137 37.6719 154.398L182.021 131.813Z" fill="#C193EC"/>
<path d="M178.706 138.973C178.274 139.838 177.793 140.655 177.361 141.472C177.216 141.712 177.072 141.952 176.928 142.193L142.186 148.488L127.674 181.211C126.473 181.548 125.272 181.884 124.07 182.22L138.726 149.16L48.8683 165.45C47.9073 164.681 46.9943 163.864 46.0332 163.047L178.706 138.973Z" fill="#DDEEFF"/>
<path d="M130.7 72.3243C130.796 72.4684 132.862 75.3035 139.782 74.6788L140.311 82.3192L127.673 82.9919C127.336 82.7997 127.096 82.7036 127.096 82.7036C124.021 82.2711 115.371 78.3308 115.371 78.3308C115.371 78.3308 119.456 82.6555 124.213 83.8088L126.231 90.8244L108.548 95.5816L106.722 79.8204C106.722 79.8204 106.578 79.7724 106.289 79.5802C103.935 81.8867 101.148 79.6282 101.148 79.6282C101.148 79.6282 105.184 80.9737 101.965 76.8412C100.571 75.784 99.1777 74.4386 98.1686 72.9489C97.7361 72.2762 97.3517 71.6515 97.0634 71.1229C100.667 68.9606 109.028 61.08 109.317 60.7917L96.0062 67.8554C95.7179 67.9995 86.5879 73.1892 85.6749 72.3243C84.7619 71.4113 84.4736 67.5671 84.4736 67.5671L95.3815 60.4072C95.3815 60.4072 90.1919 49.4032 103.358 41.9551C116.525 34.507 130.412 36.333 135.553 55.0734C135.505 56.4189 134.352 57.5241 133.824 57.6683C133.247 57.8124 125.558 57.5241 124.453 58.1007C123.3 58.6293 120.032 60.167 120.032 60.167C120.032 60.167 127.144 62.5216 130.412 62.0891C133.679 61.6566 135.986 57.3799 135.986 57.3799L136.082 57.3319C137.668 61.7047 142.569 65.1644 142.569 65.1644L139.205 69.345C139.109 69.6333 139.157 69.9697 139.301 70.3061C139.686 71.1229 140.551 71.7957 140.551 71.7957C140.551 71.7957 140.214 72.084 139.542 72.4204C138.004 73.1892 134.929 74.1502 130.7 72.3243Z" fill="#4954B7"/>
<path d="M108.26 41.0421C108.26 42.3875 107.155 43.4447 105.761 43.4447C104.368 43.4447 103.263 42.3395 103.263 41.0421C103.263 39.6966 104.368 38.6394 105.761 38.6394C107.155 38.5914 108.26 39.6966 108.26 41.0421Z" fill="#717ECC"/>
<path d="M51.4622 76.5051L45.3115 77.4662L44.1582 70.4025L50.3089 69.4414L51.4622 76.5051Z" fill="#C193EC"/>
<path d="M48.939 73.1701C63.3979 70.2249 72.4869 54.9144 69.2397 38.9732C65.9926 23.0321 51.639 12.4967 37.1801 15.4419C22.7212 18.3871 13.6323 33.6975 16.8794 49.6387C20.1266 65.5799 34.4801 76.1153 48.939 73.1701Z" fill="#C193EC"/>
<path d="M65.1094 40.8499C67.3198 54.2566 59.199 66.7022 46.9937 68.5762C34.7883 70.4503 23.1116 61.1281 20.9492 47.6734C20.8531 47.0007 20.757 46.3279 20.709 45.6071C23.6882 57.9566 34.7883 66.2697 46.369 64.4918C57.9496 62.7138 65.8302 51.4215 64.725 38.7837C64.8692 39.5045 65.0133 40.1772 65.1094 40.8499Z" fill="white"/>
<path d="M34.9322 30.4707C35.0763 31.4798 34.4036 32.3928 33.3945 32.5369C32.3854 32.6811 31.4243 32.0083 31.2802 31.0473C31.136 30.0382 31.8087 29.1252 32.8178 28.981C33.8269 28.7888 34.788 29.4616 34.9322 30.4707Z" fill="white"/>
<path d="M42.4761 29.3173C42.6203 30.3264 41.9475 31.2394 40.9384 31.3836C39.9293 31.5278 38.9683 30.855 38.8241 29.894C38.68 28.8849 39.3527 27.9719 40.3618 27.8277C41.3709 27.6355 42.3319 28.3082 42.4761 29.3173Z" fill="white"/>
<path d="M50.021 28.116C50.1652 29.1251 49.4924 30.0381 48.4833 30.1823C47.4742 30.3264 46.5132 29.6537 46.369 28.6927C46.2249 27.6835 46.8976 26.7706 47.9067 26.6264C48.9158 26.4822 49.8288 27.155 50.021 28.116Z" fill="white"/>
<path d="M28.8296 40.3213C28.9738 41.3304 28.301 42.2434 27.2919 42.3876C26.2828 42.5317 25.3218 41.859 25.1776 40.898C25.0335 39.8889 25.7062 38.9759 26.7153 38.8317C27.6764 38.6876 28.6374 39.3603 28.8296 40.3213Z" fill="white"/>
<path d="M36.3257 39.1679C36.4699 40.177 35.7971 41.09 34.788 41.2342C33.7789 41.3783 32.8179 40.7056 32.6737 39.7446C32.5296 38.7355 33.2023 37.8225 34.2114 37.6783C35.2205 37.4861 36.1815 38.1588 36.3257 39.1679Z" fill="white"/>
<path d="M43.8706 38.0146C44.0148 39.0237 43.3421 39.9367 42.333 40.0809C41.3238 40.225 40.3628 39.5523 40.2186 38.5912C40.0745 37.5821 40.7472 36.6691 41.7563 36.525C42.7654 36.3328 43.7265 37.0055 43.8706 38.0146Z" fill="white"/>
<path d="M51.4146 36.8135C51.5587 37.8226 50.886 38.7356 49.8769 38.8798C48.8678 39.0239 47.9067 38.3512 47.7626 37.3902C47.6184 36.3811 48.2912 35.4681 49.3003 35.3239C50.3094 35.1797 51.2704 35.8525 51.4146 36.8135Z" fill="white"/>
<path d="M58.9585 35.6601C59.1027 36.6692 58.4299 37.5822 57.4208 37.7264C56.4117 37.8705 55.4507 37.1978 55.3065 36.2367C55.1624 35.2276 55.8351 34.3147 56.8442 34.1705C57.8533 33.9783 58.8144 34.651 58.9585 35.6601Z" fill="white"/>
<path d="M37.7671 47.8655C37.9113 48.8746 37.2385 49.7876 36.2294 49.9318C35.2203 50.0759 34.2593 49.4032 34.1151 48.4422C33.971 47.4331 34.6437 46.5201 35.6528 46.3759C36.6619 46.2317 37.623 46.9045 37.7671 47.8655Z" fill="white"/>
<path d="M45.3111 46.7124C45.4552 47.7215 44.7825 48.6345 43.7734 48.7786C42.7643 48.9228 41.8032 48.25 41.6591 47.289C41.5149 46.2799 42.1877 45.3669 43.1968 45.2227C44.2059 45.0305 45.1669 45.7033 45.3111 46.7124Z" fill="white"/>
<path d="M52.856 45.559C53.0001 46.5681 52.3274 47.4811 51.3183 47.6253C50.3092 47.7695 49.3482 47.0967 49.204 46.1357C49.0598 45.1266 49.7326 44.2136 50.7417 44.0694C51.7508 43.8772 52.7118 44.5499 52.856 45.559Z" fill="white"/>
<path d="M46.7525 55.4099C46.8966 56.419 46.2239 57.332 45.2148 57.4761C44.2057 57.6203 43.2446 56.9476 43.1005 55.9865C42.9563 54.9774 43.6291 54.0644 44.6382 53.9203C45.5992 53.728 46.5603 54.4008 46.7525 55.4099Z" fill="white"/>
<path d="M56.9401 103.943L48.5309 105.24L48.1465 102.694L56.5557 101.396L56.9401 103.943Z" fill="#144A6B"/>
<path d="M52.6639 77.5138L44.2067 78.8112L43.8223 76.3125L52.2314 74.967L52.6639 77.5138Z" fill="#C193EC"/>
<path d="M153.909 132.534C153.14 132.582 152.324 132.63 151.507 132.582C149.585 132.486 147.662 132.342 145.788 132.102C140.695 131.477 135.601 130.516 130.604 129.314C112.921 125.038 95.8138 117.734 81.0137 107.355C81.5903 106.682 82.215 106.105 82.8397 105.529C92.0657 97.1674 125.174 86.692 139.638 85.3946C149.44 84.5296 156.6 91.9297 157.081 96.2544C157.081 107.114 155.399 118.118 154.005 128.834C154.005 128.978 153.957 129.17 154.053 129.266C154.101 129.363 154.198 129.363 154.294 129.411C156.216 130.083 158.186 130.612 160.156 131.044C160.589 131.14 161.069 131.189 161.502 130.996C158.907 131.669 156.504 132.342 153.909 132.534Z" fill="#4954B7"/>
<path d="M81.0627 107.354C80.9186 107.499 80.7744 107.691 80.6302 107.835C80.1017 107.21 79.6211 106.634 79.1406 105.961C79.7653 106.441 80.39 106.922 81.0627 107.354Z" fill="white" stroke="black" stroke-miterlimit="10"/>
<path d="M156.553 141.712C158.139 141.808 159.148 141.76 159.148 141.52C157.13 142.385 155.112 143.25 153.141 144.163C152.997 144.211 152.901 144.259 152.805 144.403C152.709 144.547 152.709 144.691 152.709 144.883C152.757 148.776 151.796 153.004 151.364 156.945C151.171 158.867 150.931 160.837 150.739 162.759C150.691 163.191 150.547 167.18 150.258 167.276C146.126 168.621 139.831 170.015 126.905 171.312C109.366 173.09 95.2863 166.171 91.1538 163.864V163.624C109.798 170.736 129.692 162.759 129.692 162.759C112.057 162.471 96.776 155.167 90.8655 151.995V151.899C97.5929 154.398 110.279 153.245 110.279 153.245C110.279 153.245 94.1331 149.208 90.5772 140.318L90.4811 135.033L81.1109 148.968L73.9511 143.73L78.0836 151.322C78.0836 151.322 70.3471 166.795 61.8418 162.423C53.3366 158.098 53.0002 119.896 53.0002 119.896C53.0002 119.896 48.8196 119.031 46.369 115.235C43.9183 111.439 44.3027 107.066 44.9274 105.528C45.2637 104.712 45.6962 103.51 46.0326 102.597C46.369 101.732 47.1378 101.06 48.0988 100.915C51.1742 100.531 57.8535 100.147 60.4964 103.654C64.0042 108.316 61.4574 109.853 61.4574 109.853L69.0978 131.237C69.0978 131.237 72.7978 116.725 80.4862 107.883C83.1291 111.103 86.1083 114.034 89.3278 116.725C99.7552 125.374 112.345 131.333 125.271 135.513C130.893 137.339 136.611 138.829 142.378 139.934C143.675 140.126 152.18 141.424 156.553 141.712Z" fill="#4954B7"/>
<path d="M124.79 110.526C122.195 111.391 105.425 112.208 101.389 112.64C82.5042 114.851 51.9428 97.0711 51.9428 97.0711C51.9428 97.0711 46.0804 98.3686 44.9271 97.5036C43.7739 96.6387 42.3323 95.4854 41.7557 94.3322C40.5544 92.0256 41.131 89.8152 40.4583 88.662C40.1219 88.0853 39.9297 87.4126 39.9297 86.6918V86.3555C39.9297 84.9619 40.6985 83.6645 41.9479 82.9437L41.8998 82.6074C41.8037 81.6944 42.4284 80.8775 43.2934 80.6372C44.2064 80.397 45.5999 80.1567 47.57 80.0125C51.9428 79.7242 55.1143 82.271 57.7571 85.3944C60.352 88.5178 67.3676 91.0646 67.3676 91.0646L104.608 97.0231L120.61 95.3413L124.79 110.526Z" fill="#4954B7"/>
<path d="M142.954 86.8843C125.223 91.4012 114.171 94.2363 114.171 94.2363L120.802 114.611C120.802 114.611 148.48 112.929 153.718 108.412" fill="#4954B7"/>
<path d="M134.978 92.314C114.556 96.014 103.984 96.6867 98.6983 94.8607C93.4125 93.0828 96.1996 95.6296 99.4671 96.6387C102.783 97.6958 118.208 98.753 134.978 92.314Z" fill="url(#paint1_linear_416_1245)"/>
<path d="M147.711 111.679C122.291 116.052 99.7547 114.274 91.1533 111.871C91.1533 111.871 104.944 116.244 123.541 116.58C142.137 116.917 147.711 111.679 147.711 111.679Z" fill="url(#paint2_linear_416_1245)"/>
<path d="M48.0024 117.878C56.5077 119.704 59.0064 115.427 59.3908 114.707C59.3908 114.707 58.3817 120.329 51.27 121.77C44.1102 123.212 48.0024 117.878 48.0024 117.878Z" fill="#717ECC"/>
<path d="M53.5762 10C68.5685 19.2741 73.8063 34.4587 73.8063 34.4587C73.8063 34.4587 77.3141 15.7182 53.5762 10Z" fill="#C193EC"/>
<path d="M17.5371 63.05C23.3995 73.5735 35.3165 76.1203 35.3165 76.1203C35.3165 76.1203 21.141 78.9554 17.5371 63.05Z" fill="#C193EC"/>
<path d="M159.916 51.2291C167.958 51.2291 174.476 44.8825 174.476 37.0536C174.476 29.2247 167.958 22.8782 159.916 22.8782C151.875 22.8782 145.356 29.2247 145.356 37.0536C145.356 44.8825 151.875 51.2291 159.916 51.2291Z" fill="#C193EC"/>
<path d="M149.682 26.9626C152.373 29.5094 154.006 33.1134 154.006 37.0537C154.006 40.994 152.325 44.5979 149.682 47.1447" stroke="white" stroke-width="2" stroke-miterlimit="10"/>
<path d="M169.719 46.8083C167.268 44.2615 165.73 40.8498 165.73 37.0537C165.73 33.3536 167.172 29.9899 169.575 27.4912" stroke="white" stroke-width="2" stroke-miterlimit="10"/>
<defs>
<linearGradient id="paint0_linear_416_1245" x1="103.447" y1="184.848" x2="103.447" y2="14.2444" gradientUnits="userSpaceOnUse">
<stop offset="0.4916" stop-color="#A5D4ED"/>
<stop offset="1" stop-color="white"/>
</linearGradient>
<linearGradient id="paint1_linear_416_1245" x1="95.7508" y1="94.876" x2="134.968" y2="94.876" gradientUnits="userSpaceOnUse">
<stop offset="0.4916" stop-color="#A5D4ED"/>
<stop offset="1" stop-color="white"/>
</linearGradient>
<linearGradient id="paint2_linear_416_1245" x1="91.182" y1="114.109" x2="147.717" y2="114.109" gradientUnits="userSpaceOnUse">
<stop offset="0.4916" stop-color="#A5D4ED"/>
<stop offset="1" stop-color="white"/>
</linearGradient>
</defs>
</svg>
