<svg width="200" height="200" viewBox="0 0 200 200" fill="none" xmlns="http://www.w3.org/2000/svg">
<path d="M90.0595 189.62C82.7746 188.193 75.5388 185.879 68.4999 182.63C47.1372 172.737 31.189 155.853 22.2305 135.918" stroke="white" stroke-miterlimit="10"/>
<path d="M69.8776 179.677C46.2999 168.749 29.6133 149.011 21.9346 126.172" stroke="white" stroke-miterlimit="10"/>
<path d="M174.723 35.9465C185.453 47.6616 192.886 61.887 196.381 77.146" stroke="white" stroke-miterlimit="10"/>
<path d="M27.3505 130.405C28.7288 133.801 30.3531 137.148 32.1744 140.348C46.1537 165.058 71.8972 182.483 102.317 184.55C127.273 186.273 150.506 177.265 167.537 161.514C168.62 160.529 169.703 159.496 170.737 158.413C172.263 156.838 173.739 155.213 175.167 153.54C181.763 145.664 187.079 136.558 190.573 126.615C193.182 119.281 194.856 111.454 195.397 103.283C195.89 96.2443 195.496 89.3531 194.364 82.708C194.314 82.3142 194.216 81.9205 194.167 81.5267C192.592 72.9127 189.737 64.7417 185.799 57.1614C177.923 41.9515 165.667 29.3012 150.605 20.9334C139.726 14.879 127.421 11.0888 114.18 10.2028C84.3014 8.18465 56.9335 21.3764 39.6562 43.2313C31.8298 53.1251 26.0707 64.7909 23.1174 77.6381C22.0837 82.1174 21.3946 86.7443 21.05 91.4697C20.164 105.203 22.4775 118.444 27.3505 130.405Z" fill="url(#paint0_linear_416_750)"/>
<path d="M104.628 145.812L45.3641 158.413C43.8382 156.838 42.3615 155.214 40.9341 153.54C34.3382 145.664 29.0221 136.558 25.5273 126.615C22.9185 119.281 21.2449 111.455 20.7035 103.284C20.2113 96.2446 20.605 89.3535 21.7372 82.7084C21.7864 82.3146 21.8848 81.9208 21.9341 81.527C27.3486 80.8379 32.7139 80.0996 38.1284 79.4104C39.9004 79.1643 41.7216 78.9674 43.4937 79.312C45.2657 79.6566 46.9885 80.6902 47.7268 82.3638C49.0066 85.3172 46.4963 88.6643 43.4937 89.8457C40.5403 91.027 37.1931 90.7809 34.0429 91.3224C30.8926 91.8146 27.4962 93.4882 26.7087 96.5892C25.7734 100.281 29.3667 103.923 33.1569 104.465C36.947 105.006 40.688 103.382 44.1336 101.758C49.5973 99.1488 55.0118 96.3923 60.7709 94.5219C66.53 92.6514 72.732 91.6669 78.688 92.7991C88.5326 94.6695 96.9497 102.594 99.4108 112.291C101.872 121.988 98.1802 133.014 90.3538 139.265C93.7502 138.429 97.4911 138.97 100.641 140.545C102.709 141.53 104.727 143.449 104.628 145.812Z" fill="url(#paint1_linear_416_750)"/>
<path d="M82.5276 32.3533C80.3126 33.6331 77.6545 33.9777 75.0949 34.273C70.3695 34.8145 65.6934 35.3559 60.968 35.8482C59.5405 35.9958 58.0638 36.1927 56.784 36.9311C55.5535 37.6694 54.6182 39.1461 54.9628 40.5736C55.5042 42.7394 58.4576 43.1824 60.6726 42.8378C62.8877 42.4933 65.4965 41.9518 67.1208 43.5269C68.8436 45.1513 68.1545 48.2031 66.3825 49.7782C64.6105 51.3534 62.1493 51.7964 59.7866 52.1902C49.9421 53.8637 40.0975 55.5373 30.2529 57.1617C38.1286 41.9518 50.3851 29.3015 65.4473 20.9336C69.1882 20.5891 72.9784 20.5891 76.7685 20.8352C78.639 20.9336 80.5587 21.1305 82.2322 21.9181C83.955 22.7057 85.4317 24.1331 85.8255 25.9544C86.4162 28.4647 84.7426 31.0243 82.5276 32.3533Z" fill="url(#paint2_linear_416_750)"/>
<path d="M188.75 130.405C187.717 132.915 186.584 135.376 185.354 137.739C184.911 138.625 184.419 139.462 183.976 140.299C183.828 140.545 183.68 140.791 183.533 141.037C172.556 159.938 154.688 174.508 133.079 181.006C131.849 181.35 130.618 181.695 129.387 182.04C124.367 183.319 119.149 184.156 113.784 184.501C90.6491 186.076 68.991 178.495 52.3537 164.812C51.3692 164.024 50.434 163.187 49.4495 162.35C49.1542 162.055 48.8096 161.76 48.5143 161.514C45.807 159.003 43.2967 156.345 40.8848 153.54L188.75 130.405Z" fill="#752AA3"/>
<path d="M185.353 137.739C184.91 138.625 184.418 139.462 183.975 140.299C183.828 140.545 183.68 140.791 183.532 141.037L147.944 147.485L133.079 181.006C131.848 181.35 130.618 181.695 129.387 182.04L144.4 148.174L52.3534 164.861C51.3689 164.073 50.4337 163.236 49.4492 162.4L185.353 137.739Z" fill="#193291"/>
<path d="M157.546 43.4281C159.417 41.5577 160.499 39.195 160.696 36.8323C158.284 37.0292 155.922 38.0628 154.051 39.9333C152.181 41.8038 151.147 44.1665 150.95 46.5784C153.264 46.3815 155.676 45.2986 157.546 43.4281Z" fill="white"/>
<path d="M164.635 50.5164C166.8 48.3506 169.557 47.12 172.264 46.9231C172.116 44.3635 171.083 41.8532 169.163 39.8842C167.194 37.9153 164.684 36.8816 162.124 36.7832C161.927 39.4905 160.746 42.2469 158.531 44.4127C156.365 46.5785 153.609 47.8091 150.901 48.006C151.049 50.5656 152.083 53.076 154.002 55.0449C155.971 57.0138 158.482 58.0475 161.041 58.1459C161.287 55.4387 162.469 52.6822 164.635 50.5164Z" fill="white"/>
<path d="M165.668 51.5502C167.538 49.6797 169.901 48.5968 172.264 48.3999C172.067 50.8118 171.033 53.1745 169.163 55.045C167.292 56.9155 164.929 57.9491 162.518 58.146C162.714 55.7833 163.797 53.4206 165.668 51.5502Z" fill="white"/>
<path d="M50.8788 121.544L50.1405 118.837L42.6094 120.904L42.9539 122.036L50.8788 121.544Z" fill="#752AA3"/>
<path d="M50.4209 114.436L40.1348 117.316L40.7717 119.591L51.0579 116.712L50.4209 114.436Z" fill="#752AA3"/>
<path d="M51.0259 116.72L50.1398 118.837L42.6088 120.904L40.7383 119.575L51.0259 116.72Z" fill="#752AA3"/>
<path d="M58.0647 58.7362C54.7668 49.9746 49.2538 45.6429 43.5932 43.7233C49.2046 47.3165 55.0129 54.0601 56.145 64.7906C57.6709 79.0653 49.6476 88.1715 49.6476 88.1715C49.6476 88.1715 58.0647 74.143 52.6994 58.687C52.158 57.1119 51.4688 55.6352 50.7797 54.3554C45.759 45.2492 35.0284 40.8683 24.987 43.6248C14.9947 46.4305 8.0543 55.7829 8.54653 66.1689C8.59575 67.6456 8.79264 69.2207 9.1372 70.8943C12.5336 86.8917 27.0543 94.5212 27.0543 94.5212C27.0543 94.5212 15.4377 90.928 9.3341 77.9331C4.75637 68.187 6.23306 59.3761 9.1372 53.3709C5.29782 57.9487 2.83668 64.4953 4.55948 73.7492C8.94031 97.0808 34.2409 100.231 40.8859 115.342L44.7745 114.26L48.6631 113.177C46.4481 96.7363 66.4326 80.9357 58.0647 58.7362ZM45.9559 58.7854C46.3989 58.687 46.8419 58.9331 46.9403 59.3269C47.0388 59.7699 46.7927 60.2129 46.3989 60.3114C46.0051 60.4098 45.5129 60.1637 45.4144 59.7699C45.2668 59.3761 45.5129 58.9331 45.9559 58.7854ZM48.2201 66.858C48.6631 66.7595 49.1061 67.0057 49.2046 67.3994C49.303 67.8425 49.0569 68.2855 48.6631 68.3839C48.2201 68.4823 47.7771 68.2362 47.6787 67.8424C47.531 67.4487 47.7771 67.0057 48.2201 66.858ZM41.7227 55.6352C42.1657 55.5367 42.6087 55.7829 42.7072 56.1766C42.8056 56.6196 42.5595 57.0626 42.1657 57.1611C41.7227 57.2595 41.2797 57.0134 41.1813 56.6196C41.0336 56.1766 41.2797 55.7336 41.7227 55.6352ZM43.987 63.7077C44.43 63.6093 44.873 63.8554 44.9714 64.2492C45.0699 64.6922 44.8238 65.1352 44.43 65.2336C43.987 65.3321 43.544 65.086 43.4455 64.6922C43.2979 64.2984 43.544 63.8062 43.987 63.7077ZM46.2512 71.7803C46.6942 71.6818 47.1372 71.9279 47.2357 72.3217C47.3341 72.7647 47.088 73.2077 46.6942 73.3062C46.2512 73.4046 45.8082 73.1585 45.7098 72.7647C45.5621 72.371 45.8082 71.9279 46.2512 71.7803ZM17.6528 77.1456C17.2097 77.244 16.7667 76.9979 16.6683 76.6041C16.5699 76.1611 16.816 75.7181 17.2098 75.6197C17.6528 75.5212 18.0958 75.7673 18.1942 76.1611C18.2927 76.5549 18.0465 76.9979 17.6528 77.1456ZM15.3885 69.0238C14.9455 69.1222 14.5025 68.8761 14.404 68.4823C14.3056 68.0886 14.5517 67.5963 14.9455 67.4979C15.3885 67.3994 15.8315 67.6456 15.93 68.0393C16.0284 68.4331 15.7823 68.9254 15.3885 69.0238ZM21.8859 80.2958C21.4429 80.3943 20.9999 80.1482 20.9015 79.7544C20.803 79.3114 21.0491 78.8684 21.4429 78.7699C21.8367 78.6715 22.3289 78.9176 22.4274 79.3114C22.575 79.7052 22.3289 80.1482 21.8859 80.2958ZM19.6217 72.2233C19.1787 72.3217 18.7357 72.0756 18.6372 71.6818C18.5388 71.2388 18.7849 70.7958 19.1787 70.6974C19.5724 70.5989 20.0647 70.845 20.1631 71.2388C20.3108 71.6326 20.0647 72.0756 19.6217 72.2233ZM17.3574 64.1507C16.9144 64.2492 16.4714 64.0031 16.373 63.6093C16.2745 63.1663 16.5206 62.7233 16.9144 62.6248C17.3574 62.5264 17.8004 62.7725 17.8989 63.1663C18.0465 63.5601 17.8004 64.0031 17.3574 64.1507ZM31.2383 54.2077C31.6813 54.1093 32.1243 54.3554 32.2227 54.7492C32.3212 55.1922 32.075 55.6352 31.6813 55.7336C31.2383 55.8321 30.7953 55.586 30.6968 55.1922C30.5491 54.7492 30.7953 54.3062 31.2383 54.2077ZM33.5025 62.2803C33.9455 62.1818 34.3885 62.4279 34.487 62.8217C34.5854 63.2647 34.3393 63.7077 33.9455 63.8062C33.5025 63.9046 33.0595 63.6585 32.9611 63.2647C32.8134 62.8709 33.0595 62.3787 33.5025 62.2803ZM35.7668 70.3528C36.2098 70.2544 36.6528 70.5005 36.7512 70.8943C36.8497 71.3373 36.6035 71.7803 36.2098 71.8787C35.7668 71.9772 35.3238 71.7311 35.2253 71.3373C35.0776 70.9435 35.3238 70.5005 35.7668 70.3528ZM38.031 78.4254C38.474 78.3269 38.917 78.573 39.0155 78.9668C39.1139 79.4098 38.8678 79.8528 38.474 79.9513C38.031 80.0497 37.588 79.8036 37.4896 79.4098C37.3419 79.016 37.588 78.573 38.031 78.4254ZM27.0543 51.0082C27.4481 50.9098 27.8911 51.1559 27.9896 51.5989C28.088 52.0419 27.8911 52.4357 27.4973 52.5834C27.1035 52.6818 26.6605 52.4357 26.5621 51.9927C26.4144 51.5989 26.6605 51.1559 27.0543 51.0082ZM29.3186 59.13C29.7124 59.0316 30.1554 59.2777 30.2538 59.7207C30.3522 60.1145 30.1554 60.5575 29.7616 60.7051C29.3678 60.8036 28.9248 60.5575 28.8263 60.1145C28.6787 59.6715 28.9248 59.2285 29.3186 59.13ZM31.5828 67.2026C31.9766 67.1041 32.4196 67.3502 32.5181 67.7932C32.6165 68.2362 32.4196 68.63 32.0258 68.7777C31.632 68.8761 31.189 68.63 31.0906 68.187C30.9921 67.744 31.189 67.3502 31.5828 67.2026ZM33.8471 75.2751C34.2409 75.1767 34.6839 75.4228 34.7823 75.8658C34.8807 76.2596 34.6839 76.7026 34.2901 76.8502C33.8963 76.9487 33.4533 76.7026 33.3548 76.2596C33.2564 75.8166 33.4533 75.4228 33.8471 75.2751ZM36.1113 83.3476C36.5051 83.2492 36.9481 83.4953 37.0466 83.9383C37.145 84.3813 36.9481 84.7751 36.5543 84.9228C36.1605 85.0212 35.7175 84.7751 35.6191 84.3321C35.4714 83.8891 35.7175 83.4953 36.1113 83.3476ZM25.1346 55.9305C25.5776 55.8321 26.0206 56.0782 26.1191 56.472C26.2175 56.915 25.9714 57.358 25.5776 57.4564C25.1346 57.5549 24.6916 57.3088 24.5932 56.915C24.4455 56.472 24.6916 56.029 25.1346 55.9305ZM27.3989 64.0031C27.8419 63.9046 28.2849 64.1507 28.3833 64.5445C28.4818 64.9875 28.2357 65.4305 27.8419 65.529C27.3989 65.6274 26.9559 65.3813 26.8574 64.9875C26.7098 64.5445 26.9559 64.1015 27.3989 64.0031ZM29.6631 72.0756C30.1061 71.9772 30.5491 72.2233 30.6476 72.6171C30.746 73.0601 30.4999 73.5031 30.1061 73.6015C29.6631 73.7 29.2201 73.4539 29.1217 73.0601C28.974 72.6171 29.2201 72.1741 29.6631 72.0756ZM31.9274 80.1482C32.3704 80.0497 32.8134 80.2958 32.9118 80.6896C33.0103 81.1326 32.7642 81.5756 32.3704 81.6741C31.9274 81.7725 31.4844 81.5264 31.3859 81.1326C31.2383 80.7388 31.4844 80.2466 31.9274 80.1482ZM20.9015 52.731C21.3445 52.6326 21.7875 52.8787 21.8859 53.2725C21.9844 53.7155 21.7383 54.1585 21.3445 54.2569C20.9015 54.3554 20.4585 54.1093 20.36 53.7155C20.2123 53.3217 20.4585 52.8787 20.9015 52.731ZM23.1165 60.8036C23.5595 60.7051 24.0025 60.9513 24.1009 61.345C24.1994 61.788 23.9533 62.231 23.5595 62.3295C23.1165 62.4279 22.6735 62.1818 22.575 61.788C22.4766 61.3943 22.7227 60.9513 23.1165 60.8036ZM25.3807 68.9254C25.8237 68.8269 26.2668 69.073 26.3652 69.4668C26.4636 69.9098 26.2175 70.3528 25.8237 70.4513C25.3807 70.5497 24.9377 70.3036 24.8393 69.9098C24.7408 69.4668 24.987 69.0238 25.3807 68.9254ZM27.645 76.9979C28.088 76.8995 28.531 77.1456 28.6294 77.5394C28.7279 77.9824 28.4818 78.4254 28.088 78.5238C27.645 78.6223 27.202 78.3761 27.1035 77.9824C26.9559 77.5394 27.2512 77.0963 27.645 76.9979ZM26.1191 83.4461C25.6761 83.5445 25.2331 83.2984 25.1346 82.9046C25.0362 82.4616 25.2823 82.0186 25.6761 81.9202C26.0699 81.8217 26.5621 82.0679 26.6605 82.4616C26.8082 82.9046 26.5621 83.3477 26.1191 83.4461ZM23.8548 75.3735C23.4118 75.472 22.9688 75.2259 22.8704 74.8321C22.7719 74.3891 23.018 73.9461 23.4118 73.8476C23.8548 73.7492 24.2978 73.9953 24.3963 74.3891C24.544 74.8321 24.2978 75.2751 23.8548 75.3735ZM21.5906 67.301C21.1476 67.3994 20.7046 67.1533 20.6061 66.7595C20.5077 66.3165 20.7538 65.8735 21.1476 65.7751C21.5906 65.6766 22.0336 65.9228 22.132 66.3165C22.2797 66.7103 22.0336 67.2026 21.5906 67.301ZM19.3263 59.2285C18.8833 59.3269 18.4403 59.0808 18.3419 58.687C18.2434 58.2932 18.4895 57.801 18.8833 57.7025C19.2771 57.6041 19.7693 57.8502 19.8678 58.244C20.0155 58.6378 19.7693 59.0808 19.3263 59.2285ZM29.3678 86.0549C29.2693 85.6119 29.5155 85.1689 29.9092 85.0704C30.3522 84.972 30.7953 85.2181 30.8937 85.6119C30.9921 86.0549 30.746 86.4979 30.3522 86.5964C29.9092 86.744 29.4662 86.4979 29.3678 86.0549ZM46.7435 98.8528C45.6605 101.905 44.8238 105.399 44.2823 107.861C44.1839 108.451 43.7409 108.845 43.2486 108.993C42.7564 109.091 42.1657 108.993 41.7719 108.55C40.0984 106.728 37.5388 104.169 35.0284 102.151C34.044 101.363 34.3885 99.8373 35.5699 99.4927L40.1968 98.213L44.8238 96.9332C46.1036 96.5394 47.1865 97.6715 46.7435 98.8528ZM42.7072 83.1508C42.2642 83.2492 41.8212 83.0031 41.7227 82.6093C41.6243 82.2155 41.8704 81.7233 42.2642 81.6248C42.7072 81.5264 43.1502 81.7725 43.2486 82.1663C43.3471 82.5601 43.1502 83.0523 42.7072 83.1508ZM40.4429 75.0782C39.9999 75.1767 39.5569 74.9305 39.4585 74.5368C39.36 74.0938 39.6061 73.6507 39.9999 73.5523C40.4429 73.4539 40.8859 73.7 40.9844 74.0938C41.132 74.5368 40.8859 74.9798 40.4429 75.0782ZM38.1787 67.0057C37.7357 67.1041 37.2927 66.858 37.1942 66.4642C37.0958 66.0212 37.3419 65.5782 37.7357 65.4798C38.1787 65.3813 38.6217 65.6274 38.7201 66.0212C38.8678 66.4642 38.6217 66.9072 38.1787 67.0057ZM35.9144 58.9331C35.4714 59.0316 35.0284 58.7854 34.93 58.3917C34.8315 57.9487 35.0776 57.5057 35.4714 57.4072C35.9144 57.3088 36.3574 57.5549 36.4559 57.9487C36.6035 58.3424 36.3574 58.8347 35.9144 58.9331ZM33.6502 50.8606C33.2072 50.959 32.7642 50.7129 32.6657 50.3191C32.5673 49.8761 32.8134 49.4331 33.2072 49.3347C33.6502 49.2362 34.0932 49.4823 34.1916 49.8761C34.2901 50.2699 34.0932 50.7129 33.6502 50.8606ZM44.6761 78.2777C44.2331 78.3761 43.7901 78.13 43.6916 77.7362C43.5932 77.2932 43.8393 76.8502 44.2331 76.7518C44.6761 76.6533 45.1191 76.8995 45.2175 77.2932C45.3652 77.687 45.1191 78.13 44.6761 78.2777ZM42.4118 70.2051C41.9688 70.3036 41.5258 70.0575 41.4274 69.6637C41.3289 69.2207 41.5751 68.7777 41.9688 68.6792C42.4118 68.5808 42.8548 68.8269 42.9533 69.2207C43.101 69.6145 42.8548 70.0575 42.4118 70.2051ZM40.1476 62.0834C39.7046 62.1818 39.2616 61.9357 39.1631 61.5419C39.0647 61.0989 39.3108 60.6559 39.7046 60.5575C40.1476 60.459 40.5906 60.7051 40.689 61.0989C40.8367 61.5419 40.5906 61.9849 40.1476 62.0834ZM37.8833 54.0108C37.4403 54.1093 36.9973 53.8632 36.8989 53.4694C36.8004 53.0264 37.0466 52.5834 37.4403 52.4849C37.8341 52.3865 38.3263 52.6326 38.4248 53.0264C38.5725 53.4694 38.3263 53.9124 37.8833 54.0108Z" fill="#752AA3"/>
<path d="M48.9085 126.024C49.9914 125.778 51.0743 125.728 52.108 125.778L51.3204 122.923L43.3955 123.415L44.5769 127.648C45.8074 126.959 47.3333 126.368 48.9085 126.024Z" fill="#752AA3"/>
<path d="M178.561 88.1722C177.921 83.1022 176.986 78.0815 175.805 73.1592C175.214 70.698 174.574 68.2369 173.836 65.825C173.491 64.5944 173.097 63.4131 172.704 62.1825C172.408 61.2473 172.113 60.4105 171.768 59.4752C170.932 60.1644 170.046 60.8043 169.11 61.2965C181.81 100.429 174.968 113.276 174.968 113.276C178.709 96.9831 169.947 69.369 167.486 62.0841C165.419 62.9208 163.302 63.2654 161.235 63.2162C161.579 64.0037 161.875 64.939 162.219 65.7758C162.613 66.8587 163.007 67.9908 163.401 69.1229C164.139 71.3379 164.828 73.6022 165.468 75.8664C166.748 80.3949 167.781 85.0219 168.52 89.5996C169.898 98.7058 170.686 108.55 167.043 115.392C165.271 118.74 162.367 121.102 158.478 122.333C154.639 123.563 150.11 123.76 145.582 123.317C143.318 123.12 141.004 122.776 138.74 122.333C136.476 121.89 134.113 121.348 131.898 120.708C127.419 119.478 123.087 117.706 118.903 115.589C110.535 111.356 102.758 105.646 95.7684 99.1489C88.7787 92.6514 82.429 85.3172 77.1129 77.3431C75.7839 75.3742 74.5533 73.3069 73.372 71.2395C72.1906 69.1229 71.1077 67.0063 70.1233 64.8405C69.1388 62.6747 68.2036 60.4597 67.5145 58.2447C67.1699 57.1618 66.8746 56.0296 66.6777 54.9467C66.4808 53.8638 66.4316 52.7809 66.53 51.8949C66.6777 50.9597 66.973 50.4675 67.416 50.2214C67.9083 49.926 68.9419 49.926 69.9756 50.1229C72.0922 50.5167 74.3072 51.4519 76.4238 52.4856C80.657 54.6022 84.7917 57.2602 88.6803 60.0659L90.2554 58.0478C86.3176 54.996 82.2813 52.141 77.8513 49.7291C75.6362 48.5478 73.3228 47.4156 70.6647 46.825C69.9756 46.6773 69.2865 46.5789 68.4989 46.5789C67.7114 46.5789 66.8746 46.6773 65.9886 47.0711C65.1026 47.4649 64.3642 48.154 63.872 48.9416C63.3798 49.7291 63.1336 50.5167 62.986 51.3043C62.7399 52.8302 62.7891 54.2084 62.986 55.5374C63.1829 56.8664 63.4782 58.1462 63.8228 59.3768C64.5119 61.8379 65.3979 64.2006 66.3824 66.5141C67.3668 68.8276 68.4005 71.0918 69.5326 73.3069C70.6647 75.5711 71.8953 77.7369 73.2243 79.8535C78.4912 88.3691 84.7425 96.1955 91.8306 103.284C98.9186 110.372 106.844 116.721 115.753 121.644C120.232 124.105 124.908 126.221 129.831 127.797C132.292 128.584 134.704 129.224 137.214 129.864C139.724 130.455 142.235 130.947 144.844 131.242C150.012 131.882 155.476 132.03 161.038 130.455C163.794 129.667 166.6 128.436 169.012 126.566C171.473 124.745 173.54 122.382 175.017 119.773C176.543 117.214 177.528 114.457 178.167 111.701C178.807 108.993 179.152 106.237 179.3 103.579C179.496 98.3613 179.201 93.2913 178.561 88.1722Z" fill="white"/>
<path d="M94.0957 49.2857C93.1605 51.7961 96.9999 49.5318 96.9999 49.5318C96.9999 49.5318 101.775 53.0758 98.7719 60.6069L95.474 67.3997L96.803 60.4593C92.176 60.2624 80.8056 60.8531 78.0491 70.55C77.7538 71.5836 77.4584 72.5681 77.1631 73.5526C77.2615 73.7002 77.36 73.8971 77.4584 74.0448C78.3444 75.3246 79.2304 76.6044 80.1657 77.8842C80.9532 75.4722 81.7408 72.8142 82.3315 70.3531C83.9066 63.8557 92.5206 63.708 92.5206 63.708C86.86 65.6277 85.8755 67.6458 83.4144 73.651C82.6268 75.5215 81.79 77.3427 81.0025 79.0163C85.531 85.0707 90.6009 90.7313 96.1631 95.8997C103.153 102.397 110.93 108.107 119.298 112.34C123.482 114.457 127.813 116.229 132.293 117.459C134.508 118.099 136.87 118.641 139.135 119.084C141.448 119.527 143.712 119.871 145.977 120.068C149.619 120.413 153.212 120.363 156.51 119.674C155.674 117.656 155.329 114.063 155.231 110.224C155.92 106.04 156.412 100.674 155.772 94.9153C155.575 93.094 155.28 91.2728 154.837 89.4515C154.541 88.1717 154.049 86.8919 153.458 85.6614C151.49 83.9878 144.401 78.0811 141.399 77.1458C137.904 76.0629 129.29 80.5422 129.29 80.5422C129.29 80.5422 135.541 75.423 140.316 74.98C142.974 74.7339 147.207 77.8349 150.456 80.6406C142.334 69.5163 126.73 60.5085 126.73 60.5085C126.73 60.5085 119.741 64.6924 113.588 66.1199C119.052 63.265 125.352 59.2287 125.943 58.2935C126.534 57.3582 126.337 52.3867 126.73 51.8945C127.124 51.4023 127.075 50.7624 127.075 50.6147C127.075 50.467 126.681 50.024 126.681 49.9256C126.632 49.7779 127.321 49.1872 127.469 48.8427C127.617 48.4981 127.124 47.4152 127.124 47.4152C127.124 47.4152 129.93 46.4308 130.078 45.4463C128.256 42.7883 127.813 37.2753 127.813 37.2753C127.813 37.2753 129.684 35.8479 129.684 32.3038C129.684 32.3038 134.311 32.4023 135.787 28.2183C137.658 23.0007 133.769 20.0473 133.769 20.0473C133.769 20.0473 134.163 23.3945 131.997 23.8867C129.832 24.3789 127.124 12.91 112.948 12.0732C98.7227 11.2364 92.5206 18.3245 93.8004 23.0991C93.8004 23.0991 87.0077 26.8401 89.3704 32.8945C91.5854 38.8505 94.9818 46.7753 94.0957 49.2857ZM126.435 99.9852C128.01 95.7521 128.453 88.3686 128.453 88.3686C131.357 97.9671 123.531 107.762 124.663 108.55C125.795 109.338 136.575 115.687 136.575 115.687C128.552 113.669 121.759 109.682 121.808 108.599C121.857 107.516 124.86 104.218 126.435 99.9852ZM109.995 56.0784C113.047 57.4075 121.808 58.1458 121.808 58.1458C121.808 58.1458 114.917 58.195 111.225 57.7028C107.583 57.2106 103.694 50.024 103.694 50.024C103.694 50.024 106.894 54.7494 109.995 56.0784Z" fill="#031563"/>
<path d="M78.8367 70.8945C78.8367 70.8945 75.2435 68.138 71.7979 64.2002C72.4377 65.4308 73.0776 66.6613 73.7668 67.8919C74.8989 69.9593 76.1787 72.0266 77.5077 73.9955C77.6554 74.1924 77.7538 74.3893 77.9015 74.5862C79.4766 75.3738 78.8367 70.8945 78.8367 70.8945Z" fill="white"/>
<path d="M101.724 130.061L112.258 123.809C105.859 119.921 100.001 115.294 94.6361 110.224C93.504 110.372 92.2734 110.519 92.2734 110.519C92.2734 110.519 95.4729 118.887 98.7216 124.006C100.297 126.517 101.38 128.486 101.724 130.061Z" fill="#031563"/>
<path d="M174.377 168.011L132.44 153.638L168.225 158.118L131.997 144.532L165.567 148.076L135.344 137.789L162.318 139.118L155.87 135.623C152.08 136.066 148.339 135.869 144.745 135.426C142.136 135.081 139.626 134.638 137.116 134.048C134.605 133.457 132.193 132.817 129.732 131.98C124.81 130.405 120.134 128.289 115.655 125.827C114.67 125.286 113.735 124.745 112.8 124.154L100.839 133.605C100.789 133.703 100.74 133.752 100.642 133.851C98.4758 135.869 75.7349 146.747 74.1105 147.83C72.5354 148.913 66.924 145.32 64.1675 145.172C58.8022 144.827 55.4551 141.874 58.9991 142.169C58.9991 142.169 64.5121 143.105 67.1701 141.628C69.8281 140.151 80.3618 131.636 83.5613 127.304C86.7608 122.973 91.7323 107.664 91.7323 107.664C91.7323 107.664 91.7815 107.713 91.88 107.763C91.7815 107.664 91.7323 107.615 91.6339 107.517C84.7427 100.625 78.639 93.0451 73.5199 84.7756C71.994 89.1072 70.6649 91.9622 69.5328 92.8482C67.4162 94.5218 73.766 96.9829 73.766 96.9829L82.6261 101.118L73.323 99.1487C72.9784 100.97 72.6339 103.874 72.6339 107.369C72.6339 107.369 64.0199 118.739 58.5069 128.781C58.5069 128.781 53.7323 126.418 48.5639 127.55C43.3955 128.633 39.0146 132.423 39.0146 134.245C39.0146 136.066 40.8359 136.657 40.8359 136.657C40.8359 136.657 40.8359 139.068 43.0509 139.118C43.0509 139.118 42.9525 141.53 44.7245 141.628C44.7245 141.628 44.3799 143.892 46.5457 143.695L49.1546 146.107C49.1546 146.107 48.367 148.224 50.582 148.716C50.582 148.716 49.8929 150.98 51.911 151.669C51.911 151.669 51.5173 154.229 53.8307 155.214C53.8307 155.214 53.0432 157.872 56.2919 159.545C56.2919 159.545 60.8696 162.892 69.7789 160.776C69.7789 160.776 80.8048 162.4 92.5199 156.739C104.235 151.03 106.548 149.504 107.927 149.602L124.219 139.807L107.927 153.737C107.287 158.364 105.761 165.206 105.761 165.206L176.888 176.379L131.16 160.53L174.377 168.011Z" fill="#031563"/>
<defs>
<linearGradient id="paint0_linear_416_750" x1="108.265" y1="184.731" x2="108.265" y2="9.97297" gradientUnits="userSpaceOnUse">
<stop stop-color="#752AA3"/>
<stop offset="0.724913" stop-color="#4F71F8"/>
</linearGradient>
<linearGradient id="paint1_linear_416_750" x1="20.4865" y1="118.774" x2="104.633" y2="118.774" gradientUnits="userSpaceOnUse">
<stop stop-color="#1134B7"/>
<stop offset="1" stop-color="#02125B"/>
</linearGradient>
<linearGradient id="paint2_linear_416_750" x1="30.2775" y1="38.9049" x2="85.9831" y2="38.9049" gradientUnits="userSpaceOnUse">
<stop stop-color="#1134B7"/>
<stop offset="1" stop-color="#02125B"/>
</linearGradient>
</defs>
</svg>
