<svg width="200" height="200" viewBox="0 0 200 200" fill="none" xmlns="http://www.w3.org/2000/svg">
<path d="M91.7855 189.62C84.6065 188.213 77.476 185.933 70.5396 182.732C49.4877 172.982 33.7716 156.344 24.9434 136.699" stroke="white" stroke-miterlimit="10"/>
<path d="M71.8978 179.822C48.6631 169.053 32.2194 149.602 24.6523 127.095" stroke="white" stroke-miterlimit="10"/>
<path d="M175.217 38.1824C185.791 49.7269 193.116 63.7454 196.56 78.7824" stroke="white" stroke-miterlimit="10"/>
<path d="M29.9886 131.267C31.3468 134.614 32.9475 137.912 34.7422 141.065C48.5181 165.415 73.8871 182.587 103.864 184.624C128.457 186.322 151.352 177.445 168.135 161.923C169.203 160.953 170.27 159.934 171.288 158.867C172.792 157.315 174.247 155.714 175.654 154.065C182.154 146.304 187.393 137.33 190.837 127.532C193.407 120.304 195.057 112.591 195.59 104.539C196.075 97.6029 195.687 90.812 194.572 84.2636C194.523 83.8756 194.426 83.4875 194.378 83.0995C192.825 74.6108 190.012 66.5587 186.131 59.0887C178.37 44.1001 166.292 31.6339 151.449 23.3878C140.729 17.4215 128.603 13.6865 115.554 12.8134C86.1108 10.8246 59.1411 23.8244 42.1152 45.3613C34.4027 55.1111 28.7274 66.6072 25.817 79.2674C24.7984 83.6815 24.1193 88.2412 23.7797 92.8978C22.9066 106.431 25.1864 119.479 29.9886 131.267Z" fill="url(#paint0_linear_416_974)"/>
<path d="M106.144 146.449L47.7415 158.867C46.2378 157.315 44.7826 155.714 43.3759 154.065C36.8761 146.304 31.6373 137.33 28.1934 127.532C25.6225 120.304 23.9733 112.592 23.4397 104.539C22.9547 97.603 23.3427 90.8121 24.4584 84.2637C24.5069 83.8756 24.6039 83.4876 24.6524 83.0995C29.9881 82.4204 35.2753 81.6928 40.6111 81.0137C42.3573 80.7712 44.152 80.5772 45.8983 80.9167C47.6445 81.2563 49.3423 82.2749 50.0699 83.9241C51.331 86.8345 48.8572 90.133 45.8983 91.2971C42.9879 92.4613 39.6894 92.2188 36.585 92.7523C33.4806 93.2374 30.1336 94.8866 29.3575 97.9425C28.4359 101.581 31.9769 105.17 35.7119 105.704C39.4469 106.237 43.1334 104.636 46.5289 103.036C51.9131 100.465 57.2488 97.7485 62.9241 95.9053C68.5994 94.062 74.7112 93.0919 80.5805 94.2075C90.2819 96.0508 98.5765 103.86 101.002 113.416C103.427 122.972 99.7892 133.837 92.0766 139.998C95.4236 139.173 99.1101 139.707 102.214 141.259C104.252 142.229 106.241 144.121 106.144 146.449Z" fill="url(#paint1_linear_416_974)"/>
<path d="M84.3636 34.6412C82.1809 35.9024 79.5615 36.242 77.0392 36.533C72.3825 37.0666 67.7744 37.6001 63.1178 38.0852C61.7111 38.2307 60.2559 38.4248 58.9947 39.1524C57.782 39.88 56.8604 41.3351 57.1999 42.7418C57.7335 44.8761 60.6439 45.3127 62.8267 44.9731C65.0095 44.6336 67.5804 44.1 69.1811 45.6522C70.8788 47.253 70.1997 50.2604 68.4535 51.8126C66.7072 53.3648 64.2819 53.8014 61.9536 54.1894C52.2523 55.8386 42.5509 57.4879 32.8496 59.0886C40.6107 44.1 52.6888 31.6338 67.5318 23.3877C71.2184 23.0481 74.9534 23.0481 78.6884 23.2907C80.5316 23.3877 82.4234 23.5817 84.0726 24.3578C85.7703 25.1339 87.2255 26.5406 87.6136 28.3354C88.1957 30.8092 86.5464 33.3316 84.3636 34.6412Z" fill="url(#paint2_linear_416_974)"/>
<path d="M189.042 131.267C188.023 133.74 186.908 136.166 185.695 138.494C185.259 139.367 184.773 140.192 184.337 141.016C184.191 141.259 184.046 141.502 183.9 141.744C173.083 160.371 155.475 174.729 134.181 181.131C132.968 181.471 131.756 181.811 130.543 182.15C125.595 183.411 120.454 184.236 115.166 184.575C92.3683 186.128 71.0254 178.658 54.6302 165.173C53.66 164.397 52.7384 163.572 51.7683 162.747C51.4772 162.456 51.1377 162.165 50.8467 161.923C48.1788 159.449 45.7049 156.83 43.3281 154.065L189.042 131.267Z" fill="#752AA3"/>
<path d="M185.695 138.494C185.259 139.367 184.774 140.192 184.337 141.016C184.192 141.259 184.046 141.502 183.901 141.744L148.83 148.098L134.181 181.131C132.969 181.471 131.756 181.811 130.543 182.15L145.338 148.778L54.6305 165.221C53.6603 164.445 52.7387 163.621 51.7686 162.796L185.695 138.494Z" fill="#193291"/>
<path d="M59.2864 138.3L55.3574 139.852L41.0479 103.036L40.4658 101.581L44.3949 100.028L44.9284 101.532L59.2864 138.3Z" fill="#752AA3"/>
<path d="M58.1709 64.376C52.156 48.9994 35.6638 41.0443 21.3058 46.6711C6.94785 52.2494 0.205433 69.2752 6.17175 84.6518C11.8955 99.3493 27.1751 107.207 40.9995 103.084L40.4174 101.629L44.3465 100.077L44.9285 101.532C57.9768 95.2262 63.8461 79.0735 58.1709 64.376ZM26.7386 75.0475C27.1751 76.1146 26.6415 77.3758 25.5259 77.7639C24.4587 78.2004 23.1976 77.6668 22.8095 76.5512C22.373 75.484 22.9065 74.2714 24.0222 73.8348C25.0893 73.3983 26.302 73.9803 26.7386 75.0475ZM43.3763 77.2303C43.8129 78.2974 43.2793 79.5586 42.1637 79.9467C41.0965 80.3832 39.8354 79.8496 39.4473 78.734C39.0107 77.6668 39.5443 76.4057 40.66 76.0176C41.7756 75.5811 42.9883 76.1146 43.3763 77.2303ZM44.589 65.8312C45.6561 65.3947 46.9173 65.9282 47.3054 67.0439C47.7419 68.111 47.2084 69.3237 46.0927 69.7603C45.0256 70.1968 43.7644 69.6632 43.3763 68.5476C42.9883 67.4804 43.5219 66.2193 44.589 65.8312ZM39.2533 72.4281C38.1861 72.8647 36.925 72.3311 36.5369 71.2155C36.1003 70.1483 36.6339 68.8871 37.7496 68.4991C38.8167 68.0625 40.0294 68.5961 40.4659 69.7118C40.9025 70.7789 40.3204 71.9916 39.2533 72.4281ZM35.3242 82.6145C34.2571 83.0511 33.0444 82.5175 32.6079 81.4019C32.1713 80.3347 32.7049 79.0735 33.8205 78.6855C34.8877 78.2489 36.1003 78.7825 36.5369 79.8982C36.925 80.9653 36.3914 82.178 35.3242 82.6145ZM36.3429 64.9096C35.2757 65.3462 34.0631 64.8126 33.6265 63.6969C33.1899 62.6298 33.7235 61.3686 34.8392 60.9806C35.9063 60.544 37.119 61.0776 37.5555 62.1932C37.9436 63.2604 37.41 64.473 36.3429 64.9096ZM33.578 72.3796C34.0146 73.4468 33.481 74.7079 32.3653 75.096C31.2982 75.5325 30.0855 74.999 29.649 73.8833C29.2124 72.8162 29.746 71.555 30.8616 71.167C31.9288 70.7304 33.1899 71.264 33.578 72.3796ZM28.4363 85.2824C27.3691 85.7189 26.1565 85.1854 25.7199 84.0697C25.2834 83.0026 25.8169 81.7899 26.9326 81.3533C27.9997 80.9168 29.2609 81.4504 29.649 82.566C30.0855 83.6332 29.5519 84.8458 28.4363 85.2824ZM29.4549 67.5775C28.3878 68.014 27.1751 67.4804 26.7386 66.3648C26.302 65.2976 26.8356 64.0365 27.9512 63.6484C29.0184 63.2119 30.2795 63.7454 30.6676 64.8611C31.1042 65.9282 30.5706 67.1409 29.4549 67.5775ZM23.7797 67.529C24.2162 68.5961 23.6826 69.8573 22.567 70.2453C21.4998 70.6819 20.2387 70.1483 19.8506 69.0327C19.4141 67.9655 19.9476 66.7529 21.0633 66.3163C22.1789 65.8797 23.3916 66.4618 23.7797 67.529ZM18.6865 80.4317C17.6193 80.8683 16.3581 80.3347 15.9701 79.2191C15.5335 78.1519 16.0671 76.9392 17.1828 76.5027C18.2499 76.0661 19.4626 76.5997 19.8991 77.7154C20.2872 78.7825 19.7536 79.9952 18.6865 80.4317ZM41.4846 98.4277C29.6005 103.084 15.9701 96.4874 10.9739 83.7302C6.41428 71.9916 10.7799 59.1373 20.8208 53.6075C12.4291 58.5552 8.79111 69.4692 12.6716 79.5101C16.9887 90.5211 27.5632 99.4463 40.4659 94.2076C53.3202 89.0174 54.1933 76.0176 49.8762 65.0066C45.9472 55.0142 35.9063 49.3875 26.399 51.4248C37.507 48.7569 49.4397 55.2568 53.9993 66.9954C58.947 79.7041 53.3687 93.771 41.4846 98.4277Z" fill="#752AA3"/>
<path d="M93.9688 104.2L85.0921 114.144L58.1224 118.994L53.6598 114.144L43.5704 117.539V121.08L42.4062 125.252L47.1599 135.583H62.585L66.7566 131.218C66.7566 131.218 91.98 128.841 94.0658 127.968C96.1516 127.095 103.282 115.502 103.282 115.502L93.9688 104.2Z" fill="#1A5AA8"/>
<path d="M69.8602 133.498C65.3975 127.968 58.6551 129.084 57.588 129.229C56.5208 129.375 55.8902 131.703 54.338 132.285C52.7858 132.867 44.7822 133.692 44.7822 133.692V138.009L69.8602 133.498Z" fill="#1A5AA8"/>
<path d="M111.723 86.6889L109.589 116.084L101.245 121.565L88.7793 106.043C88.7793 106.043 101.828 88.3381 107.503 73.301C113.227 58.3125 134.667 60.3498 146.357 63.5997C159.55 67.2862 170.658 72.2824 177.692 87.6105C179.05 90.5694 179.099 94.0134 177.789 96.9723C166.002 123.457 137.189 148.535 126.76 150.475C120.794 151.591 115.943 151.494 112.693 151.154C113.421 137.96 114.197 121.759 113.906 119.916C113.372 116.666 111.723 86.6889 111.723 86.6889Z" fill="#031563"/>
<path d="M180.457 168.568H111.723C111.723 168.568 111.965 164.639 112.256 159.012C119.193 158.721 135.976 156.344 146.065 149.456C157.125 141.889 169.446 126.998 177.11 110.797C175.121 123.457 172.938 136.99 172.938 136.99L180.457 168.568Z" fill="#031563"/>
<path d="M136.945 114.386L123.169 131.751L69.6663 139.852L62.5844 132.285L58.7523 131.412L56.9576 133.789L46.2861 135.826V139.852L48.3719 141.647C48.3719 141.647 52.5435 154.258 53.4166 154.549C54.2897 154.841 67.9686 152.755 67.9686 152.755C67.9686 152.755 127.874 153.337 130.542 151.882C133.21 150.378 156.057 129.908 156.057 129.908L136.945 114.386Z" fill="#1A5AA8"/>
<path d="M156.009 82.2747L127.681 117.345L153.777 135.778C153.777 135.778 171.482 117.248 176.236 103.86C180.989 90.4723 165.904 77.327 156.009 82.2747Z" fill="#031563"/>
<path d="M164.595 24.843L167.651 36.145L166.098 39.783L172.55 46.7195L166.68 48.6597L162.266 62.7752L147.423 58.7491L144.319 69.1295L131.61 65.9281L133.744 54.1895C133.744 54.1895 126.032 43.8091 125.45 39.4435C124.819 35.1264 126.662 22.4662 126.662 22.4662L133.453 17.47H139.323C139.323 17.47 147.957 12.8133 155.039 13.832C162.121 14.8506 174.102 16.1603 174.102 16.1603C174.102 16.1603 171.968 25.1825 164.595 24.843Z" fill="#031563"/>
<path d="M147.423 58.7489L141.941 56.3721L148.247 62.3869L147.277 59.3795" fill="#1A5AA8"/>
<path d="M132.677 60.4468C134.423 72.913 145.143 72.5734 145.143 72.5734C145.143 72.5734 130.154 76.0174 126.613 56.3722C124.285 43.809 132.677 60.4468 132.677 60.4468Z" fill="#1A5AA8"/>
<path d="M159.258 81.3044C147.616 89.5506 129.814 111.379 128.747 114.337C127.68 117.345 130.008 118.946 130.008 118.946C130.008 118.946 125.885 117.442 125.352 114.337C124.867 111.233 137.333 96.0505 143.493 90.9573C149.653 85.8641 159.258 81.3044 159.258 81.3044Z" fill="#1A5AA8"/>
<path d="M166.632 24.6489C161.005 26.1041 149.703 24.6489 149.703 24.6489L143.348 27.5593L142.281 31.9734L140.39 37.2606L141.117 42.4024C141.117 42.4024 139.419 37.5517 137.14 37.5517C134.86 37.5517 133.744 41.4322 133.744 41.4322C133.744 41.4322 134.278 39.2494 136.994 39.3949C139.71 39.5405 141.99 46.962 141.99 46.962L143.009 37.0181L145.143 29.7421C145.143 29.7421 159.453 28.1899 165.419 25.9101C171.385 23.6303 166.68 25.2795 166.68 25.2795" fill="#1A5AA8"/>
<path d="M78.6897 52.9768C72.3353 57.5365 60.5967 60.9319 60.5967 60.9319C60.5967 60.9319 73.5965 53.947 78.2531 49.3388C80.7269 46.8165 80.3389 51.8127 78.6897 52.9768Z" fill="white"/>
<path d="M66.7584 45.0703C60.7436 49.3874 51.3818 54.8201 51.3818 54.8201C51.3818 54.8201 61.9078 45.9919 66.3219 41.6263C68.6987 39.201 68.3107 43.9061 66.7584 45.0703Z" fill="white"/>
<path d="M73.3058 49.6784C61.5187 58.1186 39.8848 64.3759 39.8848 64.3759C39.8848 64.3759 63.8955 51.4731 72.4812 42.936C77.1379 38.3278 76.3618 47.4956 73.3058 49.6784Z" fill="white"/>
<path d="M85.8793 20.9239C88.9542 17.849 90.7344 13.9649 91.0581 10.0808C87.0931 10.4045 83.209 12.1038 80.134 15.1787C77.0591 18.2536 75.3598 22.1377 75.0361 26.1028C78.8393 25.7791 82.8043 23.9989 85.8793 20.9239Z" fill="white"/>
<path d="M97.5315 32.5764C101.092 29.0159 105.623 26.993 110.074 26.6693C109.831 22.4615 108.132 18.3346 104.976 15.0979C101.739 11.8611 97.6124 10.1618 93.4046 10C93.0809 14.4505 91.1389 18.982 87.4975 22.5424C83.9371 26.1029 79.4056 28.1258 74.9551 28.4495C75.1978 32.6573 76.8971 36.7841 80.053 40.0209C83.2897 43.2577 87.4166 44.957 91.6244 45.1188C92.029 40.6683 93.971 36.1368 97.5315 32.5764Z" fill="white"/>
<path d="M99.2306 34.2757C102.305 31.2008 106.19 29.4206 110.074 29.0969C109.75 33.0619 108.051 36.9461 104.976 40.021C101.901 43.0959 98.0168 44.7952 94.0518 45.1189C94.3754 41.2348 96.1556 37.3507 99.2306 34.2757Z" fill="white"/>
<defs>
<linearGradient id="paint0_linear_416_974" x1="109.725" y1="157.218" x2="109.725" y2="28.4325" gradientUnits="userSpaceOnUse">
<stop stop-color="#73299F"/>
<stop offset="1" stop-color="#4F71F8"/>
</linearGradient>
<linearGradient id="paint1_linear_416_974" x1="23.2259" y1="119.804" x2="106.148" y2="119.804" gradientUnits="userSpaceOnUse">
<stop stop-color="#1134B7"/>
<stop offset="1" stop-color="#02125B"/>
</linearGradient>
<linearGradient id="paint2_linear_416_974" x1="32.8739" y1="41.0975" x2="87.7689" y2="41.0975" gradientUnits="userSpaceOnUse">
<stop stop-color="#1134B7"/>
<stop offset="1" stop-color="#02125B"/>
</linearGradient>
</defs>
</svg>
