<svg width="200" height="200" viewBox="0 0 200 200" fill="none" xmlns="http://www.w3.org/2000/svg">
<path d="M91.082 189.62C83.797 188.193 76.5613 185.879 69.5224 182.63C48.1597 172.737 32.2115 155.853 23.2529 135.918" stroke="#D89EEF" stroke-miterlimit="10"/>
<path d="M70.9001 179.677C47.3223 168.75 30.6358 149.011 22.957 126.172" stroke="#D89EEF" stroke-miterlimit="10"/>
<path d="M175.746 35.9463C186.477 47.6613 193.909 61.8867 197.404 77.1458" stroke="#C981EA" stroke-miterlimit="10"/>
<path d="M28.372 130.405C29.7503 133.801 31.3746 137.149 33.1959 140.348C47.1752 165.058 72.9187 182.483 103.338 184.55C128.294 186.273 151.528 177.265 168.559 161.514C169.642 160.529 170.725 159.496 171.758 158.413C173.284 156.838 174.761 155.213 176.188 153.54C182.784 145.664 188.1 136.558 191.595 126.615C194.204 119.281 195.877 111.454 196.419 103.283C196.911 96.2443 196.517 89.3532 195.385 82.7081C195.336 82.3143 195.238 81.9205 195.188 81.5267C193.613 72.9127 190.758 64.7417 186.82 57.1614C178.945 41.9515 166.688 29.3013 151.626 20.9334C140.748 14.879 128.442 11.0888 115.201 10.2028C85.3229 8.18465 57.955 21.3764 40.6777 43.2313C32.8513 53.1251 27.0922 64.7909 24.1389 77.6381C23.1052 82.1174 22.4161 86.7443 22.0715 91.4697C21.1855 105.203 23.499 118.444 28.372 130.405Z" fill="url(#paint0_linear_416_1130)"/>
<path d="M105.652 145.812L46.3876 158.413C44.8617 156.838 43.385 155.213 41.9575 153.54C35.3617 145.664 30.0456 136.558 26.5508 126.615C23.942 119.28 22.2684 111.454 21.7269 103.283C21.2347 96.2442 21.6285 89.353 22.7606 82.7079C22.8098 82.3141 22.9083 81.9203 22.9575 81.5265C28.372 80.8374 33.7373 80.0991 39.1518 79.41C40.9238 79.1638 42.7451 78.9669 44.5171 79.3115C46.2891 79.6561 48.0119 80.6897 48.7503 82.3633C50.0301 85.3167 47.5197 88.6639 44.5171 89.8452C41.5637 91.0266 38.2166 90.7804 35.0663 91.3219C31.9161 91.8141 28.5197 93.4877 27.7321 96.5887C26.7969 100.28 30.3902 103.923 34.1803 104.464C37.9705 105.006 41.7114 103.381 45.157 101.757C50.6208 99.1483 56.0353 96.3918 61.7943 94.5214C67.5534 92.6509 73.7555 91.6665 79.7115 92.7986C89.556 94.669 97.9731 102.594 100.434 112.291C102.895 121.988 99.2037 133.014 91.3773 139.265C94.7737 138.428 98.5146 138.97 101.665 140.545C103.732 141.529 105.75 143.449 105.652 145.812Z" fill="white"/>
<path d="M83.5511 32.3531C81.336 33.6329 78.678 33.9775 76.1184 34.2728C71.393 34.8142 66.7168 35.3557 61.9914 35.8479C60.564 35.9956 59.0873 36.1925 57.8075 36.9308C56.5769 37.6692 55.6417 39.1459 55.9862 40.5733C56.5277 42.7391 59.4811 43.1821 61.6961 42.8376C63.9111 42.493 66.5199 41.9516 68.1443 43.5267C69.8671 45.151 69.178 48.2029 67.406 49.778C65.6339 51.3531 63.1728 51.7961 60.8101 52.1899C50.9655 53.8635 41.1209 55.5371 31.2764 57.1614C39.152 41.9516 51.4085 29.3013 66.4707 20.9334C70.2117 20.5888 74.0018 20.5888 77.792 20.835C79.6625 20.9334 81.5821 21.1303 83.2557 21.9179C84.9785 22.7054 86.4552 24.1329 86.849 25.9541C87.4397 28.4645 85.7661 31.0241 83.5511 32.3531Z" fill="white"/>
<path d="M189.773 130.405C188.739 132.915 187.607 135.376 186.376 137.739C185.933 138.625 185.441 139.462 184.998 140.299C184.85 140.545 184.703 140.791 184.555 141.037C173.578 159.939 155.71 174.508 134.102 181.006C132.871 181.35 131.641 181.695 130.41 182.04C125.389 183.319 120.172 184.156 114.806 184.501C91.6715 186.076 70.0135 178.496 53.3762 164.812C52.3917 164.024 51.4565 163.187 50.472 162.35C50.1767 162.055 49.8321 161.76 49.5368 161.514C46.8295 159.003 44.3191 156.345 41.9072 153.54L189.773 130.405Z" fill="#C193EC"/>
<path d="M186.377 137.738C185.934 138.624 185.442 139.461 184.999 140.298C184.851 140.544 184.703 140.79 184.556 141.036L148.968 147.484L134.102 181.005C132.872 181.35 131.641 181.694 130.411 182.039L145.424 148.174L53.3768 164.86C52.3924 164.073 51.4571 163.236 50.4727 162.399L186.377 137.738Z" fill="#DDEEFF"/>
<path d="M58.1034 137.543L54.1163 139.118L39.5956 101.758L39.0049 100.281L42.9919 98.7058L43.5334 100.232L58.1034 137.543Z" fill="#C193EC"/>
<path d="M56.9707 62.5269C50.8671 46.9233 34.1313 38.8507 19.5613 44.5606C4.99138 50.2212 -1.8506 67.4984 4.20382 83.1021C10.0121 98.0166 25.5173 105.991 39.5458 101.807L38.9552 100.33L42.9422 98.755L43.5329 100.232C56.7738 93.8327 62.7298 77.4415 56.9707 62.5269ZM25.0743 73.356C25.5173 74.4389 24.9759 75.7187 23.8437 76.1124C22.7608 76.5554 21.481 76.014 21.0873 74.8819C20.6442 73.799 21.1857 72.5684 22.3178 72.1254C23.4007 71.6824 24.6313 72.2731 25.0743 73.356ZM41.9578 75.571C42.4008 76.6539 41.8593 77.9337 40.7272 78.3275C39.6443 78.7705 38.3645 78.229 37.9707 77.0969C37.5277 76.014 38.0691 74.7342 39.2013 74.3404C40.3334 73.8974 41.564 74.4389 41.9578 75.571ZM43.1883 64.0036C44.2712 63.5606 45.551 64.1021 45.9448 65.2342C46.3878 66.3171 45.8464 67.5477 44.7142 67.9907C43.6313 68.4337 42.3515 67.8922 41.9578 66.7601C41.564 65.6772 42.1054 64.3974 43.1883 64.0036ZM37.7738 70.6979C36.6909 71.1409 35.4111 70.5995 35.0173 69.4674C34.5743 68.3845 35.1158 67.1047 36.2479 66.7109C37.3308 66.2679 38.5614 66.8093 39.0044 67.9414C39.4474 69.0244 38.8567 70.2549 37.7738 70.6979ZM33.7868 81.0347C32.7039 81.4777 31.4733 80.9363 31.0303 79.8042C30.5873 78.7213 31.1287 77.4415 32.2608 77.0477C33.3437 76.6047 34.5743 77.1461 35.0173 78.2783C35.4111 79.3612 34.8697 80.5917 33.7868 81.0347ZM34.8204 63.0684C33.7375 63.5114 32.507 62.9699 32.064 61.8378C31.6209 60.7549 32.1624 59.4751 33.2945 59.0813C34.3774 58.6383 35.608 59.1798 36.051 60.3119C36.4448 61.3948 35.9033 62.6254 34.8204 63.0684ZM32.0147 70.6487C32.4577 71.7316 31.9163 73.0114 30.7842 73.4052C29.7013 73.8482 28.4707 73.3067 28.0277 72.1746C27.5847 71.0917 28.1261 69.8119 29.2582 69.4181C30.3412 68.9751 31.6209 69.5166 32.0147 70.6487ZM26.7971 83.742C25.7142 84.185 24.4836 83.6435 24.0406 82.5114C23.5976 81.4285 24.1391 80.1979 25.2712 79.7549C26.3541 79.3119 27.6339 79.8534 28.0277 80.9855C28.4707 82.0684 27.9292 83.299 26.7971 83.742ZM27.8308 65.7756C26.7479 66.2186 25.5173 65.6772 25.0743 64.5451C24.6313 63.4622 25.1728 62.1824 26.3049 61.7886C27.3878 61.3456 28.6676 61.887 29.0614 63.0192C29.5044 64.1021 28.9629 65.3326 27.8308 65.7756ZM22.0717 65.7264C22.5147 66.8093 21.9733 68.0891 20.8411 68.4829C19.7582 68.9259 18.4784 68.3845 18.0847 67.2523C17.6417 66.1694 18.1831 64.9389 19.3152 64.4958C20.4474 64.0528 21.6779 64.6435 22.0717 65.7264ZM16.9033 78.8197C15.8204 79.2627 14.5406 78.7213 14.1468 77.5891C13.7038 76.5062 14.2453 75.2757 15.3774 74.8327C16.4603 74.3896 17.6909 74.9311 18.1339 76.0632C18.5277 77.1461 17.9862 78.3767 16.9033 78.8197ZM40.0381 97.0814C27.9785 101.807 14.1468 95.1125 9.07688 82.1669C4.44993 70.2549 8.87999 57.2109 19.0691 51.5995C10.5536 56.6202 6.86185 67.6953 10.7997 77.8845C15.1805 89.0581 25.9111 98.1151 39.0044 92.799C52.0484 87.5322 52.9344 74.3404 48.5536 63.1668C44.5666 53.0269 34.3774 47.3171 24.7297 49.3844C36.0018 46.6772 48.1106 53.273 52.7376 65.185C57.7583 78.0814 52.0977 92.356 40.0381 97.0814Z" fill="#C193EC"/>
<path d="M93.2966 102.939L84.2888 113.029L56.9209 117.952L52.3924 113.029L42.154 116.475V120.068L40.9727 124.301L45.7965 134.786H61.4494L65.6825 130.356C65.6825 130.356 91.2784 127.944 93.395 127.058C95.5116 126.172 102.747 114.408 102.747 114.408L93.2966 102.939Z" fill="#717ECC"/>
<path d="M68.833 132.67C64.3045 127.058 57.4625 128.19 56.3796 128.338C55.2967 128.486 54.6568 130.848 53.0817 131.439C51.5065 132.03 43.3848 132.867 43.3848 132.867V137.247L68.833 132.67Z" fill="#4954B7"/>
<path d="M111.313 85.1694L109.147 114.998L100.681 120.561L88.0303 104.809C88.0303 104.809 101.271 86.843 107.03 71.5839C112.839 56.374 134.595 58.4414 146.458 61.7393C159.846 65.4803 171.118 70.5502 178.256 86.1046C179.634 89.1072 179.683 92.6021 178.354 95.6047C166.393 122.48 137.155 147.929 126.572 149.897C120.517 151.03 115.595 150.931 112.297 150.587C113.035 137.198 113.823 120.758 113.528 118.887C112.986 115.589 111.313 85.1694 111.313 85.1694Z" fill="#4954B7"/>
<path d="M181.061 168.257H111.312C111.312 168.257 111.559 164.27 111.854 158.561C118.893 158.265 135.924 155.853 146.162 148.864C157.385 141.185 169.888 126.073 177.665 109.633C175.647 122.48 173.432 136.213 173.432 136.213L181.061 168.257Z" fill="#4954B7"/>
<path d="M136.909 113.276L122.929 130.897L68.6366 139.118L61.45 131.439L57.5614 130.553L55.7402 132.965L44.9111 135.032V139.118L47.0277 140.939C47.0277 140.939 51.2609 153.737 52.1469 154.032C53.0329 154.328 66.9138 152.211 66.9138 152.211C66.9138 152.211 127.704 152.802 130.411 151.325C133.119 149.799 156.303 129.027 156.303 129.027L136.909 113.276Z" fill="#717ECC"/>
<path d="M156.253 80.6903L127.507 116.278L153.989 134.983C153.989 134.983 171.955 116.18 176.779 102.595C181.603 89.009 166.294 75.6696 156.253 80.6903Z" fill="#4954B7"/>
<path d="M164.966 22.4103L168.067 33.8792L166.491 37.5709L173.038 44.6098L167.082 46.5787L162.603 60.9026L147.541 56.8171L144.39 67.3508L131.494 64.1021L133.66 52.1901C133.66 52.1901 125.833 41.6564 125.243 37.2264C124.603 32.8455 126.473 19.9984 126.473 19.9984L133.365 14.9284H139.32C139.32 14.9284 148.082 10.203 155.269 11.2367C162.455 12.2704 174.613 13.5994 174.613 13.5994C174.613 13.5994 172.447 22.7549 164.966 22.4103Z" fill="#4954B7"/>
<path d="M147.541 56.8172L141.979 54.4053L148.377 60.5089L147.393 57.4571" fill="#717ECC"/>
<path d="M132.577 58.5399C134.349 71.1901 145.227 70.8456 145.227 70.8456C145.227 70.8456 130.017 74.3404 126.424 54.4051C124.061 41.6564 132.577 58.5399 132.577 58.5399Z" fill="url(#paint1_linear_416_1130)"/>
<path d="M159.551 79.7056C147.737 88.0735 129.672 110.224 128.589 113.226C127.507 116.278 129.869 117.903 129.869 117.903C129.869 117.903 125.685 116.377 125.144 113.226C124.652 110.076 137.302 94.6693 143.553 89.5009C149.804 84.3325 159.551 79.7056 159.551 79.7056Z" fill="url(#paint2_linear_416_1130)"/>
<path d="M167.033 22.2134C161.323 23.6901 149.854 22.2134 149.854 22.2134L143.406 25.1668L142.323 29.646L140.404 35.0113L141.142 40.2289C141.142 40.2289 139.419 35.3067 137.106 35.3067C134.792 35.3067 133.66 39.2445 133.66 39.2445C133.66 39.2445 134.202 37.0295 136.958 37.1771C139.715 37.3248 142.028 44.8559 142.028 44.8559L143.062 34.7652L145.228 27.3818C145.228 27.3818 159.748 25.8067 165.803 23.4932C171.857 21.1797 167.082 22.8533 167.082 22.8533" fill="url(#paint3_linear_416_1130)"/>
<path d="M77.7928 50.9596C71.3446 55.5866 59.4326 59.0322 59.4326 59.0322C59.4326 59.0322 72.6244 51.9441 77.3498 47.2679C79.8601 44.7083 79.4663 49.7783 77.7928 50.9596Z" fill="url(#paint4_linear_416_1130)"/>
<path d="M65.6837 42.9362C59.5801 47.317 50.0801 52.83 50.0801 52.83C50.0801 52.83 60.7614 43.8714 65.2407 39.4414C67.6526 36.9802 67.2589 41.7548 65.6837 42.9362Z" fill="url(#paint5_linear_416_1130)"/>
<path d="M72.3286 47.6125C60.3675 56.1773 38.4141 62.527 38.4141 62.527C38.4141 62.527 62.7794 49.4337 71.4918 40.7705C76.2172 36.0943 75.4297 45.3975 72.3286 47.6125Z" fill="url(#paint6_linear_416_1130)"/>
<path d="M92.7564 42.4933C101.537 42.4933 108.655 35.3751 108.655 26.5943C108.655 17.8135 101.537 10.6953 92.7564 10.6953C83.9756 10.6953 76.8574 17.8135 76.8574 26.5943C76.8574 35.3751 83.9756 42.4933 92.7564 42.4933Z" fill="#C193EC"/>
<path d="M92.7564 42.4933C101.537 42.4933 108.655 35.3751 108.655 26.5943C108.655 17.8135 101.537 10.6953 92.7564 10.6953C83.9756 10.6953 76.8574 17.8135 76.8574 26.5943C76.8574 35.3751 83.9756 42.4933 92.7564 42.4933Z" fill="#C193EC"/>
<path d="M81.6318 15.5195C90.8858 24.7734 88.8184 33.5843 82.9116 38.6543" stroke="white" stroke-miterlimit="10"/>
<path d="M104.028 15.3718C94.4785 24.7734 96.6935 33.732 102.748 38.8511" stroke="white" stroke-miterlimit="10"/>
<defs>
<linearGradient id="paint0_linear_416_1130" x1="152.977" y1="173.03" x2="65.5943" y2="21.679" gradientUnits="userSpaceOnUse">
<stop offset="0.4916" stop-color="#A5D4ED"/>
<stop offset="1" stop-color="white"/>
</linearGradient>
<linearGradient id="paint1_linear_416_1130" x1="125.971" y1="60.3568" x2="145.186" y2="60.3568" gradientUnits="userSpaceOnUse">
<stop offset="0.4916" stop-color="#A5D4ED"/>
<stop offset="1" stop-color="white"/>
</linearGradient>
<linearGradient id="paint2_linear_416_1130" x1="125.137" y1="98.8317" x2="159.553" y2="98.8317" gradientUnits="userSpaceOnUse">
<stop offset="0.4916" stop-color="#A5D4ED"/>
<stop offset="1" stop-color="white"/>
</linearGradient>
<linearGradient id="paint3_linear_416_1130" x1="133.654" y1="33.5465" x2="168.843" y2="33.5465" gradientUnits="userSpaceOnUse">
<stop offset="0.4916" stop-color="#A5D4ED"/>
<stop offset="1" stop-color="white"/>
</linearGradient>
<linearGradient id="paint4_linear_416_1130" x1="59.4129" y1="52.7905" x2="79.1343" y2="52.7905" gradientUnits="userSpaceOnUse">
<stop offset="0.4916" stop-color="white"/>
<stop offset="1" stop-color="#C193EC"/>
</linearGradient>
<linearGradient id="paint5_linear_416_1130" x1="50.0621" y1="45.7629" x2="66.9504" y2="45.7629" gradientUnits="userSpaceOnUse">
<stop offset="0.4916" stop-color="white"/>
<stop offset="1" stop-color="#C193EC"/>
</linearGradient>
<linearGradient id="paint6_linear_416_1130" x1="38.3888" y1="50.9996" x2="74.8439" y2="50.9996" gradientUnits="userSpaceOnUse">
<stop offset="0.4916" stop-color="white"/>
<stop offset="1" stop-color="#C193EC"/>
</linearGradient>
</defs>
</svg>
