<svg width="200" height="200" viewBox="0 0 200 200" fill="none" xmlns="http://www.w3.org/2000/svg">
<path d="M85.6763 189.62C78.5645 188.227 71.5008 185.968 64.6293 182.797C43.7745 173.138 28.2055 156.656 19.46 137.195" stroke="white" stroke-miterlimit="10"/>
<path d="M65.974 179.913C42.9569 169.246 26.6671 149.977 19.1709 127.68" stroke="white" stroke-miterlimit="10"/>
<path d="M168.326 39.6001C178.802 51.0366 186.058 64.9237 189.469 79.82" stroke="white" stroke-miterlimit="10"/>
<path d="M24.458 131.813C25.8035 135.128 27.3892 138.396 29.1672 141.519C42.8141 165.642 67.9455 182.652 97.6419 184.671C122.005 186.352 144.685 177.559 161.311 162.182C162.369 161.221 163.426 160.212 164.435 159.155C165.925 157.617 167.366 156.031 168.76 154.398C175.199 146.709 180.388 137.819 183.8 128.113C186.347 120.953 187.981 113.313 188.509 105.336C188.99 98.4644 188.605 91.7371 187.5 85.25C187.452 84.8656 187.356 84.4812 187.308 84.0967C185.77 75.6876 182.983 67.7109 179.139 60.3108C171.451 45.4626 159.485 33.1131 144.781 24.9442C134.162 19.0337 122.149 15.3337 109.223 14.4687C80.0547 12.4986 53.3376 25.3766 36.4711 46.7119C28.8308 56.3705 23.2087 67.7589 20.3255 80.3006C19.3164 84.6734 18.6437 89.1903 18.3073 93.8033C17.4424 107.21 19.7008 120.136 24.458 131.813Z" fill="url(#paint0_linear_416_806)"/>
<path d="M99.8995 146.853L42.0443 159.155C40.5547 157.617 39.1131 156.031 37.7196 154.398C31.2806 146.709 26.0909 137.82 22.6792 128.113C20.1324 120.953 18.4986 113.313 17.97 105.336C17.4895 98.4646 17.8739 91.7373 18.9791 85.2502C19.0272 84.8657 19.1233 84.4813 19.1713 84.0969C24.4571 83.4242 29.6948 82.7034 34.9806 82.0306C36.7105 81.7904 38.4884 81.5982 40.2183 81.9345C41.9482 82.2709 43.63 83.28 44.3508 84.9138C45.6002 87.7969 43.1495 91.0645 40.2183 92.2178C37.3352 93.371 34.0676 93.1308 30.9922 93.6594C27.9169 94.1399 24.6013 95.7737 23.8324 98.801C22.9194 102.405 26.4273 105.961 30.1273 106.489C33.8273 107.018 37.4793 105.432 40.843 103.846C46.1768 101.3 51.4626 98.6088 57.0847 96.7828C62.7069 94.9568 68.7615 93.9957 74.5758 95.1009C84.1863 96.9269 92.4033 104.663 94.8059 114.13C97.2085 123.596 93.6046 134.36 85.9643 140.462C89.2799 139.646 92.9319 140.174 96.0072 141.712C98.0254 142.673 99.9956 144.547 99.8995 146.853Z" fill="url(#paint1_linear_416_806)"/>
<path d="M78.3237 36.0924C76.1614 37.3418 73.5665 37.6782 71.0678 37.9665C66.4548 38.4951 61.8898 39.0236 57.2767 39.5042C55.8832 39.6483 54.4416 39.8405 53.1923 40.5613C51.991 41.2821 51.078 42.7237 51.4143 44.1172C51.9429 46.2315 54.8261 46.664 56.9884 46.3276C59.1508 45.9913 61.6976 45.4627 63.2833 47.0004C64.9651 48.5861 64.2924 51.5653 62.5625 53.103C60.8326 54.6407 58.43 55.0732 56.1235 55.4576C46.513 57.0914 36.9025 58.7252 27.292 60.3109C34.9804 45.4627 46.9455 33.1132 61.6495 24.9443C65.3015 24.6079 69.0015 24.6079 72.7016 24.8482C74.5276 24.9443 76.4016 25.1365 78.0354 25.9053C79.7172 26.6742 81.1588 28.0677 81.5432 29.8456C82.1199 32.2963 80.4861 34.795 78.3237 36.0924Z" fill="url(#paint2_linear_416_806)"/>
<path d="M182.022 131.813C181.012 134.263 179.907 136.666 178.706 138.973C178.273 139.838 177.793 140.654 177.36 141.471C177.216 141.712 177.072 141.952 176.928 142.192C166.212 160.644 148.769 174.868 127.674 181.211C126.473 181.547 125.272 181.883 124.07 182.22C119.169 183.469 114.075 184.286 108.838 184.622C86.2529 186.16 65.1098 178.76 48.8681 165.401C47.9071 164.633 46.9941 163.816 46.033 162.999C45.7447 162.71 45.4083 162.422 45.12 162.182C42.4771 159.731 40.0264 157.136 37.6719 154.397L182.022 131.813Z" fill="#752AA3"/>
<path d="M178.706 138.972C178.274 139.837 177.793 140.654 177.361 141.471C177.216 141.711 177.072 141.952 176.928 142.192L142.186 148.487L127.674 181.211C126.473 181.547 125.272 181.883 124.07 182.22L138.726 149.16L48.8683 165.449C47.9073 164.68 46.9943 163.864 46.0332 163.047L178.706 138.972Z" fill="#193291"/>
<path d="M130.7 72.324C130.796 72.4682 132.862 75.3033 139.782 74.6786L140.311 82.3189L127.673 82.9917C127.336 82.7995 127.096 82.7034 127.096 82.7034C124.021 82.2709 115.371 78.3306 115.371 78.3306C115.371 78.3306 119.456 82.6553 124.213 83.8086L126.231 90.8242L108.548 95.5814L106.722 79.8202C106.722 79.8202 106.578 79.7722 106.289 79.58C103.935 81.8865 101.148 79.628 101.148 79.628C101.148 79.628 105.184 80.9735 101.965 76.841C100.571 75.7838 99.1777 74.4383 98.1686 72.9487C97.7361 72.276 97.3517 71.6513 97.0634 71.1227C100.667 68.9604 109.028 61.0797 109.317 60.7914L96.0062 67.8551C95.7179 67.9993 86.5879 73.189 85.6749 72.324C84.7619 71.411 84.4736 67.5668 84.4736 67.5668L95.3815 60.407C95.3815 60.407 90.1919 49.403 103.358 41.9549C116.525 34.5067 130.412 36.3327 135.553 55.0732C135.505 56.4187 134.352 57.5239 133.824 57.668C133.247 57.8122 125.558 57.5239 124.453 58.1005C123.3 58.6291 120.032 60.1667 120.032 60.1667C120.032 60.1667 127.144 62.5213 130.412 62.0888C133.679 61.6564 135.986 57.3797 135.986 57.3797L136.082 57.3317C137.668 61.7044 142.569 65.1642 142.569 65.1642L139.205 69.3448C139.109 69.6331 139.157 69.9695 139.302 70.3058C139.686 71.1227 140.551 71.7955 140.551 71.7955C140.551 71.7955 140.214 72.0838 139.542 72.4201C138.004 73.189 134.929 74.15 130.7 72.324Z" fill="#031563"/>
<path d="M108.26 41.0418C108.26 42.3873 107.155 43.4445 105.761 43.4445C104.368 43.4445 103.263 42.3392 103.263 41.0418C103.263 39.6964 104.368 38.6392 105.761 38.6392C107.155 38.5912 108.26 39.6964 108.26 41.0418Z" fill="url(#paint3_linear_416_806)"/>
<path d="M51.4632 76.5044L45.3124 77.4654L44.1592 70.4017L50.3099 69.4407L51.4632 76.5044Z" fill="#144A6B"/>
<path d="M48.9391 73.1696C63.398 70.2244 72.4869 54.914 69.2398 38.9728C65.9926 23.0316 51.6391 12.4962 37.1802 15.4414C22.7213 18.3866 13.6323 33.6971 16.8795 49.6383C20.1266 65.5795 34.4802 76.1148 48.9391 73.1696Z" fill="#752AA3"/>
<path d="M65.1095 40.8497C67.3199 54.2563 59.199 66.7019 46.9937 68.576C34.7884 70.45 23.1116 61.1278 20.9492 47.6732C20.8531 47.0004 20.757 46.3277 20.709 45.6069C23.6882 57.9564 34.7884 66.2695 46.369 64.4915C57.9497 62.7136 65.8303 51.4212 64.7251 38.7834C64.8692 39.5042 65.0134 40.177 65.1095 40.8497Z" fill="#322DA6"/>
<path d="M34.9322 30.4702C35.0763 31.4793 34.4036 32.3923 33.3945 32.5364C32.3854 32.6806 31.4243 32.0079 31.2802 31.0468C31.136 30.0377 31.8087 29.1247 32.8178 28.9806C33.8269 28.7883 34.788 29.4611 34.9322 30.4702Z" fill="#322DA6"/>
<path d="M42.4761 29.3169C42.6203 30.326 41.9475 31.239 40.9384 31.3831C39.9293 31.5273 38.9683 30.8545 38.8241 29.8935C38.68 28.8844 39.3527 27.9714 40.3618 27.8272C41.3709 27.635 42.3319 28.3078 42.4761 29.3169Z" fill="#322DA6"/>
<path d="M50.021 28.1155C50.1652 29.1246 49.4924 30.0376 48.4833 30.1818C47.4742 30.3259 46.5132 29.6532 46.369 28.6922C46.2249 27.6831 46.8976 26.7701 47.9067 26.6259C48.9158 26.4817 49.8288 27.1545 50.021 28.1155Z" fill="#322DA6"/>
<path d="M28.8296 40.3211C28.9738 41.3302 28.301 42.2432 27.2919 42.3874C26.2828 42.5315 25.3218 41.8588 25.1776 40.8977C25.0335 39.8886 25.7062 38.9756 26.7153 38.8315C27.6764 38.6873 28.6374 39.3601 28.8296 40.3211Z" fill="#322DA6"/>
<path d="M36.3257 39.1677C36.4699 40.1768 35.7971 41.0898 34.788 41.2339C33.7789 41.3781 32.8179 40.7054 32.6737 39.7443C32.5296 38.7352 33.2023 37.8222 34.2114 37.6781C35.2205 37.4859 36.1815 38.1586 36.3257 39.1677Z" fill="#322DA6"/>
<path d="M43.8706 38.0144C44.0148 39.0235 43.3421 39.9365 42.333 40.0806C41.3238 40.2248 40.3628 39.5521 40.2186 38.591C40.0745 37.5819 40.7472 36.6689 41.7563 36.5247C42.7654 36.3325 43.7265 37.0053 43.8706 38.0144Z" fill="#322DA6"/>
<path d="M51.4146 36.813C51.5587 37.8221 50.886 38.7351 49.8769 38.8793C48.8678 39.0235 47.9067 38.3507 47.7626 37.3897C47.6184 36.3806 48.2912 35.4676 49.3003 35.3234C50.3094 35.1793 51.2704 35.852 51.4146 36.813Z" fill="#322DA6"/>
<path d="M58.9585 35.6599C59.1027 36.669 58.4299 37.582 57.4208 37.7261C56.4117 37.8703 55.4507 37.1976 55.3065 36.2365C55.1624 35.2274 55.8351 34.3144 56.8442 34.1703C57.8533 33.978 58.8144 34.6508 58.9585 35.6599Z" fill="#322DA6"/>
<path d="M37.7671 47.8653C37.9113 48.8744 37.2385 49.7874 36.2294 49.9315C35.2203 50.0757 34.2593 49.403 34.1151 48.4419C33.971 47.4328 34.6437 46.5198 35.6528 46.3757C36.6619 46.2315 37.623 46.9042 37.7671 47.8653Z" fill="#322DA6"/>
<path d="M45.3111 46.7116C45.4552 47.7207 44.7825 48.6337 43.7734 48.7779C42.7643 48.922 41.8032 48.2493 41.6591 47.2883C41.5149 46.2792 42.1877 45.3662 43.1968 45.222C44.2059 45.0298 45.1669 45.7025 45.3111 46.7116Z" fill="#322DA6"/>
<path d="M52.856 45.5586C53.0001 46.5677 52.3274 47.4807 51.3183 47.6248C50.3092 47.769 49.3482 47.0962 49.204 46.1352C49.0598 45.1261 49.7326 44.2131 50.7417 44.0689C51.7508 43.8767 52.7118 44.5495 52.856 45.5586Z" fill="#322DA6"/>
<path d="M46.7525 55.4094C46.8966 56.4185 46.2239 57.3315 45.2148 57.4756C44.2057 57.6198 43.2446 56.9471 43.1005 55.986C42.9563 54.9769 43.6291 54.0639 44.6382 53.9198C45.5992 53.7276 46.5603 54.4003 46.7525 55.4094Z" fill="#322DA6"/>
<path d="M56.9411 103.942L48.5319 105.24L48.1475 102.693L56.5566 101.396L56.9411 103.942Z" fill="#144A6B"/>
<path d="M52.6629 77.5136L44.2057 78.811L43.8213 76.3123L52.2305 74.9668L52.6629 77.5136Z" fill="#752AA3"/>
<path d="M153.91 132.534C153.141 132.582 152.325 132.63 151.508 132.582C149.586 132.485 147.663 132.341 145.789 132.101C140.696 131.476 135.602 130.515 130.605 129.314C112.921 125.037 95.8148 117.733 81.0146 107.354C81.5913 106.681 82.216 106.105 82.8406 105.528C92.0667 97.1669 125.175 86.6915 139.639 85.3941C149.441 84.5291 156.601 91.9292 157.082 96.2539C157.082 107.114 155.4 118.118 154.006 128.834C154.006 128.978 153.958 129.17 154.054 129.266C154.102 129.362 154.199 129.362 154.295 129.41C156.217 130.083 158.187 130.611 160.157 131.044C160.59 131.14 161.07 131.188 161.503 130.996C158.908 131.669 156.505 132.341 153.91 132.534Z" fill="#031563"/>
<path d="M81.0627 107.354C80.9186 107.498 80.7744 107.691 80.6302 107.835C80.1017 107.21 79.6211 106.633 79.1406 105.961C79.7653 106.441 80.39 106.922 81.0627 107.354Z" fill="white" stroke="black" stroke-miterlimit="10"/>
<path d="M156.553 141.712C158.139 141.808 159.148 141.76 159.148 141.52C157.13 142.384 155.112 143.249 153.142 144.162C152.997 144.21 152.901 144.259 152.805 144.403C152.709 144.547 152.709 144.691 152.709 144.883C152.757 148.775 151.796 153.004 151.364 156.944C151.171 158.866 150.931 160.837 150.739 162.759C150.691 163.191 150.547 167.18 150.258 167.276C146.126 168.621 139.831 170.015 126.905 171.312C109.366 173.09 95.2864 166.17 91.1539 163.864V163.624C109.798 170.735 129.692 162.759 129.692 162.759C112.057 162.47 96.776 155.166 90.8655 151.995V151.899C97.5929 154.398 110.279 153.244 110.279 153.244C110.279 153.244 94.1331 149.208 90.5772 140.318L90.4811 135.032L81.1109 148.968L73.9511 143.73L78.0836 151.322C78.0836 151.322 70.3471 166.795 61.8419 162.422C53.3366 158.098 53.0002 119.896 53.0002 119.896C53.0002 119.896 48.8196 119.031 46.369 115.235C43.9183 111.439 44.3027 107.066 44.9274 105.528C45.2637 104.711 45.6962 103.51 46.0326 102.597C46.369 101.732 47.1378 101.059 48.0988 100.915C51.1742 100.531 57.8535 100.146 60.4964 103.654C64.0042 108.315 61.4574 109.853 61.4574 109.853L69.0978 131.236C69.0978 131.236 72.7978 116.724 80.4862 107.883C83.1291 111.102 86.1084 114.034 89.3279 116.724C99.7553 125.374 112.345 131.332 125.271 135.513C130.893 137.339 136.612 138.829 142.378 139.934C143.675 140.126 152.181 141.423 156.553 141.712Z" fill="#031563"/>
<path d="M124.79 110.526C122.196 111.391 105.425 112.207 101.389 112.64C82.5042 114.85 51.9428 97.0709 51.9428 97.0709C51.9428 97.0709 46.0804 98.3683 44.9271 97.5034C43.7739 96.6384 42.3323 95.4852 41.7557 94.3319C40.5544 92.0254 41.131 89.815 40.4583 88.6617C40.1219 88.0851 39.9297 87.4124 39.9297 86.6916V86.3552C39.9297 84.9617 40.6985 83.6643 41.9479 82.9435L41.8998 82.6071C41.8037 81.6941 42.4284 80.8772 43.2934 80.637C44.2064 80.3967 45.5999 80.1564 47.57 80.0123C51.9428 79.724 55.1143 82.2708 57.7572 85.3942C60.352 88.5176 67.3677 91.0644 67.3677 91.0644L104.608 97.0229L120.61 95.341L124.79 110.526Z" fill="#031563"/>
<path d="M142.954 86.8838C125.223 91.4007 114.171 94.2358 114.171 94.2358L120.802 114.61C120.802 114.61 148.48 112.928 153.718 108.411" fill="#031563"/>
<path d="M134.978 92.3137C114.556 96.0138 103.984 96.6865 98.6983 94.8605C93.4125 93.0826 96.1996 95.6293 99.4671 96.6384C102.783 97.6956 118.208 98.7528 134.978 92.3137Z" fill="url(#paint4_linear_416_806)"/>
<path d="M147.711 111.679C122.291 116.052 99.7547 114.274 91.1533 111.871C91.1533 111.871 104.944 116.244 123.541 116.58C142.137 116.917 147.711 111.679 147.711 111.679Z" fill="url(#paint5_linear_416_806)"/>
<path d="M48.0024 117.878C56.5077 119.704 59.0064 115.427 59.3908 114.706C59.3908 114.706 58.3817 120.328 51.27 121.77C44.1102 123.212 48.0024 117.878 48.0024 117.878Z" fill="url(#paint6_linear_416_806)"/>
<path d="M53.5762 10C68.5685 19.2741 73.8063 34.4587 73.8063 34.4587C73.8063 34.4587 77.3141 15.7182 53.5762 10Z" fill="#1A5AA8"/>
<path d="M17.5371 63.0498C23.3995 73.5733 35.3165 76.1201 35.3165 76.1201C35.3165 76.1201 21.141 78.9552 17.5371 63.0498Z" fill="#1A5AA8"/>
<path d="M151.1 35.1577C153.515 32.7427 154.913 29.6922 155.168 26.6416C152.053 26.8958 149.003 28.2304 146.588 30.6455C144.173 33.0605 142.838 36.111 142.584 39.2251C145.571 38.9709 148.685 37.5728 151.1 35.1577Z" fill="white"/>
<path d="M160.252 44.3095C163.048 41.5131 166.607 39.9243 170.103 39.6701C169.912 36.3653 168.577 33.1241 166.099 30.582C163.557 28.0399 160.315 26.7052 157.011 26.5781C156.756 30.0736 155.231 33.6325 152.371 36.4289C149.575 39.2252 146.016 40.8141 142.521 41.0683C142.711 44.373 144.046 47.6143 146.524 50.1564C149.067 52.6985 152.308 54.0331 155.612 54.1602C155.93 50.6648 157.456 47.1058 160.252 44.3095Z" fill="white"/>
<path d="M161.587 45.6441C164.002 43.2291 167.053 41.8309 170.103 41.5767C169.849 44.6908 168.514 47.7413 166.099 50.1564C163.684 52.5714 160.634 53.906 157.52 54.1602C157.774 51.1097 159.172 48.0591 161.587 45.6441Z" fill="white"/>
<defs>
<linearGradient id="paint0_linear_416_806" x1="103.448" y1="184.848" x2="103.448" y2="14.2444" gradientUnits="userSpaceOnUse">
<stop stop-color="#752AA3"/>
<stop offset="0.57999" stop-color="#4F71F8"/>
</linearGradient>
<linearGradient id="paint1_linear_416_806" x1="17.7582" y1="120.458" x2="99.9039" y2="120.458" gradientUnits="userSpaceOnUse">
<stop stop-color="#1134B7"/>
<stop offset="1" stop-color="#02125B"/>
</linearGradient>
<linearGradient id="paint2_linear_416_806" x1="27.316" y1="42.4882" x2="81.6971" y2="42.4882" gradientUnits="userSpaceOnUse">
<stop stop-color="#1134B7"/>
<stop offset="1" stop-color="#02125B"/>
</linearGradient>
<linearGradient id="paint3_linear_416_806" x1="103.277" y1="41.0321" x2="108.251" y2="41.0321" gradientUnits="userSpaceOnUse">
<stop stop-color="#1134B7"/>
<stop offset="1" stop-color="#02125B"/>
</linearGradient>
<linearGradient id="paint4_linear_416_806" x1="95.7508" y1="94.8757" x2="134.968" y2="94.8757" gradientUnits="userSpaceOnUse">
<stop stop-color="#1134B7"/>
<stop offset="1" stop-color="#02125B"/>
</linearGradient>
<linearGradient id="paint5_linear_416_806" x1="91.182" y1="114.109" x2="147.717" y2="114.109" gradientUnits="userSpaceOnUse">
<stop stop-color="#1134B7"/>
<stop offset="1" stop-color="#02125B"/>
</linearGradient>
<linearGradient id="paint6_linear_416_806" x1="46.9362" y1="118.35" x2="59.3829" y2="118.35" gradientUnits="userSpaceOnUse">
<stop stop-color="#1134B7"/>
<stop offset="1" stop-color="#02125B"/>
</linearGradient>
</defs>
</svg>
