<svg width="16" height="16" viewBox="0 0 16 16" fill="none" xmlns="http://www.w3.org/2000/svg">
<path d="M6.51123 9.20069C7.01901 9.70847 8.04467 10.6728 8.7444 10.8445C9.44414 11.0159 9.96165 10.6252 10.5087 10.1564C10.7961 9.91016 10.9244 9.62539 11.6212 9.49967C12.343 9.36907 14.3782 10.7218 14.8666 11.3003C16.3506 13.0601 15.0196 15.0302 13.0147 15.1986C10.5342 15.4063 7.2278 13.1484 4.89547 10.8164C2.5635 8.48411 0.305627 5.17775 0.513304 2.69723C0.68169 0.69231 2.65181 -0.638691 4.41164 0.845354C4.99014 1.3333 6.34284 3.36891 6.21225 4.09072C6.08652 4.78747 5.80176 4.91582 5.55554 5.20319C5.08668 5.75026 4.69602 6.26777 4.8674 6.96751C5.03916 7.66725 6.00345 8.69291 6.51123 9.20069Z" fill="black"/>
</svg>
