<svg width="200" height="200" viewBox="0 0 200 200" fill="none" xmlns="http://www.w3.org/2000/svg">
<path d="M156.113 16.1561C171.555 26.9508 183.837 42.6436 183.525 61.4749C183.392 68.608 179.298 74.79 179.609 81.8756C180.099 93.5263 191.802 101.278 196.564 110.979C199.011 115.972 200.48 121.678 199.857 127.29C198.21 142.317 182.902 150.02 169.997 148.594C161.319 147.643 152.864 143.458 144.009 144.98C138.891 145.883 133.818 149.117 131.86 154.253C128.968 162.004 133.996 171.895 129.19 179.028C124.607 185.781 113.125 185.733 106.183 185.353C92.5218 184.592 79.1716 180.027 66.934 173.464C53.2723 166.141 39.6107 157.962 28.6636 146.406C28.2631 145.978 27.8181 145.503 27.4176 145.075C15.6694 132.14 8.10435 115.306 6.99184 97.1404C6.23533 84.6812 8.19335 71.7941 13.8449 60.8092C20.431 47.9221 30.6661 42.2156 42.2807 35.5105C48.6888 31.8013 54.6073 27.3312 59.8584 21.9101C63.7299 17.9631 67.735 12.2566 72.808 10.0692C77.5251 8.07189 82.0641 5.50398 86.8702 3.79204C98.0843 -0.250041 110.277 -1.0109 121.892 1.27168C132.661 3.3165 145.166 8.49988 156.113 16.1561Z" fill="url(#paint0_linear_245_1531)"/>
<path d="M67.3792 200C79.299 200 88.962 198.574 88.962 196.814C88.962 195.054 79.299 193.628 67.3792 193.628C55.4594 193.628 45.7965 195.054 45.7965 196.814C45.7965 198.574 55.4594 200 67.3792 200Z" fill="url(#paint1_linear_245_1531)"/>
<path d="M162.165 194.531C162.165 195.577 169.775 196.481 179.164 196.481C188.554 196.481 196.163 195.625 196.163 194.531C196.163 193.485 188.554 192.582 179.164 192.582C169.775 192.582 162.165 193.437 162.165 194.531Z" fill="url(#paint2_linear_245_1531)"/>
<path d="M61.4605 17.202C62.7955 17.4873 64.798 17.8678 67.023 17.9629C67.112 20.3406 67.4235 22.4805 67.735 23.9071C67.824 24.4302 68.536 24.4302 68.6696 23.9071C68.9366 22.4805 69.2926 20.3406 69.3816 17.9629C71.6066 17.8678 73.6091 17.5349 74.9441 17.202C75.4336 17.1069 75.4336 16.346 74.9441 16.2034C73.6091 15.918 71.6066 15.5376 69.3816 15.4425C69.2926 13.0648 68.9811 10.9249 68.6696 9.49828C68.5805 8.97518 67.8685 8.97518 67.735 9.49828C67.468 10.9249 67.112 13.0648 67.023 15.4425C64.798 15.5376 62.7955 15.8705 61.4605 16.2034C60.9265 16.2985 60.9265 17.0593 61.4605 17.202Z" fill="#B519F9"/>
<path d="M166.393 32.1337C167.728 32.419 169.73 32.7995 171.956 32.8946C172.045 35.2723 172.356 37.4122 172.668 38.8388C172.757 39.3619 173.469 39.3619 173.602 38.8388C173.869 37.4122 174.225 35.2723 174.314 32.8946C176.539 32.7995 178.542 32.4666 179.877 32.1337C180.366 32.0386 180.366 31.2777 179.877 31.1351C178.542 30.8497 176.539 30.4693 174.314 30.3742C174.225 27.9965 173.914 25.8565 173.602 24.4299C173.513 23.9068 172.801 23.9068 172.668 24.4299C172.401 25.8565 172.045 27.9965 171.956 30.3742C169.73 30.4693 167.728 30.8022 166.393 31.1351C165.859 31.2777 165.859 32.0386 166.393 32.1337Z" fill="#190075"/>
<path d="M36.7628 139.701C38.0978 139.986 40.1003 140.367 42.3254 140.462C42.4144 142.84 42.7259 144.98 43.0374 146.406C43.1264 146.929 43.8384 146.929 43.9719 146.406C44.2389 144.98 44.5949 142.84 44.6839 140.462C46.9089 140.367 48.9114 140.034 50.2464 139.701C50.7359 139.606 50.7359 138.845 50.2464 138.702C48.9114 138.417 46.9089 138.037 44.6839 137.942C44.5949 135.564 44.2834 133.424 43.9719 131.997C43.8829 131.474 43.1709 131.474 43.0374 131.997C42.7704 133.424 42.4144 135.564 42.3254 137.942C40.1003 138.037 38.0978 138.37 36.7628 138.702C36.2288 138.798 36.2288 139.558 36.7628 139.701Z" fill="#190075"/>
<path d="M167.194 122.534C168.529 122.819 170.531 123.2 172.756 123.295C172.845 125.673 173.157 127.813 173.468 129.239C173.557 129.762 174.269 129.762 174.403 129.239C174.67 127.813 175.026 125.673 175.115 123.295C177.34 123.2 179.342 122.867 180.677 122.534C181.167 122.439 181.167 121.678 180.677 121.535C179.342 121.25 177.34 120.87 175.115 120.775C175.026 118.397 174.714 116.257 174.403 114.83C174.314 114.307 173.602 114.307 173.468 114.83C173.201 116.257 172.845 118.397 172.756 120.775C170.531 120.87 168.529 121.203 167.194 121.535C166.66 121.678 166.66 122.439 167.194 122.534Z" fill="#190075"/>
<path d="M63.2407 48.3023C65.0348 48.3023 66.4892 46.7481 66.4892 44.8308C66.4892 42.9136 65.0348 41.3594 63.2407 41.3594C61.4466 41.3594 59.9922 42.9136 59.9922 44.8308C59.9922 46.7481 61.4466 48.3023 63.2407 48.3023Z" fill="#B519F9"/>
<path d="M67.2012 36.6511C67.2012 37.84 68.0912 38.791 69.2037 38.791C70.3162 38.791 71.2062 37.84 71.2062 36.6511C71.2062 35.4623 70.3162 34.5112 69.2037 34.5112C68.0912 34.5112 67.2012 35.4623 67.2012 36.6511Z" fill="#B519F9"/>
<path d="M64.9766 137.499C66.2452 136.143 66.2452 133.945 64.9766 132.589C63.708 131.234 61.6511 131.234 60.3825 132.589C59.1139 133.945 59.1139 136.143 60.3825 137.499C61.6511 138.854 63.708 138.854 64.9766 137.499Z" fill="#190075"/>
<path d="M58.746 126.862C58.746 128.05 57.856 129.001 56.7435 129.001C55.631 129.001 54.741 128.05 54.741 126.862C54.741 125.673 55.631 124.722 56.7435 124.722C57.8115 124.722 58.746 125.673 58.746 126.862Z" fill="#190075"/>
<path d="M138.669 17.297C136.889 17.2495 135.376 18.7236 135.287 20.6733C135.242 22.5754 136.622 24.1923 138.446 24.2874C140.227 24.3349 141.74 22.8608 141.829 20.9111C141.873 18.9614 140.449 17.3446 138.669 17.297Z" fill="#B519F9"/>
<path d="M146.012 25.2864C144.899 25.2388 143.965 26.1899 143.92 27.3787C143.876 28.5675 144.766 29.5662 145.878 29.6137C146.991 29.6613 147.925 28.7102 147.97 27.5214C148.014 26.3325 147.124 25.3339 146.012 25.2864Z" fill="#B519F9"/>
<path d="M45.1293 82.3037C45.2628 83.0646 47.1763 95.1432 49.4458 99.0426L47.3543 101.468C45.4853 98.472 44.2392 94.1446 43.4382 90.5305C44.5507 88.0102 45.1293 85.2045 45.1293 82.3037Z" fill="#7F2CA2"/>
<path d="M44.8616 104.417C40.9901 102.324 29.598 101.278 28.886 101.231C31.556 100.993 34.137 100.184 36.4066 98.7578C39.8776 99.2809 44.0161 100.28 46.9532 101.991L44.8616 104.417Z" fill="#7F2CA2"/>
<path d="M44.8621 104.416L49.4456 99.0425C49.4901 99.1376 49.5346 99.1851 49.5791 99.2802C51.4926 102.324 57.5447 108.411 59.9032 110.693C60.4372 111.216 60.4372 112.072 59.9922 112.643L58.4347 114.45C57.9452 115.021 57.1442 115.068 56.6102 114.545C54.2516 112.262 48.0661 106.318 45.0846 104.511C44.9956 104.511 44.9066 104.464 44.8621 104.416Z" fill="#214C6B"/>
<path d="M11.2202 94.4302C16.3823 99.4709 22.8794 101.754 28.8424 101.23C28.8424 101.23 28.8424 101.23 28.8869 101.23C33.337 100.802 37.4755 98.8527 40.5906 95.2862C43.6611 91.7197 45.1741 87.1069 45.1741 82.3515C45.1741 82.3515 45.1741 82.3515 45.1741 82.304C45.1741 75.8842 42.5041 69.1791 37.342 64.1383C28.2639 55.2933 15.1363 54.9129 7.9717 63.2824C0.762616 71.6519 2.23113 85.5852 11.2202 94.4302Z" fill="#7F2CA2"/>
<path d="M37.7161 92.48C43.6692 85.5562 42.4651 74.0227 35.0266 66.7193C27.5881 59.4159 16.7321 59.1083 10.779 66.0321C4.82594 72.956 6.03006 84.4894 13.4685 91.7928C20.907 99.0962 31.763 99.4039 37.7161 92.48Z" fill="#D6BEE5"/>
<path d="M24.7476 70.7008C25.4596 71.4141 26.5721 71.3665 27.2396 70.6057C27.9071 69.8448 27.8626 68.6559 27.1506 67.9426C26.4386 67.2293 25.3261 67.2768 24.6586 68.0377C23.9911 68.7986 24.0356 69.9875 24.7476 70.7008Z" fill="url(#paint3_linear_245_1531)"/>
<path d="M21.1438 74.8853C21.8558 75.5987 22.9684 75.5511 23.6359 74.7902C24.3034 74.0294 24.2589 72.8405 23.5469 72.1272C22.8349 71.4138 21.7223 71.4614 21.0548 72.2223C20.3873 73.0307 20.4318 74.172 21.1438 74.8853Z" fill="url(#paint4_linear_245_1531)"/>
<path d="M17.5386 79.1177C18.2506 79.831 19.3631 79.7834 20.0306 79.0226C20.6981 78.2617 20.6536 77.0729 19.9416 76.3596C19.2296 75.6463 18.1171 75.6938 17.4496 76.4547C16.7821 77.2155 16.8266 78.4044 17.5386 79.1177Z" fill="url(#paint5_linear_245_1531)"/>
<path d="M13.8899 83.3023C14.6019 84.0157 15.7144 83.9681 16.3819 83.2072C17.0495 82.4464 17.005 81.2575 16.2929 80.5442C15.5809 79.8308 14.4684 79.8784 13.8009 80.6393C13.1334 81.4477 13.1779 82.6366 13.8899 83.3023Z" fill="url(#paint6_linear_245_1531)"/>
<path d="M31.5119 72.6979C32.4704 72.6979 33.2474 71.8676 33.2474 70.8434C33.2474 69.8191 32.4704 68.9888 31.5119 68.9888C30.5534 68.9888 29.7764 69.8191 29.7764 70.8434C29.7764 71.8676 30.5534 72.6979 31.5119 72.6979Z" fill="url(#paint7_linear_245_1531)"/>
<path d="M26.6614 76.4545C27.3734 77.1678 28.4859 77.1202 29.1534 76.3594C29.8209 75.5986 29.7764 74.4098 29.0644 73.6965C28.3524 72.9832 27.2399 73.0307 26.5724 73.7916C25.9049 74.5524 25.9494 75.7412 26.6614 76.4545Z" fill="url(#paint8_linear_245_1531)"/>
<path d="M23.0564 80.6393C23.7684 81.3526 24.8809 81.305 25.5485 80.5441C26.216 79.7833 26.1715 78.5944 25.4595 77.8811C24.7474 77.1678 23.6349 77.2153 22.9674 77.9762C22.2999 78.7371 22.3444 79.9259 23.0564 80.6393Z" fill="url(#paint9_linear_245_1531)"/>
<path d="M19.4524 84.8713C20.1644 85.5846 21.277 85.5371 21.9445 84.7762C22.612 84.0153 22.5675 82.8264 21.8555 82.113C21.1435 81.3997 20.0309 81.4472 19.3634 82.2081C18.6959 82.969 18.7404 84.1579 19.4524 84.8713Z" fill="url(#paint10_linear_245_1531)"/>
<path d="M19.2747 69.1783C19.9867 69.8916 21.0992 69.8441 21.7667 69.0832C22.4342 68.3223 22.3897 67.1335 21.6777 66.4201C20.9657 65.7068 19.8532 65.7544 19.1857 66.5153C18.5182 67.2761 18.5627 68.465 19.2747 69.1783Z" fill="url(#paint11_linear_245_1531)"/>
<path d="M15.6697 73.4107C16.3817 74.1241 17.4942 74.0765 18.1617 73.3156C18.8292 72.5548 18.7847 71.3659 18.0727 70.6526C17.3607 69.9392 16.2482 69.9868 15.5807 70.7477C14.9132 71.5085 14.9577 72.6974 15.6697 73.4107Z" fill="url(#paint12_linear_245_1531)"/>
<path d="M12.065 77.5958C12.777 78.3091 13.8895 78.2616 14.557 77.5007C15.2245 76.7398 15.18 75.5509 14.468 74.8376C13.756 74.1243 12.6435 74.1718 11.976 74.9327C11.3085 75.6936 11.353 76.8825 12.065 77.5958Z" fill="url(#paint13_linear_245_1531)"/>
<path d="M32.2239 77.9763C31.5119 77.2629 31.4674 76.074 32.1349 75.3131C32.8024 74.5522 33.9149 74.5047 34.627 75.218C35.339 75.9313 35.3835 77.1203 34.716 77.8812C34.0484 78.6421 32.9359 78.6896 32.2239 77.9763Z" fill="url(#paint14_linear_245_1531)"/>
<path d="M28.5747 82.2086C27.8627 81.4953 27.8182 80.3064 28.4857 79.5455C29.1533 78.7846 30.2658 78.7371 30.9778 79.4504C31.6898 80.1637 31.7343 81.3526 31.0668 82.1135C30.3993 82.8744 29.2868 82.9219 28.5747 82.2086Z" fill="url(#paint15_linear_245_1531)"/>
<path d="M24.9703 86.3936C24.2582 85.6803 24.2137 84.4914 24.8813 83.7306C25.5488 82.9697 26.6613 82.9222 27.3733 83.6355C28.0853 84.3488 28.1298 85.5376 27.4623 86.2985C26.7948 87.0593 25.6823 87.1069 24.9703 86.3936Z" fill="url(#paint16_linear_245_1531)"/>
<path d="M21.3658 90.6259C20.6538 89.9126 20.6093 88.7238 21.2768 87.963C21.9443 87.2021 23.0568 87.1546 23.7688 87.8679C24.4808 88.5811 24.5253 89.77 23.8578 90.5308C23.1903 91.2916 22.0778 91.3392 21.3658 90.6259Z" fill="url(#paint17_linear_245_1531)"/>
<path d="M34.0484 83.6826C33.3364 82.9693 33.2919 81.7805 33.9594 81.0196C34.6269 80.2588 35.7394 80.2112 36.4514 80.9245C37.1634 81.6378 37.2079 82.8267 36.5404 83.5875C35.8729 84.3484 34.7604 84.3959 34.0484 83.6826Z" fill="url(#paint18_linear_245_1531)"/>
<path d="M30.4439 87.9152C29.7319 87.2019 29.6874 86.013 30.3549 85.2521C31.0224 84.4912 32.1349 84.4436 32.8469 85.157C33.5589 85.8703 33.6034 87.0592 32.9359 87.8201C32.2684 88.5334 31.1559 88.581 30.4439 87.9152Z" fill="url(#paint19_linear_245_1531)"/>
<path d="M26.8394 92.0997C26.1274 91.3864 26.0829 90.1975 26.7504 89.4366C27.4179 88.6758 28.5304 88.6282 29.2424 89.3415C29.9544 90.0548 29.9989 91.2437 29.3314 92.0046C28.6639 92.7655 27.5514 92.813 26.8394 92.0997Z" fill="url(#paint20_linear_245_1531)"/>
<path d="M15.8033 89.1036C16.5153 89.8169 17.6278 89.7694 18.2953 89.0085C18.9628 88.2476 18.9183 87.0588 18.2063 86.3454C17.4943 85.6321 16.3818 85.6797 15.7143 86.4405C15.0468 87.2014 15.0913 88.3903 15.8033 89.1036Z" fill="url(#paint21_linear_245_1531)"/>
<path d="M25.9497 49.2061C26.2167 49.3963 26.4837 49.5865 26.7952 49.7292C27.0177 49.8718 27.2402 49.9669 27.5072 50.0145C29.9102 50.918 32.5803 50.2047 34.3158 48.3025C34.7608 47.827 35.1613 47.2563 35.4728 46.6381C35.5173 46.5905 35.5618 46.4954 35.5618 46.4003C35.9178 45.5919 36.1403 44.7835 36.1848 43.9275C36.3628 41.2644 35.1168 38.6489 32.8473 37.2698C32.7138 37.1747 32.5803 37.1272 32.4468 37.0796C32.0463 36.8894 31.6457 36.6992 31.2007 36.6041C28.3527 35.8432 25.3267 37.2223 23.9027 40.028C23.8582 40.0756 23.8582 40.1231 23.8137 40.2182C23.7692 40.2658 23.7692 40.3609 23.7247 40.4084C23.4577 40.9791 23.3242 41.5498 23.1907 42.1204C22.7012 44.831 23.7692 47.6367 25.9497 49.2061Z" fill="#0A1447"/>
<path d="M26.7508 46.4C27.0178 46.5902 27.2848 46.7804 27.5963 46.9231C27.8188 47.0658 28.0413 47.1609 28.3083 47.2084C30.7114 48.112 33.3814 47.3986 35.1169 45.4965C35.5174 45.0685 35.9179 44.5454 36.1849 43.9748C36.3629 41.3117 35.1169 38.6963 32.8474 37.3172C32.7139 37.2221 32.5804 37.1745 32.4469 37.127C32.0464 36.9368 31.6459 36.7465 31.2009 36.6514C28.3528 35.8906 25.3268 37.2696 23.9028 40.0753C23.6803 42.5006 24.7483 44.9734 26.7508 46.4Z" fill="#7F2CA2"/>
<path d="M33.9156 32.3244C35.7846 32.5146 37.5646 33.4657 38.8106 34.9875C40.2346 36.6994 40.9021 38.982 40.9466 41.2171C40.9466 41.5975 40.5461 41.8829 40.2346 41.8353C39.8341 41.7878 39.6561 41.4549 39.6561 41.0744C39.5671 37.5078 37.2976 34.0839 33.8266 33.751C32.892 33.7035 33.0255 32.2769 33.9156 32.3244Z" fill="#B519F9"/>
<path d="M38.4546 29.4235C40.3237 29.5662 42.1037 30.5173 43.3942 31.9914C44.8627 33.6558 45.5747 35.9384 45.6192 38.1735C45.6192 38.5539 45.2187 38.8392 44.9072 38.8392C44.5067 38.7917 44.3287 38.4588 44.2842 38.0784C44.1507 34.5118 41.7922 31.1355 38.3211 30.8501C37.5201 30.8026 37.6091 29.376 38.4546 29.4235Z" fill="#B519F9"/>
<path d="M18.2958 40.0286C17.4058 41.7881 17.2278 43.928 17.7173 45.8777C18.2513 48.1128 19.6753 49.9198 21.4553 51.2037C21.7668 51.4415 22.2118 51.2038 22.3453 50.9184C22.5233 50.538 22.3453 50.1576 22.0783 49.9674C19.3193 47.9701 17.8508 44.0232 19.5418 40.7419C19.8978 39.8384 18.6963 39.2202 18.2958 40.0286Z" fill="#B519F9"/>
<path d="M12.3773 42.2633C11.5763 44.0704 11.4873 46.2103 12.0658 48.1124C12.7334 50.2999 14.2019 52.0594 16.0264 53.2482C16.3379 53.4384 16.7829 53.2006 16.9164 52.9153C17.0944 52.5349 16.8719 52.1545 16.6049 51.9643C13.7569 50.1097 12.1548 46.2578 13.6234 42.8815C13.9794 42.0256 12.7334 41.4549 12.3773 42.2633Z" fill="#B519F9"/>
<path d="M82.6879 188.966C82.6879 188.966 86.1589 191.106 85.2244 194.007C84.2899 196.908 79.5729 197.716 76.6358 197.716C72.9868 197.716 70.8953 195.291 68.6703 195.719C66.4452 196.194 65.0657 197.716 60.5712 198.192C55.9876 198.667 49.09 198.192 46.6425 195.624C44.195 193.056 47.7105 191.82 47.7105 191.82L82.6879 188.966Z" fill="#B28159"/>
<path d="M78.8159 137.181C79.7949 131.331 80.9519 126.338 83.711 124.674C85.5355 123.533 91.4095 119.3 95.0586 116.637C96.8386 115.353 98.0401 114.45 98.0401 114.45C98.0401 114.45 116.063 133.424 114.728 133.709C114.372 133.804 112.725 134.375 110.456 135.136C104.092 137.323 92.967 141.318 92.967 141.318C98.3516 146.929 94.1241 155.917 90.119 162.384C89.941 162.717 89.7185 163.002 89.5405 163.335C84.3785 163.002 79.3499 161.148 74.7664 158.485C76.5909 149.307 78.3709 139.939 78.8159 137.181Z" fill="#AD7B5A"/>
<path d="M70.8503 178.885C70.8503 178.885 78.4599 182.975 80.1064 181.596C81.13 180.74 83.266 175.985 85.669 170.944C86.114 169.993 86.6035 168.994 87.093 168.043C87.894 166.379 88.7395 164.809 89.585 163.383C84.423 163.05 79.3944 161.195 74.8109 158.532C74.4549 160.482 74.0544 162.432 73.6984 164.286C73.4759 165.428 73.2534 166.569 73.0309 167.663C71.7849 174.035 70.8503 178.885 70.8503 178.885Z" fill="#D6BEE5"/>
<path d="M73.0303 167.615C76.9463 169.517 81.3519 170.706 85.6684 170.896C86.1134 169.945 86.6029 168.946 87.0924 167.995C85.6684 167.995 84.2444 167.853 82.8204 167.567C79.5718 166.949 76.5903 165.713 73.6978 164.191C73.4753 165.427 73.2528 166.569 73.0303 167.615Z" fill="#540891"/>
<path d="M95.0581 116.637C95.1916 116.732 95.3696 116.827 95.5031 116.923C99.1966 119.633 102.223 123.2 105.115 126.814C107.162 129.382 109.12 132.092 110.455 135.136C112.725 134.375 114.371 133.804 114.727 133.709C116.107 133.376 98.0396 114.45 98.0396 114.45C98.0396 114.45 96.7936 115.353 95.0581 116.637Z" fill="#8E6B58"/>
<path d="M153.621 167.663C155.223 168.091 156.914 168.566 158.561 169.042C159.584 169.327 160.608 169.612 161.631 169.898C167.906 171.61 173.202 173.131 173.202 173.131L177.919 164.619C174.982 163.335 171.199 161.005 166.704 158.39C165.903 157.914 165.102 157.438 164.257 156.963C162.744 156.107 161.142 155.251 159.495 154.395C159.362 159.436 157.003 164.144 153.621 167.663Z" fill="#D6BEE5"/>
<path d="M158.561 168.994C159.584 169.279 160.608 169.564 161.631 169.85C164.034 166.378 165.814 162.431 166.704 158.342C165.903 157.866 165.102 157.391 164.257 156.915C163.589 160.387 162.21 163.668 160.252 166.759C159.673 167.567 159.139 168.281 158.561 168.994Z" fill="#540891"/>
<path d="M141.072 142.792C141.072 142.792 141.206 143.981 141.428 145.503C141.74 147.5 142.14 150.02 142.452 150.734C142.452 150.734 144.276 147.31 154.378 151.875C156.158 152.683 157.849 153.492 159.451 154.348C159.317 159.388 157.003 164.144 153.577 167.663C149.705 166.617 146.145 165.666 143.742 165.047C135.732 163.003 131.015 163.811 128.746 161.576C127.5 160.34 125.23 153.444 123.45 147.405C121.981 142.459 120.824 138.132 120.824 138.132L141.072 142.792Z" fill="#AD7B5A"/>
<path d="M120.824 138.132C120.824 138.132 121.981 142.459 123.45 147.405C129.235 145.455 135.421 144.789 141.428 145.503C141.206 144.029 141.072 142.792 141.072 142.792L120.824 138.132Z" fill="#8E6B58"/>
<path d="M95.5476 114.925C98.0396 116.875 107.83 122.629 114.861 137.513C114.861 137.513 115.84 138.227 117.709 139.178C121.714 141.223 129.946 144.361 141.739 143.695C141.739 143.695 141.161 131.046 141.739 128.383C142.318 125.72 151.752 115.115 148.948 103.94C146.145 92.765 113.303 98.1386 113.303 98.1386C113.303 98.1386 96.1261 113.927 95.5476 114.925Z" fill="#401253"/>
<path d="M124.339 130.285C125.407 129.999 126.52 129.952 127.588 129.809C128.656 129.666 129.679 129.476 130.703 129.238C132.795 128.763 134.842 128.145 136.844 127.336C137.156 127.194 137.378 127.764 137.067 127.907C135.109 128.905 133.017 129.571 130.881 130.047C129.813 130.285 128.745 130.475 127.677 130.665C126.609 130.855 125.496 131.045 124.428 131.045C124.072 130.998 123.983 130.38 124.339 130.285Z" fill="#361145"/>
<path d="M121.269 133.424C122.337 133.281 123.45 133.424 124.518 133.424C125.586 133.424 126.654 133.376 127.677 133.329C129.813 133.186 131.949 132.853 134.041 132.33C134.352 132.235 134.486 132.805 134.174 132.948C132.083 133.614 129.947 133.994 127.766 134.137C126.698 134.232 125.586 134.28 124.473 134.28C123.405 134.28 122.248 134.375 121.18 134.137C120.913 134.042 120.869 133.471 121.269 133.424Z" fill="#361145"/>
<path d="M137.156 43.737L141.205 57.5277L145.433 57.1948L151.173 56.7193C153.799 60.6662 171.421 73.2205 171.421 73.2205C171.421 73.2205 168.529 76.6444 168.128 80.4487C168.084 80.9242 168.173 81.4473 168.351 81.9229C169.374 84.5383 168.885 86.0601 169.241 86.9636C170.798 87.9147 171.866 83.7299 171.866 83.7299C171.955 84.253 172.356 85.3943 172.801 86.3454C173.068 86.916 173.379 87.4391 173.646 87.7244C175.248 89.5315 177.607 90.9581 180.143 91.3386C180.766 91.4337 181.434 91.1483 181.879 90.6728C181.923 90.6252 181.968 90.5777 182.012 90.5301C182.19 90.3399 182.368 90.1497 182.591 90.1021C182.769 90.007 182.947 90.007 183.169 89.9595C183.748 89.9119 184.326 90.1021 184.593 89.4364C184.638 89.2462 184.727 89.1035 184.771 88.9609C184.905 88.7231 185.038 88.5329 185.35 88.4853C185.439 88.4853 185.528 88.4378 185.572 88.4378C186.106 88.3902 186.774 88.5329 187.085 88.0573C187.263 87.772 187.263 87.4391 187.397 87.1538C187.441 87.0111 187.53 86.916 187.619 86.8209C187.708 86.7258 187.797 86.6307 187.886 86.5356C188.064 86.4405 188.198 86.3454 188.376 86.2503C188.687 86.1076 189.043 86.0125 189.31 85.7272C189.622 85.3943 189.533 84.8712 189.221 84.5859C187.174 82.8739 181.256 80.6865 181.256 80.6865C181.256 80.6865 181.656 78.8794 181.478 75.2653C181.345 71.6512 177.251 71.1281 177.251 71.1281C173.78 64.4706 159.54 47.0658 156.825 45.1636C154.911 43.8321 146.545 43.2139 141.873 42.9762C139.959 42.8811 138.669 42.8335 138.669 42.8335L137.156 43.737Z" fill="#AD7B5A"/>
<path d="M137.156 43.7367L141.205 57.5273L145.433 57.1945C144.587 55.4825 143.831 53.723 143.252 51.8684C142.318 49.0152 141.828 45.9718 141.873 42.9283C139.959 42.8332 138.669 42.7856 138.669 42.7856L137.156 43.7367Z" fill="#8E6B58"/>
<path d="M109.699 45.2114C109.699 45.2114 129.413 68.7032 132.083 65.7549C132.306 65.4695 132.617 65.2318 132.929 65.0415C133.196 64.8513 133.507 64.6611 133.819 64.5185C133.997 64.4233 134.175 64.3282 134.397 64.2331C134.709 64.0905 135.02 63.9478 135.376 63.8527C135.599 63.7576 135.821 63.71 136.044 63.6149C136.4 63.4723 136.8 63.3772 137.201 63.282C137.69 63.1394 138.18 63.0443 138.669 62.9016C141.517 62.2834 144.054 62.0456 144.054 62.0456C144.009 55.6258 138.669 42.7862 138.669 42.7862C134.62 42.5009 126.298 42.6911 118.644 43.5946C113.438 44.2604 109.699 45.2114 109.699 45.2114Z" fill="#D6BEE5"/>
<path d="M136.132 63.2345C136.088 63.3771 136.043 63.4722 135.999 63.6149C136.355 63.4722 136.755 63.3771 137.111 63.282C137.957 60.5239 138.758 57.7182 139.336 54.865C139.425 54.437 138.891 54.2943 138.758 54.6748C137.779 57.4804 136.978 60.3812 136.132 63.2345Z" fill="#AA99CD"/>
<path d="M133.819 53.248C133.819 54.9124 134.041 56.5768 134.13 58.2887C134.219 59.9055 134.308 61.5699 134.353 63.1868C134.353 63.5196 134.353 63.9001 134.397 64.233C134.709 64.0903 135.02 63.9476 135.376 63.8525C135.376 63.6148 135.376 63.3294 135.332 63.0917C135.287 61.4273 135.198 59.7153 135.065 58.0509C134.931 56.4341 134.842 54.7697 134.531 53.1529C134.397 52.7249 133.819 52.82 133.819 53.248Z" fill="#AA99CD"/>
<path d="M129.679 53.0104C131.059 56.9098 132.172 60.9519 132.928 65.0415C133.195 64.8513 133.507 64.6611 133.818 64.5184C133.062 60.4763 131.86 56.5294 130.302 52.7251C130.124 52.3446 129.546 52.6299 129.679 53.0104Z" fill="#AA99CD"/>
<path d="M83.2213 34.0834C83.8443 34.0834 84.8679 33.275 85.6689 32.2764C86.2919 31.468 86.7814 30.7547 86.7814 30.7547C86.7814 30.7547 87.2709 32.1813 88.1609 32.3715C89.2289 32.6093 90.5639 28.1867 90.5639 28.1867C90.5639 28.1867 90.8754 30.2316 91.9434 30.3742C93.9014 30.6595 94.2129 28.0916 95.6815 27.4259C97.15 26.7601 97.9955 27.9014 98.9745 29.8511C99.464 30.8498 100.31 32.0862 101.022 33.0372C101.6 33.8457 102.09 34.4639 102.179 34.559C102.179 34.559 103.914 30.8022 105.917 33.703C107.385 35.8429 105.783 37.8877 104.804 38.7437C105.961 40.5508 107.029 42.1201 106.985 41.7396C106.896 40.9788 109.165 35.3674 109.655 29.328C109.744 27.9965 109.521 26.9028 109.121 25.9517C107.652 22.6705 103.781 21.7194 103.781 21.7194C102.223 17.9151 96.883 18.2004 93.1894 18.7711C89.4959 19.3417 87.3599 24.3824 83.5773 28.3294C79.7948 32.2288 81.5303 34.0834 83.2213 34.0834Z" fill="#3C114C"/>
<path d="M101.022 32.9898C101.6 33.7982 102.09 34.4164 102.179 34.5115C102.179 34.5115 103.914 30.7548 105.917 33.6556C107.385 35.7955 105.783 37.8403 104.804 38.6963C105.961 40.5033 107.029 42.0726 106.985 41.6922C106.896 40.9313 109.165 35.32 109.655 29.2806C109.744 27.9491 109.521 26.8554 109.121 25.9043C109.032 25.9994 108.987 26.047 108.854 26.0945C108.409 26.3798 107.875 26.2847 107.341 26.2847C106.851 26.2847 106.228 26.4274 106.05 26.9029C105.961 27.0931 105.961 27.2834 105.961 27.4736C105.961 28.1869 106.05 28.9477 105.605 29.4708C105.16 29.9939 104.359 29.9464 103.647 29.8513C102.98 29.7562 102.134 29.8513 101.823 30.4695C101.467 31.1828 101.912 32.3716 101.244 32.7996C101.2 32.9898 101.111 32.9898 101.022 32.9898Z" fill="#240B30"/>
<path d="M99.1968 46.9706C99.1968 47.3035 99.4193 48.0643 99.7753 48.9679C99.9978 49.5861 100.309 50.2518 100.621 50.9651C101.511 52.9624 102.579 54.9121 103.024 55.1023C103.825 55.4352 109.743 46.4 109.254 45.4964C108.764 44.5929 105.071 37.6976 104.937 37.6025C104.893 37.5549 104.804 37.5549 104.759 37.5074C104.314 37.4123 103.691 37.9829 103.024 38.934C101.244 41.3117 99.2413 46.1622 99.1968 46.9706Z" fill="#AD7B5A"/>
<path d="M99.7756 48.9205C99.9981 49.5386 100.31 50.2044 100.621 50.9177C103.959 47.4938 105.872 42.3105 104.715 37.46C104.27 37.3649 103.647 37.9355 102.98 38.8866C102.935 39.5048 102.846 40.123 102.802 40.7412C102.579 42.4056 102.179 44.07 101.556 45.5917C101.066 46.7805 100.488 47.8743 99.7756 48.9205Z" fill="#8E6B58"/>
<path d="M85.8026 37.3646C86.6036 38.6961 87.5826 41.0738 87.4936 42.5955C87.4046 44.1173 92.2107 52.4392 94.0352 52.9147C95.8597 53.3427 104.226 48.0642 104.226 39.3143C104.226 39.3143 104.493 39.1241 104.804 38.8388C105.739 37.9353 107.385 35.938 105.917 33.7981C103.914 30.8973 102.179 34.6541 102.179 34.6541C102.001 34.4638 99.9093 31.7533 98.9747 29.8987C97.9957 27.949 97.1502 26.8077 95.6817 27.4734C94.2132 28.1392 93.9462 30.7071 91.9437 30.4218C90.9202 30.2791 90.5641 28.2343 90.5641 28.2343C90.5641 28.2343 89.2291 32.6568 88.1611 32.419C87.3156 32.2288 86.7816 30.8022 86.7816 30.8022C86.7816 30.8022 86.2921 31.5631 85.6691 32.3239C85.4021 34.2261 85.3131 36.5087 85.8026 37.3646Z" fill="#AD7B5A"/>
<path d="M91.81 38.0304C92.1215 39.3143 93.4565 40.0752 94.747 39.6947C96.082 39.3143 96.883 37.9828 96.5715 36.7464C96.26 35.4625 94.9695 34.7016 93.6345 35.0821C92.2995 35.4149 91.4985 36.7464 91.81 38.0304Z" fill="#FFFDFD"/>
<path d="M91.81 38.0308C92.1215 39.3148 93.4565 40.0756 94.747 39.6952C94.9695 38.9819 95.014 38.1259 94.7915 37.2224C94.569 36.3189 94.1685 35.5581 93.6345 35.0825C92.2995 35.4154 91.4985 36.7469 91.81 38.0308Z" fill="#442B27"/>
<path d="M85.2678 40.3131C85.5793 41.597 86.9143 42.3579 88.2048 41.9775C89.5398 41.597 90.3408 40.2655 90.0293 39.0291C89.7178 37.7452 88.4273 36.9844 87.0923 37.3648C85.7573 37.6977 84.9563 39.0291 85.2678 40.3131Z" fill="#FFFDFD"/>
<path d="M85.2678 40.3131C85.5793 41.597 86.9143 42.3579 88.2048 41.9774C88.4273 41.2641 88.4718 40.4082 88.2493 39.5046C88.0268 38.6011 87.6263 37.8403 87.0923 37.3647C85.7573 37.6976 84.9563 39.0291 85.2678 40.3131Z" fill="#442B27"/>
<path d="M90.5192 38.5061C90.7862 38.2208 91.2312 38.6012 91.0087 38.9341C90.7862 39.3145 90.5637 39.6474 90.3857 40.0278C90.2522 40.3131 90.1187 40.7411 90.2522 41.074C90.3857 41.4069 90.7862 41.5971 91.0532 41.7398C91.4092 41.93 91.8097 42.0251 92.1657 42.1677C92.5217 42.2628 92.4327 42.8335 92.0767 42.8335C91.5427 42.8811 91.0532 42.7384 90.6082 42.5006C90.1632 42.2629 89.6737 41.93 89.4957 41.4069C89.1397 40.3607 89.8962 39.1718 90.5192 38.5061Z" fill="#8E6B58"/>
<path d="M92.2105 32.6569C92.255 32.5618 92.2995 32.4666 92.3885 32.4191L92.344 32.4666C93.1005 31.3254 95.281 31.5156 96.1711 32.324C96.3936 32.5142 96.4826 32.7995 96.3936 33.0848C96.3046 33.4177 96.0376 33.703 95.6815 33.6555C95.192 33.6079 94.658 33.6555 94.1685 33.6555C94.213 33.6555 94.2575 33.6079 94.3465 33.6079C93.8125 33.7982 91.4985 33.9408 92.2105 32.6569Z" fill="#271816"/>
<path d="M88.0719 33.8934C87.9829 33.8459 87.8939 33.7983 87.8049 33.7507C87.8494 33.7507 87.8494 33.7983 87.8939 33.7983C86.7814 33.085 84.8679 34.2738 84.3784 35.4151C84.2449 35.7004 84.2894 35.9858 84.4674 36.2235C84.6899 36.4613 85.0459 36.604 85.3129 36.4137C85.7579 36.176 86.2029 35.9382 86.6924 35.748C86.6479 35.748 86.6034 35.748 86.5144 35.7955C87.0929 35.6529 89.229 34.7969 88.0719 33.8934Z" fill="#271816"/>
<path d="M97.7729 41.4067C97.7729 41.4067 99.4639 45.6866 96.1264 47.3035C93.8124 48.3973 91.9434 45.5915 91.9434 45.5915C91.9434 45.5915 96.2599 45.1635 97.7729 41.4067Z" fill="#FFFDFD"/>
<path d="M103.157 35.6053C103.157 35.3676 103.157 35.1298 103.202 34.9396C103.291 34.6067 103.469 34.2738 103.647 33.9885C103.691 33.8934 103.78 33.7508 103.869 33.7032C103.958 33.6081 104.092 33.5605 104.181 33.5605C104.626 33.6081 104.403 34.5592 104.314 34.8445C104.27 35.0822 104.181 35.32 104.092 35.5578C104.225 35.6529 104.314 35.7004 104.448 35.7955C104.67 35.9858 105.026 36.2711 105.115 36.6039C105.249 37.0795 104.893 37.4123 104.492 37.2697C104.047 37.127 103.736 36.7466 103.513 36.3662C103.424 36.2235 103.335 36.0809 103.291 35.9382C103.202 35.8431 103.157 35.748 103.157 35.6053Z" fill="#8E6B58"/>
<path d="M97.9513 25.1433C98.3073 24.5727 98.7968 24.0972 99.2863 23.7167C99.7758 23.3363 100.31 23.0035 100.888 22.8608C101.333 22.7657 101.511 23.4314 101.066 23.5741C100.577 23.7167 100.087 24.0496 99.6868 24.3825C99.2418 24.7629 98.8413 25.2384 98.3518 25.6188C98.1293 25.809 97.7733 25.4286 97.9513 25.1433Z" fill="#240B30"/>
<path d="M92.6998 25.1434C93.9458 23.4791 95.4588 21.9574 97.3723 21.1965C97.5503 21.1014 97.7728 21.2916 97.8173 21.4343C97.8618 21.6245 97.7283 21.8147 97.5948 21.9098C95.8593 22.6707 94.5688 24.2875 93.1893 25.619C92.8333 25.9043 92.4328 25.4763 92.6998 25.1434Z" fill="#240B30"/>
<path d="M87.9826 25.9518C88.6501 24.763 89.2731 23.6692 90.2077 22.6706C90.6082 22.2426 91.0532 21.8146 91.5427 21.4817C92.0322 21.1013 92.5217 20.8635 93.1002 20.6257C93.4117 20.4831 93.6342 21.0537 93.3227 21.1964C91.2312 22.195 89.8072 24.335 88.5611 26.2372C88.2941 26.6176 87.7601 26.3323 87.9826 25.9518Z" fill="#240B30"/>
<path d="M43.8384 105.272C44.3279 105.747 44.9509 106.032 45.5739 106.27C46.1969 106.555 46.82 106.888 47.176 107.507C47.443 107.982 47.532 108.553 47.8435 108.981C48.244 109.504 49.0005 109.646 49.5345 109.979C50.113 110.312 50.5135 110.835 51.0475 111.263C51.5815 111.691 52.16 112.214 52.783 112.119C56.3876 111.549 62.5731 107.364 62.5731 107.364C62.5731 107.364 88.9619 96.6167 90.6974 94.6194C91.0534 94.1914 91.4094 93.7159 91.7654 93.1452C93.1449 91.0529 94.3465 88.1996 94.658 86.4877C94.658 86.4877 91.2759 82.7785 87.4934 82.3029C86.9149 82.2554 85.8914 82.5407 84.6009 83.1589C78.1483 86.1073 64.3976 95.8083 61.1936 98.1384C60.7041 98.4713 60.2146 98.7091 59.6361 98.8517C53.0945 100.469 49.3565 100.373 44.5059 102.561C44.1054 102.751 43.6604 102.941 43.4379 103.322C43.0819 103.94 43.3489 104.748 43.8384 105.272Z" fill="#AD7B5A"/>
<path d="M84.5562 83.1593C85.0457 83.4922 85.5352 83.825 85.9802 84.2055C88.6947 86.4405 90.6527 89.6741 91.7207 93.1456C93.1002 91.0532 94.3018 88.2 94.6133 86.4881C94.6133 86.4881 91.2312 82.7789 87.4487 82.3033C86.8702 82.2558 85.8912 82.5886 84.5562 83.1593Z" fill="#8E6B58"/>
<path d="M85.4464 81.1619C85.4909 82.5885 95.8595 90.2447 97.773 90.7678C99.642 91.2433 107.697 80.4961 108.008 80.1157L108.498 81.4948L112.236 91.8615L112.28 92.0042C112.414 92.3371 112.458 92.6699 112.414 93.0028C112.414 93.0979 112.414 93.193 112.369 93.3357C112.058 94.7623 111.479 97.2827 111.346 98.8044C112.503 99.4701 123.45 103.37 132.884 104.654C141.739 105.89 149.794 104.986 150.106 104.511C150.729 103.56 142.496 77.4527 135.242 65.0411C127.989 52.6296 115.529 45.544 108.676 44.5454C104.715 49.2057 85.4019 79.7353 85.4464 81.1619Z" fill="#D3E2F4"/>
<path d="M112.28 91.9093C112.413 92.2422 112.458 92.575 112.413 92.9079C115.395 93.2884 118.332 93.6688 121.269 94.2394C125.63 95.0954 129.991 96.0941 134.308 97.0927C134.708 97.1878 134.931 96.5221 134.486 96.427C132.038 95.7612 129.546 95.143 127.099 94.5248C122.827 93.4786 118.465 92.575 114.104 92.0044C113.481 91.9093 112.858 91.8617 112.191 91.7666L112.28 91.9093Z" fill="#AA99CD"/>
<path d="M108.008 80.0683L108.498 81.4473C108.587 81.3047 108.631 81.2096 108.72 81.0669C109.254 80.1634 111.613 76.9772 112.147 76.0737C112.369 75.6933 111.835 75.2653 111.568 75.5982C110.99 76.4541 108.498 79.2123 108.008 80.0683Z" fill="#AA99CD"/>
<path d="M182.68 84.015C184.371 84.8234 185.973 85.7269 187.575 86.7255C187.664 86.6304 187.753 86.5353 187.842 86.4402C188.02 86.3451 188.153 86.25 188.331 86.1548C186.596 85.0136 184.816 84.0625 182.902 83.3493C182.591 83.2541 182.324 83.8723 182.68 84.015Z" fill="#8E6B58"/>
<path d="M180.01 86.2972C181.612 87.1056 183.169 87.9616 184.682 88.865C184.816 88.6273 184.949 88.4371 185.261 88.3895C185.35 88.3895 185.439 88.342 185.483 88.342C183.792 87.2483 182.057 86.3448 180.232 85.6315C179.921 85.5364 179.654 86.1546 180.01 86.2972Z" fill="#8E6B58"/>
<path d="M176.806 87.8196C178.542 88.6756 180.233 89.5792 181.835 90.6254C181.879 90.5778 181.924 90.5303 181.968 90.4827C182.146 90.2925 182.324 90.1023 182.547 90.0547C180.811 88.9134 178.987 87.9623 177.073 87.2014C176.673 87.0587 176.45 87.6769 176.806 87.8196Z" fill="#8E6B58"/>
<path d="M171.866 83.6826C171.955 84.2057 172.356 85.3471 172.801 86.2981C172.756 85.6799 172.712 85.2519 172.712 85.0142C172.623 83.968 172.534 82.6364 172.801 81.5902C173.068 80.544 174.091 80.116 174.314 79.0698C174.492 78.0712 174.136 77.1676 173.691 76.3117C173.468 75.8837 172.89 76.2641 173.112 76.6921C173.602 77.7383 173.913 78.8321 173.023 79.7356C172.4 80.4014 172.133 80.4489 172 81.4C171.777 82.3987 171.866 82.684 171.866 83.6826Z" fill="#8E6B58"/>
<path d="M47.7546 191.772C48.1106 193.484 52.6497 193.769 57.1887 193.769C61.7723 193.769 65.2433 192.2 68.2694 190.678C71.2954 189.109 73.1199 190.869 76.8579 191.867C80.596 192.866 82.7765 190.25 82.643 188.681C82.5095 187.064 81.2635 179.884 81.2635 179.884C79.5725 179.028 74.0544 180.407 74.0544 180.407C74.0544 180.407 72.9864 177.649 71.2954 176.27C70.8059 175.889 69.1594 177.316 66.8008 179.361C65.8218 180.217 64.7538 181.168 63.5968 182.119C63.2408 182.404 62.9293 182.689 62.5733 182.975C61.4163 183.926 60.2148 184.877 58.9688 185.733C58.8353 185.828 58.7463 185.875 58.6128 185.971C58.3457 186.161 58.0342 186.351 57.7672 186.541C56.5212 187.35 55.2307 188.11 54.0292 188.729C50.6472 190.536 47.8436 191.629 47.7546 191.772Z" fill="#7F2CA2"/>
<path d="M184.327 166.426C184.683 165.998 185.706 166.093 186.196 166.093C187.575 166.046 188.732 167.187 189.133 168.566C189.667 170.516 189.177 172.608 188.198 174.273C187.709 175.129 187.041 175.937 186.329 176.65C185.662 177.316 184.816 177.744 184.193 178.505C183.214 179.694 182.992 181.358 182.591 182.88C181.879 185.591 180.411 188.063 178.408 189.918C176.406 191.725 174.136 192.581 171.733 193.532C169.241 194.483 166.571 195.72 163.857 195.197C162.833 195.006 161.32 194.436 161.409 193.057C161.454 192.296 161.943 191.535 162.477 191.059C162.477 191.059 168.307 189.68 172.312 185.21C178.631 178.03 184.282 166.426 184.327 166.426Z" fill="#B28159"/>
<path d="M162.433 191.011C166.616 192.818 169.82 190.63 172.534 189.204C174.982 187.92 177.385 185.542 178.453 182.832C179.387 180.501 179.565 177.791 181.078 175.889C181.835 174.985 182.814 174.319 183.57 173.416C184.95 171.847 186.418 167.995 184.327 166.425C183.125 165.522 175.783 163.572 175.783 163.572C174.136 164.381 173.291 169.421 173.291 169.421C173.291 169.421 170.843 171.466 168.796 171.942C168.841 172.607 168.93 173.226 169.063 173.796C169.33 175.27 169.686 176.602 169.998 177.743C170.042 177.838 170.042 177.933 170.042 177.981C170.398 179.36 170.576 180.359 170.22 180.929C170.131 181.072 170.087 181.167 169.998 181.262C169.953 181.31 169.864 181.548 169.642 181.88C169.553 182.071 169.419 182.261 169.286 182.499C168.796 183.259 168.129 184.306 167.239 185.542C165.993 187.206 164.346 189.204 162.433 191.011Z" fill="#7F2CA2"/>
<path d="M169.063 173.749C169.33 175.223 169.686 176.555 169.997 177.696C171.332 177.125 172.667 176.507 173.958 175.842C174.403 175.604 174.848 175.366 175.248 175.128C175.604 174.938 176.005 174.748 176.272 174.367C176.806 173.607 176.183 172.988 175.515 172.798C174.67 172.56 173.78 172.655 172.934 172.798C172 172.941 171.021 173.179 170.131 173.464C169.73 173.511 169.419 173.654 169.063 173.749Z" fill="#540891"/>
<path d="M169.642 181.833C170.754 181.833 171.822 181.833 172.935 181.786C173.424 181.738 173.914 181.738 174.403 181.643C174.804 181.596 175.249 181.596 175.605 181.358C176.406 180.882 176.005 180.074 175.471 179.598C174.804 179.028 173.958 178.742 173.113 178.505C172.178 178.267 171.244 178.029 170.265 177.934C170.22 177.934 170.131 177.934 170.087 177.934C170.443 179.313 170.621 180.312 170.265 180.882C170.176 181.025 170.131 181.12 170.042 181.215C169.998 181.31 169.864 181.501 169.642 181.833Z" fill="#540891"/>
<path d="M167.239 185.495C167.817 185.685 168.44 185.923 169.063 186.066C169.508 186.209 169.998 186.351 170.487 186.446C170.888 186.541 171.288 186.684 171.689 186.589C172.579 186.399 172.49 185.495 172.089 184.877C171.6 184.116 170.888 183.546 170.176 183.023C169.864 182.832 169.597 182.642 169.286 182.404C168.796 183.213 168.129 184.306 167.239 185.495Z" fill="#540891"/>
<path d="M54.0737 188.729C54.3407 188.872 54.6077 189.014 54.8302 189.157C55.5867 189.585 56.3433 189.965 57.1443 190.298C57.7228 190.584 58.3903 190.964 59.0578 191.012C59.5918 191.059 60.1703 190.774 60.2148 190.156C60.2593 189.49 59.7253 188.824 59.3693 188.301C58.9243 187.635 58.3903 187.065 57.8563 186.494C56.5658 187.35 55.2752 188.111 54.0737 188.729ZM59.0133 185.733C60.5708 186.637 62.1728 187.493 63.7303 188.396C64.3533 188.776 65.3769 189.442 66.1334 189.109C66.8899 188.776 66.5784 187.825 66.3114 187.255C65.5104 185.59 64.0863 184.259 62.7958 183.07C62.7513 183.022 62.7068 182.975 62.6623 182.975C61.4608 183.926 60.2593 184.877 59.0133 185.733ZM64.6203 182.69C66.4449 183.736 68.2694 184.83 70.1829 185.733C70.6279 185.923 71.0729 186.161 71.5179 186.351C71.8739 186.494 72.2744 186.732 72.6749 186.684C73.5649 186.637 73.6094 185.733 73.2979 185.02C72.9419 184.164 72.3189 183.498 71.6514 182.88C70.9394 182.214 70.1829 181.548 69.3819 180.978C68.5364 180.359 67.6909 179.836 66.8009 179.361C65.8219 180.217 64.7538 181.168 63.5968 182.119C63.9973 182.309 64.3088 182.499 64.6203 182.69Z" fill="#540891"/>
<path d="M114.906 137.513C114.906 137.513 115.885 138.227 117.754 139.178C119.267 137.181 120.913 135.231 122.738 133.519C124.874 131.522 127.188 129.762 129.546 128.098C131.816 126.481 134.13 124.912 136.31 123.2C138.758 121.25 141.472 119.443 142.985 116.542C143.074 116.352 143.252 116.114 143.208 115.924C142.941 114.688 140.894 117.113 140.671 117.351C139.47 118.587 132.928 123.009 131.015 124.293C128.745 125.815 126.52 127.432 124.384 129.096C121.091 131.759 117.932 134.518 114.906 137.513Z" fill="#361145"/>
<defs>
<linearGradient id="paint0_linear_245_1531" x1="42.946" y1="27.1418" x2="179.82" y2="155.227" gradientUnits="userSpaceOnUse">
<stop stop-color="#190175"/>
<stop offset="1" stop-color="#760DA1"/>
</linearGradient>
<linearGradient id="paint1_linear_245_1531" x1="56.4883" y1="185.178" x2="79.71" y2="206.908" gradientUnits="userSpaceOnUse">
<stop stop-color="#190175"/>
<stop offset="1" stop-color="#760DA1"/>
</linearGradient>
<linearGradient id="paint2_linear_245_1531" x1="170.619" y1="185.388" x2="188.838" y2="202.437" gradientUnits="userSpaceOnUse">
<stop stop-color="#190175"/>
<stop offset="1" stop-color="#760DA1"/>
</linearGradient>
<linearGradient id="paint3_linear_245_1531" x1="24.1918" y1="69.3051" x2="27.7073" y2="69.3051" gradientUnits="userSpaceOnUse">
<stop stop-color="#190175"/>
<stop offset="1" stop-color="#760DA1"/>
</linearGradient>
<linearGradient id="paint4_linear_245_1531" x1="20.5737" y1="73.514" x2="24.0892" y2="73.514" gradientUnits="userSpaceOnUse">
<stop stop-color="#190175"/>
<stop offset="1" stop-color="#760DA1"/>
</linearGradient>
<linearGradient id="paint5_linear_245_1531" x1="16.9542" y1="77.7231" x2="20.4696" y2="77.7231" gradientUnits="userSpaceOnUse">
<stop stop-color="#190175"/>
<stop offset="1" stop-color="#760DA1"/>
</linearGradient>
<linearGradient id="paint6_linear_245_1531" x1="13.3357" y1="81.932" x2="16.8511" y2="81.932" gradientUnits="userSpaceOnUse">
<stop stop-color="#190175"/>
<stop offset="1" stop-color="#760DA1"/>
</linearGradient>
<linearGradient id="paint7_linear_245_1531" x1="29.7323" y1="70.8442" x2="33.2477" y2="70.8442" gradientUnits="userSpaceOnUse">
<stop stop-color="#190175"/>
<stop offset="1" stop-color="#760DA1"/>
</linearGradient>
<linearGradient id="paint8_linear_245_1531" x1="26.1135" y1="75.0531" x2="29.6289" y2="75.0531" gradientUnits="userSpaceOnUse">
<stop stop-color="#190175"/>
<stop offset="1" stop-color="#760DA1"/>
</linearGradient>
<linearGradient id="paint9_linear_245_1531" x1="22.4942" y1="79.2621" x2="26.0096" y2="79.2621" gradientUnits="userSpaceOnUse">
<stop stop-color="#190175"/>
<stop offset="1" stop-color="#760DA1"/>
</linearGradient>
<linearGradient id="paint10_linear_245_1531" x1="18.8759" y1="83.4708" x2="22.3913" y2="83.4708" gradientUnits="userSpaceOnUse">
<stop stop-color="#190175"/>
<stop offset="1" stop-color="#760DA1"/>
</linearGradient>
<linearGradient id="paint11_linear_245_1531" x1="18.7281" y1="67.8011" x2="22.2435" y2="67.8011" gradientUnits="userSpaceOnUse">
<stop stop-color="#190175"/>
<stop offset="1" stop-color="#760DA1"/>
</linearGradient>
<linearGradient id="paint12_linear_245_1531" x1="15.1088" y1="72.0103" x2="18.6242" y2="72.0103" gradientUnits="userSpaceOnUse">
<stop stop-color="#190175"/>
<stop offset="1" stop-color="#760DA1"/>
</linearGradient>
<linearGradient id="paint13_linear_245_1531" x1="11.4898" y1="76.2197" x2="15.0052" y2="76.2197" gradientUnits="userSpaceOnUse">
<stop stop-color="#190175"/>
<stop offset="1" stop-color="#760DA1"/>
</linearGradient>
<linearGradient id="paint14_linear_245_1531" x1="31.6357" y1="76.6131" x2="35.1511" y2="76.6131" gradientUnits="userSpaceOnUse">
<stop stop-color="#190175"/>
<stop offset="1" stop-color="#760DA1"/>
</linearGradient>
<linearGradient id="paint15_linear_245_1531" x1="28.0167" y1="80.8222" x2="31.5321" y2="80.8222" gradientUnits="userSpaceOnUse">
<stop stop-color="#190175"/>
<stop offset="1" stop-color="#760DA1"/>
</linearGradient>
<linearGradient id="paint16_linear_245_1531" x1="24.3979" y1="85.0315" x2="27.9133" y2="85.0315" gradientUnits="userSpaceOnUse">
<stop stop-color="#190175"/>
<stop offset="1" stop-color="#760DA1"/>
</linearGradient>
<linearGradient id="paint17_linear_245_1531" x1="20.7791" y1="89.2406" x2="24.2945" y2="89.2406" gradientUnits="userSpaceOnUse">
<stop stop-color="#190175"/>
<stop offset="1" stop-color="#760DA1"/>
</linearGradient>
<linearGradient id="paint18_linear_245_1531" x1="33.4992" y1="82.3044" x2="37.0145" y2="82.3044" gradientUnits="userSpaceOnUse">
<stop stop-color="#190175"/>
<stop offset="1" stop-color="#760DA1"/>
</linearGradient>
<linearGradient id="paint19_linear_245_1531" x1="29.8803" y1="86.5137" x2="33.3957" y2="86.5137" gradientUnits="userSpaceOnUse">
<stop stop-color="#190175"/>
<stop offset="1" stop-color="#760DA1"/>
</linearGradient>
<linearGradient id="paint20_linear_245_1531" x1="26.2615" y1="90.7225" x2="29.7769" y2="90.7225" gradientUnits="userSpaceOnUse">
<stop stop-color="#190175"/>
<stop offset="1" stop-color="#760DA1"/>
</linearGradient>
<linearGradient id="paint21_linear_245_1531" x1="15.2389" y1="87.7009" x2="18.7543" y2="87.7009" gradientUnits="userSpaceOnUse">
<stop stop-color="#190175"/>
<stop offset="1" stop-color="#760DA1"/>
</linearGradient>
</defs>
</svg>
