<svg width="200" height="200" viewBox="0 0 200 200" fill="none" xmlns="http://www.w3.org/2000/svg">
<path d="M155.355 16.1561C171.063 26.9508 183.558 42.6437 183.241 61.4751C183.105 68.6082 178.94 74.7902 179.257 81.8757C179.755 93.5264 191.661 101.278 196.504 110.979C198.994 115.972 200.488 121.678 199.854 127.29C198.179 142.317 182.607 150.021 169.479 148.594C160.652 147.643 152.051 143.458 143.042 144.98C137.837 145.883 132.676 149.117 130.684 154.253C127.742 162.004 132.857 171.895 127.968 179.029C123.305 185.781 111.626 185.734 104.564 185.353C90.6669 184.592 77.0864 180.027 64.6376 173.465C50.7402 166.141 36.8429 157.962 25.7069 146.406C25.2994 145.979 24.8468 145.503 24.4394 145.075C12.4885 132.14 4.79289 115.306 3.66118 97.1405C2.89162 84.6814 4.88343 71.7943 10.6325 60.8093C17.3322 47.9222 27.7439 42.2157 39.559 35.5106C46.0776 31.8014 52.0983 27.3313 57.44 21.9101C61.3783 17.9631 65.4525 12.2567 70.6131 10.0692C75.4115 8.07191 80.0289 5.50399 84.9178 3.79205C96.3255 -0.250041 108.729 -1.0109 120.544 1.27169C131.499 3.31651 144.219 8.49989 155.355 16.1561Z" fill="url(#paint0_linear_245_2414)"/>
<path d="M65.0899 200C77.2154 200 87.0451 198.574 87.0451 196.814C87.0451 195.054 77.2154 193.628 65.0899 193.628C52.9644 193.628 43.1348 195.054 43.1348 196.814C43.1348 198.574 52.9644 200 65.0899 200Z" fill="url(#paint1_linear_245_2414)"/>
<path d="M161.512 194.531C161.512 195.577 169.253 196.48 178.804 196.48C188.356 196.48 196.097 195.624 196.097 194.531C196.097 193.485 188.356 192.581 178.804 192.581C169.253 192.581 161.512 193.437 161.512 194.531Z" fill="url(#paint2_linear_245_2414)"/>
<path d="M59.0695 17.202C60.4276 17.4874 62.4646 17.8678 64.7281 17.9629C64.8186 20.3406 65.1355 22.4805 65.4524 23.9071C65.5429 24.4302 66.2672 24.4302 66.403 23.9071C66.6746 22.4805 67.0367 20.3406 67.1273 17.9629C69.3907 17.8678 71.4278 17.5349 72.7858 17.202C73.2838 17.1069 73.2838 16.3461 72.7858 16.2034C71.4278 15.9181 69.3907 15.5376 67.1273 15.4425C67.0367 13.0648 66.7199 10.9249 66.403 9.49828C66.3125 8.97518 65.5882 8.97518 65.4524 9.49828C65.1807 10.9249 64.8186 13.0648 64.7281 15.4425C62.4646 15.5376 60.4276 15.8705 59.0695 16.2034C58.5263 16.2985 58.5263 17.0594 59.0695 17.202Z" fill="#C399ED"/>
<path d="M165.813 32.1337C167.171 32.419 169.208 32.7994 171.471 32.8945C171.562 35.2722 171.879 37.4122 172.196 38.8388C172.286 39.3619 173.01 39.3619 173.146 38.8388C173.418 37.4122 173.78 35.2722 173.87 32.8945C176.134 32.7994 178.171 32.4665 179.529 32.1337C180.027 32.0386 180.027 31.2777 179.529 31.135C178.171 30.8497 176.134 30.4693 173.87 30.3742C173.78 27.9965 173.463 25.8565 173.146 24.4299C173.056 23.9068 172.331 23.9068 172.196 24.4299C171.924 25.8565 171.562 27.9965 171.471 30.3742C169.208 30.4693 167.171 30.8022 165.813 31.135C165.269 31.2777 165.269 32.0386 165.813 32.1337Z" fill="#CEE6FE"/>
<path d="M33.9455 139.701C35.3036 139.986 37.3406 140.367 39.604 140.462C39.6946 142.84 40.0115 144.98 40.3283 146.406C40.4189 146.929 41.1432 146.929 41.279 146.406C41.5506 144.98 41.9127 142.84 42.0033 140.462C44.2667 140.367 46.3038 140.034 47.6618 139.701C48.1598 139.606 48.1598 138.845 47.6618 138.702C46.3038 138.417 44.2667 138.037 42.0033 137.942C41.9127 135.564 41.5959 133.424 41.279 131.997C41.1884 131.474 40.4641 131.474 40.3283 131.997C40.0567 133.424 39.6946 135.564 39.604 137.942C37.3406 138.037 35.3036 138.37 33.9455 138.702C33.4023 138.798 33.4023 139.558 33.9455 139.701Z" fill="#CEE6FE"/>
<path d="M166.627 122.535C167.985 122.82 170.022 123.2 172.286 123.295C172.376 125.673 172.693 127.813 173.01 129.24C173.101 129.763 173.825 129.763 173.961 129.24C174.232 127.813 174.594 125.673 174.685 123.295C176.948 123.2 178.985 122.867 180.343 122.535C180.841 122.439 180.841 121.679 180.343 121.536C178.985 121.251 176.948 120.87 174.685 120.775C174.594 118.397 174.277 116.257 173.961 114.831C173.87 114.308 173.146 114.308 173.01 114.831C172.738 116.257 172.376 118.397 172.286 120.775C170.022 120.87 167.985 121.203 166.627 121.536C166.084 121.679 166.084 122.439 166.627 122.535Z" fill="#CEE6FE"/>
<path d="M60.8808 48.3023C62.7058 48.3023 64.1853 46.748 64.1853 44.8308C64.1853 42.9136 62.7058 41.3594 60.8808 41.3594C59.0557 41.3594 57.5762 42.9136 57.5762 44.8308C57.5762 46.748 59.0557 48.3023 60.8808 48.3023Z" fill="#C399ED"/>
<path d="M64.9092 36.6516C64.9092 37.8405 65.8145 38.7916 66.9463 38.7916C68.078 38.7916 68.9833 37.8405 68.9833 36.6516C68.9833 35.4628 68.078 34.5117 66.9463 34.5117C65.8145 34.5117 64.9092 35.4628 64.9092 36.6516Z" fill="#C399ED"/>
<path d="M62.6458 137.499C63.9363 136.143 63.9363 133.945 62.6458 132.59C61.3553 131.234 59.2629 131.234 57.9724 132.59C56.6819 133.945 56.6819 136.143 57.9724 137.499C59.2629 138.855 61.3553 138.855 62.6458 137.499Z" fill="#CEE6FE"/>
<path d="M56.3085 126.861C56.3085 128.05 55.4032 129.001 54.2715 129.001C53.1397 129.001 52.2344 128.05 52.2344 126.861C52.2344 125.672 53.1397 124.721 54.2715 124.721C55.3579 124.721 56.3085 125.672 56.3085 126.861Z" fill="#CEE6FE"/>
<path d="M137.61 17.297C135.8 17.2495 134.261 18.7236 134.17 20.6733C134.125 22.5755 135.528 24.1923 137.384 24.2875C139.195 24.335 140.734 22.8608 140.824 20.9111C140.87 18.9614 139.421 17.3446 137.61 17.297Z" fill="#C399ED"/>
<path d="M145.079 25.2864C143.948 25.2388 142.997 26.1899 142.952 27.3788C142.907 28.5676 143.812 29.5662 144.944 29.6138C146.075 29.6613 147.026 28.7103 147.071 27.5214C147.117 26.3326 146.211 25.3339 145.079 25.2864Z" fill="#C399ED"/>
<path d="M42.4565 82.3037C42.5923 83.0646 44.5389 95.1433 46.8476 99.0427L44.7199 101.468C42.8187 98.4721 41.5512 94.1447 40.7363 90.5306C41.868 88.0102 42.4565 85.2045 42.4565 82.3037Z" fill="#5463A8"/>
<path d="M42.1849 104.416C38.2466 102.324 26.6579 101.278 25.9336 101.23C28.6497 100.992 31.2753 100.184 33.5839 98.7573C37.1149 99.2804 41.3248 100.279 44.3125 101.991L42.1849 104.416Z" fill="#5463A8"/>
<path d="M42.1846 104.416L46.8472 99.0425C46.8925 99.1376 46.9377 99.1851 46.983 99.2803C48.9295 102.324 55.086 108.411 57.4853 110.693C58.0285 111.216 58.0285 112.072 57.5758 112.643L55.9914 114.45C55.4935 115.021 54.6786 115.068 54.1354 114.545C51.7362 112.262 45.4439 106.318 42.4109 104.511C42.3204 104.511 42.2298 104.464 42.1846 104.416Z" fill="#214C6B"/>
<path d="M7.96197 94.4298C13.2131 99.4705 19.8223 101.753 25.8882 101.23C25.8882 101.23 25.8882 101.23 25.9335 101.23C30.4603 100.802 34.6703 98.8523 37.8391 95.2857C40.9626 91.7192 42.5017 87.1064 42.5017 82.351C42.5017 82.351 42.5017 82.351 42.5017 82.3035C42.5017 75.8837 39.7856 69.1786 34.5345 64.1379C25.2997 55.2928 11.9456 54.9124 4.65738 63.2819C-2.67609 71.6514 -1.18223 85.5847 7.96197 94.4298Z" fill="#5463A8"/>
<path d="M10.2704 91.8147C17.8302 99.1381 28.8757 99.4234 34.9417 92.4805C41.0076 85.5376 39.7854 74.0295 32.2256 66.7062C24.6657 59.3829 13.6203 59.0976 7.55432 66.0405C1.44309 72.9834 2.66533 84.4914 10.2704 91.8147Z" fill="url(#paint3_linear_245_2414)"/>
<path d="M21.7231 70.7002C22.4474 71.4135 23.5791 71.366 24.2582 70.6051C24.9372 69.8443 24.8919 68.6554 24.1676 67.9421C23.4433 67.2288 22.3116 67.2763 21.6326 68.0372C20.9536 68.7981 20.9988 69.9869 21.7231 70.7002Z" fill="url(#paint4_linear_245_2414)"/>
<path d="M18.0571 74.8853C18.7814 75.5986 19.9131 75.551 20.5921 74.7902C21.2712 74.0293 21.2259 72.8405 20.5016 72.1272C19.7773 71.4138 18.6456 71.4614 17.9666 72.2223C17.2876 73.0307 17.3328 74.172 18.0571 74.8853Z" fill="url(#paint5_linear_245_2414)"/>
<path d="M14.3901 79.1177C15.1144 79.831 16.2461 79.7835 16.9252 79.0226C17.6042 78.2617 17.5589 77.0729 16.8346 76.3596C16.1103 75.6463 14.9786 75.6938 14.2996 76.4547C13.6206 77.2156 13.6658 78.4044 14.3901 79.1177Z" fill="url(#paint6_linear_245_2414)"/>
<path d="M10.6782 83.3023C11.4025 84.0156 12.5342 83.968 13.2132 83.2072C13.8923 82.4463 13.847 81.2575 13.1227 80.5442C12.3984 79.8308 11.2667 79.8784 10.5877 80.6393C9.90865 81.4477 9.95392 82.6365 10.6782 83.3023Z" fill="url(#paint7_linear_245_2414)"/>
<path d="M28.6043 72.6975C29.5794 72.6975 30.3698 71.8672 30.3698 70.8429C30.3698 69.8186 29.5794 68.9883 28.6043 68.9883C27.6293 68.9883 26.8389 69.8186 26.8389 70.8429C26.8389 71.8672 27.6293 72.6975 28.6043 72.6975Z" fill="url(#paint8_linear_245_2414)"/>
<path d="M23.6704 76.4546C24.3947 77.1679 25.5264 77.1204 26.2054 76.3595C26.8845 75.5987 26.8392 74.4098 26.1149 73.6965C25.3906 72.9832 24.2589 73.0307 23.5799 73.7916C22.9008 74.5525 22.9461 75.7413 23.6704 76.4546Z" fill="url(#paint9_linear_245_2414)"/>
<path d="M20.0034 80.6397C20.7277 81.353 21.8594 81.3054 22.5384 80.5446C23.2175 79.7837 23.1722 78.5949 22.4479 77.8816C21.7236 77.1682 20.5919 77.2158 19.9129 77.9767C19.2338 78.7375 19.2791 79.9264 20.0034 80.6397Z" fill="url(#paint10_linear_245_2414)"/>
<path d="M16.3364 84.8716C17.0607 85.5849 18.1924 85.5374 18.8714 84.7765C19.5505 84.0156 19.5052 82.8268 18.7809 82.1135C18.0566 81.4002 16.9249 81.4477 16.2459 82.2086C15.5669 82.9695 15.6121 84.1583 16.3364 84.8716Z" fill="url(#paint11_linear_245_2414)"/>
<path d="M16.1558 69.1792C16.88 69.8925 18.0118 69.845 18.6908 69.0841C19.3698 68.3233 19.3245 67.1344 18.6002 66.4211C17.8759 65.7078 16.7442 65.7554 16.0652 66.5162C15.3862 67.2771 15.4315 68.4659 16.1558 69.1792Z" fill="url(#paint12_linear_245_2414)"/>
<path d="M12.4888 73.4112C13.2131 74.1245 14.3448 74.0769 15.0238 73.3161C15.7028 72.5552 15.6575 71.3663 14.9332 70.653C14.209 69.9397 13.0772 69.9873 12.3982 70.7481C11.7192 71.509 11.7645 72.6979 12.4888 73.4112Z" fill="url(#paint13_linear_245_2414)"/>
<path d="M8.82177 77.5957C9.54606 78.309 10.6778 78.2615 11.3568 77.5006C12.0358 76.7398 11.9906 75.5509 11.2663 74.8376C10.542 74.1243 9.41026 74.1719 8.73123 74.9327C8.05221 75.6936 8.09747 76.8824 8.82177 77.5957Z" fill="url(#paint14_linear_245_2414)"/>
<path d="M29.3286 77.9761C28.6043 77.2628 28.559 76.074 29.2381 75.3131C29.9171 74.5522 31.0488 74.5047 31.7731 75.218C32.4974 75.9313 32.5427 77.1201 31.8636 77.881C31.1846 78.6419 30.0529 78.6894 29.3286 77.9761Z" fill="url(#paint15_linear_245_2414)"/>
<path d="M25.6167 82.2085C24.8924 81.4952 24.8471 80.3064 25.5262 79.5455C26.2052 78.7846 27.3369 78.7371 28.0612 79.4504C28.7855 80.1637 28.8307 81.3526 28.1517 82.1134C27.4727 82.8743 26.341 82.9218 25.6167 82.2085Z" fill="url(#paint16_linear_245_2414)"/>
<path d="M21.9497 86.3936C21.2254 85.6803 21.1801 84.4914 21.8592 83.7306C22.5382 82.9697 23.6699 82.9222 24.3942 83.6355C25.1185 84.3488 25.1637 85.5376 24.4847 86.2985C23.8057 87.0593 22.674 87.1069 21.9497 86.3936Z" fill="url(#paint17_linear_245_2414)"/>
<path d="M18.2827 90.6255C17.5584 89.9122 17.5131 88.7234 18.1922 87.9625C18.8712 87.2016 20.0029 87.1541 20.7272 87.8674C21.4515 88.5807 21.4968 89.7696 20.8177 90.5304C20.1387 91.2913 19.007 91.3388 18.2827 90.6255Z" fill="url(#paint18_linear_245_2414)"/>
<path d="M31.185 83.6827C30.4608 82.9693 30.4155 81.7805 31.0945 81.0196C31.7735 80.2588 32.9052 80.2112 33.6295 80.9245C34.3538 81.6378 34.3991 82.8267 33.7201 83.5875C33.041 84.3484 31.9093 84.396 31.185 83.6827Z" fill="url(#paint19_linear_245_2414)"/>
<path d="M27.5181 87.9151C26.7938 87.2018 26.7485 86.0129 27.4275 85.2521C28.1065 84.4912 29.2383 84.4436 29.9625 85.1569C30.6868 85.8703 30.7321 87.0591 30.0531 87.82C29.3741 88.5333 28.2424 88.5808 27.5181 87.9151Z" fill="url(#paint20_linear_245_2414)"/>
<path d="M23.8511 92.0996C23.1268 91.3863 23.0815 90.1975 23.7605 89.4366C24.4396 88.6758 25.5713 88.6282 26.2956 89.3415C27.0198 90.0548 27.0651 91.2437 26.3861 92.0045C25.7071 92.7654 24.5754 92.813 23.8511 92.0996Z" fill="url(#paint21_linear_245_2414)"/>
<path d="M12.6245 89.1036C13.3488 89.8169 14.4805 89.7693 15.1595 89.0084C15.8386 88.2476 15.7933 87.0587 15.069 86.3454C14.3447 85.6321 13.213 85.6797 12.534 86.4405C11.8549 87.2014 11.9002 88.3902 12.6245 89.1036Z" fill="url(#paint22_linear_245_2414)"/>
<path d="M22.9454 49.2054C23.217 49.3956 23.4886 49.5858 23.8055 49.7285C24.0318 49.8711 24.2581 49.9662 24.5298 50.0138C26.9742 50.9173 29.6903 50.204 31.4558 48.3019C31.9085 47.8263 32.3159 47.2557 32.6328 46.6375C32.6781 46.5899 32.7233 46.4948 32.7233 46.3997C33.0855 45.5913 33.3118 44.7829 33.3571 43.9269C33.5382 41.2639 32.2706 38.6484 29.962 37.2693C29.8262 37.1742 29.6903 37.1267 29.5545 37.0791C29.1471 36.8889 28.7397 36.6987 28.287 36.6036C25.3899 35.8427 22.3116 37.2218 20.863 40.0275C20.8177 40.075 20.8177 40.1226 20.7725 40.2177C20.7272 40.2652 20.7272 40.3603 20.6819 40.4079C20.4103 40.9785 20.2745 41.5492 20.1387 42.1198C19.6408 44.8304 20.7272 47.6361 22.9454 49.2054Z" fill="#60938C"/>
<path d="M23.7597 46.3995C24.0313 46.5897 24.3029 46.7799 24.6198 46.9226C24.8461 47.0653 25.0725 47.1604 25.3441 47.2079C27.7886 48.1115 30.5047 47.3981 32.2701 45.496C32.6776 45.068 33.085 44.5449 33.3566 43.9743C33.5377 41.3112 32.2701 38.6958 29.9615 37.3167C29.8256 37.2216 29.6898 37.174 29.554 37.1265C29.1466 36.9363 28.7392 36.7461 28.2865 36.6509C25.3893 35.8901 22.3111 37.2691 20.8625 40.0748C20.6362 42.5001 21.7226 44.9729 23.7597 46.3995Z" fill="#7ABBB3"/>
<path d="M31.0485 32.3239C32.9498 32.5141 34.7605 33.4652 36.0281 34.9869C37.4766 36.6989 38.1557 38.9815 38.2009 41.2165C38.2009 41.5969 37.7935 41.8823 37.4766 41.8347C37.0692 41.7872 36.8882 41.4543 36.8882 41.0739C36.7976 37.5073 34.4889 34.0834 30.958 33.7505C30.0074 33.703 30.1432 32.2764 31.0485 32.3239Z" fill="#C399ED"/>
<path d="M35.6657 29.423C37.5669 29.5657 39.3777 30.5168 40.6904 31.991C42.1843 33.6553 42.9086 35.9379 42.9539 38.173C42.9539 38.5534 42.5464 38.8387 42.2296 38.8387C41.8222 38.7912 41.6411 38.4583 41.5958 38.0779C41.46 34.5113 39.0608 31.135 35.5299 30.8497C34.715 30.8021 34.8056 29.3755 35.6657 29.423Z" fill="#C399ED"/>
<path d="M15.159 40.0272C14.2536 41.7867 14.0726 43.9266 14.5705 45.8763C15.1137 48.1114 16.5623 49.9184 18.373 51.2024C18.6899 51.4401 19.1426 51.2024 19.2784 50.917C19.4595 50.5366 19.2784 50.1562 19.0068 49.966C16.2002 47.9687 14.7063 44.0217 16.4265 40.7405C16.7887 39.837 15.5664 39.2188 15.159 40.0272Z" fill="#C399ED"/>
<path d="M9.13817 42.2629C8.32334 44.0699 8.23281 46.2098 8.82129 48.112C9.50032 50.2995 10.9942 52.059 12.8502 53.2478C13.1671 53.438 13.6197 53.2003 13.7555 52.915C13.9366 52.5345 13.7103 52.1541 13.4387 51.9639C10.5415 50.1093 8.91183 46.2574 10.4057 42.8811C10.7678 42.0251 9.50032 41.4544 9.13817 42.2629Z" fill="#C399ED"/>
<path d="M80.663 188.967C80.663 188.967 84.1939 191.107 83.2432 194.008C82.2926 196.909 77.4942 197.717 74.5065 197.717C70.7945 197.717 68.6668 195.292 66.4034 195.72C64.14 196.195 62.7367 197.717 58.1646 198.193C53.502 198.668 46.4854 198.193 43.9956 195.625C41.5058 193.057 45.082 191.821 45.082 191.821L80.663 188.967Z" fill="#DBAD71"/>
<path d="M76.7249 137.181C77.7208 131.332 78.8978 126.339 81.7044 124.674C83.5604 123.533 89.5358 119.301 93.2478 116.638C95.0586 115.354 96.2808 114.45 96.2808 114.45C96.2808 114.45 114.614 133.424 113.256 133.71C112.894 133.805 111.219 134.375 108.911 135.136C102.437 137.324 91.1202 141.318 91.1202 141.318C96.5977 146.93 92.2972 155.917 88.223 162.385C88.042 162.718 87.8156 163.003 87.6346 163.336C82.3834 163.003 77.2681 161.148 72.6055 158.485C74.4615 149.307 76.2722 139.939 76.7249 137.181Z" fill="#DBAD71"/>
<path d="M68.6221 178.886C68.6221 178.886 76.363 182.975 78.0379 181.596C79.0791 180.74 81.2519 175.985 83.6964 170.944C84.1491 169.993 84.6471 168.995 85.145 168.044C85.9598 166.379 86.8199 164.81 87.68 163.383C82.4289 163.05 77.3136 161.196 72.651 158.533C72.2888 160.482 71.8814 162.432 71.5192 164.287C71.2929 165.428 71.0666 166.569 70.8402 167.663C69.5727 174.035 68.6221 178.886 68.6221 178.886Z" fill="#CEE6FE"/>
<path d="M70.8398 167.615C74.8235 169.517 79.305 170.706 83.696 170.897C84.1487 169.945 84.6467 168.947 85.1446 167.996C83.696 167.996 82.2475 167.853 80.7989 167.568C77.4943 166.95 74.4613 165.713 71.5189 164.191C71.2925 165.428 71.0662 166.569 70.8398 167.615Z" fill="#5463A8"/>
<path d="M93.248 116.638C93.3839 116.733 93.5649 116.828 93.7007 116.923C97.458 119.634 100.536 123.2 103.479 126.814C105.561 129.382 107.553 132.093 108.911 135.136C111.22 134.375 112.895 133.805 113.257 133.71C114.66 133.377 96.281 114.45 96.281 114.45C96.281 114.45 95.0135 115.354 93.248 116.638Z" fill="#AE8A58"/>
<path d="M152.821 167.663C154.451 168.091 156.171 168.567 157.846 169.042C158.887 169.327 159.928 169.613 160.97 169.898C167.352 171.61 172.739 173.132 172.739 173.132L177.538 164.62C174.55 163.336 170.702 161.006 166.13 158.39C165.315 157.915 164.501 157.439 163.64 156.963C162.101 156.107 160.472 155.251 158.797 154.396C158.661 159.436 156.262 164.144 152.821 167.663Z" fill="#CEE6FE"/>
<path d="M157.846 168.995C158.887 169.28 159.928 169.565 160.969 169.851C163.414 166.379 165.224 162.432 166.13 158.343C165.315 157.867 164.5 157.392 163.64 156.916C162.961 160.387 161.558 163.669 159.566 166.76C158.977 167.568 158.434 168.281 157.846 168.995Z" fill="#5463A8"/>
<path d="M140.055 142.792C140.055 142.792 140.191 143.981 140.417 145.503C140.734 147.5 141.142 150.02 141.458 150.734C141.458 150.734 143.314 147.31 153.59 151.875C155.401 152.683 157.121 153.492 158.751 154.348C158.615 159.388 156.261 164.144 152.776 167.663C148.837 166.617 145.216 165.666 142.771 165.047C134.623 163.003 129.824 163.811 127.516 161.576C126.248 160.34 123.94 153.444 122.129 147.405C120.635 142.459 119.458 138.132 119.458 138.132L140.055 142.792Z" fill="#DBAD71"/>
<path d="M119.458 138.132C119.458 138.132 120.635 142.459 122.129 147.405C128.014 145.455 134.306 144.789 140.417 145.503C140.191 144.029 140.055 142.792 140.055 142.792L119.458 138.132Z" fill="#AE8A58"/>
<path d="M93.7461 114.926C96.2811 116.875 106.24 122.629 113.393 137.514C113.393 137.514 114.388 138.227 116.29 139.178C120.364 141.223 128.739 144.362 140.735 143.696C140.735 143.696 140.146 131.046 140.735 128.383C141.323 125.72 150.92 115.116 148.068 103.941C145.216 92.7655 111.808 98.1391 111.808 98.1391C111.808 98.1391 94.3346 113.927 93.7461 114.926Z" fill="#5463A8"/>
<path d="M123.034 130.286C124.121 130 125.252 129.953 126.339 129.81C127.425 129.667 128.466 129.477 129.508 129.239C131.635 128.764 133.718 128.146 135.755 127.337C136.072 127.194 136.298 127.765 135.981 127.908C133.989 128.906 131.862 129.572 129.689 130.048C128.602 130.286 127.516 130.476 126.429 130.666C125.343 130.856 124.211 131.046 123.125 131.046C122.763 130.999 122.672 130.381 123.034 130.286Z" fill="#354472"/>
<path d="M119.911 133.424C120.997 133.282 122.129 133.424 123.215 133.424C124.302 133.424 125.388 133.377 126.429 133.329C128.602 133.186 130.775 132.854 132.903 132.33C133.219 132.235 133.355 132.806 133.038 132.949C130.911 133.614 128.738 133.995 126.52 134.137C125.433 134.233 124.302 134.28 123.17 134.28C122.083 134.28 120.906 134.375 119.82 134.137C119.548 134.042 119.503 133.472 119.911 133.424Z" fill="#354472"/>
<path d="M136.071 43.737L140.191 57.5277L144.491 57.1948L150.331 56.7193C153.002 60.6662 170.928 73.2205 170.928 73.2205C170.928 73.2205 167.985 76.6444 167.578 80.4487C167.533 80.9242 167.623 81.4473 167.804 81.9229C168.846 84.5383 168.348 86.0601 168.71 86.9636C170.294 87.9147 171.381 83.7299 171.381 83.7299C171.471 84.253 171.879 85.3943 172.331 86.3454C172.603 86.916 172.92 87.4391 173.191 87.7245C174.821 89.5315 177.22 90.9581 179.8 91.3386C180.434 91.4337 181.113 91.1483 181.566 90.6728C181.611 90.6253 181.656 90.5777 181.702 90.5302C181.883 90.3399 182.064 90.1497 182.29 90.1022C182.471 90.0071 182.652 90.0071 182.879 89.9595C183.467 89.9119 184.056 90.1022 184.327 89.4364C184.373 89.2462 184.463 89.1035 184.508 88.9609C184.644 88.7231 184.78 88.5329 185.097 88.4853C185.187 88.4853 185.278 88.4378 185.323 88.4378C185.866 88.3902 186.545 88.5329 186.862 88.0573C187.043 87.772 187.043 87.4391 187.179 87.1538C187.225 87.0112 187.315 86.916 187.406 86.8209C187.496 86.7258 187.587 86.6307 187.677 86.5356C187.858 86.4405 187.994 86.3454 188.175 86.2503C188.492 86.1076 188.854 86.0125 189.126 85.7272C189.443 85.3943 189.352 84.8712 189.035 84.5859C186.953 82.874 180.932 80.6865 180.932 80.6865C180.932 80.6865 181.34 78.8794 181.159 75.2653C181.023 71.6512 176.858 71.1281 176.858 71.1281C173.327 64.4706 158.841 47.0658 156.08 45.1636C154.133 43.8321 145.623 43.2139 140.87 42.9762C138.923 42.8811 137.61 42.8335 137.61 42.8335L136.071 43.737Z" fill="#DBAD71"/>
<path d="M136.071 43.7372L140.191 57.5279L144.491 57.195C143.631 55.4831 142.862 53.7236 142.273 51.8689C141.322 49.0157 140.824 45.9723 140.87 42.9288C138.923 42.8337 137.61 42.7861 137.61 42.7861L136.071 43.7372Z" fill="#AE8A58"/>
<path d="M108.141 45.2119C108.141 45.2119 128.194 68.7036 130.911 65.7553C131.137 65.4699 131.454 65.2322 131.771 65.0419C132.042 64.8517 132.359 64.6615 132.676 64.5188C132.857 64.4237 133.038 64.3286 133.265 64.2335C133.581 64.0909 133.898 63.9482 134.26 63.8531C134.487 63.758 134.713 63.7104 134.939 63.6153C135.302 63.4727 135.709 63.3776 136.116 63.2824C136.614 63.1398 137.112 63.0447 137.61 62.902C140.507 62.2838 143.088 62.046 143.088 62.046C143.043 55.6262 137.61 42.7867 137.61 42.7867C133.491 42.5013 125.026 42.6916 117.24 43.5951C111.943 44.2608 108.141 45.2119 108.141 45.2119Z" fill="white"/>
<path d="M135.03 63.2345C134.985 63.3771 134.94 63.4722 134.895 63.6149C135.257 63.4722 135.664 63.3771 136.026 63.282C136.886 60.5239 137.701 57.7182 138.29 54.865C138.38 54.437 137.837 54.2943 137.701 54.6748C136.705 57.4804 135.89 60.3812 135.03 63.2345Z" fill="#D8ADC8"/>
<path d="M132.677 53.2484C132.677 54.9128 132.903 56.5772 132.994 58.2892C133.084 59.906 133.175 61.5704 133.22 63.1872C133.22 63.5201 133.22 63.9005 133.265 64.2334C133.582 64.0908 133.899 63.9481 134.261 63.853C134.261 63.6152 134.261 63.3299 134.216 63.0921C134.171 61.4277 134.08 59.7158 133.944 58.0514C133.808 56.4346 133.718 54.7702 133.401 53.1533C133.265 52.7254 132.677 52.8205 132.677 53.2484Z" fill="#D8ADC8"/>
<path d="M128.466 53.0104C129.87 56.9098 131.001 60.9519 131.771 65.0415C132.043 64.8513 132.36 64.6611 132.676 64.5184C131.907 60.4764 130.685 56.5294 129.1 52.7251C128.919 52.3446 128.331 52.6299 128.466 53.0104Z" fill="#D8ADC8"/>
<path d="M81.2064 34.0839C81.8401 34.0839 82.8813 33.2755 83.6961 32.2769C84.3299 31.4685 84.8278 30.7552 84.8278 30.7552C84.8278 30.7552 85.3258 32.1818 86.2312 32.372C87.3176 32.6098 88.6756 28.1872 88.6756 28.1872C88.6756 28.1872 88.9925 30.2321 90.079 30.3747C92.0708 30.66 92.3876 28.0921 93.8815 27.4264C95.3754 26.7606 96.2355 27.9019 97.2314 29.8516C97.7293 30.8503 98.5894 32.0867 99.3137 33.0377C99.9022 33.8462 100.4 34.4644 100.491 34.5595C100.491 34.5595 102.256 30.8027 104.293 33.7035C105.787 35.8434 104.157 37.8883 103.162 38.7442C104.338 40.5513 105.425 42.1206 105.38 41.7401C105.289 40.9793 107.598 35.3679 108.096 29.3285C108.186 27.997 107.96 26.9033 107.553 25.9522C106.059 22.671 102.12 21.7199 102.12 21.7199C100.536 17.9156 95.1037 18.2009 91.3465 18.7715C87.5892 19.3422 85.4163 24.3829 81.5685 28.3299C77.7207 32.2293 79.4862 34.0839 81.2064 34.0839Z" fill="#2A2A2A"/>
<path d="M99.3135 32.9898C99.902 33.7983 100.4 34.4165 100.49 34.5116C100.49 34.5116 102.256 30.7548 104.293 33.6556C105.787 35.7955 104.157 37.8404 103.161 38.6963C104.338 40.5034 105.425 42.0727 105.379 41.6922C105.289 40.9314 107.598 35.32 108.096 29.2806C108.186 27.9491 107.96 26.8554 107.552 25.9043C107.462 25.9994 107.417 26.047 107.281 26.0945C106.828 26.3798 106.285 26.2847 105.742 26.2847C105.244 26.2847 104.61 26.4274 104.429 26.9029C104.338 27.0931 104.338 27.2834 104.338 27.4736C104.338 28.1869 104.429 28.9478 103.976 29.4708C103.523 29.9939 102.709 29.9464 101.984 29.8513C101.305 29.7562 100.445 29.8513 100.128 30.4695C99.7662 31.1828 100.219 32.3716 99.5398 32.7996C99.4945 32.9898 99.404 32.9898 99.3135 32.9898Z" fill="#151515"/>
<path d="M97.457 46.9711C97.457 47.304 97.6834 48.0648 98.0455 48.9684C98.2719 49.5866 98.5887 50.2523 98.9056 50.9656C99.811 52.9629 100.897 54.9126 101.35 55.1028C102.165 55.4357 108.186 46.4005 107.688 45.4969C107.19 44.5934 103.432 37.6981 103.297 37.603C103.251 37.5554 103.161 37.5554 103.116 37.5079C102.663 37.4127 102.029 37.9834 101.35 38.9345C99.5394 41.3122 97.5023 46.1627 97.457 46.9711Z" fill="#DBAD71"/>
<path d="M98.0459 48.921C98.2722 49.5392 98.5891 50.205 98.906 50.9183C102.301 47.4944 104.248 42.311 103.071 37.4605C102.618 37.3654 101.984 37.936 101.305 38.8871C101.26 39.5053 101.169 40.1235 101.124 40.7417C100.898 42.4061 100.49 44.0705 99.8566 45.5922C99.3587 46.7811 98.7702 47.8748 98.0459 48.921Z" fill="#AE8A58"/>
<path d="M83.8323 37.3652C84.6472 38.6967 85.6431 41.0744 85.5525 42.5961C85.462 44.1178 90.351 52.4398 92.207 52.9153C94.063 53.3433 102.573 48.0648 102.573 39.3149C102.573 39.3149 102.845 39.1247 103.162 38.8393C104.113 37.9358 105.787 35.9385 104.294 33.7986C102.257 30.8978 100.491 34.6546 100.491 34.6546C100.31 34.4644 98.1824 31.7538 97.2318 29.8992C96.2358 27.9495 95.3758 26.8082 93.8819 27.4739C92.388 28.1397 92.1164 30.7076 90.0794 30.4223C89.0382 30.2796 88.676 28.2348 88.676 28.2348C88.676 28.2348 87.318 32.6573 86.2315 32.4196C85.3715 32.2293 84.8282 30.8027 84.8282 30.8027C84.8282 30.8027 84.3303 31.5636 83.6965 32.3244C83.4249 34.2266 83.3344 36.5092 83.8323 37.3652Z" fill="#DBAD71"/>
<path d="M89.9433 38.0309C90.2601 39.3149 91.6182 40.0757 92.931 39.6953C94.289 39.3149 95.1038 37.9834 94.787 36.7469C94.4701 35.463 93.1573 34.7021 91.7993 35.0826C90.4412 35.4154 89.6264 36.7469 89.9433 38.0309Z" fill="#FFFDFD"/>
<path d="M89.9433 38.0309C90.2601 39.3148 91.6182 40.0757 92.931 39.6953C93.1573 38.9819 93.2026 38.126 92.9762 37.2224C92.7499 36.3189 92.3425 35.5581 91.7993 35.0825C90.4412 35.4154 89.6264 36.7469 89.9433 38.0309Z" fill="#2A2A2A"/>
<path d="M83.289 40.3136C83.6058 41.5976 84.9639 42.3584 86.2767 41.978C87.6347 41.5976 88.4495 40.2661 88.1327 39.0297C87.8158 37.7457 86.503 36.9848 85.145 37.3653C83.7869 37.6982 82.9721 39.0297 83.289 40.3136Z" fill="#FFFDFD"/>
<path d="M83.289 40.3131C83.6058 41.5971 84.9639 42.3579 86.2767 41.9775C86.503 41.2642 86.5483 40.4082 86.3219 39.5047C86.0956 38.6012 85.6882 37.8403 85.145 37.3647C83.7869 37.6976 82.9721 39.0291 83.289 40.3131Z" fill="#2A2A2A"/>
<path d="M88.6302 38.5066C88.9018 38.2212 89.3545 38.6017 89.1282 38.9346C88.9018 39.315 88.6755 39.6479 88.4944 40.0283C88.3586 40.3136 88.2228 40.7416 88.3586 41.0745C88.4944 41.4074 88.9018 41.5976 89.1735 41.7402C89.5356 41.9305 89.943 42.0256 90.3052 42.1682C90.6673 42.2633 90.5768 42.834 90.2146 42.834C89.6714 42.8815 89.1735 42.7389 88.7208 42.5011C88.2681 42.2633 87.7701 41.9305 87.5891 41.4074C87.2269 40.3612 87.9965 39.1723 88.6302 38.5066Z" fill="#AE8A58"/>
<path d="M90.351 32.6574C90.3963 32.5622 90.4416 32.4671 90.5321 32.4196L90.4868 32.4671C91.2564 31.3258 93.4745 31.5161 94.3799 32.3245C94.6063 32.5147 94.6968 32.8 94.6063 33.0853C94.5157 33.4182 94.2441 33.7035 93.882 33.656C93.384 33.6084 92.8408 33.656 92.3428 33.656C92.3881 33.656 92.4334 33.6084 92.5239 33.6084C91.9807 33.7986 89.6267 33.9413 90.351 32.6574Z" fill="#151515"/>
<path d="M86.1409 33.8939C86.0504 33.8463 85.9598 33.7988 85.8693 33.7512C85.9146 33.7512 85.9146 33.7988 85.9598 33.7988C84.8281 33.0855 82.8816 34.2743 82.3837 35.4156C82.2478 35.701 82.2931 35.9863 82.4742 36.224C82.7005 36.4618 83.0627 36.6045 83.3343 36.4143C83.787 36.1765 84.2397 35.9387 84.7376 35.7485C84.6923 35.7485 84.6471 35.7485 84.5565 35.7961C85.145 35.6534 87.3179 34.7974 86.1409 33.8939Z" fill="#151515"/>
<path d="M96.0093 41.4072C96.0093 41.4072 97.7294 45.6871 94.3343 47.3039C91.9804 48.3977 90.0791 45.592 90.0791 45.592C90.0791 45.592 94.4701 45.164 96.0093 41.4072Z" fill="#FFFDFD"/>
<path d="M101.486 35.6059C101.486 35.3681 101.486 35.1303 101.532 34.9401C101.622 34.6072 101.803 34.2743 101.984 33.989C102.03 33.8939 102.12 33.7512 102.211 33.7037C102.301 33.6086 102.437 33.561 102.528 33.561C102.98 33.6086 102.754 34.5597 102.663 34.845C102.618 35.0828 102.527 35.3205 102.437 35.5583C102.573 35.6534 102.663 35.701 102.799 35.7961C103.025 35.9863 103.388 36.2716 103.478 36.6045C103.614 37.08 103.252 37.4129 102.844 37.2702C102.392 37.1276 102.075 36.7471 101.848 36.3667C101.758 36.2241 101.667 36.0814 101.622 35.9387C101.532 35.8436 101.486 35.7485 101.486 35.6059Z" fill="#8E6B58"/>
<path d="M96.1906 25.1439C96.5528 24.5733 97.0507 24.0977 97.5487 23.7173C98.0466 23.3368 98.5899 23.004 99.1783 22.8613C99.631 22.7662 99.8121 23.432 99.3594 23.5746C98.8615 23.7173 98.3635 24.0502 97.9561 24.383C97.5034 24.7635 97.096 25.239 96.5981 25.6194C96.3717 25.8097 96.0096 25.4292 96.1906 25.1439Z" fill="#151515"/>
<path d="M90.8482 25.1435C92.1158 23.4791 93.6549 21.9574 95.6014 21.1965C95.7825 21.1014 96.0088 21.2916 96.0541 21.4343C96.0994 21.6245 95.9636 21.8147 95.8278 21.9098C94.0623 22.6707 92.7495 24.2875 91.3462 25.619C90.984 25.9043 90.5766 25.4764 90.8482 25.1435Z" fill="#151515"/>
<path d="M86.05 25.9523C86.729 24.7634 87.3627 23.6697 88.3134 22.671C88.7208 22.2431 89.1735 21.8151 89.6714 21.4822C90.1694 21.1018 90.6673 20.864 91.2558 20.6262C91.5727 20.4836 91.799 21.0542 91.4822 21.1969C89.3545 22.1955 87.906 24.3354 86.6384 26.2376C86.3668 26.618 85.8236 26.3327 86.05 25.9523Z" fill="#151515"/>
<path d="M41.1441 105.272C41.642 105.748 42.2758 106.033 42.9095 106.271C43.5433 106.556 44.177 106.889 44.5392 107.507C44.8108 107.983 44.9013 108.553 45.2182 108.981C45.6256 109.504 46.3952 109.647 46.9384 109.98C47.5269 110.313 47.9343 110.836 48.4775 111.264C49.0207 111.692 49.6092 112.215 50.243 112.12C53.9097 111.549 60.202 107.364 60.202 107.364C60.202 107.364 87.0462 96.6172 88.8116 94.6199C89.1738 94.1919 89.5359 93.7164 89.8981 93.1457C91.3014 91.0534 92.5236 88.2001 92.8405 86.4882C92.8405 86.4882 89.4001 82.779 85.5523 82.3034C84.9638 82.2559 83.9226 82.5412 82.6099 83.1594C76.0459 86.1078 62.058 95.8088 58.7987 98.1389C58.3008 98.4718 57.8028 98.7096 57.2143 98.8522C50.5599 100.469 46.7573 100.374 41.8231 102.561C41.4157 102.752 40.963 102.942 40.7366 103.322C40.3745 103.941 40.6461 104.749 41.1441 105.272Z" fill="#DBAD71"/>
<path d="M82.5645 83.1598C83.0624 83.4927 83.5604 83.8255 84.013 84.206C86.7744 86.441 88.7662 89.6747 89.8527 93.1461C91.256 91.0537 92.4782 88.2005 92.7951 86.4886C92.7951 86.4886 89.3547 82.7794 85.5069 82.3038C84.9184 82.2563 83.9225 82.5891 82.5645 83.1598Z" fill="#AE8A58"/>
<path d="M83.4698 81.1625C83.5151 82.5891 94.0626 90.2453 96.0091 90.7684C97.9104 91.2439 106.104 80.4967 106.421 80.1163L106.919 81.4954L110.721 91.8621L110.767 92.0048C110.902 92.3377 110.948 92.6706 110.902 93.0034C110.902 93.0985 110.902 93.1936 110.857 93.3363C110.54 94.7629 109.952 97.2833 109.816 98.805C110.993 99.4708 122.129 103.37 131.726 104.654C140.734 105.891 148.928 104.987 149.245 104.511C149.878 103.56 141.504 77.4533 134.125 65.0417C126.746 52.6301 114.071 45.5445 107.1 44.5459C103.071 49.2062 83.4245 79.7359 83.4698 81.1625Z" fill="white"/>
<path d="M110.766 91.9093C110.902 92.2421 110.947 92.575 110.902 92.9079C113.935 93.2883 116.923 93.6688 119.911 94.2394C124.347 95.0954 128.783 96.094 133.174 97.0926C133.582 97.1878 133.808 96.522 133.355 96.4269C130.865 95.7611 128.33 95.1429 125.841 94.5247C121.495 93.4785 117.059 92.575 112.622 92.0044C111.989 91.9093 111.355 91.8617 110.676 91.7666L110.766 91.9093Z" fill="#D8ADC8"/>
<path d="M106.421 80.0687L106.919 81.4478C107.009 81.3051 107.055 81.21 107.145 81.0674C107.688 80.1638 110.088 76.9777 110.631 76.0742C110.857 75.6938 110.314 75.2658 110.042 75.5986C109.454 76.4546 106.919 79.2128 106.421 80.0687Z" fill="#D8ADC8"/>
<path d="M182.381 84.0155C184.101 84.8239 185.731 85.7274 187.36 86.7261C187.451 86.631 187.541 86.5359 187.632 86.4407C187.813 86.3456 187.949 86.2505 188.13 86.1554C186.364 85.0141 184.554 84.063 182.607 83.3497C182.29 83.2546 182.019 83.8728 182.381 84.0155Z" fill="#8E6B58"/>
<path d="M179.665 86.2982C181.295 87.1066 182.879 87.9626 184.418 88.8661C184.554 88.6284 184.69 88.4381 185.007 88.3906C185.097 88.3906 185.188 88.343 185.233 88.343C183.513 87.2493 181.747 86.3458 179.891 85.6325C179.574 85.5373 179.303 86.1555 179.665 86.2982Z" fill="#8E6B58"/>
<path d="M176.406 87.8201C178.172 88.6761 179.892 89.5796 181.521 90.6258C181.567 90.5782 181.612 90.5307 181.657 90.4831C181.838 90.2929 182.019 90.1027 182.246 90.0551C180.48 88.9138 178.624 87.9627 176.678 87.2019C176.27 87.0592 176.044 87.6774 176.406 87.8201Z" fill="#8E6B58"/>
<path d="M171.381 83.6825C171.472 84.2056 171.879 85.3469 172.332 86.298C172.287 85.6798 172.241 85.2518 172.241 85.014C172.151 83.9678 172.06 82.6363 172.332 81.5901C172.603 80.544 173.645 80.116 173.871 79.0698C174.052 78.0711 173.69 77.1676 173.237 76.3117C173.011 75.8837 172.422 76.2641 172.649 76.6921C173.147 77.7383 173.464 78.832 172.558 79.7355C171.924 80.4013 171.653 80.4488 171.517 81.3999C171.291 82.3986 171.381 82.6839 171.381 83.6825Z" fill="#8E6B58"/>
<path d="M45.127 191.773C45.4891 193.485 50.1065 193.77 54.7238 193.77C59.3865 193.77 62.9174 192.201 65.9957 190.679C69.0739 189.11 70.9299 190.87 74.7324 191.868C78.535 192.867 80.7531 190.251 80.6173 188.682C80.4815 187.065 79.214 179.885 79.214 179.885C77.4938 179.029 71.8805 180.408 71.8805 180.408C71.8805 180.408 70.7941 177.65 69.0739 176.271C68.5759 175.89 66.901 177.317 64.5018 179.362C63.5059 180.217 62.4195 181.169 61.2425 182.12C60.8803 182.405 60.5635 182.69 60.2013 182.976C59.0243 183.927 57.8021 184.878 56.5346 185.734C56.3988 185.829 56.3082 185.876 56.1724 185.972C55.9008 186.162 55.5839 186.352 55.3123 186.542C54.0448 187.351 52.732 188.111 51.5098 188.73C48.0694 190.537 45.2175 191.63 45.127 191.773Z" fill="#5463A8"/>
<path d="M184.056 166.427C184.418 165.999 185.46 166.094 185.958 166.094C187.361 166.046 188.538 167.188 188.945 168.567C189.488 170.516 188.991 172.609 187.995 174.273C187.497 175.129 186.818 175.938 186.093 176.651C185.414 177.317 184.554 177.745 183.92 178.506C182.925 179.694 182.698 181.359 182.291 182.881C181.567 185.591 180.073 188.064 178.036 189.919C175.999 191.726 173.69 192.582 171.245 193.533C168.71 194.484 165.994 195.72 163.233 195.197C162.192 195.007 160.653 194.436 160.743 193.057C160.788 192.296 161.286 191.535 161.83 191.06C161.83 191.06 167.76 189.681 171.834 185.211C178.262 178.03 184.011 166.427 184.056 166.427Z" fill="#DBAD71"/>
<path d="M161.784 191.012C166.039 192.819 169.299 190.631 172.06 189.205C174.55 187.921 176.994 185.543 178.081 182.833C179.031 180.502 179.212 177.792 180.752 175.89C181.521 174.986 182.517 174.32 183.287 173.417C184.69 171.848 186.184 167.996 184.056 166.426C182.834 165.523 175.365 163.573 175.365 163.573C173.69 164.382 172.83 169.422 172.83 169.422C172.83 169.422 170.34 171.467 168.258 171.943C168.303 172.608 168.393 173.227 168.529 173.797C168.801 175.272 169.163 176.603 169.48 177.744C169.525 177.839 169.525 177.935 169.525 177.982C169.887 179.361 170.068 180.36 169.706 180.93C169.616 181.073 169.57 181.168 169.48 181.263C169.435 181.311 169.344 181.549 169.118 181.882C169.027 182.072 168.891 182.262 168.756 182.5C168.258 183.261 167.579 184.307 166.673 185.543C165.406 187.208 163.731 189.205 161.784 191.012Z" fill="#5463A8"/>
<path d="M168.529 173.75C168.801 175.224 169.163 176.555 169.48 177.697C170.838 177.126 172.196 176.508 173.509 175.842C173.961 175.604 174.414 175.367 174.822 175.129C175.184 174.939 175.591 174.748 175.863 174.368C176.406 173.607 175.772 172.989 175.093 172.799C174.233 172.561 173.328 172.656 172.468 172.799C171.517 172.941 170.521 173.179 169.616 173.464C169.208 173.512 168.891 173.655 168.529 173.75Z" fill="#354472"/>
<path d="M169.117 181.834C170.249 181.834 171.335 181.834 172.467 181.786C172.965 181.739 173.463 181.739 173.961 181.644C174.368 181.596 174.821 181.596 175.183 181.358C175.998 180.883 175.591 180.075 175.047 179.599C174.368 179.028 173.508 178.743 172.648 178.505C171.697 178.267 170.747 178.03 169.751 177.935C169.706 177.935 169.615 177.935 169.57 177.935C169.932 179.314 170.113 180.312 169.751 180.883C169.66 181.026 169.615 181.121 169.525 181.216C169.479 181.311 169.344 181.501 169.117 181.834Z" fill="#354472"/>
<path d="M166.673 185.496C167.261 185.686 167.895 185.924 168.529 186.066C168.982 186.209 169.479 186.352 169.977 186.447C170.385 186.542 170.792 186.685 171.2 186.59C172.105 186.399 172.015 185.496 171.607 184.878C171.109 184.117 170.385 183.546 169.661 183.023C169.344 182.833 169.072 182.643 168.755 182.405C168.257 183.213 167.578 184.307 166.673 185.496Z" fill="#354472"/>
<path d="M51.5557 188.729C51.8273 188.872 52.0989 189.015 52.3252 189.157C53.0948 189.585 53.8643 189.966 54.6792 190.299C55.2677 190.584 55.9467 190.965 56.6257 191.012C57.1689 191.06 57.7574 190.774 57.8027 190.156C57.848 189.49 57.3047 188.825 56.9426 188.301C56.4899 187.636 55.9467 187.065 55.4035 186.494C54.0907 187.35 52.7779 188.111 51.5557 188.729ZM56.5805 185.734C58.1648 186.637 59.7945 187.493 61.3789 188.397C62.0126 188.777 63.0538 189.443 63.8234 189.11C64.5929 188.777 64.2761 187.826 64.0045 187.255C63.1896 185.591 61.741 184.259 60.4283 183.071C60.383 183.023 60.3377 182.975 60.2925 182.975C59.0702 183.927 57.848 184.878 56.5805 185.734ZM62.2843 182.69C64.1403 183.736 65.9963 184.83 67.9428 185.734C68.3955 185.924 68.8482 186.162 69.3009 186.352C69.663 186.494 70.0704 186.732 70.4778 186.685C71.3832 186.637 71.4285 185.734 71.1116 185.02C70.7494 184.164 70.1157 183.499 69.4367 182.88C68.7124 182.215 67.9428 181.549 67.128 180.978C66.2679 180.36 65.4078 179.837 64.5024 179.361C63.5065 180.217 62.4201 181.168 61.2431 182.119C61.6505 182.31 61.9674 182.5 62.2843 182.69Z" fill="#354472"/>
<path d="M113.438 137.514C113.438 137.514 114.433 138.227 116.335 139.178C117.874 137.181 119.549 135.231 121.405 133.519C123.578 131.522 125.932 129.763 128.331 128.098C130.639 126.481 132.993 124.912 135.212 123.2C137.701 121.25 140.463 119.443 142.002 116.543C142.092 116.352 142.273 116.115 142.228 115.924C141.957 114.688 139.874 117.113 139.648 117.351C138.426 118.587 131.771 123.01 129.825 124.294C127.516 125.816 125.253 127.433 123.08 129.097C119.73 131.76 116.516 134.518 113.438 137.514Z" fill="#354472"/>
<defs>
<linearGradient id="paint0_linear_245_2414" x1="21.3335" y1="41.294" x2="196.209" y2="137.406" gradientUnits="userSpaceOnUse">
<stop stop-color="#A1E1ED"/>
<stop offset="1" stop-color="#C29AED"/>
</linearGradient>
<linearGradient id="paint1_linear_245_2414" x1="48.577" y1="186.8" x2="82.3924" y2="205.385" gradientUnits="userSpaceOnUse">
<stop stop-color="#A1E1ED"/>
<stop offset="1" stop-color="#C29AED"/>
</linearGradient>
<linearGradient id="paint2_linear_245_2414" x1="165.815" y1="186.64" x2="192.413" y2="201.258" gradientUnits="userSpaceOnUse">
<stop stop-color="#A1E1ED"/>
<stop offset="1" stop-color="#C29AED"/>
</linearGradient>
<linearGradient id="paint3_linear_245_2414" x1="35.4429" y1="70.6406" x2="6.29359" y2="86.6611" gradientUnits="userSpaceOnUse">
<stop stop-color="#C3DDFE"/>
<stop offset="1" stop-color="#C29AED"/>
</linearGradient>
<linearGradient id="paint4_linear_245_2414" x1="21.1578" y1="69.3046" x2="24.7339" y2="69.3046" gradientUnits="userSpaceOnUse">
<stop stop-color="#C3DDFE"/>
<stop offset="1" stop-color="#CEE6FE"/>
</linearGradient>
<linearGradient id="paint5_linear_245_2414" x1="17.4772" y1="73.514" x2="21.0533" y2="73.514" gradientUnits="userSpaceOnUse">
<stop stop-color="#C3DDFE"/>
<stop offset="1" stop-color="#CEE6FE"/>
</linearGradient>
<linearGradient id="paint6_linear_245_2414" x1="13.7957" y1="77.7231" x2="17.3717" y2="77.7231" gradientUnits="userSpaceOnUse">
<stop stop-color="#C3DDFE"/>
<stop offset="1" stop-color="#CEE6FE"/>
</linearGradient>
<linearGradient id="paint7_linear_245_2414" x1="10.1144" y1="81.932" x2="13.6905" y2="81.932" gradientUnits="userSpaceOnUse">
<stop stop-color="#C3DDFE"/>
<stop offset="1" stop-color="#CEE6FE"/>
</linearGradient>
<linearGradient id="paint8_linear_245_2414" x1="26.7941" y1="70.8437" x2="30.3701" y2="70.8437" gradientUnits="userSpaceOnUse">
<stop stop-color="#C3DDFE"/>
<stop offset="1" stop-color="#CEE6FE"/>
</linearGradient>
<linearGradient id="paint9_linear_245_2414" x1="23.1131" y1="75.0532" x2="26.6891" y2="75.0532" gradientUnits="userSpaceOnUse">
<stop stop-color="#C3DDFE"/>
<stop offset="1" stop-color="#CEE6FE"/>
</linearGradient>
<linearGradient id="paint10_linear_245_2414" x1="19.4315" y1="79.2625" x2="23.0076" y2="79.2625" gradientUnits="userSpaceOnUse">
<stop stop-color="#C3DDFE"/>
<stop offset="1" stop-color="#CEE6FE"/>
</linearGradient>
<linearGradient id="paint11_linear_245_2414" x1="15.7499" y1="83.4712" x2="19.326" y2="83.4712" gradientUnits="userSpaceOnUse">
<stop stop-color="#C3DDFE"/>
<stop offset="1" stop-color="#CEE6FE"/>
</linearGradient>
<linearGradient id="paint12_linear_245_2414" x1="15.5998" y1="67.8021" x2="19.1758" y2="67.8021" gradientUnits="userSpaceOnUse">
<stop stop-color="#C3DDFE"/>
<stop offset="1" stop-color="#CEE6FE"/>
</linearGradient>
<linearGradient id="paint13_linear_245_2414" x1="11.9182" y1="72.0108" x2="15.4943" y2="72.0108" gradientUnits="userSpaceOnUse">
<stop stop-color="#C3DDFE"/>
<stop offset="1" stop-color="#CEE6FE"/>
</linearGradient>
<linearGradient id="paint14_linear_245_2414" x1="8.23663" y1="76.2196" x2="11.8127" y2="76.2196" gradientUnits="userSpaceOnUse">
<stop stop-color="#C3DDFE"/>
<stop offset="1" stop-color="#CEE6FE"/>
</linearGradient>
<linearGradient id="paint15_linear_245_2414" x1="28.7302" y1="76.613" x2="32.3063" y2="76.613" gradientUnits="userSpaceOnUse">
<stop stop-color="#C3DDFE"/>
<stop offset="1" stop-color="#CEE6FE"/>
</linearGradient>
<linearGradient id="paint16_linear_245_2414" x1="25.049" y1="80.8221" x2="28.6251" y2="80.8221" gradientUnits="userSpaceOnUse">
<stop stop-color="#C3DDFE"/>
<stop offset="1" stop-color="#CEE6FE"/>
</linearGradient>
<linearGradient id="paint17_linear_245_2414" x1="21.3675" y1="85.0315" x2="24.9435" y2="85.0315" gradientUnits="userSpaceOnUse">
<stop stop-color="#C3DDFE"/>
<stop offset="1" stop-color="#CEE6FE"/>
</linearGradient>
<linearGradient id="paint18_linear_245_2414" x1="17.6859" y1="89.2402" x2="21.2619" y2="89.2402" gradientUnits="userSpaceOnUse">
<stop stop-color="#C3DDFE"/>
<stop offset="1" stop-color="#CEE6FE"/>
</linearGradient>
<linearGradient id="paint19_linear_245_2414" x1="30.6263" y1="82.3044" x2="34.2024" y2="82.3044" gradientUnits="userSpaceOnUse">
<stop stop-color="#C3DDFE"/>
<stop offset="1" stop-color="#CEE6FE"/>
</linearGradient>
<linearGradient id="paint20_linear_245_2414" x1="26.9448" y1="86.5136" x2="30.5208" y2="86.5136" gradientUnits="userSpaceOnUse">
<stop stop-color="#C3DDFE"/>
<stop offset="1" stop-color="#CEE6FE"/>
</linearGradient>
<linearGradient id="paint21_linear_245_2414" x1="23.2632" y1="90.7225" x2="26.8393" y2="90.7225" gradientUnits="userSpaceOnUse">
<stop stop-color="#C3DDFE"/>
<stop offset="1" stop-color="#CEE6FE"/>
</linearGradient>
<linearGradient id="paint22_linear_245_2414" x1="12.0504" y1="87.7009" x2="15.6265" y2="87.7009" gradientUnits="userSpaceOnUse">
<stop stop-color="#C3DDFE"/>
<stop offset="1" stop-color="#CEE6FE"/>
</linearGradient>
</defs>
</svg>
