<svg width="32" height="32" viewBox="0 0 32 32" fill="none" xmlns="http://www.w3.org/2000/svg">
<rect width="32" height="32" rx="8" fill="#AE4EDB"/>
<path d="M19.9204 5.74382C19.9204 5.74382 13.5915 9.50069 10.1152 12.3142C9.14245 12.2021 8.1485 12.2406 7.12943 12.4122C12.4298 7.88126 19.9204 5.74382 19.9204 5.74382Z" fill="white"/>
<path d="M27.791 4.08645C27.791 4.08645 18.9315 9.99107 14.7988 13.9528C14.0771 13.4934 13.2974 13.1015 12.4714 12.8292C19.0168 7.09222 27.791 4.08645 27.791 4.08645Z" fill="white"/>
<path d="M25.9882 7.62221C25.9882 7.62221 20.1241 13.2262 17.6416 16.6574C17.2962 16.169 16.9026 15.7096 16.4607 15.2792C20.4989 10.6458 25.9882 7.62221 25.9882 7.62221Z" fill="white"/>
<path d="M7.26517 23.1307C6.04655 21.9213 4.50877 21.2302 3 21.115C3.14507 22.67 3.81241 24.1962 5.00202 25.3768C6.19162 26.5575 7.72941 27.2198 9.2962 27.3638C9.18014 25.8664 8.51281 24.3402 7.26517 23.1307Z" fill="white"/>
<path d="M11.8785 18.5521C10.4858 17.1699 9.70241 15.3845 9.55733 13.6567C7.90349 13.7431 6.27867 14.4054 5.00202 15.6437C3.75438 16.8819 3.05803 18.5233 3 20.1647C4.74089 20.2799 6.5398 21.0574 7.93251 22.4684C9.32522 23.8506 10.1086 25.6359 10.2537 27.3637C11.9075 27.2773 13.5324 26.615 14.809 25.3768C16.0566 24.1385 16.753 22.4972 16.811 20.8558C15.0411 20.7406 13.2712 19.9631 11.8785 18.5521Z" fill="white"/>
<path d="M12.5174 17.9186C11.2987 16.7091 10.6024 15.1829 10.4863 13.6855C12.0531 13.8295 13.5909 14.4918 14.7805 15.6725C15.9701 16.8531 16.6375 18.3793 16.7825 19.9343C15.2738 19.7903 13.736 19.128 12.5174 17.9186Z" fill="white"/>
</svg>
